G04 EAGLE Gerber RS-274X export*
G75*
%MOMM*%
%FSLAX34Y34*%
%LPD*%
%INBottom Copper*%
%IPPOS*%
%AMOC8*
5,1,8,0,0,1.08239X$1,22.5*%
G01*
%ADD10C,1.000000*%

G36*
X173237Y16D02*
X173237Y16D01*
X173276Y15D01*
X173334Y36D01*
X173395Y48D01*
X173426Y70D01*
X173462Y83D01*
X173508Y126D01*
X173559Y161D01*
X173579Y193D01*
X173607Y219D01*
X173632Y276D01*
X173666Y328D01*
X173672Y366D01*
X173688Y401D01*
X173689Y463D01*
X173699Y524D01*
X173690Y562D01*
X173691Y600D01*
X173663Y674D01*
X173653Y718D01*
X173642Y733D01*
X173633Y756D01*
X157783Y28432D01*
X157776Y28440D01*
X157773Y28450D01*
X157711Y28515D01*
X157652Y28582D01*
X157643Y28586D01*
X157635Y28594D01*
X157553Y28629D01*
X157473Y28668D01*
X157462Y28668D01*
X157453Y28673D01*
X157363Y28673D01*
X157274Y28677D01*
X157264Y28674D01*
X157254Y28674D01*
X157098Y28615D01*
X156353Y28180D01*
X147350Y43773D01*
X147335Y43778D01*
X147335Y43777D01*
X147334Y43778D01*
X146571Y43336D01*
X146243Y43293D01*
X146241Y43291D01*
X146239Y43292D01*
X144788Y42591D01*
X144787Y42589D01*
X144786Y42589D01*
X144277Y42167D01*
X143256Y41851D01*
X143255Y41850D01*
X143254Y41850D01*
X142292Y41386D01*
X141632Y41348D01*
X141631Y41346D01*
X141629Y41347D01*
X139775Y40773D01*
X139774Y40771D01*
X139773Y40772D01*
X139207Y40430D01*
X138150Y40270D01*
X138149Y40269D01*
X138148Y40269D01*
X137128Y39953D01*
X136469Y40014D01*
X136468Y40013D01*
X136467Y40014D01*
X134548Y39723D01*
X134546Y39721D01*
X134545Y39722D01*
X133935Y39469D01*
X132866Y39467D01*
X132865Y39467D01*
X132864Y39467D01*
X131807Y39307D01*
X131166Y39465D01*
X131164Y39464D01*
X131163Y39466D01*
X129222Y39463D01*
X129221Y39463D01*
X129220Y39463D01*
X129219Y39463D01*
X128578Y39303D01*
X127521Y39462D01*
X127520Y39461D01*
X127519Y39462D01*
X126450Y39460D01*
X125839Y39713D01*
X125837Y39712D01*
X125836Y39714D01*
X123917Y40001D01*
X123916Y40000D01*
X123915Y40000D01*
X123914Y40001D01*
X123256Y39938D01*
X122234Y40252D01*
X122233Y40252D01*
X122233Y40253D01*
X121176Y40411D01*
X120609Y40751D01*
X120607Y40751D01*
X120606Y40753D01*
X118751Y41323D01*
X118750Y41322D01*
X118748Y41323D01*
X118089Y41360D01*
X117125Y41822D01*
X117124Y41822D01*
X117123Y41823D01*
X116102Y42137D01*
X115592Y42558D01*
X115590Y42558D01*
X115590Y42560D01*
X113840Y43400D01*
X113838Y43399D01*
X113838Y43401D01*
X113190Y43535D01*
X112307Y44136D01*
X112306Y44136D01*
X112305Y44137D01*
X111342Y44600D01*
X110901Y45092D01*
X110899Y45092D01*
X110899Y45094D01*
X109294Y46186D01*
X109292Y46185D01*
X109291Y46187D01*
X108671Y46416D01*
X107887Y47142D01*
X107886Y47142D01*
X107886Y47143D01*
X107002Y47744D01*
X106639Y48297D01*
X106637Y48298D01*
X106638Y48299D01*
X105213Y49618D01*
X105211Y49618D01*
X105211Y49619D01*
X104632Y49939D01*
X103965Y50774D01*
X103964Y50774D01*
X103964Y50775D01*
X103179Y51501D01*
X102903Y52101D01*
X102902Y52102D01*
X102902Y52104D01*
X101690Y53620D01*
X101688Y53620D01*
X101688Y53622D01*
X101163Y54024D01*
X100628Y54949D01*
X100627Y54949D01*
X100627Y54950D01*
X99959Y55785D01*
X99776Y56420D01*
X99774Y56421D01*
X99775Y56423D01*
X98802Y58103D01*
X98801Y58103D01*
X98801Y58105D01*
X98342Y58580D01*
X97950Y59575D01*
X97949Y59575D01*
X97949Y59576D01*
X97414Y60502D01*
X97327Y61157D01*
X97326Y61158D01*
X97326Y61159D01*
X96615Y62965D01*
X96614Y62966D01*
X96614Y62968D01*
X96231Y63506D01*
X95992Y64548D01*
X95991Y64549D01*
X95991Y64550D01*
X95600Y65544D01*
X95611Y66205D01*
X95610Y66207D01*
X95611Y66208D01*
X95177Y68100D01*
X95176Y68101D01*
X95176Y68102D01*
X94878Y68692D01*
X94797Y69758D01*
X94796Y69759D01*
X94796Y69760D01*
X94558Y70801D01*
X94668Y71453D01*
X94667Y71453D01*
X94668Y71454D01*
X94667Y71455D01*
X94668Y71456D01*
X94521Y73391D01*
X94519Y73393D01*
X94520Y73394D01*
X94313Y74022D01*
X94391Y75088D01*
X94391Y75089D01*
X94391Y75090D01*
X94310Y76155D01*
X94516Y76783D01*
X94516Y76785D01*
X94517Y76786D01*
X94660Y78722D01*
X94659Y78723D01*
X94659Y78724D01*
X94660Y78725D01*
X94548Y79376D01*
X94785Y80418D01*
X94785Y80419D01*
X94785Y80420D01*
X94864Y81486D01*
X95161Y82076D01*
X95161Y82078D01*
X95162Y82079D01*
X95592Y83972D01*
X95591Y83973D01*
X95592Y83974D01*
X95579Y84635D01*
X95969Y85631D01*
X95968Y85632D01*
X95969Y85632D01*
X96206Y86675D01*
X96588Y87214D01*
X96588Y87216D01*
X96589Y87217D01*
X97296Y89024D01*
X97296Y89025D01*
X97297Y89026D01*
X97296Y89026D01*
X97297Y89027D01*
X97298Y89038D01*
X97308Y89109D01*
X97309Y89121D01*
X97319Y89193D01*
X97320Y89205D01*
X97330Y89276D01*
X97331Y89288D01*
X97341Y89360D01*
X97342Y89372D01*
X97351Y89443D01*
X97351Y89444D01*
X97353Y89455D01*
X97362Y89527D01*
X97364Y89539D01*
X97373Y89611D01*
X97375Y89623D01*
X97383Y89682D01*
X97916Y90608D01*
X97916Y90610D01*
X97917Y90610D01*
X98306Y91605D01*
X98764Y92082D01*
X98764Y92084D01*
X98766Y92084D01*
X99735Y93766D01*
X99734Y93768D01*
X99736Y93769D01*
X99918Y94404D01*
X100583Y95240D01*
X100583Y95241D01*
X100584Y95242D01*
X101118Y96168D01*
X101642Y96571D01*
X101642Y96573D01*
X101644Y96573D01*
X102852Y98092D01*
X102852Y98094D01*
X102854Y98094D01*
X103129Y98695D01*
X103912Y99423D01*
X103912Y99424D01*
X103913Y99424D01*
X104578Y100260D01*
X105156Y100581D01*
X105157Y100583D01*
X105159Y100583D01*
X106580Y101904D01*
X106580Y101906D01*
X106582Y101906D01*
X106943Y102460D01*
X107826Y103063D01*
X107826Y103064D01*
X107827Y103064D01*
X108610Y103792D01*
X109229Y104022D01*
X109230Y104024D01*
X109232Y104024D01*
X110562Y104933D01*
X110563Y104935D01*
X110565Y104935D01*
X110766Y105198D01*
X111596Y105679D01*
X111600Y105690D01*
X111600Y105691D01*
X111601Y105694D01*
X111600Y105694D01*
X111601Y105695D01*
X95686Y133260D01*
X96314Y133557D01*
X96336Y133574D01*
X96363Y133584D01*
X96415Y133633D01*
X96473Y133676D01*
X96487Y133701D01*
X96508Y133720D01*
X96537Y133786D01*
X96573Y133848D01*
X96576Y133876D01*
X96588Y133902D01*
X96589Y133974D01*
X96598Y134045D01*
X96590Y134072D01*
X96591Y134101D01*
X96555Y134196D01*
X96544Y134236D01*
X96537Y134245D01*
X96533Y134257D01*
X87033Y150757D01*
X86981Y150816D01*
X86935Y150878D01*
X86916Y150889D01*
X86901Y150906D01*
X86831Y150940D01*
X86764Y150980D01*
X86740Y150984D01*
X86722Y150992D01*
X86677Y150994D01*
X86600Y151007D01*
X67600Y151007D01*
X67572Y151002D01*
X67544Y151004D01*
X67476Y150982D01*
X67405Y150968D01*
X67382Y150952D01*
X67355Y150943D01*
X67300Y150896D01*
X67241Y150855D01*
X67226Y150831D01*
X67205Y150813D01*
X67173Y150748D01*
X67134Y150688D01*
X67129Y150660D01*
X67117Y150634D01*
X67108Y150533D01*
X67101Y150491D01*
X67103Y150481D01*
X67102Y150468D01*
X67159Y149753D01*
X35806Y149753D01*
X35794Y149743D01*
X35794Y149742D01*
X35794Y149741D01*
X35797Y149086D01*
X35671Y148779D01*
X35672Y148777D01*
X35670Y148776D01*
X35671Y148776D01*
X35670Y148776D01*
X35557Y147161D01*
X35558Y147159D01*
X35557Y147158D01*
X35671Y146507D01*
X35438Y145464D01*
X35439Y145463D01*
X35438Y145462D01*
X35363Y144396D01*
X35068Y143805D01*
X35068Y143803D01*
X35067Y143802D01*
X34642Y141900D01*
X34643Y141899D01*
X34643Y141898D01*
X34642Y141897D01*
X34657Y141237D01*
X34271Y140240D01*
X34272Y140239D01*
X34271Y140238D01*
X34038Y139195D01*
X33658Y138654D01*
X33658Y138652D01*
X33657Y138652D01*
X32953Y136835D01*
X32954Y136833D01*
X32953Y136832D01*
X32950Y136815D01*
X32950Y136814D01*
X32947Y136791D01*
X32944Y136767D01*
X32941Y136743D01*
X32940Y136731D01*
X32937Y136707D01*
X32934Y136683D01*
X32931Y136659D01*
X32928Y136635D01*
X32925Y136612D01*
X32922Y136588D01*
X32920Y136576D01*
X32917Y136552D01*
X32914Y136528D01*
X32911Y136504D01*
X32908Y136480D01*
X32905Y136456D01*
X32900Y136421D01*
X32897Y136397D01*
X32894Y136373D01*
X32891Y136349D01*
X32888Y136325D01*
X32885Y136301D01*
X32881Y136265D01*
X32878Y136242D01*
X32878Y136241D01*
X32875Y136218D01*
X32872Y136194D01*
X32869Y136176D01*
X32339Y135248D01*
X32340Y135247D01*
X32339Y135246D01*
X31953Y134250D01*
X31496Y133772D01*
X31496Y133770D01*
X31495Y133769D01*
X30528Y132077D01*
X30529Y132076D01*
X30528Y132075D01*
X30527Y132075D01*
X30347Y131439D01*
X29685Y130600D01*
X29685Y130599D01*
X29684Y130599D01*
X29154Y129670D01*
X28631Y129266D01*
X28631Y129264D01*
X28629Y129264D01*
X27422Y127735D01*
X27422Y127733D01*
X27420Y127732D01*
X27147Y127130D01*
X26367Y126399D01*
X26367Y126398D01*
X26366Y126398D01*
X25704Y125559D01*
X25127Y125237D01*
X25126Y125235D01*
X25124Y125235D01*
X23702Y123903D01*
X23702Y123901D01*
X23700Y123901D01*
X23341Y123347D01*
X22461Y122740D01*
X22460Y122739D01*
X22459Y122739D01*
X21679Y122009D01*
X21061Y121776D01*
X21060Y121774D01*
X21058Y121774D01*
X19453Y120669D01*
X19453Y120667D01*
X19451Y120667D01*
X19013Y120173D01*
X18052Y119704D01*
X18052Y119703D01*
X18051Y119703D01*
X17170Y119097D01*
X16524Y118959D01*
X16523Y118958D01*
X16521Y118958D01*
X14770Y118105D01*
X14769Y118103D01*
X14767Y118103D01*
X14261Y117679D01*
X13241Y117359D01*
X13240Y117358D01*
X13239Y117359D01*
X12278Y116890D01*
X11618Y116850D01*
X11617Y116849D01*
X11616Y116850D01*
X9757Y116267D01*
X9756Y116265D01*
X9754Y116265D01*
X9189Y115922D01*
X8133Y115757D01*
X8132Y115757D01*
X7112Y115437D01*
X6453Y115496D01*
X6452Y115495D01*
X6450Y115496D01*
X4525Y115196D01*
X4524Y115195D01*
X4522Y115196D01*
X3913Y114940D01*
X2844Y114935D01*
X2843Y114934D01*
X2842Y114935D01*
X1786Y114770D01*
X1144Y114927D01*
X1142Y114926D01*
X1141Y114927D01*
X-399Y114920D01*
X-405Y114920D01*
X-807Y114918D01*
X-809Y114916D01*
X-810Y114917D01*
X-1451Y114755D01*
X-2508Y114910D01*
X-2509Y114909D01*
X-2510Y114910D01*
X-2956Y114908D01*
X-2963Y114908D01*
X-3579Y114905D01*
X-4191Y115155D01*
X-4193Y115154D01*
X-4194Y115156D01*
X-6122Y115437D01*
X-6123Y115436D01*
X-6124Y115437D01*
X-6782Y115372D01*
X-7805Y115683D01*
X-7806Y115682D01*
X-7807Y115683D01*
X-8864Y115837D01*
X-9432Y116176D01*
X-9434Y116175D01*
X-9435Y116177D01*
X-11299Y116743D01*
X-11301Y116742D01*
X-11302Y116743D01*
X-11962Y116777D01*
X-12927Y117236D01*
X-12928Y117236D01*
X-12929Y117237D01*
X-13952Y117547D01*
X-14463Y117966D01*
X-14465Y117966D01*
X-14465Y117968D01*
X-16224Y118805D01*
X-16226Y118805D01*
X-16227Y118806D01*
X-16875Y118938D01*
X-17761Y119536D01*
X-17762Y119536D01*
X-17762Y119537D01*
X-18727Y119996D01*
X-19170Y120487D01*
X-19172Y120487D01*
X-19172Y120489D01*
X-20787Y121579D01*
X-20789Y121579D01*
X-20790Y121580D01*
X-21410Y121807D01*
X-22197Y122530D01*
X-22199Y122530D01*
X-22199Y122531D01*
X-23085Y123129D01*
X-23449Y123681D01*
X-23451Y123681D01*
X-23451Y123683D01*
X-24886Y125001D01*
X-24888Y125001D01*
X-24888Y125003D01*
X-25468Y125320D01*
X-26138Y126153D01*
X-26140Y126153D01*
X-26139Y126154D01*
X-26926Y126877D01*
X-27205Y127477D01*
X-27206Y127477D01*
X-27206Y127479D01*
X-28428Y128997D01*
X-28430Y128997D01*
X-28430Y128999D01*
X-28956Y129399D01*
X-29495Y130322D01*
X-29496Y130322D01*
X-29496Y130323D01*
X-30166Y131156D01*
X-30352Y131790D01*
X-30354Y131791D01*
X-30354Y131793D01*
X-31336Y133475D01*
X-31338Y133476D01*
X-31337Y133478D01*
X-31798Y133952D01*
X-32193Y134945D01*
X-32194Y134945D01*
X-32194Y134946D01*
X-32733Y135869D01*
X-32822Y136524D01*
X-32824Y136526D01*
X-32823Y136527D01*
X-33543Y138337D01*
X-33545Y138338D01*
X-33545Y138340D01*
X-33929Y138877D01*
X-34172Y139918D01*
X-34173Y139919D01*
X-34173Y139920D01*
X-34568Y140913D01*
X-34559Y141574D01*
X-34559Y141575D01*
X-34560Y141575D01*
X-34559Y141577D01*
X-35001Y143474D01*
X-35003Y143475D01*
X-35002Y143477D01*
X-35303Y144065D01*
X-35388Y145131D01*
X-35389Y145132D01*
X-35388Y145133D01*
X-35631Y146174D01*
X-35621Y146230D01*
X-35619Y146242D01*
X-35594Y146397D01*
X-35592Y146409D01*
X-35590Y146421D01*
X-35564Y146576D01*
X-35562Y146588D01*
X-35560Y146600D01*
X-35535Y146755D01*
X-35533Y146767D01*
X-35531Y146779D01*
X-35523Y146826D01*
X-35524Y146827D01*
X-35523Y146827D01*
X-35524Y146828D01*
X-35523Y146828D01*
X-35652Y148442D01*
X-35653Y148444D01*
X-35652Y148446D01*
X-35781Y148751D01*
X-35785Y149741D01*
X-35796Y149753D01*
X-35797Y149753D01*
X-67159Y149753D01*
X-67102Y150468D01*
X-67106Y150497D01*
X-67101Y150525D01*
X-67118Y150594D01*
X-67126Y150666D01*
X-67141Y150690D01*
X-67147Y150718D01*
X-67190Y150776D01*
X-67226Y150838D01*
X-67248Y150855D01*
X-67265Y150878D01*
X-67327Y150915D01*
X-67384Y150958D01*
X-67412Y150965D01*
X-67436Y150980D01*
X-67536Y150996D01*
X-67577Y151007D01*
X-67587Y151005D01*
X-67600Y151007D01*
X-86600Y151007D01*
X-86676Y150992D01*
X-86754Y150983D01*
X-86773Y150972D01*
X-86795Y150968D01*
X-86859Y150924D01*
X-86927Y150885D01*
X-86943Y150866D01*
X-86959Y150855D01*
X-86983Y150817D01*
X-87033Y150757D01*
X-96533Y134257D01*
X-96542Y134230D01*
X-96558Y134206D01*
X-96573Y134136D01*
X-96596Y134068D01*
X-96593Y134040D01*
X-96599Y134012D01*
X-96586Y133942D01*
X-96580Y133870D01*
X-96567Y133845D01*
X-96561Y133817D01*
X-96521Y133757D01*
X-96488Y133694D01*
X-96466Y133676D01*
X-96450Y133652D01*
X-96367Y133594D01*
X-96335Y133567D01*
X-96324Y133564D01*
X-96314Y133557D01*
X-95686Y133260D01*
X-111773Y105396D01*
X-111770Y105381D01*
X-111769Y105381D01*
X-111769Y105380D01*
X-111036Y104958D01*
X-110834Y104695D01*
X-110831Y104695D01*
X-110831Y104693D01*
X-109485Y103778D01*
X-109483Y103778D01*
X-109482Y103776D01*
X-108862Y103547D01*
X-108078Y102821D01*
X-108077Y102821D01*
X-108077Y102820D01*
X-107193Y102219D01*
X-106830Y101667D01*
X-106828Y101666D01*
X-106828Y101664D01*
X-105392Y100335D01*
X-105390Y100335D01*
X-105389Y100333D01*
X-104810Y100014D01*
X-104143Y99179D01*
X-104142Y99179D01*
X-104142Y99178D01*
X-103357Y98452D01*
X-103081Y97852D01*
X-103079Y97851D01*
X-103080Y97849D01*
X-101857Y96320D01*
X-101855Y96320D01*
X-101855Y96318D01*
X-101330Y95917D01*
X-100795Y94992D01*
X-100794Y94992D01*
X-100794Y94991D01*
X-100126Y94156D01*
X-99943Y93521D01*
X-99941Y93520D01*
X-99941Y93518D01*
X-98961Y91824D01*
X-98959Y91824D01*
X-98959Y91822D01*
X-98500Y91347D01*
X-98108Y90352D01*
X-98107Y90352D01*
X-98107Y90350D01*
X-97572Y89426D01*
X-97485Y88770D01*
X-97483Y88769D01*
X-97484Y88768D01*
X-96766Y86947D01*
X-96765Y86946D01*
X-96765Y86944D01*
X-96382Y86405D01*
X-96143Y85364D01*
X-96142Y85363D01*
X-96142Y85362D01*
X-95751Y84368D01*
X-95762Y83707D01*
X-95761Y83705D01*
X-95762Y83704D01*
X-95324Y81796D01*
X-95322Y81795D01*
X-95323Y81793D01*
X-95024Y81204D01*
X-94943Y80138D01*
X-94942Y80137D01*
X-94943Y80136D01*
X-94704Y79095D01*
X-94813Y78443D01*
X-94812Y78441D01*
X-94814Y78440D01*
X-94665Y76488D01*
X-94663Y76487D01*
X-94664Y76486D01*
X-94457Y75858D01*
X-94535Y74792D01*
X-94535Y74791D01*
X-94454Y73725D01*
X-94660Y73097D01*
X-94659Y73095D01*
X-94661Y73094D01*
X-94804Y71142D01*
X-94803Y71140D01*
X-94804Y71139D01*
X-94693Y70487D01*
X-94929Y69445D01*
X-94929Y69444D01*
X-94930Y69443D01*
X-95008Y68378D01*
X-95305Y67787D01*
X-95305Y67785D01*
X-95306Y67784D01*
X-95739Y65876D01*
X-95738Y65874D01*
X-95740Y65873D01*
X-95726Y65212D01*
X-96116Y64217D01*
X-96115Y64215D01*
X-96116Y64215D01*
X-96353Y63172D01*
X-96734Y62633D01*
X-96734Y62631D01*
X-96736Y62630D01*
X-97449Y60807D01*
X-97448Y60806D01*
X-97449Y60805D01*
X-97455Y60761D01*
X-97457Y60749D01*
X-97463Y60701D01*
X-97464Y60689D01*
X-97472Y60629D01*
X-97480Y60570D01*
X-97481Y60558D01*
X-97488Y60510D01*
X-97489Y60498D01*
X-97495Y60450D01*
X-97497Y60438D01*
X-97503Y60391D01*
X-97505Y60379D01*
X-97511Y60331D01*
X-97513Y60319D01*
X-97519Y60271D01*
X-97520Y60259D01*
X-97528Y60200D01*
X-97535Y60149D01*
X-98068Y59223D01*
X-98068Y59222D01*
X-98069Y59222D01*
X-98458Y58226D01*
X-98916Y57749D01*
X-98916Y57748D01*
X-98918Y57747D01*
X-99894Y56051D01*
X-99894Y56049D01*
X-99895Y56048D01*
X-100077Y55413D01*
X-100743Y54577D01*
X-100743Y54575D01*
X-100744Y54575D01*
X-101277Y53649D01*
X-101801Y53246D01*
X-101801Y53244D01*
X-101803Y53244D01*
X-103021Y51712D01*
X-103021Y51710D01*
X-103023Y51709D01*
X-103298Y51108D01*
X-104080Y50380D01*
X-104080Y50379D01*
X-104081Y50379D01*
X-104747Y49543D01*
X-105325Y49222D01*
X-105325Y49220D01*
X-105327Y49220D01*
X-106760Y47887D01*
X-106760Y47885D01*
X-106762Y47885D01*
X-107123Y47332D01*
X-108006Y46729D01*
X-108006Y46727D01*
X-108007Y46727D01*
X-108790Y45999D01*
X-109409Y45769D01*
X-109410Y45767D01*
X-109412Y45767D01*
X-111027Y44663D01*
X-111028Y44661D01*
X-111030Y44661D01*
X-111469Y44167D01*
X-112432Y43703D01*
X-112432Y43701D01*
X-112433Y43702D01*
X-113316Y43098D01*
X-113962Y42963D01*
X-113964Y42961D01*
X-113965Y42962D01*
X-115728Y42110D01*
X-115728Y42108D01*
X-115730Y42109D01*
X-116238Y41686D01*
X-117259Y41370D01*
X-117260Y41369D01*
X-117261Y41369D01*
X-118223Y40904D01*
X-118883Y40867D01*
X-118885Y40865D01*
X-118886Y40866D01*
X-120756Y40287D01*
X-120757Y40285D01*
X-120758Y40286D01*
X-121324Y39944D01*
X-122381Y39783D01*
X-122381Y39782D01*
X-122382Y39783D01*
X-123403Y39466D01*
X-124061Y39527D01*
X-124063Y39526D01*
X-124064Y39527D01*
X-125999Y39233D01*
X-126001Y39232D01*
X-126002Y39232D01*
X-126612Y38979D01*
X-127681Y38977D01*
X-127682Y38976D01*
X-127683Y38977D01*
X-128740Y38816D01*
X-129381Y38975D01*
X-129383Y38974D01*
X-129384Y38975D01*
X-130821Y38973D01*
X-130846Y38973D01*
X-131341Y38973D01*
X-131343Y38971D01*
X-131344Y38972D01*
X-131986Y38812D01*
X-133043Y38970D01*
X-133044Y38970D01*
X-133045Y38970D01*
X-134113Y38969D01*
X-134724Y39221D01*
X-134726Y39221D01*
X-134727Y39222D01*
X-136663Y39511D01*
X-136664Y39510D01*
X-136665Y39510D01*
X-136666Y39511D01*
X-137324Y39449D01*
X-138345Y39763D01*
X-138347Y39762D01*
X-138347Y39763D01*
X-139404Y39921D01*
X-139971Y40261D01*
X-139973Y40261D01*
X-139973Y40263D01*
X-141844Y40837D01*
X-141846Y40836D01*
X-141847Y40838D01*
X-142507Y40874D01*
X-143471Y41336D01*
X-143472Y41336D01*
X-143472Y41337D01*
X-144494Y41651D01*
X-145004Y42072D01*
X-145005Y42072D01*
X-145006Y42073D01*
X-146473Y42778D01*
X-146476Y42777D01*
X-146477Y42779D01*
X-146805Y42822D01*
X-147616Y43288D01*
X-147632Y43285D01*
X-147632Y43284D01*
X-147633Y43284D01*
X-156350Y28185D01*
X-157101Y28617D01*
X-157109Y28620D01*
X-157116Y28625D01*
X-157204Y28651D01*
X-157290Y28680D01*
X-157299Y28679D01*
X-157307Y28681D01*
X-157397Y28671D01*
X-157488Y28664D01*
X-157496Y28660D01*
X-157505Y28659D01*
X-157584Y28614D01*
X-157664Y28572D01*
X-157670Y28565D01*
X-157678Y28561D01*
X-157783Y28432D01*
X-173633Y756D01*
X-173645Y720D01*
X-173666Y687D01*
X-173676Y626D01*
X-173696Y567D01*
X-173693Y529D01*
X-173699Y491D01*
X-173685Y431D01*
X-173680Y369D01*
X-173662Y335D01*
X-173653Y298D01*
X-173616Y248D01*
X-173587Y193D01*
X-173558Y169D01*
X-173535Y138D01*
X-173482Y106D01*
X-173434Y67D01*
X-173397Y56D01*
X-173364Y36D01*
X-173286Y23D01*
X-173243Y11D01*
X-173224Y13D01*
X-173200Y9D01*
X-138808Y19D01*
X-138767Y27D01*
X-138726Y26D01*
X-138671Y47D01*
X-138613Y58D01*
X-138579Y82D01*
X-138540Y97D01*
X-138498Y138D01*
X-138449Y171D01*
X-138427Y206D01*
X-138397Y235D01*
X-138374Y289D01*
X-138342Y339D01*
X-138335Y379D01*
X-138319Y418D01*
X-138316Y491D01*
X-138309Y535D01*
X-138314Y556D01*
X-138313Y584D01*
X-138403Y1263D01*
X-80829Y1263D01*
X-80817Y1273D01*
X-80818Y1274D01*
X-80817Y1275D01*
X-80817Y8789D01*
X-77038Y25957D01*
X-69657Y41911D01*
X-59019Y55905D01*
X-45621Y67286D01*
X-30090Y75520D01*
X-13152Y80222D01*
X4401Y81174D01*
X21748Y78330D01*
X38078Y71824D01*
X52628Y61959D01*
X64717Y49197D01*
X73780Y34134D01*
X79393Y17476D01*
X81155Y1273D01*
X81167Y1263D01*
X138653Y1263D01*
X138567Y581D01*
X138570Y541D01*
X138563Y502D01*
X138577Y443D01*
X138582Y382D01*
X138600Y347D01*
X138609Y308D01*
X138645Y260D01*
X138673Y206D01*
X138703Y180D01*
X138727Y148D01*
X138779Y117D01*
X138825Y78D01*
X138864Y67D01*
X138898Y47D01*
X138973Y34D01*
X139016Y21D01*
X139036Y23D01*
X139062Y19D01*
X173200Y9D01*
X173237Y16D01*
G37*
G36*
X-128339Y47106D02*
X-128339Y47106D01*
X-128308Y47112D01*
X-128265Y47112D01*
X-124243Y47723D01*
X-124213Y47734D01*
X-124170Y47740D01*
X-120284Y48944D01*
X-120256Y48959D01*
X-120214Y48971D01*
X-116551Y50741D01*
X-116526Y50760D01*
X-116487Y50778D01*
X-113128Y53074D01*
X-113106Y53097D01*
X-113070Y53121D01*
X-110091Y55892D01*
X-110073Y55918D01*
X-110041Y55946D01*
X-107508Y59130D01*
X-107494Y59159D01*
X-107466Y59192D01*
X-105436Y62718D01*
X-105426Y62748D01*
X-105404Y62785D01*
X-105360Y62897D01*
X-104579Y64894D01*
X-104384Y65393D01*
X-104384Y65394D01*
X-103923Y66574D01*
X-103917Y66605D01*
X-103901Y66645D01*
X-103000Y70613D01*
X-103000Y70644D01*
X-102989Y70686D01*
X-102691Y74744D01*
X-102695Y74775D01*
X-102691Y74818D01*
X-103000Y78875D01*
X-103009Y78905D01*
X-103011Y78949D01*
X-103921Y82914D01*
X-103934Y82943D01*
X-103943Y82985D01*
X-105434Y86770D01*
X-105452Y86797D01*
X-105467Y86837D01*
X-107505Y90358D01*
X-107527Y90382D01*
X-107548Y90420D01*
X-110088Y93597D01*
X-110113Y93617D01*
X-110139Y93652D01*
X-113125Y96415D01*
X-113152Y96432D01*
X-113183Y96461D01*
X-116547Y98749D01*
X-116572Y98759D01*
X-116593Y98777D01*
X-116663Y98797D01*
X-116731Y98826D01*
X-116758Y98826D01*
X-116784Y98833D01*
X-116857Y98825D01*
X-116930Y98825D01*
X-116955Y98814D01*
X-116982Y98811D01*
X-117045Y98775D01*
X-117112Y98746D01*
X-117131Y98727D01*
X-117155Y98713D01*
X-117222Y98632D01*
X-117250Y98603D01*
X-117253Y98594D01*
X-117261Y98585D01*
X-144421Y51405D01*
X-144429Y51379D01*
X-144445Y51357D01*
X-144460Y51286D01*
X-144484Y51216D01*
X-144481Y51189D01*
X-144487Y51163D01*
X-144474Y51091D01*
X-144468Y51018D01*
X-144455Y50994D01*
X-144450Y50967D01*
X-144410Y50907D01*
X-144376Y50842D01*
X-144355Y50825D01*
X-144340Y50802D01*
X-144254Y50741D01*
X-144223Y50715D01*
X-144214Y50713D01*
X-144204Y50706D01*
X-140536Y48945D01*
X-140506Y48938D01*
X-140467Y48918D01*
X-136578Y47724D01*
X-136546Y47721D01*
X-136505Y47707D01*
X-132482Y47106D01*
X-132450Y47108D01*
X-132407Y47101D01*
X-128339Y47106D01*
G37*
G36*
X2159Y123061D02*
X2159Y123061D01*
X2190Y123068D01*
X2233Y123067D01*
X6244Y123691D01*
X6274Y123702D01*
X6317Y123708D01*
X10190Y124923D01*
X10218Y124938D01*
X10260Y124950D01*
X13909Y126728D01*
X13934Y126748D01*
X13973Y126766D01*
X17316Y129068D01*
X17339Y129091D01*
X17375Y129115D01*
X20337Y131890D01*
X20356Y131916D01*
X20388Y131945D01*
X22904Y135131D01*
X22918Y135159D01*
X22946Y135193D01*
X24959Y138718D01*
X24969Y138748D01*
X24991Y138785D01*
X25012Y138839D01*
X25205Y139338D01*
X26456Y142571D01*
X26462Y142602D01*
X26478Y142642D01*
X27363Y146604D01*
X27363Y146636D01*
X27374Y146678D01*
X27658Y150727D01*
X27655Y150754D01*
X27659Y150781D01*
X27642Y150852D01*
X27632Y150924D01*
X27618Y150948D01*
X27612Y150974D01*
X27569Y151033D01*
X27531Y151096D01*
X27510Y151112D01*
X27493Y151134D01*
X27431Y151171D01*
X27372Y151214D01*
X27345Y151221D01*
X27322Y151234D01*
X27218Y151251D01*
X27179Y151261D01*
X27169Y151259D01*
X27158Y151261D01*
X-27162Y151007D01*
X-27189Y151002D01*
X-27216Y151004D01*
X-27285Y150982D01*
X-27357Y150967D01*
X-27379Y150951D01*
X-27405Y150943D01*
X-27460Y150895D01*
X-27520Y150853D01*
X-27535Y150830D01*
X-27556Y150813D01*
X-27588Y150747D01*
X-27627Y150685D01*
X-27631Y150659D01*
X-27643Y150634D01*
X-27652Y150529D01*
X-27659Y150489D01*
X-27658Y150486D01*
X-27658Y150484D01*
X-27657Y150478D01*
X-27658Y150468D01*
X-27335Y146422D01*
X-27327Y146391D01*
X-27324Y146348D01*
X-26402Y142395D01*
X-26389Y142366D01*
X-26380Y142324D01*
X-24879Y138552D01*
X-24862Y138525D01*
X-24846Y138485D01*
X-22800Y134979D01*
X-22779Y134955D01*
X-22758Y134917D01*
X-20212Y131755D01*
X-20188Y131735D01*
X-20161Y131701D01*
X-17173Y128954D01*
X-17145Y128937D01*
X-17114Y128907D01*
X-13749Y126636D01*
X-13720Y126624D01*
X-13685Y126599D01*
X-10019Y124855D01*
X-9988Y124848D01*
X-9949Y124828D01*
X-6065Y123650D01*
X-6033Y123647D01*
X-5992Y123634D01*
X-1975Y123047D01*
X-1943Y123049D01*
X-1901Y123042D01*
X2159Y123061D01*
G37*
G36*
X132209Y47596D02*
X132209Y47596D01*
X132241Y47603D01*
X132284Y47602D01*
X136290Y48210D01*
X136320Y48221D01*
X136363Y48227D01*
X140233Y49425D01*
X140261Y49440D01*
X140302Y49453D01*
X143951Y51214D01*
X143973Y51231D01*
X143998Y51240D01*
X144051Y51291D01*
X144109Y51335D01*
X144123Y51358D01*
X144143Y51377D01*
X144172Y51444D01*
X144208Y51507D01*
X144211Y51535D01*
X144222Y51559D01*
X144223Y51632D01*
X144232Y51705D01*
X144224Y51731D01*
X144224Y51758D01*
X144188Y51857D01*
X144176Y51896D01*
X144170Y51903D01*
X144166Y51914D01*
X117006Y98840D01*
X116988Y98860D01*
X116977Y98885D01*
X116923Y98934D01*
X116874Y98989D01*
X116850Y99001D01*
X116830Y99019D01*
X116761Y99043D01*
X116695Y99074D01*
X116668Y99076D01*
X116642Y99085D01*
X116569Y99080D01*
X116496Y99083D01*
X116471Y99074D01*
X116443Y99072D01*
X116348Y99028D01*
X116310Y99014D01*
X116303Y99007D01*
X116292Y99002D01*
X112947Y96716D01*
X112925Y96693D01*
X112889Y96670D01*
X109922Y93910D01*
X109903Y93885D01*
X109892Y93875D01*
X109885Y93870D01*
X109883Y93867D01*
X109871Y93856D01*
X107348Y90685D01*
X107334Y90657D01*
X107306Y90623D01*
X105284Y87112D01*
X105274Y87082D01*
X105252Y87045D01*
X103775Y83272D01*
X103770Y83240D01*
X103753Y83200D01*
X102856Y79249D01*
X102855Y79217D01*
X102845Y79175D01*
X102547Y75135D01*
X102551Y75103D01*
X102547Y75060D01*
X102854Y71020D01*
X102862Y70989D01*
X102865Y70946D01*
X103771Y66997D01*
X103784Y66968D01*
X103793Y66926D01*
X105277Y63155D01*
X105295Y63129D01*
X105310Y63088D01*
X107339Y59582D01*
X107361Y59558D01*
X107381Y59520D01*
X109911Y56355D01*
X109936Y56334D01*
X109962Y56300D01*
X112935Y53547D01*
X112962Y53531D01*
X112993Y53501D01*
X116344Y51222D01*
X116373Y51210D01*
X116408Y51185D01*
X120061Y49431D01*
X120092Y49423D01*
X120130Y49404D01*
X124003Y48213D01*
X124035Y48210D01*
X124076Y48197D01*
X128083Y47597D01*
X128115Y47599D01*
X128158Y47592D01*
X132209Y47596D01*
G37*
D10*
X82600Y143608D03*
X161898Y6858D03*
X-162152Y7112D03*
X-82600Y143608D03*
X123900Y72008D03*
X-123900Y72008D03*
X0Y143608D03*
M02*
