G04 EAGLE Gerber RS-274X export*
G75*
%MOMM*%
%FSLAX34Y34*%
%LPD*%
%INTop Copper*%
%IPPOS*%
%AMOC8*
5,1,8,0,0,1.08239X$1,22.5*%
G01*
%ADD10C,1.000000*%

G36*
X173240Y17D02*
X173240Y17D01*
X173281Y15D01*
X173337Y36D01*
X173395Y48D01*
X173429Y72D01*
X173467Y86D01*
X173510Y127D01*
X173559Y161D01*
X173581Y195D01*
X173610Y224D01*
X173634Y278D01*
X173666Y328D01*
X173673Y369D01*
X173689Y407D01*
X173689Y466D01*
X173699Y524D01*
X173689Y564D01*
X173690Y605D01*
X173663Y675D01*
X173653Y718D01*
X173640Y735D01*
X173631Y761D01*
X157527Y28183D01*
X157521Y28189D01*
X157518Y28197D01*
X157455Y28263D01*
X157394Y28331D01*
X157386Y28334D01*
X157380Y28340D01*
X157297Y28376D01*
X157214Y28415D01*
X157205Y28416D01*
X157198Y28419D01*
X157107Y28419D01*
X157015Y28423D01*
X157007Y28420D01*
X156999Y28420D01*
X156843Y28361D01*
X156399Y28100D01*
X147292Y43874D01*
X147284Y43877D01*
X147282Y43880D01*
X147281Y43880D01*
X147279Y43878D01*
X147277Y43879D01*
X147277Y43878D01*
X147276Y43878D01*
X146400Y43373D01*
X146071Y43330D01*
X146070Y43328D01*
X146068Y43329D01*
X144629Y42637D01*
X144628Y42635D01*
X144626Y42635D01*
X144117Y42214D01*
X143096Y41899D01*
X143095Y41898D01*
X143094Y41898D01*
X142131Y41435D01*
X141471Y41398D01*
X141470Y41397D01*
X141469Y41397D01*
X141468Y41397D01*
X139627Y40830D01*
X139626Y40828D01*
X139624Y40829D01*
X139058Y40488D01*
X138001Y40329D01*
X138001Y40328D01*
X138000Y40329D01*
X136978Y40014D01*
X136320Y40076D01*
X136318Y40075D01*
X136317Y40076D01*
X134412Y39789D01*
X134411Y39788D01*
X134409Y39788D01*
X133798Y39536D01*
X132730Y39536D01*
X132729Y39535D01*
X132728Y39536D01*
X131671Y39377D01*
X131029Y39536D01*
X131028Y39535D01*
X131026Y39537D01*
X129100Y39537D01*
X129098Y39536D01*
X129097Y39537D01*
X128455Y39378D01*
X127399Y39538D01*
X127398Y39537D01*
X127397Y39538D01*
X126328Y39538D01*
X125717Y39791D01*
X125716Y39791D01*
X125715Y39792D01*
X123810Y40080D01*
X123808Y40079D01*
X123807Y40080D01*
X123149Y40018D01*
X122127Y40334D01*
X122126Y40333D01*
X122126Y40334D01*
X121069Y40494D01*
X120503Y40835D01*
X120501Y40835D01*
X120500Y40836D01*
X118659Y41405D01*
X118658Y41404D01*
X118656Y41405D01*
X117997Y41442D01*
X117034Y41907D01*
X117033Y41906D01*
X117032Y41907D01*
X116011Y42223D01*
X115502Y42644D01*
X115500Y42644D01*
X115500Y42646D01*
X113764Y43482D01*
X113762Y43482D01*
X113761Y43483D01*
X113114Y43619D01*
X112232Y44221D01*
X112230Y44221D01*
X112230Y44222D01*
X111267Y44686D01*
X110827Y45179D01*
X110825Y45179D01*
X110825Y45181D01*
X109233Y46267D01*
X109231Y46266D01*
X109231Y46268D01*
X108611Y46498D01*
X107828Y47225D01*
X107826Y47225D01*
X107826Y47226D01*
X106943Y47829D01*
X106582Y48382D01*
X106580Y48382D01*
X106580Y48384D01*
X105168Y49695D01*
X105166Y49695D01*
X105165Y49697D01*
X104587Y50017D01*
X103921Y50852D01*
X103920Y50852D01*
X103920Y50854D01*
X103136Y51581D01*
X102861Y52182D01*
X102859Y52183D01*
X102860Y52184D01*
X101659Y53691D01*
X101657Y53691D01*
X101657Y53693D01*
X101132Y54095D01*
X100598Y55021D01*
X100597Y55022D01*
X100597Y55023D01*
X99931Y55859D01*
X99749Y56494D01*
X99747Y56495D01*
X99747Y56496D01*
X98784Y58165D01*
X98783Y58166D01*
X98783Y58168D01*
X98324Y58644D01*
X97934Y59639D01*
X97933Y59639D01*
X97934Y59640D01*
X97399Y60566D01*
X97313Y61222D01*
X97312Y61223D01*
X97313Y61224D01*
X96609Y63018D01*
X96608Y63019D01*
X96608Y63021D01*
X96226Y63560D01*
X95988Y64602D01*
X95987Y64602D01*
X95988Y64603D01*
X95597Y65599D01*
X95610Y66259D01*
X95609Y66261D01*
X95610Y66262D01*
X95182Y68141D01*
X95180Y68142D01*
X95181Y68143D01*
X94883Y68734D01*
X94803Y69799D01*
X94803Y69800D01*
X94803Y69801D01*
X94566Y70843D01*
X94677Y71495D01*
X94676Y71497D01*
X94677Y71498D01*
X94533Y73419D01*
X94532Y73420D01*
X94533Y73422D01*
X94326Y74050D01*
X94407Y75116D01*
X94406Y75117D01*
X94407Y75117D01*
X94327Y76183D01*
X94534Y76811D01*
X94533Y76813D01*
X94534Y76814D01*
X94679Y78735D01*
X94679Y78736D01*
X94678Y78737D01*
X94679Y78738D01*
X94568Y79390D01*
X94807Y80432D01*
X94806Y80433D01*
X94807Y80433D01*
X94887Y81499D01*
X95185Y82089D01*
X95185Y82090D01*
X95185Y82091D01*
X95186Y82092D01*
X95615Y83970D01*
X95614Y83972D01*
X95616Y83973D01*
X95604Y84634D01*
X95994Y85628D01*
X95994Y85630D01*
X95995Y85630D01*
X96233Y86672D01*
X96616Y87211D01*
X96615Y87213D01*
X96617Y87214D01*
X97322Y89007D01*
X97321Y89009D01*
X97322Y89010D01*
X97329Y89061D01*
X97329Y89062D01*
X97332Y89085D01*
X97340Y89145D01*
X97348Y89205D01*
X97356Y89264D01*
X97359Y89288D01*
X97367Y89348D01*
X97375Y89408D01*
X97383Y89467D01*
X97386Y89491D01*
X97394Y89551D01*
X97402Y89611D01*
X97409Y89665D01*
X97944Y90590D01*
X97943Y90592D01*
X97944Y90592D01*
X98335Y91587D01*
X98794Y92062D01*
X98794Y92064D01*
X98795Y92065D01*
X99759Y93733D01*
X99759Y93735D01*
X99760Y93736D01*
X99944Y94371D01*
X100610Y95206D01*
X100610Y95207D01*
X100611Y95208D01*
X101146Y96133D01*
X101670Y96535D01*
X101671Y96537D01*
X101672Y96537D01*
X102874Y98043D01*
X102874Y98045D01*
X102876Y98046D01*
X103152Y98646D01*
X103935Y99373D01*
X103935Y99374D01*
X103937Y99374D01*
X104603Y100210D01*
X105182Y100529D01*
X105182Y100531D01*
X105184Y100531D01*
X106597Y101841D01*
X106597Y101843D01*
X106599Y101843D01*
X106961Y102396D01*
X107844Y102998D01*
X107845Y102999D01*
X107846Y102999D01*
X108629Y103726D01*
X109249Y103955D01*
X109250Y103957D01*
X109252Y103957D01*
X110571Y104856D01*
X110572Y104858D01*
X110574Y104859D01*
X110776Y105121D01*
X111633Y105616D01*
X111638Y105631D01*
X111637Y105631D01*
X111637Y105632D01*
X95686Y133260D01*
X96314Y133557D01*
X96336Y133574D01*
X96363Y133584D01*
X96415Y133633D01*
X96473Y133676D01*
X96487Y133701D01*
X96508Y133720D01*
X96537Y133786D01*
X96573Y133848D01*
X96576Y133876D01*
X96588Y133902D01*
X96589Y133974D01*
X96598Y134045D01*
X96590Y134072D01*
X96591Y134101D01*
X96555Y134196D01*
X96544Y134236D01*
X96537Y134245D01*
X96533Y134257D01*
X87033Y150757D01*
X86981Y150816D01*
X86935Y150878D01*
X86916Y150889D01*
X86901Y150906D01*
X86831Y150940D01*
X86764Y150980D01*
X86740Y150984D01*
X86722Y150992D01*
X86677Y150994D01*
X86600Y151007D01*
X67600Y151007D01*
X67572Y151002D01*
X67544Y151004D01*
X67476Y150982D01*
X67405Y150968D01*
X67382Y150952D01*
X67355Y150943D01*
X67300Y150896D01*
X67241Y150855D01*
X67226Y150831D01*
X67205Y150813D01*
X67173Y150748D01*
X67134Y150688D01*
X67129Y150660D01*
X67117Y150634D01*
X67108Y150533D01*
X67101Y150491D01*
X67103Y150481D01*
X67102Y150468D01*
X67159Y149753D01*
X35812Y149753D01*
X35800Y149743D01*
X35801Y149742D01*
X35800Y149741D01*
X35800Y148971D01*
X35673Y148665D01*
X35674Y148662D01*
X35672Y148661D01*
X35552Y147069D01*
X35553Y147067D01*
X35552Y147066D01*
X35663Y146414D01*
X35424Y145372D01*
X35425Y145371D01*
X35424Y145370D01*
X35344Y144304D01*
X35046Y143715D01*
X35046Y143713D01*
X35045Y143712D01*
X34616Y141834D01*
X34617Y141832D01*
X34615Y141831D01*
X34627Y141170D01*
X34237Y140175D01*
X34237Y140174D01*
X34236Y140173D01*
X33998Y139131D01*
X33615Y138593D01*
X33616Y138591D01*
X33614Y138590D01*
X32909Y136797D01*
X32910Y136795D01*
X32909Y136794D01*
X32907Y136779D01*
X32899Y136719D01*
X32896Y136695D01*
X32888Y136635D01*
X32880Y136576D01*
X32877Y136552D01*
X32869Y136492D01*
X32861Y136433D01*
X32861Y136432D01*
X32853Y136373D01*
X32850Y136349D01*
X32842Y136289D01*
X32834Y136230D01*
X32831Y136206D01*
X32823Y136146D01*
X32822Y136139D01*
X32288Y135213D01*
X32288Y135212D01*
X32287Y135212D01*
X31896Y134217D01*
X31437Y133741D01*
X31437Y133739D01*
X31436Y133739D01*
X30472Y132070D01*
X30472Y132069D01*
X30471Y132068D01*
X30287Y131433D01*
X29621Y130597D01*
X29621Y130596D01*
X29620Y130596D01*
X29085Y129670D01*
X28561Y129268D01*
X28560Y129266D01*
X28559Y129266D01*
X27357Y127760D01*
X27357Y127758D01*
X27355Y127758D01*
X27079Y127157D01*
X26296Y126430D01*
X26296Y126429D01*
X26294Y126429D01*
X25628Y125594D01*
X25049Y125274D01*
X25049Y125272D01*
X25047Y125273D01*
X23634Y123962D01*
X23634Y123960D01*
X23632Y123960D01*
X23270Y123407D01*
X22387Y122806D01*
X22386Y122804D01*
X22385Y122804D01*
X21602Y122078D01*
X20982Y121848D01*
X20981Y121846D01*
X20979Y121847D01*
X19387Y120762D01*
X19387Y120760D01*
X19385Y120760D01*
X18944Y120267D01*
X17981Y119804D01*
X17981Y119803D01*
X17980Y119803D01*
X17096Y119201D01*
X16449Y119066D01*
X16448Y119065D01*
X16447Y119065D01*
X14710Y118230D01*
X14710Y118228D01*
X14708Y118228D01*
X14199Y117807D01*
X13178Y117492D01*
X13177Y117491D01*
X13176Y117492D01*
X12213Y117028D01*
X11553Y116991D01*
X11552Y116990D01*
X11550Y116991D01*
X9709Y116424D01*
X9708Y116422D01*
X9706Y116422D01*
X9140Y116081D01*
X8083Y115922D01*
X8082Y115921D01*
X8081Y115922D01*
X7060Y115607D01*
X6402Y115669D01*
X6400Y115668D01*
X6399Y115669D01*
X4494Y115383D01*
X4492Y115381D01*
X4491Y115382D01*
X3880Y115129D01*
X2812Y115129D01*
X2811Y115129D01*
X2810Y115129D01*
X1753Y114970D01*
X1111Y115130D01*
X1109Y115129D01*
X1108Y115130D01*
X-818Y115131D01*
X-820Y115129D01*
X-821Y115130D01*
X-1463Y114971D01*
X-2519Y115131D01*
X-2520Y115130D01*
X-2521Y115131D01*
X-3590Y115131D01*
X-4201Y115385D01*
X-4203Y115384D01*
X-4203Y115385D01*
X-6109Y115673D01*
X-6110Y115672D01*
X-6111Y115673D01*
X-6770Y115612D01*
X-7791Y115927D01*
X-7792Y115927D01*
X-7792Y115928D01*
X-8849Y116087D01*
X-9415Y116428D01*
X-9417Y116428D01*
X-9418Y116430D01*
X-11259Y116998D01*
X-11261Y116997D01*
X-11262Y116999D01*
X-11921Y117036D01*
X-12884Y117500D01*
X-12886Y117500D01*
X-12886Y117501D01*
X-13907Y117816D01*
X-14416Y118238D01*
X-14418Y118238D01*
X-14418Y118239D01*
X-16154Y119076D01*
X-16156Y119075D01*
X-16157Y119077D01*
X-16804Y119212D01*
X-17687Y119814D01*
X-17688Y119814D01*
X-17688Y119815D01*
X-18651Y120279D01*
X-19091Y120772D01*
X-19093Y120773D01*
X-19093Y120774D01*
X-20685Y121860D01*
X-20687Y121860D01*
X-20688Y121861D01*
X-21307Y122091D01*
X-22091Y122819D01*
X-22092Y122819D01*
X-22092Y122820D01*
X-22975Y123422D01*
X-23337Y123975D01*
X-23338Y123976D01*
X-23338Y123977D01*
X-24751Y125288D01*
X-24752Y125289D01*
X-24753Y125290D01*
X-25331Y125610D01*
X-25997Y126446D01*
X-25998Y126446D01*
X-25998Y126447D01*
X-26782Y127174D01*
X-27057Y127775D01*
X-27059Y127776D01*
X-27059Y127778D01*
X-28259Y129284D01*
X-28261Y129285D01*
X-28261Y129286D01*
X-28786Y129689D01*
X-29320Y130615D01*
X-29321Y130615D01*
X-29321Y130616D01*
X-29987Y131452D01*
X-30170Y132087D01*
X-30171Y132088D01*
X-30171Y132090D01*
X-31134Y133759D01*
X-31136Y133759D01*
X-31135Y133761D01*
X-31594Y134237D01*
X-31984Y135232D01*
X-31985Y135233D01*
X-31985Y135234D01*
X-32519Y136160D01*
X-32605Y136815D01*
X-32606Y136816D01*
X-32606Y136818D01*
X-33309Y138612D01*
X-33311Y138612D01*
X-33310Y138614D01*
X-33693Y139153D01*
X-33930Y140195D01*
X-33931Y140196D01*
X-33931Y140197D01*
X-34321Y141192D01*
X-34308Y141853D01*
X-34309Y141854D01*
X-34308Y141856D01*
X-34737Y143734D01*
X-34738Y143735D01*
X-34738Y143737D01*
X-35035Y144327D01*
X-35115Y145393D01*
X-35116Y145394D01*
X-35115Y145395D01*
X-35353Y146437D01*
X-35242Y147088D01*
X-35242Y147089D01*
X-35242Y147090D01*
X-35241Y147091D01*
X-35360Y148684D01*
X-35362Y148686D01*
X-35361Y148687D01*
X-35488Y148994D01*
X-35488Y149741D01*
X-35498Y149753D01*
X-35499Y149752D01*
X-35500Y149753D01*
X-67159Y149753D01*
X-67102Y150468D01*
X-67106Y150497D01*
X-67101Y150525D01*
X-67118Y150594D01*
X-67126Y150666D01*
X-67141Y150690D01*
X-67147Y150718D01*
X-67190Y150776D01*
X-67226Y150838D01*
X-67248Y150855D01*
X-67265Y150878D01*
X-67327Y150915D01*
X-67384Y150958D01*
X-67412Y150965D01*
X-67436Y150980D01*
X-67536Y150996D01*
X-67577Y151007D01*
X-67587Y151005D01*
X-67600Y151007D01*
X-86600Y151007D01*
X-86676Y150992D01*
X-86754Y150983D01*
X-86773Y150972D01*
X-86795Y150968D01*
X-86859Y150924D01*
X-86927Y150885D01*
X-86943Y150866D01*
X-86959Y150855D01*
X-86983Y150817D01*
X-87033Y150757D01*
X-96533Y134257D01*
X-96542Y134230D01*
X-96558Y134206D01*
X-96573Y134136D01*
X-96596Y134068D01*
X-96593Y134040D01*
X-96599Y134012D01*
X-96586Y133942D01*
X-96580Y133870D01*
X-96567Y133845D01*
X-96561Y133817D01*
X-96521Y133757D01*
X-96488Y133694D01*
X-96466Y133676D01*
X-96450Y133652D01*
X-96367Y133594D01*
X-96335Y133567D01*
X-96324Y133564D01*
X-96314Y133557D01*
X-95686Y133260D01*
X-111783Y105379D01*
X-111780Y105364D01*
X-111779Y105364D01*
X-111778Y105363D01*
X-110861Y104833D01*
X-110659Y104570D01*
X-110657Y104570D01*
X-110657Y104568D01*
X-109337Y103668D01*
X-109335Y103668D01*
X-109335Y103666D01*
X-108715Y103436D01*
X-107932Y102709D01*
X-107930Y102709D01*
X-107930Y102708D01*
X-107048Y102105D01*
X-106686Y101552D01*
X-106684Y101552D01*
X-106684Y101550D01*
X-105272Y100239D01*
X-105270Y100239D01*
X-105269Y100237D01*
X-104691Y99918D01*
X-104025Y99082D01*
X-104024Y99082D01*
X-104024Y99081D01*
X-103241Y98353D01*
X-102965Y97752D01*
X-102963Y97752D01*
X-102964Y97750D01*
X-101763Y96243D01*
X-101761Y96243D01*
X-101761Y96241D01*
X-101237Y95839D01*
X-100702Y94913D01*
X-100701Y94912D01*
X-100701Y94911D01*
X-100035Y94076D01*
X-99853Y93440D01*
X-99851Y93439D01*
X-99852Y93438D01*
X-98889Y91769D01*
X-98887Y91768D01*
X-98887Y91766D01*
X-98429Y91290D01*
X-98038Y90295D01*
X-98037Y90295D01*
X-98038Y90294D01*
X-97503Y89368D01*
X-97417Y88713D01*
X-97416Y88711D01*
X-97417Y88710D01*
X-96713Y86916D01*
X-96712Y86915D01*
X-96712Y86913D01*
X-96330Y86374D01*
X-96092Y85332D01*
X-96091Y85332D01*
X-96092Y85331D01*
X-95702Y84335D01*
X-95714Y83675D01*
X-95713Y83673D01*
X-95714Y83672D01*
X-95286Y81793D01*
X-95284Y81792D01*
X-95285Y81791D01*
X-94987Y81200D01*
X-94908Y80135D01*
X-94907Y80134D01*
X-94907Y80133D01*
X-94670Y79091D01*
X-94781Y78439D01*
X-94780Y78438D01*
X-94781Y78436D01*
X-94637Y76515D01*
X-94636Y76514D01*
X-94637Y76512D01*
X-94431Y75884D01*
X-94511Y74819D01*
X-94510Y74818D01*
X-94511Y74817D01*
X-94431Y73751D01*
X-94638Y73123D01*
X-94637Y73121D01*
X-94639Y73120D01*
X-94783Y71199D01*
X-94782Y71198D01*
X-94783Y71196D01*
X-94673Y70545D01*
X-94911Y69502D01*
X-94910Y69501D01*
X-94911Y69501D01*
X-94991Y68435D01*
X-95289Y67845D01*
X-95289Y67843D01*
X-95290Y67842D01*
X-95720Y65964D01*
X-95719Y65962D01*
X-95720Y65961D01*
X-95708Y65301D01*
X-96098Y64306D01*
X-96098Y64305D01*
X-96099Y64304D01*
X-96337Y63262D01*
X-96720Y62723D01*
X-96720Y62721D01*
X-96721Y62721D01*
X-97426Y60927D01*
X-97425Y60925D01*
X-97426Y60924D01*
X-97429Y60904D01*
X-97432Y60880D01*
X-97440Y60820D01*
X-97448Y60761D01*
X-97456Y60701D01*
X-97459Y60677D01*
X-97467Y60617D01*
X-97475Y60558D01*
X-97478Y60534D01*
X-97486Y60474D01*
X-97494Y60415D01*
X-97494Y60414D01*
X-97502Y60355D01*
X-97505Y60331D01*
X-97513Y60271D01*
X-97513Y60269D01*
X-98047Y59344D01*
X-98047Y59343D01*
X-98048Y59342D01*
X-98439Y58347D01*
X-98898Y57871D01*
X-98898Y57870D01*
X-98900Y57869D01*
X-99863Y56201D01*
X-99863Y56199D01*
X-99865Y56198D01*
X-100048Y55563D01*
X-100714Y54728D01*
X-100714Y54727D01*
X-100715Y54726D01*
X-101250Y53801D01*
X-101775Y53399D01*
X-101775Y53397D01*
X-101777Y53397D01*
X-102978Y51891D01*
X-102978Y51889D01*
X-102980Y51888D01*
X-103256Y51288D01*
X-104039Y50561D01*
X-104040Y50560D01*
X-104041Y50560D01*
X-104707Y49724D01*
X-105286Y49405D01*
X-105286Y49403D01*
X-105288Y49403D01*
X-106701Y48093D01*
X-106701Y48091D01*
X-106703Y48091D01*
X-107065Y47538D01*
X-107948Y46936D01*
X-107949Y46935D01*
X-107950Y46935D01*
X-108733Y46208D01*
X-109353Y45979D01*
X-109354Y45977D01*
X-109356Y45977D01*
X-110948Y44892D01*
X-110948Y44891D01*
X-110950Y44891D01*
X-111391Y44398D01*
X-112354Y43934D01*
X-112354Y43933D01*
X-112355Y43933D01*
X-113239Y43332D01*
X-113886Y43197D01*
X-113887Y43195D01*
X-113888Y43196D01*
X-115625Y42361D01*
X-115625Y42359D01*
X-115627Y42359D01*
X-116136Y41938D01*
X-117158Y41623D01*
X-117158Y41622D01*
X-117159Y41622D01*
X-118122Y41159D01*
X-118782Y41122D01*
X-118784Y41120D01*
X-118785Y41121D01*
X-120626Y40554D01*
X-120627Y40552D01*
X-120629Y40553D01*
X-121195Y40212D01*
X-122252Y40053D01*
X-122253Y40052D01*
X-122254Y40053D01*
X-123275Y39738D01*
X-123933Y39800D01*
X-123935Y39799D01*
X-123936Y39800D01*
X-125841Y39513D01*
X-125843Y39512D01*
X-125844Y39512D01*
X-126455Y39260D01*
X-126745Y39260D01*
X-126842Y39260D01*
X-127524Y39260D01*
X-127525Y39260D01*
X-128583Y39101D01*
X-129224Y39260D01*
X-129225Y39260D01*
X-129226Y39260D01*
X-129227Y39261D01*
X-131153Y39261D01*
X-131155Y39260D01*
X-131156Y39261D01*
X-131798Y39102D01*
X-132855Y39262D01*
X-132856Y39261D01*
X-132856Y39262D01*
X-133925Y39262D01*
X-134536Y39515D01*
X-134538Y39515D01*
X-134539Y39516D01*
X-136444Y39804D01*
X-136445Y39803D01*
X-136447Y39804D01*
X-137105Y39742D01*
X-138126Y40058D01*
X-138127Y40057D01*
X-138128Y40058D01*
X-139184Y40218D01*
X-139750Y40559D01*
X-139752Y40559D01*
X-139753Y40560D01*
X-141594Y41129D01*
X-141596Y41128D01*
X-141597Y41129D01*
X-142257Y41166D01*
X-143220Y41631D01*
X-143221Y41630D01*
X-143221Y41631D01*
X-144242Y41947D01*
X-144751Y42368D01*
X-144753Y42368D01*
X-144754Y42370D01*
X-146192Y43063D01*
X-146195Y43063D01*
X-146196Y43064D01*
X-146524Y43108D01*
X-147421Y43626D01*
X-147437Y43623D01*
X-147437Y43622D01*
X-147438Y43622D01*
X-156347Y28189D01*
X-157104Y28618D01*
X-157111Y28621D01*
X-157116Y28625D01*
X-157205Y28651D01*
X-157293Y28680D01*
X-157300Y28679D01*
X-157307Y28681D01*
X-157399Y28671D01*
X-157491Y28663D01*
X-157497Y28660D01*
X-157505Y28659D01*
X-157585Y28613D01*
X-157667Y28570D01*
X-157671Y28564D01*
X-157678Y28561D01*
X-157783Y28432D01*
X-173633Y756D01*
X-173645Y720D01*
X-173666Y687D01*
X-173676Y626D01*
X-173696Y567D01*
X-173693Y529D01*
X-173699Y491D01*
X-173685Y431D01*
X-173680Y369D01*
X-173662Y335D01*
X-173653Y298D01*
X-173616Y248D01*
X-173587Y193D01*
X-173558Y169D01*
X-173535Y138D01*
X-173482Y106D01*
X-173434Y67D01*
X-173397Y56D01*
X-173364Y36D01*
X-173286Y23D01*
X-173243Y11D01*
X-173224Y13D01*
X-173200Y9D01*
X-138554Y19D01*
X-138512Y27D01*
X-138469Y26D01*
X-138415Y47D01*
X-138359Y58D01*
X-138324Y83D01*
X-138283Y98D01*
X-138242Y138D01*
X-138195Y171D01*
X-138172Y207D01*
X-138141Y237D01*
X-138119Y290D01*
X-138088Y339D01*
X-138081Y381D01*
X-138064Y421D01*
X-138062Y492D01*
X-138055Y535D01*
X-138060Y557D01*
X-138060Y587D01*
X-138154Y1263D01*
X-80829Y1263D01*
X-80817Y1273D01*
X-80818Y1274D01*
X-80817Y1275D01*
X-80817Y8789D01*
X-77038Y25957D01*
X-69657Y41911D01*
X-59019Y55905D01*
X-45621Y67286D01*
X-30090Y75520D01*
X-13152Y80222D01*
X4401Y81174D01*
X21748Y78330D01*
X38078Y71824D01*
X52628Y61959D01*
X64717Y49197D01*
X73780Y34134D01*
X79393Y17476D01*
X81155Y1273D01*
X81167Y1263D01*
X138652Y1263D01*
X138567Y580D01*
X138570Y540D01*
X138563Y502D01*
X138577Y442D01*
X138582Y381D01*
X138600Y346D01*
X138609Y308D01*
X138645Y259D01*
X138673Y205D01*
X138704Y180D01*
X138727Y148D01*
X138779Y117D01*
X138826Y78D01*
X138864Y67D01*
X138898Y47D01*
X138974Y34D01*
X139017Y21D01*
X139037Y23D01*
X139062Y19D01*
X173200Y9D01*
X173240Y17D01*
G37*
G36*
X2198Y123266D02*
X2198Y123266D01*
X2241Y123265D01*
X6234Y123865D01*
X6264Y123876D01*
X6306Y123882D01*
X10165Y125071D01*
X10193Y125086D01*
X10235Y125098D01*
X13873Y126849D01*
X13898Y126868D01*
X13938Y126886D01*
X17274Y129159D01*
X17297Y129182D01*
X17333Y129206D01*
X20293Y131951D01*
X20312Y131977D01*
X20344Y132006D01*
X22863Y135162D01*
X22877Y135190D01*
X22905Y135224D01*
X24925Y138720D01*
X24935Y138750D01*
X24957Y138787D01*
X26433Y142545D01*
X26434Y142549D01*
X26435Y142550D01*
X26440Y142579D01*
X26455Y142616D01*
X27355Y146552D01*
X27356Y146584D01*
X27366Y146626D01*
X27669Y150652D01*
X27666Y150679D01*
X27670Y150706D01*
X27654Y150777D01*
X27644Y150850D01*
X27631Y150873D01*
X27624Y150900D01*
X27581Y150959D01*
X27545Y151022D01*
X27523Y151038D01*
X27507Y151060D01*
X27444Y151097D01*
X27385Y151141D01*
X27359Y151147D01*
X27336Y151161D01*
X27232Y151179D01*
X27192Y151189D01*
X27183Y151187D01*
X27172Y151189D01*
X-26858Y151206D01*
X-26885Y151201D01*
X-26912Y151204D01*
X-26982Y151181D01*
X-27053Y151167D01*
X-27076Y151151D01*
X-27102Y151143D01*
X-27157Y151096D01*
X-27217Y151054D01*
X-27232Y151031D01*
X-27253Y151014D01*
X-27285Y150948D01*
X-27324Y150887D01*
X-27329Y150860D01*
X-27341Y150836D01*
X-27351Y150731D01*
X-27358Y150691D01*
X-27355Y150682D01*
X-27356Y150670D01*
X-27056Y146644D01*
X-27047Y146613D01*
X-27045Y146570D01*
X-26148Y142633D01*
X-26135Y142604D01*
X-26126Y142562D01*
X-24652Y138803D01*
X-24635Y138776D01*
X-24619Y138735D01*
X-22602Y135238D01*
X-22581Y135214D01*
X-22560Y135176D01*
X-20043Y132019D01*
X-20019Y131998D01*
X-19993Y131964D01*
X-17034Y129217D01*
X-17006Y129200D01*
X-16975Y129170D01*
X-13640Y126895D01*
X-13611Y126882D01*
X-13575Y126857D01*
X-9938Y125104D01*
X-9907Y125097D01*
X-9869Y125077D01*
X-6011Y123886D01*
X-5979Y123883D01*
X-5938Y123869D01*
X-1946Y123266D01*
X-1914Y123268D01*
X-1871Y123260D01*
X2166Y123259D01*
X2198Y123266D01*
G37*
G36*
X132116Y47672D02*
X132116Y47672D01*
X132159Y47671D01*
X136152Y48272D01*
X136182Y48283D01*
X136225Y48288D01*
X140083Y49477D01*
X140111Y49492D01*
X140153Y49504D01*
X143791Y51255D01*
X143813Y51272D01*
X143838Y51281D01*
X143891Y51331D01*
X143950Y51375D01*
X143963Y51399D01*
X143983Y51418D01*
X144012Y51485D01*
X144048Y51548D01*
X144052Y51575D01*
X144063Y51600D01*
X144064Y51673D01*
X144072Y51745D01*
X144065Y51771D01*
X144065Y51799D01*
X144028Y51897D01*
X144017Y51936D01*
X144011Y51944D01*
X144007Y51955D01*
X117007Y98755D01*
X116989Y98775D01*
X116978Y98800D01*
X116924Y98849D01*
X116875Y98904D01*
X116851Y98915D01*
X116831Y98934D01*
X116762Y98958D01*
X116696Y98989D01*
X116669Y98991D01*
X116643Y99000D01*
X116570Y98995D01*
X116497Y98998D01*
X116472Y98989D01*
X116445Y98987D01*
X116349Y98943D01*
X116311Y98929D01*
X116304Y98922D01*
X116294Y98918D01*
X112957Y96644D01*
X112934Y96621D01*
X112898Y96598D01*
X109938Y93852D01*
X109919Y93826D01*
X109887Y93798D01*
X107368Y90642D01*
X107354Y90613D01*
X107326Y90580D01*
X105306Y87084D01*
X105296Y87054D01*
X105274Y87017D01*
X103798Y83259D01*
X103792Y83227D01*
X103776Y83187D01*
X102876Y79251D01*
X102875Y79219D01*
X102865Y79177D01*
X102562Y75151D01*
X102565Y75127D01*
X102561Y75108D01*
X102564Y75098D01*
X102562Y75077D01*
X102862Y71050D01*
X102871Y71019D01*
X102873Y70976D01*
X103770Y67040D01*
X103784Y67011D01*
X103792Y66968D01*
X105266Y63209D01*
X105284Y63182D01*
X105299Y63142D01*
X107316Y59645D01*
X107338Y59621D01*
X107358Y59583D01*
X109875Y56425D01*
X109899Y56405D01*
X109926Y56371D01*
X112885Y53623D01*
X112912Y53607D01*
X112943Y53577D01*
X116278Y51301D01*
X116308Y51289D01*
X116343Y51264D01*
X119980Y49511D01*
X120011Y49503D01*
X120050Y49484D01*
X123907Y48292D01*
X123939Y48289D01*
X123980Y48276D01*
X127973Y47673D01*
X128004Y47674D01*
X128047Y47667D01*
X132085Y47666D01*
X132116Y47672D01*
G37*
G36*
X-128137Y47396D02*
X-128137Y47396D01*
X-128094Y47395D01*
X-124101Y47996D01*
X-124072Y48007D01*
X-124029Y48012D01*
X-120170Y49201D01*
X-120142Y49216D01*
X-120101Y49228D01*
X-116462Y50979D01*
X-116437Y50998D01*
X-116398Y51016D01*
X-113061Y53290D01*
X-113039Y53313D01*
X-113002Y53336D01*
X-110042Y56082D01*
X-110023Y56108D01*
X-109991Y56136D01*
X-107473Y59292D01*
X-107458Y59321D01*
X-107430Y59354D01*
X-105411Y62850D01*
X-105400Y62880D01*
X-105378Y62917D01*
X-103902Y66675D01*
X-103901Y66679D01*
X-103900Y66681D01*
X-103895Y66709D01*
X-103880Y66747D01*
X-102980Y70683D01*
X-102979Y70715D01*
X-102969Y70757D01*
X-102666Y74783D01*
X-102670Y74814D01*
X-102666Y74858D01*
X-102966Y78884D01*
X-102975Y78915D01*
X-102977Y78958D01*
X-103875Y82895D01*
X-103888Y82924D01*
X-103897Y82966D01*
X-105370Y86725D01*
X-105388Y86752D01*
X-105403Y86792D01*
X-107421Y90289D01*
X-107442Y90313D01*
X-107463Y90351D01*
X-109979Y93509D01*
X-110003Y93529D01*
X-110030Y93563D01*
X-112989Y96311D01*
X-113016Y96327D01*
X-113047Y96357D01*
X-116382Y98633D01*
X-116407Y98643D01*
X-116428Y98661D01*
X-116498Y98682D01*
X-116566Y98710D01*
X-116593Y98710D01*
X-116619Y98718D01*
X-116692Y98710D01*
X-116764Y98709D01*
X-116789Y98699D01*
X-116817Y98696D01*
X-116880Y98660D01*
X-116947Y98631D01*
X-116966Y98612D01*
X-116990Y98598D01*
X-117057Y98517D01*
X-117085Y98488D01*
X-117089Y98479D01*
X-117096Y98470D01*
X-144126Y51687D01*
X-144135Y51662D01*
X-144150Y51639D01*
X-144166Y51568D01*
X-144189Y51499D01*
X-144187Y51472D01*
X-144193Y51445D01*
X-144179Y51374D01*
X-144174Y51301D01*
X-144161Y51276D01*
X-144156Y51250D01*
X-144116Y51189D01*
X-144082Y51124D01*
X-144061Y51107D01*
X-144046Y51084D01*
X-143960Y51023D01*
X-143929Y50997D01*
X-143920Y50995D01*
X-143910Y50988D01*
X-140273Y49235D01*
X-140242Y49227D01*
X-140204Y49208D01*
X-136346Y48016D01*
X-136314Y48013D01*
X-136273Y48000D01*
X-132281Y47397D01*
X-132249Y47398D01*
X-132206Y47391D01*
X-128169Y47390D01*
X-128137Y47396D01*
G37*
D10*
X82600Y143608D03*
X161644Y7112D03*
X-162152Y7112D03*
X-82600Y143608D03*
X123900Y72008D03*
X-123900Y72008D03*
X0Y143608D03*
M02*
