G04 EAGLE Gerber RS-274X export*
G75*
%MOMM*%
%FSLAX34Y34*%
%LPD*%
%INSilkscreen Top*%
%IPPOS*%
%AMOC8*
5,1,8,0,0,1.08239X$1,22.5*%
G01*
%ADD10C,0.101600*%
%ADD11R,0.345438X0.020319*%
%ADD12R,1.950719X0.020319*%
%ADD13R,0.467356X0.020319*%
%ADD14R,2.072637X0.020319*%
%ADD15R,0.508000X0.020319*%
%ADD16R,2.113281X0.020319*%
%ADD17R,0.528319X0.020319*%
%ADD18R,2.133600X0.020319*%
%ADD19R,0.568956X0.020319*%
%ADD20R,2.174238X0.020319*%
%ADD21R,0.589275X0.020319*%
%ADD22R,2.194556X0.020319*%
%ADD23R,0.609600X0.020319*%
%ADD24R,2.214881X0.020319*%
%ADD25R,0.629919X0.020319*%
%ADD26R,2.235200X0.020319*%
%ADD27R,0.650238X0.020319*%
%ADD28R,2.255519X0.020319*%
%ADD29R,0.670556X0.020319*%
%ADD30R,2.275838X0.020319*%
%ADD31R,0.690875X0.020319*%
%ADD32R,2.296156X0.020319*%
%ADD33R,2.316481X0.020319*%
%ADD34R,0.711200X0.020319*%
%ADD35R,2.336800X0.020319*%
%ADD36R,0.731519X0.020319*%
%ADD37R,0.751838X0.020319*%
%ADD38R,2.357119X0.020319*%
%ADD39R,0.772156X0.020319*%
%ADD40R,2.377438X0.020319*%
%ADD41R,0.792475X0.020319*%
%ADD42R,2.397756X0.020319*%
%ADD43R,2.418081X0.020319*%
%ADD44R,0.812800X0.020319*%
%ADD45R,0.833119X0.020319*%
%ADD46R,2.438400X0.020319*%
%ADD47R,2.458719X0.020319*%
%ADD48R,0.853438X0.020319*%
%ADD49R,0.894081X0.020319*%
%ADD50R,2.479038X0.020319*%
%ADD51R,2.499356X0.020319*%
%ADD52R,0.914400X0.020319*%
%ADD53R,0.934719X0.020319*%
%ADD54R,2.519681X0.020319*%
%ADD55R,0.955038X0.020319*%
%ADD56R,2.540000X0.020319*%
%ADD57R,0.975363X0.020319*%
%ADD58R,2.560319X0.020319*%
%ADD59R,2.580637X0.020319*%
%ADD60R,0.995681X0.020319*%
%ADD61R,2.600956X0.020319*%
%ADD62R,1.016000X0.020319*%
%ADD63R,2.621281X0.020319*%
%ADD64R,1.036319X0.020319*%
%ADD65R,2.641600X0.020319*%
%ADD66R,1.056638X0.020319*%
%ADD67R,2.661919X0.020319*%
%ADD68R,1.076963X0.020319*%
%ADD69R,1.097281X0.020319*%
%ADD70R,1.117600X0.020319*%
%ADD71R,2.682238X0.020319*%
%ADD72R,2.702556X0.020319*%
%ADD73R,1.137919X0.020319*%
%ADD74R,2.722881X0.020319*%
%ADD75R,2.743200X0.020319*%
%ADD76R,1.158238X0.020319*%
%ADD77R,1.280156X0.020319*%
%ADD78R,1.341119X0.020319*%
%ADD79R,1.178556X0.020319*%
%ADD80R,1.259838X0.020319*%
%ADD81R,1.219200X0.020319*%
%ADD82R,1.300481X0.020319*%
%ADD83R,1.300475X0.020319*%
%ADD84R,1.198875X0.020319*%
%ADD85R,1.239519X0.020319*%
%ADD86R,1.076956X0.020319*%
%ADD87R,1.320800X0.020319*%
%ADD88R,1.361438X0.020319*%
%ADD89R,1.381756X0.020319*%
%ADD90R,1.402075X0.020319*%
%ADD91R,1.422400X0.020319*%
%ADD92R,1.564638X0.020319*%
%ADD93R,0.548638X0.020319*%
%ADD94R,1.544319X0.020319*%
%ADD95R,1.666238X0.020319*%
%ADD96R,1.645919X0.020319*%
%ADD97R,1.747519X0.020319*%
%ADD98R,1.442719X0.020319*%
%ADD99R,1.686556X0.020319*%
%ADD100R,1.727200X0.020319*%
%ADD101R,1.808475X0.020319*%
%ADD102R,1.463037X0.020319*%
%ADD103R,1.706875X0.020319*%
%ADD104R,0.568963X0.020319*%
%ADD105R,1.828800X0.020319*%
%ADD106R,1.788156X0.020319*%
%ADD107R,1.849119X0.020319*%
%ADD108R,1.483356X0.020319*%
%ADD109R,0.589281X0.020319*%
%ADD110R,1.889756X0.020319*%
%ADD111R,1.767838X0.020319*%
%ADD112R,1.910075X0.020319*%
%ADD113R,1.503675X0.020319*%
%ADD114R,1.930400X0.020319*%
%ADD115R,1.524000X0.020319*%
%ADD116R,1.971037X0.020319*%
%ADD117R,1.991356X0.020319*%
%ADD118R,1.869438X0.020319*%
%ADD119R,1.584956X0.020319*%
%ADD120R,2.011675X0.020319*%
%ADD121R,1.605275X0.020319*%
%ADD122R,2.032000X0.020319*%
%ADD123R,1.625600X0.020319*%
%ADD124R,2.052319X0.020319*%
%ADD125R,0.690881X0.020319*%
%ADD126R,2.092956X0.020319*%
%ADD127R,0.772163X0.020319*%
%ADD128R,2.011681X0.020319*%
%ADD129R,1.910081X0.020319*%
%ADD130R,0.873756X0.020319*%
%ADD131R,1.889763X0.020319*%
%ADD132R,0.670563X0.020319*%
%ADD133R,1.808481X0.020319*%
%ADD134R,0.792481X0.020319*%
%ADD135R,2.113275X0.020319*%
%ADD136R,0.894075X0.020319*%
%ADD137R,0.487681X0.020319*%
%ADD138R,0.975356X0.020319*%
%ADD139R,1.706881X0.020319*%
%ADD140R,1.503681X0.020319*%
%ADD141R,1.605281X0.020319*%
%ADD142R,0.487675X0.020319*%
%ADD143R,0.447038X0.020319*%
%ADD144R,0.060963X0.020319*%
%ADD145R,1.402081X0.020319*%
%ADD146R,1.280163X0.020319*%
%ADD147R,1.097275X0.020319*%
%ADD148R,2.722875X0.020319*%
%ADD149R,2.621275X0.020319*%
%ADD150R,0.995675X0.020319*%
%ADD151R,2.519675X0.020319*%
%ADD152R,2.418075X0.020319*%
%ADD153R,2.316475X0.020319*%
%ADD154R,2.214875X0.020319*%
%ADD155R,2.153919X0.020319*%
%ADD156R,0.426719X0.020319*%
%ADD157R,0.386075X0.020319*%


D10*
X57226Y129838D02*
X59884Y127976D01*
X59978Y127913D01*
X60074Y127853D01*
X60172Y127796D01*
X60272Y127743D01*
X60374Y127693D01*
X60478Y127647D01*
X60583Y127605D01*
X60689Y127566D01*
X60797Y127531D01*
X60906Y127500D01*
X61016Y127472D01*
X61127Y127449D01*
X61238Y127429D01*
X61350Y127413D01*
X61463Y127401D01*
X61576Y127393D01*
X61689Y127389D01*
X61803Y127389D01*
X61916Y127393D01*
X62029Y127401D01*
X62142Y127413D01*
X62254Y127429D01*
X62365Y127449D01*
X62476Y127472D01*
X62586Y127500D01*
X62695Y127531D01*
X62803Y127566D01*
X62909Y127605D01*
X63014Y127647D01*
X63118Y127693D01*
X63220Y127743D01*
X63320Y127796D01*
X63418Y127853D01*
X63514Y127913D01*
X63608Y127976D01*
X63699Y128043D01*
X63789Y128112D01*
X63876Y128185D01*
X63960Y128261D01*
X64041Y128340D01*
X64120Y128421D01*
X64196Y128505D01*
X64269Y128592D01*
X64338Y128682D01*
X64405Y128773D01*
X64468Y128867D01*
X64528Y128963D01*
X64585Y129061D01*
X64638Y129161D01*
X64688Y129263D01*
X64734Y129367D01*
X64776Y129472D01*
X64815Y129578D01*
X64850Y129686D01*
X64881Y129795D01*
X64909Y129905D01*
X64932Y130016D01*
X64952Y130127D01*
X64968Y130239D01*
X64980Y130352D01*
X64988Y130465D01*
X64992Y130578D01*
X64992Y130692D01*
X64988Y130805D01*
X64980Y130918D01*
X64968Y131031D01*
X64952Y131143D01*
X64932Y131254D01*
X64909Y131365D01*
X64881Y131475D01*
X64850Y131584D01*
X64815Y131692D01*
X64776Y131798D01*
X64734Y131903D01*
X64688Y132007D01*
X64638Y132109D01*
X64585Y132209D01*
X64528Y132307D01*
X64468Y132403D01*
X64405Y132497D01*
X64338Y132588D01*
X64269Y132678D01*
X64196Y132765D01*
X64120Y132849D01*
X64041Y132930D01*
X63960Y133009D01*
X63876Y133085D01*
X63789Y133158D01*
X63700Y133227D01*
X63608Y133294D01*
X67118Y137175D02*
X63927Y139409D01*
X67117Y137175D02*
X67198Y137115D01*
X67277Y137053D01*
X67354Y136987D01*
X67428Y136919D01*
X67499Y136848D01*
X67567Y136774D01*
X67633Y136697D01*
X67695Y136618D01*
X67755Y136537D01*
X67811Y136453D01*
X67864Y136368D01*
X67913Y136280D01*
X67959Y136191D01*
X68002Y136099D01*
X68041Y136006D01*
X68076Y135912D01*
X68108Y135817D01*
X68136Y135720D01*
X68160Y135622D01*
X68180Y135524D01*
X68197Y135424D01*
X68209Y135324D01*
X68218Y135224D01*
X68223Y135124D01*
X68224Y135023D01*
X68221Y134922D01*
X68214Y134822D01*
X68203Y134722D01*
X68189Y134622D01*
X68170Y134523D01*
X68148Y134425D01*
X68122Y134328D01*
X68092Y134231D01*
X68059Y134137D01*
X68022Y134043D01*
X67981Y133951D01*
X67936Y133860D01*
X67889Y133772D01*
X67837Y133685D01*
X67783Y133601D01*
X67725Y133518D01*
X67664Y133438D01*
X67600Y133360D01*
X67533Y133285D01*
X67464Y133212D01*
X67391Y133143D01*
X67316Y133076D01*
X67238Y133012D01*
X67158Y132951D01*
X67075Y132893D01*
X66991Y132839D01*
X66904Y132787D01*
X66816Y132740D01*
X66725Y132695D01*
X66633Y132654D01*
X66539Y132617D01*
X66445Y132584D01*
X66348Y132554D01*
X66251Y132528D01*
X66153Y132506D01*
X66054Y132487D01*
X65954Y132473D01*
X65854Y132462D01*
X65754Y132455D01*
X65653Y132452D01*
X65552Y132453D01*
X65452Y132458D01*
X65352Y132467D01*
X65252Y132479D01*
X65152Y132496D01*
X65054Y132516D01*
X64956Y132540D01*
X64859Y132568D01*
X64764Y132600D01*
X64670Y132635D01*
X64577Y132674D01*
X64485Y132717D01*
X64396Y132763D01*
X64308Y132812D01*
X64223Y132865D01*
X64139Y132921D01*
X62012Y134411D01*
X72758Y133225D02*
X69247Y121420D01*
X79139Y128758D01*
X75951Y116726D02*
X78610Y114864D01*
X78704Y114801D01*
X78800Y114741D01*
X78898Y114684D01*
X78998Y114631D01*
X79100Y114581D01*
X79204Y114535D01*
X79309Y114493D01*
X79415Y114454D01*
X79523Y114419D01*
X79632Y114388D01*
X79742Y114360D01*
X79853Y114337D01*
X79964Y114317D01*
X80076Y114301D01*
X80189Y114289D01*
X80302Y114281D01*
X80415Y114277D01*
X80529Y114277D01*
X80642Y114281D01*
X80755Y114289D01*
X80868Y114301D01*
X80980Y114317D01*
X81091Y114337D01*
X81202Y114360D01*
X81312Y114388D01*
X81421Y114419D01*
X81529Y114454D01*
X81635Y114493D01*
X81740Y114535D01*
X81844Y114581D01*
X81946Y114631D01*
X82046Y114684D01*
X82144Y114741D01*
X82240Y114801D01*
X82334Y114864D01*
X82425Y114931D01*
X82515Y115000D01*
X82602Y115073D01*
X82686Y115149D01*
X82767Y115228D01*
X82846Y115309D01*
X82922Y115393D01*
X82995Y115480D01*
X83064Y115570D01*
X83131Y115661D01*
X83194Y115755D01*
X83254Y115851D01*
X83311Y115949D01*
X83364Y116049D01*
X83414Y116151D01*
X83460Y116255D01*
X83502Y116360D01*
X83541Y116466D01*
X83576Y116574D01*
X83607Y116683D01*
X83635Y116793D01*
X83658Y116904D01*
X83678Y117015D01*
X83694Y117127D01*
X83706Y117240D01*
X83714Y117353D01*
X83718Y117466D01*
X83718Y117580D01*
X83714Y117693D01*
X83706Y117806D01*
X83694Y117919D01*
X83678Y118031D01*
X83658Y118142D01*
X83635Y118253D01*
X83607Y118363D01*
X83576Y118472D01*
X83541Y118580D01*
X83502Y118686D01*
X83460Y118791D01*
X83414Y118895D01*
X83364Y118997D01*
X83311Y119097D01*
X83254Y119195D01*
X83194Y119291D01*
X83131Y119385D01*
X83064Y119476D01*
X82995Y119566D01*
X82922Y119653D01*
X82846Y119737D01*
X82767Y119818D01*
X82686Y119897D01*
X82602Y119973D01*
X82515Y120046D01*
X82426Y120115D01*
X82334Y120182D01*
X85843Y124063D02*
X82653Y126297D01*
X85843Y124063D02*
X85924Y124003D01*
X86003Y123941D01*
X86080Y123875D01*
X86154Y123807D01*
X86225Y123736D01*
X86293Y123662D01*
X86359Y123585D01*
X86421Y123506D01*
X86481Y123425D01*
X86537Y123341D01*
X86590Y123256D01*
X86639Y123168D01*
X86685Y123079D01*
X86728Y122987D01*
X86767Y122894D01*
X86802Y122800D01*
X86834Y122705D01*
X86862Y122608D01*
X86886Y122510D01*
X86906Y122412D01*
X86923Y122312D01*
X86935Y122212D01*
X86944Y122112D01*
X86949Y122012D01*
X86950Y121911D01*
X86947Y121810D01*
X86940Y121710D01*
X86929Y121610D01*
X86915Y121510D01*
X86896Y121411D01*
X86874Y121313D01*
X86848Y121216D01*
X86818Y121119D01*
X86785Y121025D01*
X86748Y120931D01*
X86707Y120839D01*
X86662Y120748D01*
X86615Y120660D01*
X86563Y120573D01*
X86509Y120489D01*
X86451Y120406D01*
X86390Y120326D01*
X86326Y120248D01*
X86259Y120173D01*
X86190Y120100D01*
X86117Y120031D01*
X86042Y119964D01*
X85964Y119900D01*
X85884Y119839D01*
X85801Y119781D01*
X85717Y119727D01*
X85630Y119675D01*
X85542Y119628D01*
X85451Y119583D01*
X85359Y119542D01*
X85265Y119505D01*
X85171Y119472D01*
X85074Y119442D01*
X84977Y119416D01*
X84879Y119394D01*
X84780Y119375D01*
X84680Y119361D01*
X84580Y119350D01*
X84480Y119343D01*
X84379Y119340D01*
X84278Y119341D01*
X84178Y119346D01*
X84078Y119355D01*
X83978Y119367D01*
X83878Y119384D01*
X83780Y119404D01*
X83682Y119428D01*
X83585Y119456D01*
X83490Y119488D01*
X83396Y119523D01*
X83303Y119562D01*
X83211Y119605D01*
X83122Y119651D01*
X83034Y119700D01*
X82949Y119753D01*
X82865Y119809D01*
X80738Y121299D01*
X121724Y8292D02*
X124970Y8292D01*
X125083Y8294D01*
X125196Y8300D01*
X125309Y8310D01*
X125422Y8324D01*
X125534Y8341D01*
X125645Y8363D01*
X125755Y8388D01*
X125865Y8418D01*
X125973Y8451D01*
X126080Y8488D01*
X126186Y8528D01*
X126290Y8573D01*
X126393Y8621D01*
X126494Y8672D01*
X126593Y8727D01*
X126690Y8785D01*
X126785Y8847D01*
X126878Y8912D01*
X126968Y8980D01*
X127056Y9051D01*
X127142Y9126D01*
X127225Y9203D01*
X127305Y9283D01*
X127382Y9366D01*
X127457Y9452D01*
X127528Y9540D01*
X127596Y9630D01*
X127661Y9723D01*
X127723Y9818D01*
X127781Y9915D01*
X127836Y10014D01*
X127887Y10115D01*
X127935Y10218D01*
X127980Y10322D01*
X128020Y10428D01*
X128057Y10535D01*
X128090Y10643D01*
X128120Y10753D01*
X128145Y10863D01*
X128167Y10974D01*
X128184Y11086D01*
X128198Y11199D01*
X128208Y11312D01*
X128214Y11425D01*
X128216Y11538D01*
X128214Y11651D01*
X128208Y11764D01*
X128198Y11877D01*
X128184Y11990D01*
X128167Y12102D01*
X128145Y12213D01*
X128120Y12323D01*
X128090Y12433D01*
X128057Y12541D01*
X128020Y12648D01*
X127980Y12754D01*
X127935Y12858D01*
X127887Y12961D01*
X127836Y13062D01*
X127781Y13161D01*
X127723Y13258D01*
X127661Y13353D01*
X127596Y13446D01*
X127528Y13536D01*
X127457Y13624D01*
X127382Y13710D01*
X127305Y13793D01*
X127225Y13873D01*
X127142Y13950D01*
X127056Y14025D01*
X126968Y14096D01*
X126878Y14164D01*
X126785Y14229D01*
X126690Y14291D01*
X126593Y14349D01*
X126494Y14404D01*
X126393Y14455D01*
X126290Y14503D01*
X126186Y14548D01*
X126080Y14588D01*
X125973Y14625D01*
X125865Y14658D01*
X125755Y14688D01*
X125645Y14713D01*
X125534Y14735D01*
X125422Y14752D01*
X125309Y14766D01*
X125196Y14776D01*
X125083Y14782D01*
X124970Y14784D01*
X125619Y19976D02*
X121724Y19976D01*
X125619Y19976D02*
X125720Y19974D01*
X125820Y19968D01*
X125920Y19958D01*
X126020Y19945D01*
X126119Y19927D01*
X126218Y19906D01*
X126315Y19881D01*
X126412Y19852D01*
X126507Y19819D01*
X126601Y19783D01*
X126693Y19743D01*
X126784Y19700D01*
X126873Y19653D01*
X126960Y19603D01*
X127046Y19549D01*
X127129Y19492D01*
X127209Y19432D01*
X127288Y19369D01*
X127364Y19302D01*
X127437Y19233D01*
X127507Y19161D01*
X127575Y19087D01*
X127640Y19010D01*
X127701Y18930D01*
X127760Y18848D01*
X127815Y18764D01*
X127867Y18678D01*
X127916Y18590D01*
X127961Y18500D01*
X128003Y18408D01*
X128041Y18315D01*
X128075Y18220D01*
X128106Y18125D01*
X128133Y18028D01*
X128156Y17930D01*
X128176Y17831D01*
X128191Y17731D01*
X128203Y17631D01*
X128211Y17531D01*
X128215Y17430D01*
X128215Y17330D01*
X128211Y17229D01*
X128203Y17129D01*
X128191Y17029D01*
X128176Y16929D01*
X128156Y16830D01*
X128133Y16732D01*
X128106Y16635D01*
X128075Y16540D01*
X128041Y16445D01*
X128003Y16352D01*
X127961Y16260D01*
X127916Y16170D01*
X127867Y16082D01*
X127815Y15996D01*
X127760Y15912D01*
X127701Y15830D01*
X127640Y15750D01*
X127575Y15673D01*
X127507Y15599D01*
X127437Y15527D01*
X127364Y15458D01*
X127288Y15391D01*
X127209Y15328D01*
X127129Y15268D01*
X127046Y15211D01*
X126960Y15157D01*
X126873Y15107D01*
X126784Y15060D01*
X126693Y15017D01*
X126601Y14977D01*
X126507Y14941D01*
X126412Y14908D01*
X126315Y14879D01*
X126218Y14854D01*
X126119Y14833D01*
X126020Y14815D01*
X125920Y14802D01*
X125820Y14792D01*
X125720Y14786D01*
X125619Y14784D01*
X125619Y14783D02*
X123023Y14783D01*
X132505Y19976D02*
X136400Y8292D01*
X140295Y19976D01*
X144584Y8292D02*
X147830Y8292D01*
X147943Y8294D01*
X148056Y8300D01*
X148169Y8310D01*
X148282Y8324D01*
X148394Y8341D01*
X148505Y8363D01*
X148615Y8388D01*
X148725Y8418D01*
X148833Y8451D01*
X148940Y8488D01*
X149046Y8528D01*
X149150Y8573D01*
X149253Y8621D01*
X149354Y8672D01*
X149453Y8727D01*
X149550Y8785D01*
X149645Y8847D01*
X149738Y8912D01*
X149828Y8980D01*
X149916Y9051D01*
X150002Y9126D01*
X150085Y9203D01*
X150165Y9283D01*
X150242Y9366D01*
X150317Y9452D01*
X150388Y9540D01*
X150456Y9630D01*
X150521Y9723D01*
X150583Y9818D01*
X150641Y9915D01*
X150696Y10014D01*
X150747Y10115D01*
X150795Y10218D01*
X150840Y10322D01*
X150880Y10428D01*
X150917Y10535D01*
X150950Y10643D01*
X150980Y10753D01*
X151005Y10863D01*
X151027Y10974D01*
X151044Y11086D01*
X151058Y11199D01*
X151068Y11312D01*
X151074Y11425D01*
X151076Y11538D01*
X151074Y11651D01*
X151068Y11764D01*
X151058Y11877D01*
X151044Y11990D01*
X151027Y12102D01*
X151005Y12213D01*
X150980Y12323D01*
X150950Y12433D01*
X150917Y12541D01*
X150880Y12648D01*
X150840Y12754D01*
X150795Y12858D01*
X150747Y12961D01*
X150696Y13062D01*
X150641Y13161D01*
X150583Y13258D01*
X150521Y13353D01*
X150456Y13446D01*
X150388Y13536D01*
X150317Y13624D01*
X150242Y13710D01*
X150165Y13793D01*
X150085Y13873D01*
X150002Y13950D01*
X149916Y14025D01*
X149828Y14096D01*
X149738Y14164D01*
X149645Y14229D01*
X149550Y14291D01*
X149453Y14349D01*
X149354Y14404D01*
X149253Y14455D01*
X149150Y14503D01*
X149046Y14548D01*
X148940Y14588D01*
X148833Y14625D01*
X148725Y14658D01*
X148615Y14688D01*
X148505Y14713D01*
X148394Y14735D01*
X148282Y14752D01*
X148169Y14766D01*
X148056Y14776D01*
X147943Y14782D01*
X147830Y14784D01*
X148479Y19976D02*
X144584Y19976D01*
X148479Y19976D02*
X148580Y19974D01*
X148680Y19968D01*
X148780Y19958D01*
X148880Y19945D01*
X148979Y19927D01*
X149078Y19906D01*
X149175Y19881D01*
X149272Y19852D01*
X149367Y19819D01*
X149461Y19783D01*
X149553Y19743D01*
X149644Y19700D01*
X149733Y19653D01*
X149820Y19603D01*
X149906Y19549D01*
X149989Y19492D01*
X150069Y19432D01*
X150148Y19369D01*
X150224Y19302D01*
X150297Y19233D01*
X150367Y19161D01*
X150435Y19087D01*
X150500Y19010D01*
X150561Y18930D01*
X150620Y18848D01*
X150675Y18764D01*
X150727Y18678D01*
X150776Y18590D01*
X150821Y18500D01*
X150863Y18408D01*
X150901Y18315D01*
X150935Y18220D01*
X150966Y18125D01*
X150993Y18028D01*
X151016Y17930D01*
X151036Y17831D01*
X151051Y17731D01*
X151063Y17631D01*
X151071Y17531D01*
X151075Y17430D01*
X151075Y17330D01*
X151071Y17229D01*
X151063Y17129D01*
X151051Y17029D01*
X151036Y16929D01*
X151016Y16830D01*
X150993Y16732D01*
X150966Y16635D01*
X150935Y16540D01*
X150901Y16445D01*
X150863Y16352D01*
X150821Y16260D01*
X150776Y16170D01*
X150727Y16082D01*
X150675Y15996D01*
X150620Y15912D01*
X150561Y15830D01*
X150500Y15750D01*
X150435Y15673D01*
X150367Y15599D01*
X150297Y15527D01*
X150224Y15458D01*
X150148Y15391D01*
X150069Y15328D01*
X149989Y15268D01*
X149906Y15211D01*
X149820Y15157D01*
X149733Y15107D01*
X149644Y15060D01*
X149553Y15017D01*
X149461Y14977D01*
X149367Y14941D01*
X149272Y14908D01*
X149175Y14879D01*
X149078Y14854D01*
X148979Y14833D01*
X148880Y14815D01*
X148780Y14802D01*
X148680Y14792D01*
X148580Y14786D01*
X148479Y14784D01*
X148479Y14783D02*
X145883Y14783D01*
X-147064Y8214D02*
X-150310Y8214D01*
X-147064Y8214D02*
X-146951Y8216D01*
X-146838Y8222D01*
X-146725Y8232D01*
X-146612Y8246D01*
X-146500Y8263D01*
X-146389Y8285D01*
X-146279Y8310D01*
X-146169Y8340D01*
X-146061Y8373D01*
X-145954Y8410D01*
X-145848Y8450D01*
X-145744Y8495D01*
X-145641Y8543D01*
X-145540Y8594D01*
X-145441Y8649D01*
X-145344Y8707D01*
X-145249Y8769D01*
X-145156Y8834D01*
X-145066Y8902D01*
X-144978Y8973D01*
X-144892Y9048D01*
X-144809Y9125D01*
X-144729Y9205D01*
X-144652Y9288D01*
X-144577Y9374D01*
X-144506Y9462D01*
X-144438Y9552D01*
X-144373Y9645D01*
X-144311Y9740D01*
X-144253Y9837D01*
X-144198Y9936D01*
X-144147Y10037D01*
X-144099Y10140D01*
X-144054Y10244D01*
X-144014Y10350D01*
X-143977Y10457D01*
X-143944Y10565D01*
X-143914Y10675D01*
X-143889Y10785D01*
X-143867Y10896D01*
X-143850Y11008D01*
X-143836Y11121D01*
X-143826Y11234D01*
X-143820Y11347D01*
X-143818Y11460D01*
X-143820Y11573D01*
X-143826Y11686D01*
X-143836Y11799D01*
X-143850Y11912D01*
X-143867Y12024D01*
X-143889Y12135D01*
X-143914Y12245D01*
X-143944Y12355D01*
X-143977Y12463D01*
X-144014Y12570D01*
X-144054Y12676D01*
X-144099Y12780D01*
X-144147Y12883D01*
X-144198Y12984D01*
X-144253Y13083D01*
X-144311Y13180D01*
X-144373Y13275D01*
X-144438Y13368D01*
X-144506Y13458D01*
X-144577Y13546D01*
X-144652Y13632D01*
X-144729Y13715D01*
X-144809Y13795D01*
X-144892Y13872D01*
X-144978Y13947D01*
X-145066Y14018D01*
X-145156Y14086D01*
X-145249Y14151D01*
X-145344Y14213D01*
X-145441Y14271D01*
X-145540Y14326D01*
X-145641Y14377D01*
X-145744Y14425D01*
X-145848Y14470D01*
X-145954Y14510D01*
X-146061Y14547D01*
X-146169Y14580D01*
X-146279Y14610D01*
X-146389Y14635D01*
X-146500Y14657D01*
X-146612Y14674D01*
X-146725Y14688D01*
X-146838Y14698D01*
X-146951Y14704D01*
X-147064Y14706D01*
X-146415Y19898D02*
X-150310Y19898D01*
X-146415Y19898D02*
X-146314Y19896D01*
X-146214Y19890D01*
X-146114Y19880D01*
X-146014Y19867D01*
X-145915Y19849D01*
X-145816Y19828D01*
X-145719Y19803D01*
X-145622Y19774D01*
X-145527Y19741D01*
X-145433Y19705D01*
X-145341Y19665D01*
X-145250Y19622D01*
X-145161Y19575D01*
X-145074Y19525D01*
X-144988Y19471D01*
X-144905Y19414D01*
X-144825Y19354D01*
X-144746Y19291D01*
X-144670Y19224D01*
X-144597Y19155D01*
X-144527Y19083D01*
X-144459Y19009D01*
X-144394Y18932D01*
X-144333Y18852D01*
X-144274Y18770D01*
X-144219Y18686D01*
X-144167Y18600D01*
X-144118Y18512D01*
X-144073Y18422D01*
X-144031Y18330D01*
X-143993Y18237D01*
X-143959Y18142D01*
X-143928Y18047D01*
X-143901Y17950D01*
X-143878Y17852D01*
X-143858Y17753D01*
X-143843Y17653D01*
X-143831Y17553D01*
X-143823Y17453D01*
X-143819Y17352D01*
X-143819Y17252D01*
X-143823Y17151D01*
X-143831Y17051D01*
X-143843Y16951D01*
X-143858Y16851D01*
X-143878Y16752D01*
X-143901Y16654D01*
X-143928Y16557D01*
X-143959Y16462D01*
X-143993Y16367D01*
X-144031Y16274D01*
X-144073Y16182D01*
X-144118Y16092D01*
X-144167Y16004D01*
X-144219Y15918D01*
X-144274Y15834D01*
X-144333Y15752D01*
X-144394Y15672D01*
X-144459Y15595D01*
X-144527Y15521D01*
X-144597Y15449D01*
X-144670Y15380D01*
X-144746Y15313D01*
X-144825Y15250D01*
X-144905Y15190D01*
X-144988Y15133D01*
X-145074Y15079D01*
X-145161Y15029D01*
X-145250Y14982D01*
X-145341Y14939D01*
X-145433Y14899D01*
X-145527Y14863D01*
X-145622Y14830D01*
X-145719Y14801D01*
X-145816Y14776D01*
X-145915Y14755D01*
X-146014Y14737D01*
X-146114Y14724D01*
X-146214Y14714D01*
X-146314Y14708D01*
X-146415Y14706D01*
X-146415Y14705D02*
X-149011Y14705D01*
X-139529Y19898D02*
X-135634Y8214D01*
X-131739Y19898D01*
X-127450Y8214D02*
X-124204Y8214D01*
X-124091Y8216D01*
X-123978Y8222D01*
X-123865Y8232D01*
X-123752Y8246D01*
X-123640Y8263D01*
X-123529Y8285D01*
X-123419Y8310D01*
X-123309Y8340D01*
X-123201Y8373D01*
X-123094Y8410D01*
X-122988Y8450D01*
X-122884Y8495D01*
X-122781Y8543D01*
X-122680Y8594D01*
X-122581Y8649D01*
X-122484Y8707D01*
X-122389Y8769D01*
X-122296Y8834D01*
X-122206Y8902D01*
X-122118Y8973D01*
X-122032Y9048D01*
X-121949Y9125D01*
X-121869Y9205D01*
X-121792Y9288D01*
X-121717Y9374D01*
X-121646Y9462D01*
X-121578Y9552D01*
X-121513Y9645D01*
X-121451Y9740D01*
X-121393Y9837D01*
X-121338Y9936D01*
X-121287Y10037D01*
X-121239Y10140D01*
X-121194Y10244D01*
X-121154Y10350D01*
X-121117Y10457D01*
X-121084Y10565D01*
X-121054Y10675D01*
X-121029Y10785D01*
X-121007Y10896D01*
X-120990Y11008D01*
X-120976Y11121D01*
X-120966Y11234D01*
X-120960Y11347D01*
X-120958Y11460D01*
X-120960Y11573D01*
X-120966Y11686D01*
X-120976Y11799D01*
X-120990Y11912D01*
X-121007Y12024D01*
X-121029Y12135D01*
X-121054Y12245D01*
X-121084Y12355D01*
X-121117Y12463D01*
X-121154Y12570D01*
X-121194Y12676D01*
X-121239Y12780D01*
X-121287Y12883D01*
X-121338Y12984D01*
X-121393Y13083D01*
X-121451Y13180D01*
X-121513Y13275D01*
X-121578Y13368D01*
X-121646Y13458D01*
X-121717Y13546D01*
X-121792Y13632D01*
X-121869Y13715D01*
X-121949Y13795D01*
X-122032Y13872D01*
X-122118Y13947D01*
X-122206Y14018D01*
X-122296Y14086D01*
X-122389Y14151D01*
X-122484Y14213D01*
X-122581Y14271D01*
X-122680Y14326D01*
X-122781Y14377D01*
X-122884Y14425D01*
X-122988Y14470D01*
X-123094Y14510D01*
X-123201Y14547D01*
X-123309Y14580D01*
X-123419Y14610D01*
X-123529Y14635D01*
X-123640Y14657D01*
X-123752Y14674D01*
X-123865Y14688D01*
X-123978Y14698D01*
X-124091Y14704D01*
X-124204Y14706D01*
X-123555Y19898D02*
X-127450Y19898D01*
X-123555Y19898D02*
X-123454Y19896D01*
X-123354Y19890D01*
X-123254Y19880D01*
X-123154Y19867D01*
X-123055Y19849D01*
X-122956Y19828D01*
X-122859Y19803D01*
X-122762Y19774D01*
X-122667Y19741D01*
X-122573Y19705D01*
X-122481Y19665D01*
X-122390Y19622D01*
X-122301Y19575D01*
X-122214Y19525D01*
X-122128Y19471D01*
X-122045Y19414D01*
X-121965Y19354D01*
X-121886Y19291D01*
X-121810Y19224D01*
X-121737Y19155D01*
X-121667Y19083D01*
X-121599Y19009D01*
X-121534Y18932D01*
X-121473Y18852D01*
X-121414Y18770D01*
X-121359Y18686D01*
X-121307Y18600D01*
X-121258Y18512D01*
X-121213Y18422D01*
X-121171Y18330D01*
X-121133Y18237D01*
X-121099Y18142D01*
X-121068Y18047D01*
X-121041Y17950D01*
X-121018Y17852D01*
X-120998Y17753D01*
X-120983Y17653D01*
X-120971Y17553D01*
X-120963Y17453D01*
X-120959Y17352D01*
X-120959Y17252D01*
X-120963Y17151D01*
X-120971Y17051D01*
X-120983Y16951D01*
X-120998Y16851D01*
X-121018Y16752D01*
X-121041Y16654D01*
X-121068Y16557D01*
X-121099Y16462D01*
X-121133Y16367D01*
X-121171Y16274D01*
X-121213Y16182D01*
X-121258Y16092D01*
X-121307Y16004D01*
X-121359Y15918D01*
X-121414Y15834D01*
X-121473Y15752D01*
X-121534Y15672D01*
X-121599Y15595D01*
X-121667Y15521D01*
X-121737Y15449D01*
X-121810Y15380D01*
X-121886Y15313D01*
X-121965Y15250D01*
X-122045Y15190D01*
X-122128Y15133D01*
X-122214Y15079D01*
X-122301Y15029D01*
X-122390Y14982D01*
X-122481Y14939D01*
X-122573Y14899D01*
X-122667Y14863D01*
X-122762Y14830D01*
X-122859Y14801D01*
X-122956Y14776D01*
X-123055Y14755D01*
X-123154Y14737D01*
X-123254Y14724D01*
X-123354Y14714D01*
X-123454Y14708D01*
X-123555Y14706D01*
X-123555Y14705D02*
X-126151Y14705D01*
X-81273Y113003D02*
X-78614Y114865D01*
X-78614Y114864D02*
X-78523Y114931D01*
X-78433Y115000D01*
X-78346Y115073D01*
X-78262Y115149D01*
X-78181Y115228D01*
X-78102Y115309D01*
X-78026Y115393D01*
X-77953Y115480D01*
X-77884Y115569D01*
X-77817Y115661D01*
X-77754Y115755D01*
X-77694Y115851D01*
X-77637Y115949D01*
X-77584Y116049D01*
X-77534Y116151D01*
X-77488Y116255D01*
X-77446Y116360D01*
X-77407Y116466D01*
X-77372Y116574D01*
X-77341Y116683D01*
X-77313Y116793D01*
X-77290Y116904D01*
X-77270Y117015D01*
X-77254Y117127D01*
X-77242Y117240D01*
X-77234Y117353D01*
X-77230Y117466D01*
X-77230Y117580D01*
X-77234Y117693D01*
X-77242Y117806D01*
X-77254Y117919D01*
X-77270Y118031D01*
X-77290Y118142D01*
X-77313Y118253D01*
X-77341Y118363D01*
X-77372Y118472D01*
X-77407Y118580D01*
X-77446Y118686D01*
X-77488Y118791D01*
X-77534Y118895D01*
X-77584Y118997D01*
X-77637Y119097D01*
X-77694Y119195D01*
X-77754Y119291D01*
X-77817Y119385D01*
X-77884Y119476D01*
X-77953Y119566D01*
X-78026Y119653D01*
X-78102Y119737D01*
X-78181Y119818D01*
X-78262Y119897D01*
X-78346Y119973D01*
X-78433Y120046D01*
X-78523Y120115D01*
X-78614Y120182D01*
X-78708Y120245D01*
X-78804Y120305D01*
X-78902Y120362D01*
X-79002Y120415D01*
X-79104Y120465D01*
X-79208Y120511D01*
X-79313Y120553D01*
X-79419Y120592D01*
X-79527Y120627D01*
X-79636Y120658D01*
X-79746Y120686D01*
X-79857Y120709D01*
X-79968Y120729D01*
X-80080Y120745D01*
X-80193Y120757D01*
X-80306Y120765D01*
X-80419Y120769D01*
X-80533Y120769D01*
X-80646Y120765D01*
X-80759Y120757D01*
X-80872Y120745D01*
X-80984Y120729D01*
X-81095Y120709D01*
X-81206Y120686D01*
X-81316Y120658D01*
X-81425Y120627D01*
X-81533Y120592D01*
X-81639Y120553D01*
X-81744Y120511D01*
X-81848Y120465D01*
X-81950Y120415D01*
X-82050Y120362D01*
X-82148Y120305D01*
X-82244Y120245D01*
X-82338Y120182D01*
X-84784Y124808D02*
X-87974Y122574D01*
X-84784Y124808D02*
X-84700Y124864D01*
X-84615Y124917D01*
X-84527Y124966D01*
X-84438Y125012D01*
X-84346Y125055D01*
X-84253Y125094D01*
X-84159Y125129D01*
X-84064Y125161D01*
X-83967Y125189D01*
X-83869Y125213D01*
X-83771Y125233D01*
X-83671Y125250D01*
X-83571Y125262D01*
X-83471Y125271D01*
X-83371Y125276D01*
X-83270Y125277D01*
X-83169Y125274D01*
X-83069Y125267D01*
X-82969Y125256D01*
X-82869Y125242D01*
X-82770Y125223D01*
X-82672Y125201D01*
X-82575Y125175D01*
X-82478Y125145D01*
X-82384Y125112D01*
X-82290Y125075D01*
X-82198Y125034D01*
X-82107Y124989D01*
X-82019Y124942D01*
X-81932Y124890D01*
X-81848Y124836D01*
X-81765Y124778D01*
X-81685Y124717D01*
X-81607Y124653D01*
X-81532Y124586D01*
X-81459Y124517D01*
X-81390Y124444D01*
X-81323Y124369D01*
X-81259Y124291D01*
X-81198Y124211D01*
X-81140Y124128D01*
X-81086Y124044D01*
X-81034Y123957D01*
X-80987Y123869D01*
X-80942Y123778D01*
X-80901Y123686D01*
X-80864Y123592D01*
X-80831Y123498D01*
X-80801Y123401D01*
X-80775Y123304D01*
X-80753Y123206D01*
X-80734Y123107D01*
X-80720Y123007D01*
X-80709Y122907D01*
X-80702Y122807D01*
X-80699Y122706D01*
X-80700Y122605D01*
X-80705Y122505D01*
X-80714Y122405D01*
X-80726Y122305D01*
X-80743Y122205D01*
X-80763Y122107D01*
X-80787Y122009D01*
X-80815Y121912D01*
X-80847Y121817D01*
X-80882Y121723D01*
X-80921Y121630D01*
X-80964Y121538D01*
X-81010Y121449D01*
X-81059Y121361D01*
X-81112Y121276D01*
X-81168Y121192D01*
X-81228Y121111D01*
X-81290Y121032D01*
X-81356Y120955D01*
X-81424Y120881D01*
X-81495Y120810D01*
X-81569Y120742D01*
X-81646Y120676D01*
X-81725Y120614D01*
X-81806Y120554D01*
X-81805Y120554D02*
X-83932Y119065D01*
X-79143Y128758D02*
X-69251Y121420D01*
X-72762Y133225D01*
X-62547Y126115D02*
X-59888Y127976D01*
X-59797Y128043D01*
X-59707Y128112D01*
X-59620Y128185D01*
X-59536Y128261D01*
X-59455Y128340D01*
X-59376Y128421D01*
X-59300Y128505D01*
X-59227Y128592D01*
X-59158Y128681D01*
X-59091Y128773D01*
X-59028Y128867D01*
X-58968Y128963D01*
X-58911Y129061D01*
X-58858Y129161D01*
X-58808Y129263D01*
X-58762Y129367D01*
X-58720Y129472D01*
X-58681Y129578D01*
X-58646Y129686D01*
X-58615Y129795D01*
X-58587Y129905D01*
X-58564Y130016D01*
X-58544Y130127D01*
X-58528Y130239D01*
X-58516Y130352D01*
X-58508Y130465D01*
X-58504Y130578D01*
X-58504Y130692D01*
X-58508Y130805D01*
X-58516Y130918D01*
X-58528Y131031D01*
X-58544Y131143D01*
X-58564Y131254D01*
X-58587Y131365D01*
X-58615Y131475D01*
X-58646Y131584D01*
X-58681Y131692D01*
X-58720Y131798D01*
X-58762Y131903D01*
X-58808Y132007D01*
X-58858Y132109D01*
X-58911Y132209D01*
X-58968Y132307D01*
X-59028Y132403D01*
X-59091Y132497D01*
X-59158Y132588D01*
X-59227Y132678D01*
X-59300Y132765D01*
X-59376Y132849D01*
X-59455Y132930D01*
X-59536Y133009D01*
X-59620Y133085D01*
X-59707Y133158D01*
X-59797Y133227D01*
X-59888Y133294D01*
X-59982Y133357D01*
X-60078Y133417D01*
X-60176Y133474D01*
X-60276Y133527D01*
X-60378Y133577D01*
X-60482Y133623D01*
X-60587Y133665D01*
X-60693Y133704D01*
X-60801Y133739D01*
X-60910Y133770D01*
X-61020Y133798D01*
X-61131Y133821D01*
X-61242Y133841D01*
X-61354Y133857D01*
X-61467Y133869D01*
X-61580Y133877D01*
X-61693Y133881D01*
X-61807Y133881D01*
X-61920Y133877D01*
X-62033Y133869D01*
X-62146Y133857D01*
X-62258Y133841D01*
X-62369Y133821D01*
X-62480Y133798D01*
X-62590Y133770D01*
X-62699Y133739D01*
X-62807Y133704D01*
X-62913Y133665D01*
X-63018Y133623D01*
X-63122Y133577D01*
X-63224Y133527D01*
X-63324Y133474D01*
X-63422Y133417D01*
X-63518Y133357D01*
X-63612Y133294D01*
X-66058Y137920D02*
X-69248Y135686D01*
X-66058Y137920D02*
X-65974Y137976D01*
X-65889Y138029D01*
X-65801Y138078D01*
X-65712Y138124D01*
X-65620Y138167D01*
X-65527Y138206D01*
X-65433Y138241D01*
X-65338Y138273D01*
X-65241Y138301D01*
X-65143Y138325D01*
X-65045Y138345D01*
X-64945Y138362D01*
X-64845Y138374D01*
X-64745Y138383D01*
X-64645Y138388D01*
X-64544Y138389D01*
X-64443Y138386D01*
X-64343Y138379D01*
X-64243Y138368D01*
X-64143Y138354D01*
X-64044Y138335D01*
X-63946Y138313D01*
X-63849Y138287D01*
X-63752Y138257D01*
X-63658Y138224D01*
X-63564Y138187D01*
X-63472Y138146D01*
X-63381Y138101D01*
X-63293Y138054D01*
X-63206Y138002D01*
X-63122Y137948D01*
X-63039Y137890D01*
X-62959Y137829D01*
X-62881Y137765D01*
X-62806Y137698D01*
X-62733Y137629D01*
X-62664Y137556D01*
X-62597Y137481D01*
X-62533Y137403D01*
X-62472Y137323D01*
X-62414Y137240D01*
X-62360Y137156D01*
X-62308Y137069D01*
X-62261Y136981D01*
X-62216Y136890D01*
X-62175Y136798D01*
X-62138Y136704D01*
X-62105Y136610D01*
X-62075Y136513D01*
X-62049Y136416D01*
X-62027Y136318D01*
X-62008Y136219D01*
X-61994Y136119D01*
X-61983Y136019D01*
X-61976Y135919D01*
X-61973Y135818D01*
X-61974Y135717D01*
X-61979Y135617D01*
X-61988Y135517D01*
X-62000Y135417D01*
X-62017Y135317D01*
X-62037Y135219D01*
X-62061Y135121D01*
X-62089Y135024D01*
X-62121Y134929D01*
X-62156Y134835D01*
X-62195Y134742D01*
X-62238Y134650D01*
X-62284Y134561D01*
X-62333Y134473D01*
X-62386Y134388D01*
X-62442Y134304D01*
X-62502Y134223D01*
X-62564Y134144D01*
X-62630Y134067D01*
X-62698Y133993D01*
X-62769Y133922D01*
X-62843Y133854D01*
X-62920Y133788D01*
X-62999Y133726D01*
X-63080Y133666D01*
X-65206Y132177D01*
D11*
X-12497Y64999D03*
D12*
X4267Y64999D03*
D13*
X-13106Y65202D03*
D14*
X4674Y65202D03*
D15*
X-13310Y65405D03*
D16*
X4877Y65405D03*
D17*
X-13411Y65608D03*
D18*
X4978Y65608D03*
D19*
X-13614Y65811D03*
D20*
X5182Y65811D03*
D21*
X-13716Y66015D03*
D22*
X5283Y66015D03*
D23*
X-13818Y66218D03*
D24*
X5385Y66218D03*
D25*
X-13919Y66421D03*
D26*
X5486Y66421D03*
D27*
X-14021Y66624D03*
D28*
X5588Y66624D03*
D29*
X-14122Y66827D03*
D30*
X5690Y66827D03*
D29*
X-14122Y67031D03*
D30*
X5690Y67031D03*
D31*
X-14224Y67234D03*
D32*
X5791Y67234D03*
D31*
X-14224Y67437D03*
D32*
X5791Y67437D03*
D31*
X-14224Y67640D03*
D33*
X5893Y67640D03*
D34*
X-14326Y67843D03*
D35*
X5994Y67843D03*
D36*
X-14427Y68047D03*
D35*
X5994Y68047D03*
D37*
X-14529Y68250D03*
D38*
X6096Y68250D03*
D37*
X-14529Y68453D03*
D38*
X6096Y68453D03*
D39*
X-14630Y68656D03*
D40*
X6198Y68656D03*
D39*
X-14630Y68859D03*
D40*
X6198Y68859D03*
D41*
X-14732Y69063D03*
D42*
X6299Y69063D03*
D41*
X-14732Y69266D03*
D43*
X6401Y69266D03*
D44*
X-14834Y69469D03*
D43*
X6401Y69469D03*
D45*
X-14935Y69672D03*
D46*
X6502Y69672D03*
D45*
X-14935Y69875D03*
D47*
X6604Y69875D03*
D48*
X-15037Y70079D03*
D47*
X6604Y70079D03*
D48*
X-15037Y70282D03*
D47*
X6604Y70282D03*
D49*
X-15037Y70485D03*
D50*
X6706Y70485D03*
D49*
X-15037Y70688D03*
D51*
X6807Y70688D03*
D52*
X-15138Y70891D03*
D51*
X6807Y70891D03*
D53*
X-15240Y71095D03*
D54*
X6909Y71095D03*
D55*
X-15342Y71298D03*
D54*
X6909Y71298D03*
D55*
X-15342Y71501D03*
D56*
X7010Y71501D03*
D57*
X-15443Y71704D03*
D56*
X7010Y71704D03*
D57*
X-15443Y71907D03*
D58*
X7112Y71907D03*
D57*
X-15443Y72111D03*
D59*
X7214Y72111D03*
D60*
X-15545Y72314D03*
D59*
X7214Y72314D03*
D60*
X-15545Y72517D03*
D61*
X7315Y72517D03*
D62*
X-15646Y72720D03*
D63*
X7417Y72720D03*
D64*
X-15748Y72923D03*
D63*
X7417Y72923D03*
D64*
X-15748Y73127D03*
D65*
X7518Y73127D03*
D66*
X-15850Y73330D03*
D65*
X7518Y73330D03*
D66*
X-15850Y73533D03*
D67*
X7620Y73533D03*
D68*
X-15951Y73736D03*
D67*
X7620Y73736D03*
D69*
X-16053Y73939D03*
D67*
X7620Y73939D03*
D70*
X-16154Y74143D03*
D71*
X7722Y74143D03*
D70*
X-16154Y74346D03*
D72*
X7823Y74346D03*
D73*
X-16256Y74549D03*
D72*
X7823Y74549D03*
D73*
X-16256Y74752D03*
D74*
X7925Y74752D03*
D73*
X-16459Y74955D03*
D74*
X7925Y74955D03*
D73*
X-16459Y75159D03*
D75*
X8026Y75159D03*
D76*
X-16561Y75362D03*
D77*
X711Y75362D03*
D78*
X15240Y75362D03*
D79*
X-16662Y75565D03*
D80*
X610Y75565D03*
D78*
X15443Y75565D03*
D79*
X-16662Y75768D03*
D81*
X406Y75768D03*
D82*
X15646Y75768D03*
D79*
X-16662Y75971D03*
X203Y75971D03*
D83*
X15850Y75971D03*
D84*
X-16764Y76175D03*
D76*
X102Y76175D03*
D77*
X15951Y76175D03*
D84*
X-16764Y76378D03*
D73*
X0Y76378D03*
D77*
X16154Y76378D03*
D81*
X-16866Y76581D03*
D73*
X0Y76581D03*
D80*
X16256Y76581D03*
D81*
X-16866Y76784D03*
D70*
X-102Y76784D03*
D77*
X16358Y76784D03*
D85*
X-16967Y76987D03*
D70*
X-102Y76987D03*
D80*
X16459Y76987D03*
X-17069Y77191D03*
D70*
X-102Y77191D03*
D80*
X16662Y77191D03*
D77*
X-17170Y77394D03*
D69*
X-203Y77394D03*
D80*
X16662Y77394D03*
D77*
X-17170Y77597D03*
D86*
X-305Y77597D03*
D80*
X16662Y77597D03*
D83*
X-17272Y77800D03*
D86*
X-305Y77800D03*
D77*
X16764Y77800D03*
D83*
X-17272Y78003D03*
D86*
X-305Y78003D03*
D83*
X16866Y78003D03*
D87*
X-17374Y78207D03*
D86*
X-305Y78207D03*
D83*
X16866Y78207D03*
D78*
X-17475Y78410D03*
D86*
X-305Y78410D03*
D87*
X16967Y78410D03*
D78*
X-17475Y78613D03*
D86*
X-305Y78613D03*
D78*
X17069Y78613D03*
D88*
X-17577Y78816D03*
D86*
X-305Y78816D03*
D78*
X17069Y78816D03*
D88*
X-17577Y79019D03*
D86*
X-305Y79019D03*
D88*
X17170Y79019D03*
D89*
X-17678Y79223D03*
D86*
X-305Y79223D03*
D88*
X17170Y79223D03*
D89*
X-17678Y79426D03*
D86*
X-305Y79426D03*
D89*
X17272Y79426D03*
X-17678Y79629D03*
D86*
X-305Y79629D03*
D90*
X17374Y79629D03*
X-17780Y79832D03*
D86*
X-305Y79832D03*
D90*
X17374Y79832D03*
D91*
X-17882Y80035D03*
D86*
X-305Y80035D03*
D91*
X17475Y80035D03*
D17*
X-78562Y22885D03*
X-63119Y22885D03*
D92*
X-46355Y22885D03*
D17*
X-32639Y22885D03*
D15*
X-18517Y22885D03*
D93*
X-10998Y22885D03*
X8915Y22885D03*
D94*
X22022Y22885D03*
D17*
X41123Y22885D03*
X56159Y22885D03*
D95*
X79934Y22885D03*
D91*
X-17882Y80239D03*
D86*
X-305Y80239D03*
D91*
X17475Y80239D03*
D17*
X-78562Y23089D03*
D93*
X-63221Y23089D03*
D96*
X-46558Y23089D03*
D17*
X-32639Y23089D03*
X-18618Y23089D03*
D19*
X-10897Y23089D03*
D93*
X8915Y23089D03*
D96*
X22530Y23089D03*
D93*
X41224Y23089D03*
D19*
X56159Y23089D03*
D97*
X79527Y23089D03*
D98*
X-17983Y80442D03*
D86*
X-305Y80442D03*
D98*
X17577Y80442D03*
D17*
X-78562Y23292D03*
D93*
X-63221Y23292D03*
D99*
X-46761Y23292D03*
D93*
X-32537Y23292D03*
X-18720Y23292D03*
D19*
X-10693Y23292D03*
D93*
X8915Y23292D03*
D100*
X22936Y23292D03*
D93*
X41224Y23292D03*
D19*
X56159Y23292D03*
D101*
X79223Y23292D03*
D102*
X-18085Y80645D03*
D86*
X-305Y80645D03*
D102*
X17678Y80645D03*
D17*
X-78562Y23495D03*
D93*
X-63221Y23495D03*
D103*
X-46863Y23495D03*
D17*
X-32436Y23495D03*
D93*
X-18923Y23495D03*
X-10795Y23495D03*
D104*
X8814Y23495D03*
D97*
X23038Y23495D03*
D93*
X41224Y23495D03*
D19*
X56159Y23495D03*
D105*
X79121Y23495D03*
D102*
X-18085Y80848D03*
D86*
X-305Y80848D03*
D102*
X17678Y80848D03*
D17*
X-78562Y23698D03*
D93*
X-63221Y23698D03*
D100*
X-46965Y23698D03*
D93*
X-32334Y23698D03*
X-18923Y23698D03*
D19*
X-10693Y23698D03*
D104*
X8814Y23698D03*
D106*
X23241Y23698D03*
D93*
X41224Y23698D03*
D19*
X56159Y23698D03*
D107*
X79019Y23698D03*
D108*
X-18186Y81051D03*
D86*
X-305Y81051D03*
D108*
X17780Y81051D03*
D17*
X-78562Y23901D03*
D93*
X-63221Y23901D03*
D97*
X-47066Y23901D03*
D19*
X-32233Y23901D03*
D93*
X-19126Y23901D03*
D109*
X-10592Y23901D03*
D93*
X8712Y23901D03*
D105*
X23444Y23901D03*
D93*
X41224Y23901D03*
D19*
X56159Y23901D03*
D110*
X78816Y23901D03*
D108*
X-18186Y81255D03*
D86*
X-305Y81255D03*
D108*
X17780Y81255D03*
D17*
X-78562Y24105D03*
D93*
X-63221Y24105D03*
D111*
X-47168Y24105D03*
D19*
X-32029Y24105D03*
D17*
X-19228Y24105D03*
D104*
X-10490Y24105D03*
D93*
X8712Y24105D03*
D107*
X23546Y24105D03*
D93*
X41224Y24105D03*
D19*
X56159Y24105D03*
D112*
X78715Y24105D03*
D113*
X-18288Y81458D03*
D86*
X-305Y81458D03*
D113*
X17882Y81458D03*
D17*
X-78562Y24308D03*
D93*
X-63221Y24308D03*
D106*
X-47269Y24308D03*
D19*
X-32029Y24308D03*
D93*
X-19329Y24308D03*
D104*
X-10490Y24308D03*
D19*
X8611Y24308D03*
D110*
X23749Y24308D03*
D93*
X41224Y24308D03*
D19*
X56159Y24308D03*
D114*
X78613Y24308D03*
D113*
X-18288Y81661D03*
D86*
X-305Y81661D03*
D115*
X17983Y81661D03*
D17*
X-78562Y24511D03*
D93*
X-63221Y24511D03*
D101*
X-47371Y24511D03*
D104*
X-31826Y24511D03*
D93*
X-19533Y24511D03*
D109*
X-10389Y24511D03*
D93*
X8509Y24511D03*
D112*
X23851Y24511D03*
D93*
X41224Y24511D03*
D19*
X56159Y24511D03*
D12*
X78511Y24511D03*
D115*
X-18390Y81864D03*
D86*
X-305Y81864D03*
D115*
X17983Y81864D03*
D17*
X-78562Y24714D03*
D93*
X-63221Y24714D03*
D105*
X-47473Y24714D03*
D93*
X-31725Y24714D03*
X-19533Y24714D03*
D19*
X-10287Y24714D03*
D93*
X8509Y24714D03*
D114*
X23952Y24714D03*
D93*
X41224Y24714D03*
D19*
X56159Y24714D03*
D12*
X78511Y24714D03*
D94*
X-18491Y82067D03*
D86*
X-305Y82067D03*
D115*
X17983Y82067D03*
D17*
X-78562Y24917D03*
D93*
X-63221Y24917D03*
D107*
X-47574Y24917D03*
D19*
X-31623Y24917D03*
D104*
X-19634Y24917D03*
D19*
X-10287Y24917D03*
X8407Y24917D03*
D12*
X24054Y24917D03*
D93*
X41224Y24917D03*
D19*
X56159Y24917D03*
D116*
X78410Y24917D03*
D94*
X-18491Y82271D03*
D86*
X-305Y82271D03*
D94*
X18085Y82271D03*
D17*
X-78562Y25121D03*
D93*
X-63221Y25121D03*
D107*
X-47574Y25121D03*
D93*
X-31521Y25121D03*
X-19736Y25121D03*
D19*
X-10287Y25121D03*
X8204Y25121D03*
D116*
X24155Y25121D03*
D93*
X41224Y25121D03*
D19*
X56159Y25121D03*
D117*
X78308Y25121D03*
D92*
X-18593Y82474D03*
D86*
X-305Y82474D03*
D92*
X18186Y82474D03*
D17*
X-78562Y25324D03*
D93*
X-63221Y25324D03*
D118*
X-47676Y25324D03*
D93*
X-31521Y25324D03*
D19*
X-19837Y25324D03*
X-10084Y25324D03*
D93*
X8306Y25324D03*
D116*
X24155Y25324D03*
D93*
X41224Y25324D03*
D19*
X56159Y25324D03*
D117*
X78308Y25324D03*
D92*
X-18593Y82677D03*
D86*
X-305Y82677D03*
D92*
X18186Y82677D03*
D17*
X-78562Y25527D03*
D93*
X-63221Y25527D03*
D118*
X-47676Y25527D03*
D93*
X-31318Y25527D03*
X-19939Y25527D03*
X-9982Y25527D03*
D19*
X8204Y25527D03*
D117*
X24257Y25527D03*
D93*
X41224Y25527D03*
D19*
X56159Y25527D03*
D117*
X78308Y25527D03*
D119*
X-18694Y82880D03*
D86*
X-305Y82880D03*
D119*
X18288Y82880D03*
D17*
X-78562Y25730D03*
D93*
X-63221Y25730D03*
D118*
X-47676Y25730D03*
D17*
X-31217Y25730D03*
D93*
X-19939Y25730D03*
X-9982Y25730D03*
D21*
X8103Y25730D03*
D120*
X24359Y25730D03*
D93*
X41224Y25730D03*
D19*
X56159Y25730D03*
D120*
X78207Y25730D03*
D121*
X-18796Y83083D03*
D86*
X-305Y83083D03*
D119*
X18288Y83083D03*
D17*
X-78562Y25933D03*
D93*
X-63221Y25933D03*
D110*
X-47777Y25933D03*
D93*
X-31115Y25933D03*
X-20142Y25933D03*
D19*
X-9881Y25933D03*
X8001Y25933D03*
D120*
X24359Y25933D03*
D93*
X41224Y25933D03*
D19*
X56159Y25933D03*
D120*
X78207Y25933D03*
D121*
X-18796Y83287D03*
D86*
X-305Y83287D03*
D121*
X18390Y83287D03*
D17*
X-78562Y26137D03*
D93*
X-63221Y26137D03*
D110*
X-47777Y26137D03*
D93*
X-30912Y26137D03*
X-20345Y26137D03*
X-9779Y26137D03*
D19*
X8001Y26137D03*
D122*
X24460Y26137D03*
D93*
X41224Y26137D03*
D19*
X56159Y26137D03*
D120*
X78207Y26137D03*
D123*
X-18898Y83490D03*
D86*
X-305Y83490D03*
D121*
X18390Y83490D03*
D17*
X-78562Y26340D03*
D93*
X-63221Y26340D03*
D110*
X-47777Y26340D03*
D93*
X-30912Y26340D03*
X-20345Y26340D03*
X-9779Y26340D03*
D109*
X7899Y26340D03*
D122*
X24460Y26340D03*
D93*
X41224Y26340D03*
D19*
X56159Y26340D03*
D120*
X78207Y26340D03*
D96*
X-18999Y83693D03*
D86*
X-305Y83693D03*
D123*
X18491Y83693D03*
D17*
X-78562Y26543D03*
D93*
X-63221Y26543D03*
D110*
X-47777Y26543D03*
D93*
X-30709Y26543D03*
X-20549Y26543D03*
D19*
X-9677Y26543D03*
D104*
X7798Y26543D03*
D124*
X24562Y26543D03*
D93*
X41224Y26543D03*
D19*
X56159Y26543D03*
D120*
X78207Y26543D03*
D96*
X-18999Y83896D03*
D86*
X-305Y83896D03*
D96*
X18593Y83896D03*
D17*
X-78562Y26746D03*
D93*
X-63221Y26746D03*
D110*
X-47777Y26746D03*
D19*
X-30607Y26746D03*
D104*
X-20650Y26746D03*
D19*
X-9677Y26746D03*
D104*
X7798Y26746D03*
D124*
X24562Y26746D03*
D93*
X41224Y26746D03*
D19*
X56159Y26746D03*
D120*
X78207Y26746D03*
D96*
X-18999Y84099D03*
D86*
X-305Y84099D03*
D96*
X18593Y84099D03*
D17*
X-78562Y26949D03*
D93*
X-63221Y26949D03*
D110*
X-47777Y26949D03*
D93*
X-30505Y26949D03*
X-20752Y26949D03*
X-9576Y26949D03*
D104*
X7798Y26949D03*
D14*
X24663Y26949D03*
D93*
X41224Y26949D03*
D19*
X56159Y26949D03*
D120*
X78207Y26949D03*
D95*
X-19101Y84303D03*
D86*
X-305Y84303D03*
D95*
X18694Y84303D03*
D17*
X-78562Y27153D03*
D93*
X-63221Y27153D03*
D110*
X-47777Y27153D03*
D19*
X-30404Y27153D03*
D93*
X-20955Y27153D03*
X-9576Y27153D03*
D19*
X7595Y27153D03*
D14*
X24663Y27153D03*
D93*
X41224Y27153D03*
D19*
X56159Y27153D03*
D120*
X78207Y27153D03*
D95*
X-19101Y84506D03*
D86*
X-305Y84506D03*
D99*
X18796Y84506D03*
D17*
X-78562Y27356D03*
D93*
X-63221Y27356D03*
D118*
X-47879Y27356D03*
D93*
X-30302Y27356D03*
X-20955Y27356D03*
D104*
X-9474Y27356D03*
D93*
X7493Y27356D03*
D14*
X24663Y27356D03*
D93*
X41224Y27356D03*
D19*
X56159Y27356D03*
D120*
X78207Y27356D03*
D99*
X-19202Y84709D03*
D86*
X-305Y84709D03*
D99*
X18796Y84709D03*
D17*
X-78562Y27559D03*
D93*
X-63221Y27559D03*
X-54483Y27559D03*
X-30099Y27559D03*
X-21158Y27559D03*
X-9373Y27559D03*
X7493Y27559D03*
X17043Y27559D03*
D23*
X31979Y27559D03*
D93*
X41224Y27559D03*
D19*
X56159Y27559D03*
D120*
X78207Y27559D03*
D103*
X-19304Y84912D03*
D86*
X-305Y84912D03*
D103*
X18898Y84912D03*
D17*
X-78562Y27762D03*
D93*
X-63221Y27762D03*
X-54483Y27762D03*
X-30099Y27762D03*
X-21158Y27762D03*
X-9373Y27762D03*
D19*
X7391Y27762D03*
D93*
X17043Y27762D03*
D104*
X32182Y27762D03*
D93*
X41224Y27762D03*
D19*
X56159Y27762D03*
D23*
X71196Y27762D03*
D103*
X-19304Y85115D03*
D86*
X-305Y85115D03*
D103*
X18898Y85115D03*
D17*
X-78562Y27965D03*
D93*
X-63221Y27965D03*
D17*
X-54585Y27965D03*
D93*
X-29896Y27965D03*
X-21361Y27965D03*
D19*
X-9271Y27965D03*
D93*
X7290Y27965D03*
X17043Y27965D03*
D19*
X32385Y27965D03*
D93*
X41224Y27965D03*
D19*
X56159Y27965D03*
D21*
X71095Y27965D03*
D100*
X-19406Y85319D03*
D86*
X-305Y85319D03*
D100*
X18999Y85319D03*
D17*
X-78562Y28169D03*
D93*
X-63221Y28169D03*
D17*
X-54585Y28169D03*
D93*
X-29896Y28169D03*
X-21361Y28169D03*
D19*
X-9068Y28169D03*
D93*
X7290Y28169D03*
X17043Y28169D03*
X32487Y28169D03*
X41224Y28169D03*
D19*
X56159Y28169D03*
X70993Y28169D03*
D100*
X-19406Y85522D03*
D86*
X-305Y85522D03*
D97*
X19101Y85522D03*
D17*
X-78562Y28372D03*
D93*
X-63221Y28372D03*
D17*
X-54585Y28372D03*
D104*
X-29794Y28372D03*
D19*
X-21463Y28372D03*
D93*
X-9169Y28372D03*
D19*
X7188Y28372D03*
D93*
X17043Y28372D03*
D17*
X32588Y28372D03*
D93*
X41224Y28372D03*
D19*
X56159Y28372D03*
D21*
X71095Y28372D03*
D97*
X-19507Y85725D03*
D86*
X-305Y85725D03*
D97*
X19101Y85725D03*
D17*
X-78562Y28575D03*
D93*
X-63221Y28575D03*
D17*
X-54585Y28575D03*
D19*
X-29591Y28575D03*
D93*
X-21565Y28575D03*
D19*
X-9068Y28575D03*
X7188Y28575D03*
D93*
X17043Y28575D03*
D17*
X32588Y28575D03*
D93*
X41224Y28575D03*
D19*
X56159Y28575D03*
D23*
X71196Y28575D03*
D111*
X-19609Y85928D03*
D66*
X-203Y85928D03*
D97*
X19101Y85928D03*
D17*
X-78562Y28778D03*
D93*
X-63221Y28778D03*
D17*
X-54585Y28778D03*
D93*
X-29489Y28778D03*
D104*
X-21666Y28778D03*
D109*
X-8966Y28778D03*
D93*
X7087Y28778D03*
X17043Y28778D03*
D17*
X32588Y28778D03*
D93*
X41224Y28778D03*
D19*
X56159Y28778D03*
D25*
X71298Y28778D03*
D111*
X-19609Y86131D03*
D66*
X-203Y86131D03*
D111*
X19202Y86131D03*
D17*
X-78562Y28981D03*
D93*
X-63221Y28981D03*
D17*
X-54585Y28981D03*
D93*
X-29489Y28981D03*
D19*
X-21869Y28981D03*
X-8865Y28981D03*
D93*
X7087Y28981D03*
X17043Y28981D03*
D15*
X32690Y28981D03*
D93*
X41224Y28981D03*
D19*
X56159Y28981D03*
D27*
X71399Y28981D03*
D106*
X-19710Y86335D03*
D66*
X-203Y86335D03*
D111*
X19202Y86335D03*
D17*
X-78562Y29185D03*
D93*
X-63221Y29185D03*
D17*
X-54585Y29185D03*
D93*
X-29286Y29185D03*
D19*
X-22073Y29185D03*
X-8865Y29185D03*
X6985Y29185D03*
D93*
X17043Y29185D03*
D15*
X32690Y29185D03*
D93*
X41224Y29185D03*
D19*
X56159Y29185D03*
D29*
X71501Y29185D03*
D101*
X-19812Y86538D03*
D66*
X-203Y86538D03*
D106*
X19304Y86538D03*
D17*
X-78562Y29388D03*
D93*
X-63221Y29388D03*
D17*
X-54585Y29388D03*
D93*
X-29286Y29388D03*
D19*
X-22073Y29388D03*
D21*
X-8763Y29388D03*
D93*
X6883Y29388D03*
X17043Y29388D03*
D15*
X32893Y29388D03*
D93*
X41224Y29388D03*
D19*
X56159Y29388D03*
D29*
X71704Y29388D03*
D101*
X-19812Y86741D03*
D66*
X-203Y86741D03*
D101*
X19406Y86741D03*
D17*
X-78562Y29591D03*
D93*
X-63221Y29591D03*
D17*
X-54585Y29591D03*
D93*
X-29083Y29591D03*
D19*
X-22276Y29591D03*
X-8661Y29591D03*
D93*
X6883Y29591D03*
X17043Y29591D03*
D15*
X33096Y29591D03*
D93*
X41224Y29591D03*
D19*
X56159Y29591D03*
D125*
X71806Y29591D03*
D105*
X-19914Y86944D03*
D66*
X-203Y86944D03*
D101*
X19406Y86944D03*
D17*
X-78562Y29794D03*
D93*
X-63221Y29794D03*
D17*
X-54585Y29794D03*
D19*
X-28981Y29794D03*
X-22276Y29794D03*
D16*
X-940Y29794D03*
D93*
X17043Y29794D03*
D17*
X32995Y29794D03*
D93*
X41224Y29794D03*
D19*
X56159Y29794D03*
D34*
X71907Y29794D03*
D105*
X-19914Y87147D03*
D66*
X-203Y87147D03*
D105*
X19507Y87147D03*
D17*
X-78562Y29997D03*
D93*
X-63221Y29997D03*
D17*
X-54585Y29997D03*
D93*
X-28880Y29997D03*
X-22377Y29997D03*
D126*
X-1041Y29997D03*
D93*
X17043Y29997D03*
D17*
X32995Y29997D03*
D93*
X41224Y29997D03*
D19*
X56159Y29997D03*
D34*
X72111Y29997D03*
D107*
X-20015Y87351D03*
D66*
X-203Y87351D03*
D107*
X19609Y87351D03*
D17*
X-78562Y30201D03*
D93*
X-63221Y30201D03*
D17*
X-54585Y30201D03*
D104*
X-28778Y30201D03*
D93*
X-22581Y30201D03*
D14*
X-940Y30201D03*
D93*
X17043Y30201D03*
D17*
X32995Y30201D03*
D93*
X41224Y30201D03*
D19*
X56159Y30201D03*
D36*
X72212Y30201D03*
D107*
X-20015Y87554D03*
D66*
X-203Y87554D03*
D107*
X19609Y87554D03*
D17*
X-78562Y30404D03*
D93*
X-63221Y30404D03*
D17*
X-54585Y30404D03*
D93*
X-28677Y30404D03*
X-22581Y30404D03*
D124*
X-838Y30404D03*
D93*
X17043Y30404D03*
D17*
X32995Y30404D03*
D93*
X41224Y30404D03*
D19*
X56159Y30404D03*
D37*
X72517Y30404D03*
D107*
X-20015Y87757D03*
D66*
X-203Y87757D03*
D118*
X19710Y87757D03*
D17*
X-78562Y30607D03*
D93*
X-63221Y30607D03*
D17*
X-54585Y30607D03*
D93*
X-28473Y30607D03*
X-22784Y30607D03*
D124*
X-838Y30607D03*
D93*
X17043Y30607D03*
D17*
X32995Y30607D03*
D93*
X41224Y30607D03*
D19*
X56159Y30607D03*
D39*
X72619Y30607D03*
D118*
X-20117Y87960D03*
D66*
X-203Y87960D03*
D118*
X19710Y87960D03*
D17*
X-78562Y30810D03*
D93*
X-63221Y30810D03*
D17*
X-54585Y30810D03*
D70*
X-25629Y30810D03*
D124*
X-838Y30810D03*
D93*
X17043Y30810D03*
D17*
X32995Y30810D03*
D93*
X41224Y30810D03*
D19*
X56159Y30810D03*
D127*
X72822Y30810D03*
D110*
X-20218Y88163D03*
D66*
X-203Y88163D03*
D110*
X19812Y88163D03*
D17*
X-78562Y31013D03*
D93*
X-63221Y31013D03*
D17*
X-54585Y31013D03*
D86*
X-25629Y31013D03*
D128*
X-838Y31013D03*
D93*
X17043Y31013D03*
D17*
X32995Y31013D03*
D93*
X41224Y31013D03*
D19*
X56159Y31013D03*
D39*
X73025Y31013D03*
D110*
X-20218Y88367D03*
D66*
X-203Y88367D03*
D112*
X19914Y88367D03*
D17*
X-78562Y31217D03*
D93*
X-63221Y31217D03*
D17*
X-54585Y31217D03*
D86*
X-25629Y31217D03*
D128*
X-838Y31217D03*
D93*
X17043Y31217D03*
D17*
X32995Y31217D03*
D93*
X41224Y31217D03*
D19*
X56159Y31217D03*
D39*
X73228Y31217D03*
D112*
X-20320Y88570D03*
D66*
X-203Y88570D03*
D112*
X19914Y88570D03*
D17*
X-78562Y31420D03*
D93*
X-63221Y31420D03*
D17*
X-54585Y31420D03*
D64*
X-25629Y31420D03*
D128*
X-838Y31420D03*
D93*
X17043Y31420D03*
D17*
X32995Y31420D03*
D93*
X41224Y31420D03*
D19*
X56159Y31420D03*
D39*
X73431Y31420D03*
D114*
X-20422Y88773D03*
D66*
X-203Y88773D03*
D114*
X20015Y88773D03*
D17*
X-78562Y31623D03*
D93*
X-63221Y31623D03*
D17*
X-54585Y31623D03*
D62*
X-25527Y31623D03*
D117*
X-940Y31623D03*
D93*
X17043Y31623D03*
D17*
X32995Y31623D03*
D93*
X41224Y31623D03*
D19*
X56159Y31623D03*
D39*
X73635Y31623D03*
D114*
X-20422Y88976D03*
D66*
X-203Y88976D03*
D114*
X20015Y88976D03*
D17*
X-78562Y31826D03*
D93*
X-63221Y31826D03*
D17*
X-54585Y31826D03*
D60*
X-25629Y31826D03*
D116*
X-838Y31826D03*
D93*
X17043Y31826D03*
D15*
X33096Y31826D03*
D93*
X41224Y31826D03*
D19*
X56159Y31826D03*
D127*
X73838Y31826D03*
D12*
X-20523Y89179D03*
D66*
X-203Y89179D03*
D114*
X20015Y89179D03*
D17*
X-78562Y32029D03*
D93*
X-63221Y32029D03*
D17*
X-54585Y32029D03*
D60*
X-25629Y32029D03*
D116*
X-838Y32029D03*
D93*
X17043Y32029D03*
D17*
X32995Y32029D03*
D93*
X41224Y32029D03*
D19*
X56159Y32029D03*
D39*
X74041Y32029D03*
D116*
X-20625Y89383D03*
D66*
X-203Y89383D03*
D12*
X20117Y89383D03*
D17*
X-78562Y32233D03*
D93*
X-63221Y32233D03*
D17*
X-54585Y32233D03*
D55*
X-25629Y32233D03*
D12*
X-940Y32233D03*
D93*
X17043Y32233D03*
D17*
X32791Y32233D03*
D93*
X41224Y32233D03*
D19*
X56159Y32233D03*
D39*
X74244Y32233D03*
D116*
X-20625Y89586D03*
D66*
X-203Y89586D03*
D12*
X20117Y89586D03*
D17*
X-78562Y32436D03*
D93*
X-63221Y32436D03*
D17*
X-54585Y32436D03*
D55*
X-25629Y32436D03*
D129*
X-940Y32436D03*
D93*
X17043Y32436D03*
D15*
X32690Y32436D03*
D93*
X41224Y32436D03*
D19*
X56159Y32436D03*
D39*
X74447Y32436D03*
D117*
X-20726Y89789D03*
D66*
X-203Y89789D03*
D116*
X20218Y89789D03*
D17*
X-78562Y32639D03*
D93*
X-63221Y32639D03*
D17*
X-54585Y32639D03*
D52*
X-25629Y32639D03*
D129*
X-940Y32639D03*
D93*
X17043Y32639D03*
D17*
X32588Y32639D03*
D93*
X41224Y32639D03*
D19*
X56159Y32639D03*
D39*
X74651Y32639D03*
D117*
X-20726Y89992D03*
D66*
X-203Y89992D03*
D117*
X20320Y89992D03*
D17*
X-78562Y32842D03*
D93*
X-63221Y32842D03*
D17*
X-54585Y32842D03*
D52*
X-25629Y32842D03*
D129*
X-940Y32842D03*
D93*
X17043Y32842D03*
X32487Y32842D03*
X41224Y32842D03*
D19*
X56159Y32842D03*
D127*
X74854Y32842D03*
D120*
X-20828Y90195D03*
D66*
X-203Y90195D03*
D120*
X20422Y90195D03*
D17*
X-78562Y33045D03*
D93*
X-63221Y33045D03*
D17*
X-54585Y33045D03*
D130*
X-25629Y33045D03*
D131*
X-838Y33045D03*
D93*
X17043Y33045D03*
X32283Y33045D03*
X41224Y33045D03*
D19*
X56159Y33045D03*
D39*
X75057Y33045D03*
D120*
X-20828Y90399D03*
X20422Y90399D03*
D93*
X-78461Y33249D03*
X-63221Y33249D03*
X-54483Y33249D03*
D48*
X-25730Y33249D03*
D118*
X-940Y33249D03*
D93*
X17043Y33249D03*
D104*
X32182Y33249D03*
D93*
X41224Y33249D03*
D19*
X56159Y33249D03*
D39*
X75260Y33249D03*
D122*
X-20930Y90602D03*
X20523Y90602D03*
D19*
X-78359Y33452D03*
D104*
X-63322Y33452D03*
D19*
X-54381Y33452D03*
D45*
X-25629Y33452D03*
D118*
X-940Y33452D03*
D21*
X17247Y33452D03*
D27*
X31775Y33452D03*
D93*
X41224Y33452D03*
D19*
X56159Y33452D03*
D39*
X75463Y33452D03*
D124*
X-21031Y90805D03*
D122*
X20523Y90805D03*
D21*
X-78257Y33655D03*
D109*
X-63424Y33655D03*
X-54280Y33655D03*
D44*
X-25730Y33655D03*
D107*
X-838Y33655D03*
D23*
X17348Y33655D03*
D132*
X31674Y33655D03*
D93*
X41224Y33655D03*
D19*
X56159Y33655D03*
D39*
X75667Y33655D03*
D124*
X-21031Y91008D03*
X20625Y91008D03*
D14*
X-70841Y33858D03*
D133*
X-48184Y33858D03*
D134*
X-25629Y33858D03*
D105*
X-940Y33858D03*
D124*
X24562Y33858D03*
D93*
X41224Y33858D03*
D19*
X56159Y33858D03*
D127*
X75870Y33858D03*
D14*
X-21133Y91211D03*
D124*
X20625Y91211D03*
D14*
X-70841Y34061D03*
D133*
X-48184Y34061D03*
D37*
X-25629Y34061D03*
D105*
X-940Y34061D03*
D124*
X24562Y34061D03*
D93*
X41224Y34061D03*
D19*
X56159Y34061D03*
D39*
X76073Y34061D03*
D126*
X-21234Y91415D03*
D14*
X20726Y91415D03*
X-70841Y34265D03*
D133*
X-48184Y34265D03*
D37*
X-25629Y34265D03*
D105*
X-940Y34265D03*
D122*
X24460Y34265D03*
D93*
X41224Y34265D03*
D19*
X56159Y34265D03*
D134*
X76378Y34265D03*
D126*
X-21234Y91618D03*
D14*
X20726Y91618D03*
X-70841Y34468D03*
D133*
X-48184Y34468D03*
D34*
X-25629Y34468D03*
D106*
X-940Y34468D03*
D120*
X24359Y34468D03*
D93*
X41224Y34468D03*
D19*
X56159Y34468D03*
D41*
X76581Y34468D03*
D126*
X-21234Y91821D03*
X20828Y91821D03*
D14*
X-70841Y34671D03*
D133*
X-48184Y34671D03*
D31*
X-25527Y34671D03*
D109*
X-6934Y34671D03*
D23*
X4953Y34671D03*
D117*
X24257Y34671D03*
D93*
X41224Y34671D03*
D19*
X56159Y34671D03*
D127*
X76886Y34671D03*
D126*
X-21234Y92024D03*
X20828Y92024D03*
D14*
X-70841Y34874D03*
D133*
X-48184Y34874D03*
D29*
X-25629Y34874D03*
D109*
X-6934Y34874D03*
D21*
X5055Y34874D03*
D116*
X24155Y34874D03*
D93*
X41224Y34874D03*
D19*
X56159Y34874D03*
D39*
X77089Y34874D03*
D135*
X-21336Y92227D03*
D126*
X20828Y92227D03*
D14*
X-70841Y35077D03*
D133*
X-48184Y35077D03*
D25*
X-25629Y35077D03*
D109*
X-6934Y35077D03*
D93*
X5055Y35077D03*
D12*
X24054Y35077D03*
D93*
X41224Y35077D03*
D19*
X56159Y35077D03*
D39*
X77292Y35077D03*
D135*
X-21336Y92431D03*
D126*
X20828Y92431D03*
D14*
X-70841Y35281D03*
D133*
X-48184Y35281D03*
D25*
X-25629Y35281D03*
D19*
X-6833Y35281D03*
D93*
X5055Y35281D03*
D114*
X23952Y35281D03*
D93*
X41224Y35281D03*
D19*
X56159Y35281D03*
D39*
X77495Y35281D03*
D135*
X-21336Y92634D03*
D126*
X20828Y92634D03*
D14*
X-70841Y35484D03*
D133*
X-48184Y35484D03*
D25*
X-25629Y35484D03*
D93*
X-6731Y35484D03*
D19*
X4953Y35484D03*
D112*
X23851Y35484D03*
D93*
X41224Y35484D03*
D19*
X56159Y35484D03*
D39*
X77699Y35484D03*
D135*
X-21336Y92837D03*
D126*
X20828Y92837D03*
D14*
X-70841Y35687D03*
D133*
X-48184Y35687D03*
D109*
X-25629Y35687D03*
D93*
X-6731Y35687D03*
D109*
X4851Y35687D03*
D110*
X23749Y35687D03*
D93*
X41224Y35687D03*
D19*
X56159Y35687D03*
D127*
X77902Y35687D03*
D135*
X-21336Y93040D03*
D126*
X20828Y93040D03*
D14*
X-70841Y35890D03*
D133*
X-48184Y35890D03*
D109*
X-25629Y35890D03*
D19*
X-6629Y35890D03*
D104*
X4750Y35890D03*
D118*
X23647Y35890D03*
D93*
X41224Y35890D03*
D19*
X56159Y35890D03*
D39*
X78105Y35890D03*
D135*
X-21336Y93243D03*
D126*
X20828Y93243D03*
D14*
X-70841Y36093D03*
D133*
X-48184Y36093D03*
D23*
X-25527Y36093D03*
D93*
X-6528Y36093D03*
D104*
X4750Y36093D03*
D107*
X23546Y36093D03*
D93*
X41224Y36093D03*
D19*
X56159Y36093D03*
D39*
X78308Y36093D03*
D135*
X-21336Y93447D03*
D126*
X20828Y93447D03*
D14*
X-70841Y36297D03*
D133*
X-48184Y36297D03*
D25*
X-25629Y36297D03*
D93*
X-6528Y36297D03*
D109*
X4648Y36297D03*
D107*
X23546Y36297D03*
D93*
X41224Y36297D03*
D19*
X56159Y36297D03*
D39*
X78511Y36297D03*
D135*
X-21336Y93650D03*
D126*
X20828Y93650D03*
D14*
X-70841Y36500D03*
D133*
X-48184Y36500D03*
D29*
X-25629Y36500D03*
D104*
X-6426Y36500D03*
D19*
X4547Y36500D03*
D105*
X23444Y36500D03*
D93*
X41224Y36500D03*
D19*
X56159Y36500D03*
D39*
X78715Y36500D03*
D126*
X-21234Y93853D03*
X20828Y93853D03*
D14*
X-70841Y36703D03*
D133*
X-48184Y36703D03*
D29*
X-25629Y36703D03*
D104*
X-6426Y36703D03*
D19*
X4547Y36703D03*
D105*
X23444Y36703D03*
D93*
X41224Y36703D03*
D19*
X56159Y36703D03*
D127*
X78918Y36703D03*
D14*
X-21133Y94056D03*
D126*
X20828Y94056D03*
D14*
X-70841Y36906D03*
D133*
X-48184Y36906D03*
D125*
X-25730Y36906D03*
D93*
X-6325Y36906D03*
D19*
X4547Y36906D03*
D107*
X23546Y36906D03*
D93*
X41224Y36906D03*
D19*
X56159Y36906D03*
D39*
X79121Y36906D03*
D126*
X-21234Y94259D03*
X20828Y94259D03*
D14*
X-70841Y37109D03*
D133*
X-48184Y37109D03*
D34*
X-25629Y37109D03*
D93*
X-6325Y37109D03*
D19*
X4343Y37109D03*
D118*
X23647Y37109D03*
D93*
X41224Y37109D03*
D19*
X56159Y37109D03*
D39*
X79324Y37109D03*
D14*
X-21133Y94463D03*
X20726Y94463D03*
X-70841Y37313D03*
D133*
X-48184Y37313D03*
D34*
X-25629Y37313D03*
D19*
X-6223Y37313D03*
D93*
X4242Y37313D03*
D110*
X23749Y37313D03*
D93*
X41224Y37313D03*
D19*
X56159Y37313D03*
D39*
X79527Y37313D03*
D124*
X-21031Y94666D03*
D14*
X20726Y94666D03*
X-70841Y37516D03*
D133*
X-48184Y37516D03*
D37*
X-25629Y37516D03*
D93*
X-6121Y37516D03*
D19*
X4343Y37516D03*
D112*
X23851Y37516D03*
D93*
X41224Y37516D03*
D19*
X56159Y37516D03*
D39*
X79731Y37516D03*
D124*
X-21031Y94869D03*
X20625Y94869D03*
D14*
X-70841Y37719D03*
D133*
X-48184Y37719D03*
D37*
X-25629Y37719D03*
D93*
X-6121Y37719D03*
X4242Y37719D03*
D114*
X23952Y37719D03*
D93*
X41224Y37719D03*
D19*
X56159Y37719D03*
D127*
X79934Y37719D03*
D122*
X-20930Y95072D03*
D124*
X20625Y95072D03*
D14*
X-70841Y37922D03*
D133*
X-48184Y37922D03*
D134*
X-25629Y37922D03*
D93*
X-6121Y37922D03*
X4039Y37922D03*
D114*
X23952Y37922D03*
D93*
X41224Y37922D03*
D19*
X56159Y37922D03*
D39*
X80137Y37922D03*
D122*
X-20930Y95275D03*
X20523Y95275D03*
D14*
X-70841Y38125D03*
D106*
X-48285Y38125D03*
D44*
X-25730Y38125D03*
D93*
X-5918Y38125D03*
X4039Y38125D03*
D12*
X24054Y38125D03*
D93*
X41224Y38125D03*
D19*
X56159Y38125D03*
D41*
X80645Y38125D03*
D122*
X-20930Y95479D03*
X20523Y95479D03*
D93*
X-78461Y38329D03*
D104*
X-63322Y38329D03*
D109*
X-54280Y38329D03*
D45*
X-25629Y38329D03*
D93*
X-5918Y38329D03*
X4039Y38329D03*
D21*
X17247Y38329D03*
D132*
X30658Y38329D03*
D93*
X41224Y38329D03*
D19*
X56159Y38329D03*
D134*
X80848Y38329D03*
D120*
X-20828Y95682D03*
X20422Y95682D03*
D17*
X-78562Y38532D03*
D93*
X-63221Y38532D03*
D19*
X-54381Y38532D03*
D130*
X-25629Y38532D03*
D93*
X-5918Y38532D03*
X4039Y38532D03*
D19*
X17145Y38532D03*
D29*
X30861Y38532D03*
D93*
X41224Y38532D03*
D19*
X56159Y38532D03*
D134*
X81051Y38532D03*
D120*
X-20828Y95885D03*
D86*
X-102Y95885D03*
D117*
X20320Y95885D03*
D17*
X-78562Y38735D03*
D93*
X-63221Y38735D03*
X-54483Y38735D03*
D136*
X-25527Y38735D03*
D19*
X-5817Y38735D03*
X3937Y38735D03*
D93*
X17043Y38735D03*
D19*
X31369Y38735D03*
D93*
X41224Y38735D03*
D19*
X56159Y38735D03*
D41*
X81255Y38735D03*
D117*
X-20726Y96088D03*
D66*
X-203Y96088D03*
D116*
X20218Y96088D03*
D17*
X-78562Y38938D03*
D93*
X-63221Y38938D03*
D17*
X-54585Y38938D03*
D52*
X-25629Y38938D03*
D19*
X-5613Y38938D03*
D93*
X3835Y38938D03*
X17043Y38938D03*
D17*
X31572Y38938D03*
D93*
X41224Y38938D03*
D19*
X56159Y38938D03*
D134*
X81458Y38938D03*
D116*
X-20625Y96291D03*
D66*
X-203Y96291D03*
D116*
X20218Y96291D03*
D17*
X-78562Y39141D03*
D93*
X-63221Y39141D03*
D17*
X-54585Y39141D03*
D55*
X-25629Y39141D03*
D19*
X-5613Y39141D03*
D93*
X3835Y39141D03*
X17043Y39141D03*
D17*
X31775Y39141D03*
D93*
X41224Y39141D03*
D19*
X56159Y39141D03*
D41*
X81661Y39141D03*
D116*
X-20625Y96495D03*
D66*
X-203Y96495D03*
D12*
X20117Y96495D03*
D17*
X-78562Y39345D03*
D93*
X-63221Y39345D03*
D17*
X-54585Y39345D03*
D55*
X-25629Y39345D03*
D19*
X-5613Y39345D03*
D104*
X3734Y39345D03*
D93*
X17043Y39345D03*
D15*
X31877Y39345D03*
D93*
X41224Y39345D03*
D19*
X56159Y39345D03*
D134*
X81864Y39345D03*
D12*
X-20523Y96698D03*
D66*
X-203Y96698D03*
D12*
X20117Y96698D03*
D17*
X-78562Y39548D03*
D93*
X-63221Y39548D03*
D17*
X-54585Y39548D03*
D60*
X-25629Y39548D03*
D104*
X-5410Y39548D03*
D93*
X3632Y39548D03*
X17043Y39548D03*
D15*
X31877Y39548D03*
D93*
X41224Y39548D03*
D19*
X56159Y39548D03*
D134*
X82067Y39548D03*
D12*
X-20523Y96901D03*
D66*
X-203Y96901D03*
D114*
X20015Y96901D03*
D17*
X-78562Y39751D03*
D93*
X-63221Y39751D03*
D17*
X-54585Y39751D03*
D60*
X-25629Y39751D03*
D104*
X-5410Y39751D03*
D93*
X3632Y39751D03*
X17043Y39751D03*
D15*
X32080Y39751D03*
D93*
X41224Y39751D03*
D19*
X56159Y39751D03*
D41*
X82271Y39751D03*
D114*
X-20422Y97104D03*
D66*
X-203Y97104D03*
D112*
X19914Y97104D03*
D17*
X-78562Y39954D03*
D93*
X-63221Y39954D03*
D17*
X-54585Y39954D03*
D64*
X-25629Y39954D03*
D104*
X-5410Y39954D03*
D19*
X3531Y39954D03*
D93*
X17043Y39954D03*
D15*
X32080Y39954D03*
D93*
X41224Y39954D03*
D19*
X56159Y39954D03*
D134*
X82474Y39954D03*
D114*
X-20422Y97307D03*
D66*
X-203Y97307D03*
D112*
X19914Y97307D03*
D17*
X-78562Y40157D03*
D93*
X-63221Y40157D03*
D17*
X-54585Y40157D03*
D64*
X-25629Y40157D03*
D93*
X-5309Y40157D03*
X3429Y40157D03*
X17043Y40157D03*
D15*
X32080Y40157D03*
D93*
X41224Y40157D03*
D19*
X56159Y40157D03*
D41*
X82677Y40157D03*
D112*
X-20320Y97511D03*
D66*
X-203Y97511D03*
D112*
X19914Y97511D03*
D17*
X-78562Y40361D03*
D93*
X-63221Y40361D03*
D17*
X-54585Y40361D03*
D66*
X-25730Y40361D03*
D93*
X-5105Y40361D03*
X3429Y40361D03*
X17043Y40361D03*
D15*
X32080Y40361D03*
D93*
X41224Y40361D03*
D19*
X56159Y40361D03*
D134*
X82880Y40361D03*
D110*
X-20218Y97714D03*
D66*
X-203Y97714D03*
D110*
X19812Y97714D03*
D17*
X-78562Y40564D03*
D93*
X-63221Y40564D03*
D17*
X-54585Y40564D03*
D86*
X-25629Y40564D03*
D19*
X-5207Y40564D03*
X3327Y40564D03*
D93*
X17043Y40564D03*
D15*
X32080Y40564D03*
D93*
X41224Y40564D03*
D19*
X56159Y40564D03*
D134*
X83083Y40564D03*
D118*
X-20117Y97917D03*
D66*
X-203Y97917D03*
D110*
X19812Y97917D03*
D17*
X-78562Y40767D03*
D93*
X-63221Y40767D03*
D17*
X-54585Y40767D03*
D86*
X-25629Y40767D03*
D93*
X-5105Y40767D03*
D109*
X3226Y40767D03*
D93*
X17043Y40767D03*
D137*
X32182Y40767D03*
D93*
X41224Y40767D03*
D19*
X56159Y40767D03*
D41*
X83287Y40767D03*
D118*
X-20117Y98120D03*
D66*
X-203Y98120D03*
D118*
X19710Y98120D03*
D17*
X-78562Y40970D03*
D93*
X-63221Y40970D03*
D17*
X-54585Y40970D03*
D70*
X-25629Y40970D03*
D93*
X-4902Y40970D03*
D19*
X3124Y40970D03*
D93*
X17043Y40970D03*
D137*
X32182Y40970D03*
D93*
X41224Y40970D03*
D19*
X56159Y40970D03*
D39*
X83388Y40970D03*
D107*
X-20015Y98323D03*
D66*
X-203Y98323D03*
D118*
X19710Y98323D03*
D17*
X-78562Y41173D03*
D93*
X-63221Y41173D03*
D17*
X-54585Y41173D03*
D19*
X-28575Y41173D03*
D93*
X-22784Y41173D03*
X-4902Y41173D03*
D19*
X3124Y41173D03*
D93*
X17043Y41173D03*
D137*
X32182Y41173D03*
D93*
X41224Y41173D03*
D19*
X56159Y41173D03*
D39*
X83591Y41173D03*
D107*
X-20015Y98527D03*
D66*
X-203Y98527D03*
D107*
X19609Y98527D03*
D17*
X-78562Y41377D03*
D93*
X-63221Y41377D03*
D17*
X-54585Y41377D03*
D93*
X-28677Y41377D03*
X-22581Y41377D03*
X-4902Y41377D03*
D19*
X3124Y41377D03*
D93*
X17043Y41377D03*
D15*
X32283Y41377D03*
D93*
X41224Y41377D03*
D19*
X56159Y41377D03*
D39*
X83795Y41377D03*
D105*
X-19914Y98730D03*
D66*
X-203Y98730D03*
D105*
X19507Y98730D03*
D17*
X-78562Y41580D03*
D93*
X-63221Y41580D03*
D17*
X-54585Y41580D03*
D104*
X-28778Y41580D03*
D93*
X-22377Y41580D03*
D19*
X-4801Y41580D03*
X2921Y41580D03*
D93*
X17043Y41580D03*
D15*
X32283Y41580D03*
D93*
X41224Y41580D03*
D19*
X56159Y41580D03*
D37*
X83896Y41580D03*
D101*
X-19812Y98933D03*
D66*
X-203Y98933D03*
D101*
X19406Y98933D03*
D17*
X-78562Y41783D03*
D93*
X-63221Y41783D03*
D17*
X-54585Y41783D03*
D93*
X-28880Y41783D03*
D19*
X-22276Y41783D03*
D93*
X-4699Y41783D03*
D19*
X2921Y41783D03*
D93*
X17043Y41783D03*
D15*
X32283Y41783D03*
D93*
X41224Y41783D03*
D19*
X56159Y41783D03*
D34*
X84099Y41783D03*
D101*
X-19812Y99136D03*
D66*
X-203Y99136D03*
D101*
X19406Y99136D03*
D17*
X-78562Y41986D03*
D93*
X-63221Y41986D03*
D17*
X-54585Y41986D03*
D93*
X-29083Y41986D03*
X-22174Y41986D03*
X-4699Y41986D03*
D19*
X2921Y41986D03*
D93*
X17043Y41986D03*
D15*
X32283Y41986D03*
D93*
X41224Y41986D03*
D19*
X56159Y41986D03*
D34*
X84303Y41986D03*
D101*
X-19812Y99339D03*
D66*
X-203Y99339D03*
D106*
X19304Y99339D03*
D17*
X-78562Y42189D03*
D93*
X-63221Y42189D03*
D17*
X-54585Y42189D03*
D93*
X-29286Y42189D03*
D19*
X-22073Y42189D03*
D93*
X-4699Y42189D03*
D104*
X2718Y42189D03*
D93*
X17043Y42189D03*
D17*
X32182Y42189D03*
D93*
X41224Y42189D03*
D19*
X56159Y42189D03*
D125*
X84404Y42189D03*
D106*
X-19710Y99543D03*
D66*
X-203Y99543D03*
D106*
X19304Y99543D03*
D17*
X-78562Y42393D03*
D93*
X-63221Y42393D03*
D17*
X-54585Y42393D03*
D93*
X-29286Y42393D03*
X-21971Y42393D03*
X-4496Y42393D03*
D104*
X2718Y42393D03*
D93*
X17043Y42393D03*
D17*
X32182Y42393D03*
D93*
X41224Y42393D03*
D19*
X56159Y42393D03*
D132*
X84506Y42393D03*
D106*
X-19710Y99746D03*
D66*
X-203Y99746D03*
D111*
X19202Y99746D03*
D17*
X-78562Y42596D03*
D93*
X-63221Y42596D03*
D17*
X-54585Y42596D03*
D93*
X-29489Y42596D03*
D19*
X-21869Y42596D03*
D93*
X-4496Y42596D03*
D104*
X2718Y42596D03*
D93*
X17043Y42596D03*
D17*
X32182Y42596D03*
D93*
X41224Y42596D03*
D19*
X56159Y42596D03*
D29*
X84709Y42596D03*
D111*
X-19609Y99949D03*
D66*
X-203Y99949D03*
D111*
X19202Y99949D03*
D17*
X-78562Y42799D03*
D93*
X-63221Y42799D03*
D17*
X-54585Y42799D03*
D93*
X-29489Y42799D03*
X-21768Y42799D03*
X-4496Y42799D03*
D109*
X2616Y42799D03*
D93*
X17043Y42799D03*
D17*
X32182Y42799D03*
D93*
X41224Y42799D03*
D19*
X56159Y42799D03*
D27*
X84811Y42799D03*
D111*
X-19609Y100152D03*
D66*
X-203Y100152D03*
D97*
X19101Y100152D03*
D17*
X-78562Y43002D03*
D93*
X-63221Y43002D03*
D17*
X-54585Y43002D03*
D93*
X-29693Y43002D03*
X-21565Y43002D03*
X-4293Y43002D03*
D19*
X2515Y43002D03*
D93*
X17043Y43002D03*
X32080Y43002D03*
X41224Y43002D03*
D19*
X56159Y43002D03*
D25*
X84912Y43002D03*
D97*
X-19507Y100355D03*
D66*
X-203Y100355D03*
D100*
X18999Y100355D03*
D17*
X-78562Y43205D03*
D93*
X-63221Y43205D03*
D17*
X-54585Y43205D03*
D93*
X-29693Y43205D03*
X-21565Y43205D03*
X-4293Y43205D03*
X2413Y43205D03*
X17043Y43205D03*
D19*
X31979Y43205D03*
D93*
X41224Y43205D03*
D19*
X56159Y43205D03*
D25*
X84912Y43205D03*
D100*
X-19406Y100559D03*
D66*
X-203Y100559D03*
D100*
X18999Y100559D03*
D17*
X-78562Y43409D03*
D93*
X-63221Y43409D03*
D17*
X-54585Y43409D03*
D93*
X-29896Y43409D03*
D19*
X-21463Y43409D03*
D93*
X-4293Y43409D03*
D19*
X2311Y43409D03*
D93*
X17043Y43409D03*
D19*
X31775Y43409D03*
D93*
X41224Y43409D03*
D19*
X56159Y43409D03*
D25*
X84912Y43409D03*
D103*
X-19304Y100762D03*
D66*
X-203Y100762D03*
D103*
X18898Y100762D03*
D17*
X-78562Y43612D03*
D93*
X-63221Y43612D03*
D17*
X-54585Y43612D03*
D93*
X-29896Y43612D03*
X-21361Y43612D03*
X-4089Y43612D03*
D19*
X2311Y43612D03*
D93*
X17043Y43612D03*
D109*
X31674Y43612D03*
D93*
X41224Y43612D03*
D19*
X56159Y43612D03*
D25*
X84912Y43612D03*
D103*
X-19304Y100965D03*
D66*
X-203Y100965D03*
D103*
X18898Y100965D03*
D17*
X-78562Y43815D03*
D93*
X-63221Y43815D03*
X-54483Y43815D03*
D19*
X-29997Y43815D03*
D93*
X-21361Y43815D03*
D19*
X-3988Y43815D03*
D93*
X2210Y43815D03*
X17043Y43815D03*
D23*
X31572Y43815D03*
D93*
X41224Y43815D03*
X56058Y43815D03*
D25*
X84912Y43815D03*
D99*
X-19202Y101168D03*
D66*
X-203Y101168D03*
D103*
X18898Y101168D03*
D17*
X-78562Y44018D03*
D93*
X-63221Y44018D03*
D19*
X-54381Y44018D03*
D93*
X-30099Y44018D03*
X-21158Y44018D03*
D19*
X-3988Y44018D03*
D93*
X2210Y44018D03*
X17043Y44018D03*
D27*
X31369Y44018D03*
D93*
X41224Y44018D03*
D19*
X56159Y44018D03*
D118*
X78918Y44018D03*
D99*
X-19202Y101371D03*
D66*
X-203Y101371D03*
D99*
X18796Y101371D03*
D17*
X-78562Y44221D03*
D93*
X-63221Y44221D03*
D109*
X-54280Y44221D03*
D19*
X-30201Y44221D03*
D17*
X-21057Y44221D03*
D79*
X-940Y44221D03*
D19*
X17145Y44221D03*
D39*
X30759Y44221D03*
D93*
X41224Y44221D03*
D25*
X56261Y44221D03*
D110*
X78816Y44221D03*
D95*
X-19101Y101575D03*
D66*
X-203Y101575D03*
D99*
X18796Y101575D03*
D17*
X-78562Y44425D03*
D93*
X-63221Y44425D03*
D118*
X-47879Y44425D03*
D19*
X-30404Y44425D03*
D93*
X-20955Y44425D03*
D73*
X-940Y44425D03*
D122*
X24460Y44425D03*
D93*
X41224Y44425D03*
D12*
X56159Y44425D03*
D110*
X78816Y44425D03*
D95*
X-19101Y101778D03*
D66*
X-203Y101778D03*
D95*
X18694Y101778D03*
D17*
X-78562Y44628D03*
D93*
X-63221Y44628D03*
D118*
X-47676Y44628D03*
D93*
X-30505Y44628D03*
X-20752Y44628D03*
D73*
X-940Y44628D03*
D120*
X24359Y44628D03*
D93*
X41224Y44628D03*
D12*
X56159Y44628D03*
D110*
X78816Y44628D03*
D96*
X-18999Y101981D03*
D66*
X-203Y101981D03*
D96*
X18593Y101981D03*
D17*
X-78562Y44831D03*
D93*
X-63221Y44831D03*
D118*
X-47676Y44831D03*
D93*
X-30505Y44831D03*
D104*
X-20650Y44831D03*
D73*
X-940Y44831D03*
D120*
X24359Y44831D03*
D93*
X41224Y44831D03*
D12*
X56159Y44831D03*
D110*
X78816Y44831D03*
D123*
X-18898Y102184D03*
D66*
X-203Y102184D03*
D123*
X18491Y102184D03*
D17*
X-78562Y45034D03*
D93*
X-63221Y45034D03*
D118*
X-47676Y45034D03*
D93*
X-30709Y45034D03*
X-20549Y45034D03*
D69*
X-940Y45034D03*
D120*
X24359Y45034D03*
D93*
X41224Y45034D03*
D12*
X56159Y45034D03*
D110*
X78816Y45034D03*
D123*
X-18898Y102387D03*
D66*
X-203Y102387D03*
D123*
X18491Y102387D03*
D17*
X-78562Y45237D03*
D93*
X-63221Y45237D03*
D118*
X-47676Y45237D03*
D93*
X-30912Y45237D03*
D19*
X-20447Y45237D03*
D68*
X-838Y45237D03*
D117*
X24257Y45237D03*
D93*
X41224Y45237D03*
D12*
X56159Y45237D03*
D110*
X78816Y45237D03*
D121*
X-18796Y102591D03*
D66*
X-203Y102591D03*
D121*
X18390Y102591D03*
D17*
X-78562Y45441D03*
D93*
X-63221Y45441D03*
D107*
X-47574Y45441D03*
D93*
X-30912Y45441D03*
X-20345Y45441D03*
D69*
X-940Y45441D03*
D117*
X24257Y45441D03*
D93*
X41224Y45441D03*
D12*
X56159Y45441D03*
D118*
X78715Y45441D03*
D119*
X-18694Y102794D03*
D66*
X-203Y102794D03*
D121*
X18390Y102794D03*
D17*
X-78562Y45644D03*
D93*
X-63221Y45644D03*
D107*
X-47574Y45644D03*
D93*
X-31115Y45644D03*
D19*
X-20244Y45644D03*
D68*
X-838Y45644D03*
D116*
X24155Y45644D03*
D93*
X41224Y45644D03*
D12*
X56159Y45644D03*
D118*
X78715Y45644D03*
D119*
X-18694Y102997D03*
D66*
X-203Y102997D03*
D119*
X18288Y102997D03*
D17*
X-78562Y45847D03*
D93*
X-63221Y45847D03*
D107*
X-47574Y45847D03*
D93*
X-31115Y45847D03*
X-20142Y45847D03*
D64*
X-838Y45847D03*
D116*
X24155Y45847D03*
D93*
X41224Y45847D03*
D12*
X56159Y45847D03*
D118*
X78715Y45847D03*
D92*
X-18593Y103200D03*
D66*
X-203Y103200D03*
D92*
X18186Y103200D03*
D17*
X-78562Y46050D03*
D93*
X-63221Y46050D03*
D107*
X-47574Y46050D03*
D93*
X-31318Y46050D03*
X-19939Y46050D03*
D64*
X-838Y46050D03*
D116*
X24155Y46050D03*
D93*
X41224Y46050D03*
D12*
X56159Y46050D03*
D118*
X78715Y46050D03*
D94*
X-18491Y103403D03*
D66*
X-203Y103403D03*
D92*
X18186Y103403D03*
D17*
X-78562Y46253D03*
D93*
X-63221Y46253D03*
D105*
X-47473Y46253D03*
D93*
X-31318Y46253D03*
X-19939Y46253D03*
D64*
X-838Y46253D03*
D12*
X24054Y46253D03*
D93*
X41224Y46253D03*
D12*
X56159Y46253D03*
D118*
X78715Y46253D03*
D94*
X-18491Y103607D03*
D66*
X-203Y103607D03*
D94*
X18085Y103607D03*
D17*
X-78562Y46457D03*
D93*
X-63221Y46457D03*
D105*
X-47473Y46457D03*
D93*
X-31521Y46457D03*
X-19736Y46457D03*
D64*
X-838Y46457D03*
D114*
X23952Y46457D03*
D93*
X41224Y46457D03*
D12*
X56159Y46457D03*
D107*
X78613Y46457D03*
D94*
X-18491Y103810D03*
D66*
X-203Y103810D03*
D94*
X18085Y103810D03*
D17*
X-78562Y46660D03*
D93*
X-63221Y46660D03*
D101*
X-47371Y46660D03*
D93*
X-31521Y46660D03*
D17*
X-19634Y46660D03*
D62*
X-940Y46660D03*
D112*
X23851Y46660D03*
D93*
X41224Y46660D03*
D12*
X56159Y46660D03*
D107*
X78613Y46660D03*
D115*
X-18390Y104013D03*
D66*
X-203Y104013D03*
D115*
X17983Y104013D03*
D17*
X-78562Y46863D03*
D93*
X-63221Y46863D03*
D106*
X-47269Y46863D03*
D93*
X-31725Y46863D03*
X-19533Y46863D03*
D60*
X-838Y46863D03*
D110*
X23749Y46863D03*
D93*
X41224Y46863D03*
D12*
X56159Y46863D03*
D105*
X78511Y46863D03*
D115*
X-18390Y104216D03*
D66*
X-203Y104216D03*
D115*
X17983Y104216D03*
D17*
X-78562Y47066D03*
D93*
X-63221Y47066D03*
D111*
X-47168Y47066D03*
D17*
X-31826Y47066D03*
D93*
X-19533Y47066D03*
D138*
X-940Y47066D03*
D110*
X23749Y47066D03*
D93*
X41224Y47066D03*
D12*
X56159Y47066D03*
D105*
X78511Y47066D03*
D113*
X-18288Y104419D03*
D66*
X-203Y104419D03*
D113*
X17882Y104419D03*
D17*
X-78562Y47269D03*
D93*
X-63221Y47269D03*
D97*
X-47066Y47269D03*
D93*
X-31928Y47269D03*
D17*
X-19431Y47269D03*
D55*
X-838Y47269D03*
D118*
X23647Y47269D03*
D93*
X41224Y47269D03*
D12*
X56159Y47269D03*
D133*
X78410Y47269D03*
D108*
X-18186Y104623D03*
D66*
X-203Y104623D03*
D108*
X17780Y104623D03*
D17*
X-78562Y47473D03*
D93*
X-63221Y47473D03*
D100*
X-46965Y47473D03*
D19*
X-32029Y47473D03*
X-19228Y47473D03*
D53*
X-940Y47473D03*
D105*
X23444Y47473D03*
D93*
X41224Y47473D03*
D12*
X56159Y47473D03*
D106*
X78308Y47473D03*
D108*
X-18186Y104826D03*
D66*
X-203Y104826D03*
D102*
X17678Y104826D03*
D17*
X-78562Y47676D03*
D93*
X-63221Y47676D03*
D103*
X-46863Y47676D03*
D93*
X-32131Y47676D03*
X-19126Y47676D03*
D49*
X-940Y47676D03*
D101*
X23343Y47676D03*
D93*
X41224Y47676D03*
D12*
X56159Y47676D03*
D111*
X78207Y47676D03*
D102*
X-18085Y105029D03*
D66*
X-203Y105029D03*
D102*
X17678Y105029D03*
D17*
X-78562Y47879D03*
D93*
X-63221Y47879D03*
D99*
X-46761Y47879D03*
D19*
X-32233Y47879D03*
X-19025Y47879D03*
D48*
X-940Y47879D03*
D106*
X23241Y47879D03*
D93*
X41224Y47879D03*
D12*
X56159Y47879D03*
D97*
X78105Y47879D03*
D102*
X-18085Y105232D03*
D66*
X-203Y105232D03*
D98*
X17577Y105232D03*
D17*
X-78562Y48082D03*
D93*
X-63221Y48082D03*
D95*
X-46660Y48082D03*
D19*
X-32436Y48082D03*
D93*
X-18923Y48082D03*
D44*
X-940Y48082D03*
D100*
X22936Y48082D03*
D93*
X41224Y48082D03*
D12*
X56159Y48082D03*
D139*
X77902Y48082D03*
D98*
X-17983Y105435D03*
D66*
X-203Y105435D03*
D98*
X17577Y105435D03*
D17*
X-78562Y48285D03*
D93*
X-63221Y48285D03*
D123*
X-46457Y48285D03*
D93*
X-32537Y48285D03*
D19*
X-18821Y48285D03*
D36*
X-940Y48285D03*
D99*
X22733Y48285D03*
D93*
X41224Y48285D03*
D12*
X56159Y48285D03*
D99*
X77800Y48285D03*
D91*
X-17882Y105639D03*
D66*
X-203Y105639D03*
D98*
X17577Y105639D03*
D17*
X-78562Y48489D03*
D93*
X-63221Y48489D03*
D94*
X-46050Y48489D03*
D93*
X-32537Y48489D03*
X-18720Y48489D03*
D23*
X-940Y48489D03*
D121*
X22327Y48489D03*
D93*
X41224Y48489D03*
D12*
X56159Y48489D03*
D123*
X77495Y48489D03*
D91*
X-17882Y105842D03*
D66*
X-203Y105842D03*
D91*
X17475Y105842D03*
D15*
X-78664Y48692D03*
D93*
X-63221Y48692D03*
D140*
X-46050Y48692D03*
D15*
X-32537Y48692D03*
X-18720Y48692D03*
D93*
X-838Y48692D03*
D119*
X22225Y48692D03*
D15*
X41224Y48692D03*
D114*
X56058Y48692D03*
D141*
X77394Y48692D03*
D90*
X-17780Y106045D03*
D66*
X-203Y106045D03*
D91*
X17475Y106045D03*
D13*
X-78664Y48895D03*
D142*
X-63119Y48895D03*
D78*
X-45441Y48895D03*
D143*
X-32639Y48895D03*
X-18618Y48895D03*
D144*
X-838Y48895D03*
D145*
X21514Y48895D03*
D13*
X41224Y48895D03*
D131*
X56058Y48895D03*
D98*
X76784Y48895D03*
D89*
X-17678Y106248D03*
D66*
X-203Y106248D03*
D90*
X17374Y106248D03*
D89*
X-17678Y106451D03*
D66*
X-203Y106451D03*
D89*
X17272Y106451D03*
D88*
X-17577Y106655D03*
D66*
X-203Y106655D03*
D89*
X17272Y106655D03*
D88*
X-17577Y106858D03*
D66*
X-203Y106858D03*
D88*
X17170Y106858D03*
D78*
X-17475Y107061D03*
D66*
X-203Y107061D03*
D88*
X17170Y107061D03*
D87*
X-17374Y107264D03*
D66*
X-203Y107264D03*
D78*
X17069Y107264D03*
D87*
X-17374Y107467D03*
D66*
X-203Y107467D03*
D78*
X17069Y107467D03*
D87*
X-17374Y107671D03*
D66*
X-203Y107671D03*
D87*
X16967Y107671D03*
D83*
X-17272Y107874D03*
D66*
X-203Y107874D03*
D83*
X16866Y107874D03*
X-17272Y108077D03*
D66*
X-203Y108077D03*
D77*
X16764Y108077D03*
X-17170Y108280D03*
D66*
X-203Y108280D03*
D77*
X16764Y108280D03*
X-17170Y108483D03*
D86*
X-305Y108483D03*
D80*
X16662Y108483D03*
D146*
X-16967Y108687D03*
D86*
X-305Y108687D03*
D80*
X16662Y108687D03*
X-16866Y108890D03*
D86*
X-305Y108890D03*
D85*
X16561Y108890D03*
X-16764Y109093D03*
D147*
X-406Y109093D03*
D81*
X16459Y109093D03*
D85*
X-16764Y109296D03*
D147*
X-406Y109296D03*
D81*
X16459Y109296D03*
D85*
X-16561Y109499D03*
D147*
X-406Y109499D03*
D81*
X16459Y109499D03*
D80*
X-16459Y109703D03*
D70*
X-508Y109703D03*
D84*
X16358Y109703D03*
D85*
X-16358Y109906D03*
D73*
X-610Y109906D03*
D84*
X16358Y109906D03*
D82*
X-16053Y110109D03*
D76*
X-711Y110109D03*
D79*
X16256Y110109D03*
D82*
X-15850Y110312D03*
D84*
X-914Y110312D03*
D79*
X16256Y110312D03*
D78*
X-15443Y110515D03*
D80*
X-1219Y110515D03*
D76*
X16154Y110515D03*
D148*
X-8534Y110719D03*
D73*
X16053Y110719D03*
D72*
X-8433Y110922D03*
D70*
X15951Y110922D03*
D72*
X-8433Y111125D03*
D70*
X15951Y111125D03*
D72*
X-8433Y111328D03*
D147*
X15850Y111328D03*
D71*
X-8331Y111531D03*
D147*
X15850Y111531D03*
D67*
X-8230Y111735D03*
D86*
X15748Y111735D03*
D65*
X-8128Y111938D03*
D86*
X15748Y111938D03*
D65*
X-8128Y112141D03*
D66*
X15646Y112141D03*
D149*
X-8026Y112344D03*
D64*
X15545Y112344D03*
D149*
X-8026Y112547D03*
D64*
X15545Y112547D03*
D61*
X-7925Y112751D03*
D62*
X15443Y112751D03*
D61*
X-7925Y112954D03*
D62*
X15443Y112954D03*
D59*
X-7823Y113157D03*
D62*
X15443Y113157D03*
D58*
X-7722Y113360D03*
D150*
X15342Y113360D03*
D58*
X-7722Y113563D03*
D138*
X15240Y113563D03*
D56*
X-7620Y113767D03*
D138*
X15240Y113767D03*
D56*
X-7620Y113970D03*
D55*
X15138Y113970D03*
D151*
X-7518Y114173D03*
D53*
X15037Y114173D03*
D151*
X-7518Y114376D03*
D53*
X15037Y114376D03*
D51*
X-7417Y114579D03*
D52*
X14935Y114579D03*
D50*
X-7315Y114783D03*
D52*
X14935Y114783D03*
D47*
X-7214Y114986D03*
D136*
X14834Y114986D03*
D47*
X-7214Y115189D03*
D130*
X14732Y115189D03*
D46*
X-7112Y115392D03*
D130*
X14732Y115392D03*
D46*
X-7112Y115595D03*
D48*
X14630Y115595D03*
D46*
X-7112Y115799D03*
D48*
X14630Y115799D03*
D152*
X-7010Y116002D03*
D45*
X14529Y116002D03*
D152*
X-7010Y116205D03*
D44*
X14427Y116205D03*
D42*
X-6909Y116408D03*
D44*
X14427Y116408D03*
D40*
X-6807Y116611D03*
D41*
X14326Y116611D03*
D40*
X-6807Y116815D03*
D39*
X14224Y116815D03*
D38*
X-6706Y117018D03*
D39*
X14224Y117018D03*
D38*
X-6706Y117221D03*
D37*
X14122Y117221D03*
D35*
X-6604Y117424D03*
D37*
X14122Y117424D03*
D153*
X-6502Y117627D03*
D37*
X14122Y117627D03*
D32*
X-6401Y117831D03*
D36*
X14021Y117831D03*
D32*
X-6401Y118034D03*
D36*
X14021Y118034D03*
D30*
X-6299Y118237D03*
D34*
X13919Y118237D03*
D30*
X-6299Y118440D03*
D31*
X13818Y118440D03*
D28*
X-6198Y118643D03*
D31*
X13818Y118643D03*
D28*
X-6198Y118847D03*
D29*
X13716Y118847D03*
D26*
X-6096Y119050D03*
D29*
X13716Y119050D03*
D154*
X-5994Y119253D03*
D27*
X13614Y119253D03*
D154*
X-5994Y119456D03*
D25*
X13513Y119456D03*
D22*
X-5893Y119659D03*
D23*
X13411Y119659D03*
D155*
X-5690Y119863D03*
D21*
X13310Y119863D03*
D18*
X-5588Y120066D03*
D19*
X13208Y120066D03*
D135*
X-5486Y120269D03*
D17*
X13005Y120269D03*
D14*
X-5283Y120472D03*
D142*
X12802Y120472D03*
D128*
X-4775Y120675D03*
D156*
X12294Y120675D03*
D116*
X-4775Y120879D03*
D157*
X12294Y120879D03*
M02*
