G04 EAGLE Gerber RS-274X export*
G75*
%MOMM*%
%FSLAX34Y34*%
%LPD*%
%INSilkscreen Bottom*%
%IPPOS*%
%AMOC8*
5,1,8,0,0,1.08239X$1,22.5*%
G01*
%ADD10C,0.101600*%
%ADD11R,0.345438X0.020319*%
%ADD12R,1.950719X0.020319*%
%ADD13R,0.467356X0.020319*%
%ADD14R,2.072637X0.020319*%
%ADD15R,0.508000X0.020319*%
%ADD16R,2.113281X0.020319*%
%ADD17R,0.528319X0.020319*%
%ADD18R,2.133600X0.020319*%
%ADD19R,0.568956X0.020319*%
%ADD20R,2.174238X0.020319*%
%ADD21R,0.589275X0.020319*%
%ADD22R,2.194556X0.020319*%
%ADD23R,0.609600X0.020319*%
%ADD24R,2.214881X0.020319*%
%ADD25R,0.629919X0.020319*%
%ADD26R,2.235200X0.020319*%
%ADD27R,0.650238X0.020319*%
%ADD28R,2.255519X0.020319*%
%ADD29R,0.670556X0.020319*%
%ADD30R,2.275838X0.020319*%
%ADD31R,0.690875X0.020319*%
%ADD32R,2.296156X0.020319*%
%ADD33R,2.316481X0.020319*%
%ADD34R,0.711200X0.020319*%
%ADD35R,2.336800X0.020319*%
%ADD36R,0.731519X0.020319*%
%ADD37R,0.751838X0.020319*%
%ADD38R,2.357119X0.020319*%
%ADD39R,0.772156X0.020319*%
%ADD40R,2.377438X0.020319*%
%ADD41R,0.792475X0.020319*%
%ADD42R,2.397756X0.020319*%
%ADD43R,2.418081X0.020319*%
%ADD44R,0.812800X0.020319*%
%ADD45R,0.833119X0.020319*%
%ADD46R,2.438400X0.020319*%
%ADD47R,2.458719X0.020319*%
%ADD48R,0.853438X0.020319*%
%ADD49R,0.894081X0.020319*%
%ADD50R,2.479038X0.020319*%
%ADD51R,2.499356X0.020319*%
%ADD52R,0.914400X0.020319*%
%ADD53R,0.934719X0.020319*%
%ADD54R,2.519681X0.020319*%
%ADD55R,0.955038X0.020319*%
%ADD56R,2.540000X0.020319*%
%ADD57R,0.975363X0.020319*%
%ADD58R,2.560319X0.020319*%
%ADD59R,2.580637X0.020319*%
%ADD60R,0.995681X0.020319*%
%ADD61R,2.600956X0.020319*%
%ADD62R,1.016000X0.020319*%
%ADD63R,2.621281X0.020319*%
%ADD64R,1.036319X0.020319*%
%ADD65R,2.641600X0.020319*%
%ADD66R,1.056638X0.020319*%
%ADD67R,2.661919X0.020319*%
%ADD68R,1.076963X0.020319*%
%ADD69R,1.097281X0.020319*%
%ADD70R,1.117600X0.020319*%
%ADD71R,2.682238X0.020319*%
%ADD72R,2.702556X0.020319*%
%ADD73R,1.137919X0.020319*%
%ADD74R,2.722881X0.020319*%
%ADD75R,2.743200X0.020319*%
%ADD76R,1.158238X0.020319*%
%ADD77R,1.280156X0.020319*%
%ADD78R,1.341119X0.020319*%
%ADD79R,1.178556X0.020319*%
%ADD80R,1.259838X0.020319*%
%ADD81R,1.219200X0.020319*%
%ADD82R,1.300481X0.020319*%
%ADD83R,1.300475X0.020319*%
%ADD84R,1.198875X0.020319*%
%ADD85R,1.239519X0.020319*%
%ADD86R,1.076956X0.020319*%
%ADD87R,1.320800X0.020319*%
%ADD88R,1.361438X0.020319*%
%ADD89R,1.381756X0.020319*%
%ADD90R,1.402075X0.020319*%
%ADD91R,1.422400X0.020319*%
%ADD92R,1.564638X0.020319*%
%ADD93R,0.548638X0.020319*%
%ADD94R,1.544319X0.020319*%
%ADD95R,1.666238X0.020319*%
%ADD96R,1.645919X0.020319*%
%ADD97R,1.747519X0.020319*%
%ADD98R,1.442719X0.020319*%
%ADD99R,1.686556X0.020319*%
%ADD100R,1.727200X0.020319*%
%ADD101R,1.808475X0.020319*%
%ADD102R,1.463037X0.020319*%
%ADD103R,1.706875X0.020319*%
%ADD104R,0.568963X0.020319*%
%ADD105R,1.828800X0.020319*%
%ADD106R,1.788156X0.020319*%
%ADD107R,1.849119X0.020319*%
%ADD108R,1.483356X0.020319*%
%ADD109R,0.589281X0.020319*%
%ADD110R,1.889756X0.020319*%
%ADD111R,1.767838X0.020319*%
%ADD112R,1.910075X0.020319*%
%ADD113R,1.503675X0.020319*%
%ADD114R,1.930400X0.020319*%
%ADD115R,1.524000X0.020319*%
%ADD116R,1.971037X0.020319*%
%ADD117R,1.991356X0.020319*%
%ADD118R,1.869438X0.020319*%
%ADD119R,1.584956X0.020319*%
%ADD120R,2.011675X0.020319*%
%ADD121R,1.605275X0.020319*%
%ADD122R,2.032000X0.020319*%
%ADD123R,1.625600X0.020319*%
%ADD124R,2.052319X0.020319*%
%ADD125R,0.690881X0.020319*%
%ADD126R,2.092956X0.020319*%
%ADD127R,0.772163X0.020319*%
%ADD128R,2.011681X0.020319*%
%ADD129R,1.910081X0.020319*%
%ADD130R,0.873756X0.020319*%
%ADD131R,1.889763X0.020319*%
%ADD132R,0.670563X0.020319*%
%ADD133R,1.808481X0.020319*%
%ADD134R,0.792481X0.020319*%
%ADD135R,2.113275X0.020319*%
%ADD136R,0.894075X0.020319*%
%ADD137R,0.487681X0.020319*%
%ADD138R,0.975356X0.020319*%
%ADD139R,1.706881X0.020319*%
%ADD140R,1.503681X0.020319*%
%ADD141R,1.605281X0.020319*%
%ADD142R,0.487675X0.020319*%
%ADD143R,0.447038X0.020319*%
%ADD144R,0.060963X0.020319*%
%ADD145R,1.402081X0.020319*%
%ADD146R,1.280163X0.020319*%
%ADD147R,1.097275X0.020319*%
%ADD148R,2.722875X0.020319*%
%ADD149R,2.621275X0.020319*%
%ADD150R,0.995675X0.020319*%
%ADD151R,2.519675X0.020319*%
%ADD152R,2.418075X0.020319*%
%ADD153R,2.316475X0.020319*%
%ADD154R,2.214875X0.020319*%
%ADD155R,2.153919X0.020319*%
%ADD156R,0.426719X0.020319*%
%ADD157R,0.386075X0.020319*%


D10*
X81894Y120489D02*
X80299Y121606D01*
X76576Y116289D01*
X79766Y114055D01*
X79849Y114000D01*
X79933Y113948D01*
X80020Y113899D01*
X80108Y113853D01*
X80198Y113811D01*
X80290Y113772D01*
X80383Y113737D01*
X80477Y113705D01*
X80572Y113677D01*
X80669Y113653D01*
X80766Y113632D01*
X80864Y113616D01*
X80963Y113602D01*
X81062Y113593D01*
X81161Y113588D01*
X81261Y113586D01*
X81360Y113588D01*
X81459Y113594D01*
X81558Y113604D01*
X81657Y113617D01*
X81755Y113635D01*
X81852Y113656D01*
X81948Y113680D01*
X82044Y113709D01*
X82138Y113741D01*
X82231Y113776D01*
X82322Y113815D01*
X82412Y113858D01*
X82500Y113904D01*
X82586Y113953D01*
X82671Y114006D01*
X82753Y114062D01*
X82833Y114121D01*
X82911Y114183D01*
X82986Y114248D01*
X83059Y114315D01*
X83129Y114386D01*
X83197Y114459D01*
X83261Y114535D01*
X83323Y114613D01*
X83382Y114693D01*
X87105Y120010D01*
X87160Y120093D01*
X87212Y120177D01*
X87261Y120264D01*
X87307Y120352D01*
X87349Y120442D01*
X87388Y120534D01*
X87423Y120627D01*
X87455Y120721D01*
X87483Y120816D01*
X87507Y120913D01*
X87528Y121010D01*
X87544Y121108D01*
X87558Y121207D01*
X87567Y121306D01*
X87572Y121405D01*
X87574Y121505D01*
X87572Y121604D01*
X87566Y121703D01*
X87556Y121802D01*
X87543Y121901D01*
X87525Y121999D01*
X87504Y122096D01*
X87480Y122192D01*
X87451Y122288D01*
X87419Y122382D01*
X87384Y122475D01*
X87345Y122566D01*
X87302Y122656D01*
X87256Y122744D01*
X87207Y122830D01*
X87154Y122915D01*
X87098Y122997D01*
X87039Y123077D01*
X86977Y123155D01*
X86912Y123230D01*
X86845Y123303D01*
X86774Y123373D01*
X86701Y123441D01*
X86625Y123505D01*
X86547Y123567D01*
X86467Y123626D01*
X86468Y123626D02*
X83277Y125860D01*
X78608Y129130D02*
X71906Y119559D01*
X66589Y123282D02*
X78608Y129130D01*
X73290Y132853D02*
X66589Y123282D01*
X61919Y126552D02*
X68620Y136123D01*
X65962Y137984D01*
X65962Y137985D02*
X65868Y138048D01*
X65772Y138108D01*
X65674Y138165D01*
X65574Y138218D01*
X65472Y138268D01*
X65368Y138314D01*
X65263Y138356D01*
X65157Y138395D01*
X65049Y138430D01*
X64940Y138461D01*
X64830Y138489D01*
X64719Y138512D01*
X64608Y138532D01*
X64496Y138548D01*
X64383Y138560D01*
X64270Y138568D01*
X64157Y138572D01*
X64043Y138572D01*
X63930Y138568D01*
X63817Y138560D01*
X63704Y138548D01*
X63592Y138532D01*
X63481Y138512D01*
X63370Y138489D01*
X63260Y138461D01*
X63151Y138430D01*
X63043Y138395D01*
X62937Y138356D01*
X62832Y138314D01*
X62728Y138268D01*
X62626Y138218D01*
X62526Y138165D01*
X62428Y138108D01*
X62332Y138048D01*
X62238Y137985D01*
X62147Y137918D01*
X62057Y137849D01*
X61970Y137776D01*
X61886Y137700D01*
X61805Y137621D01*
X61726Y137540D01*
X61650Y137456D01*
X61577Y137369D01*
X61508Y137280D01*
X61441Y137188D01*
X61442Y137187D02*
X58463Y132934D01*
X58400Y132840D01*
X58340Y132744D01*
X58283Y132646D01*
X58230Y132546D01*
X58180Y132444D01*
X58134Y132340D01*
X58092Y132235D01*
X58053Y132129D01*
X58018Y132021D01*
X57987Y131912D01*
X57959Y131802D01*
X57936Y131691D01*
X57916Y131580D01*
X57900Y131468D01*
X57888Y131355D01*
X57880Y131242D01*
X57876Y131129D01*
X57876Y131015D01*
X57880Y130902D01*
X57888Y130789D01*
X57900Y130676D01*
X57916Y130564D01*
X57936Y130453D01*
X57959Y130342D01*
X57987Y130232D01*
X58018Y130123D01*
X58053Y130015D01*
X58092Y129909D01*
X58134Y129804D01*
X58180Y129700D01*
X58230Y129598D01*
X58283Y129498D01*
X58340Y129400D01*
X58400Y129304D01*
X58463Y129210D01*
X58530Y129118D01*
X58599Y129029D01*
X58672Y128942D01*
X58748Y128858D01*
X58827Y128777D01*
X58908Y128698D01*
X58992Y128622D01*
X59079Y128549D01*
X59169Y128480D01*
X59260Y128413D01*
X61919Y126552D01*
X145092Y15037D02*
X147040Y15037D01*
X145092Y15037D02*
X145092Y8546D01*
X148987Y8546D01*
X149086Y8548D01*
X149186Y8554D01*
X149285Y8563D01*
X149383Y8576D01*
X149481Y8593D01*
X149579Y8614D01*
X149675Y8639D01*
X149770Y8667D01*
X149864Y8699D01*
X149957Y8734D01*
X150049Y8773D01*
X150139Y8816D01*
X150227Y8861D01*
X150314Y8911D01*
X150398Y8963D01*
X150481Y9019D01*
X150561Y9077D01*
X150639Y9139D01*
X150714Y9204D01*
X150787Y9272D01*
X150857Y9342D01*
X150925Y9415D01*
X150990Y9490D01*
X151052Y9568D01*
X151110Y9648D01*
X151166Y9731D01*
X151218Y9815D01*
X151268Y9902D01*
X151313Y9990D01*
X151356Y10080D01*
X151395Y10172D01*
X151430Y10265D01*
X151462Y10359D01*
X151490Y10454D01*
X151515Y10550D01*
X151536Y10648D01*
X151553Y10746D01*
X151566Y10844D01*
X151575Y10943D01*
X151581Y11043D01*
X151583Y11142D01*
X151584Y11142D02*
X151584Y17634D01*
X151583Y17634D02*
X151581Y17733D01*
X151575Y17833D01*
X151566Y17932D01*
X151553Y18030D01*
X151536Y18128D01*
X151515Y18226D01*
X151490Y18322D01*
X151462Y18417D01*
X151430Y18511D01*
X151395Y18604D01*
X151356Y18696D01*
X151313Y18786D01*
X151268Y18874D01*
X151218Y18961D01*
X151166Y19045D01*
X151110Y19128D01*
X151052Y19208D01*
X150990Y19286D01*
X150925Y19361D01*
X150857Y19434D01*
X150787Y19504D01*
X150714Y19572D01*
X150639Y19637D01*
X150561Y19699D01*
X150481Y19757D01*
X150398Y19813D01*
X150314Y19865D01*
X150227Y19915D01*
X150139Y19960D01*
X150049Y20003D01*
X149957Y20042D01*
X149864Y20077D01*
X149770Y20109D01*
X149675Y20137D01*
X149579Y20162D01*
X149481Y20183D01*
X149383Y20200D01*
X149285Y20213D01*
X149186Y20222D01*
X149086Y20228D01*
X148987Y20230D01*
X145092Y20230D01*
X139392Y20230D02*
X139392Y8546D01*
X132900Y8546D02*
X139392Y20230D01*
X132900Y20230D02*
X132900Y8546D01*
X127200Y8546D02*
X127200Y20230D01*
X123954Y20230D01*
X123841Y20228D01*
X123728Y20222D01*
X123615Y20212D01*
X123502Y20198D01*
X123390Y20181D01*
X123279Y20159D01*
X123169Y20134D01*
X123059Y20104D01*
X122951Y20071D01*
X122844Y20034D01*
X122738Y19994D01*
X122634Y19949D01*
X122531Y19901D01*
X122430Y19850D01*
X122331Y19795D01*
X122234Y19737D01*
X122139Y19675D01*
X122046Y19610D01*
X121956Y19542D01*
X121868Y19471D01*
X121782Y19396D01*
X121699Y19319D01*
X121619Y19239D01*
X121542Y19156D01*
X121467Y19070D01*
X121396Y18982D01*
X121328Y18892D01*
X121263Y18799D01*
X121201Y18704D01*
X121143Y18607D01*
X121088Y18508D01*
X121037Y18407D01*
X120989Y18304D01*
X120944Y18200D01*
X120904Y18094D01*
X120867Y17987D01*
X120834Y17879D01*
X120804Y17769D01*
X120779Y17659D01*
X120757Y17548D01*
X120740Y17436D01*
X120726Y17323D01*
X120716Y17210D01*
X120710Y17097D01*
X120708Y16984D01*
X120708Y11792D01*
X120710Y11679D01*
X120716Y11566D01*
X120726Y11453D01*
X120740Y11340D01*
X120757Y11228D01*
X120779Y11117D01*
X120804Y11007D01*
X120834Y10897D01*
X120867Y10789D01*
X120904Y10682D01*
X120944Y10576D01*
X120989Y10472D01*
X121037Y10369D01*
X121088Y10268D01*
X121143Y10169D01*
X121201Y10072D01*
X121263Y9977D01*
X121328Y9884D01*
X121396Y9794D01*
X121467Y9706D01*
X121542Y9620D01*
X121619Y9537D01*
X121699Y9457D01*
X121782Y9380D01*
X121868Y9305D01*
X121956Y9234D01*
X122046Y9166D01*
X122139Y9101D01*
X122234Y9039D01*
X122331Y8981D01*
X122430Y8926D01*
X122531Y8875D01*
X122634Y8827D01*
X122738Y8782D01*
X122844Y8742D01*
X122951Y8705D01*
X123059Y8672D01*
X123169Y8642D01*
X123279Y8617D01*
X123390Y8595D01*
X123502Y8578D01*
X123615Y8564D01*
X123728Y8554D01*
X123841Y8548D01*
X123954Y8546D01*
X127200Y8546D01*
X-124740Y14705D02*
X-126688Y14705D01*
X-126688Y8214D01*
X-122793Y8214D01*
X-122694Y8216D01*
X-122594Y8222D01*
X-122495Y8231D01*
X-122397Y8244D01*
X-122299Y8261D01*
X-122201Y8282D01*
X-122105Y8307D01*
X-122010Y8335D01*
X-121916Y8367D01*
X-121823Y8402D01*
X-121731Y8441D01*
X-121641Y8484D01*
X-121553Y8529D01*
X-121466Y8579D01*
X-121382Y8631D01*
X-121299Y8687D01*
X-121219Y8745D01*
X-121141Y8807D01*
X-121066Y8872D01*
X-120993Y8940D01*
X-120923Y9010D01*
X-120855Y9083D01*
X-120790Y9158D01*
X-120728Y9236D01*
X-120670Y9316D01*
X-120614Y9399D01*
X-120562Y9483D01*
X-120512Y9570D01*
X-120467Y9658D01*
X-120424Y9748D01*
X-120385Y9840D01*
X-120350Y9933D01*
X-120318Y10027D01*
X-120290Y10122D01*
X-120265Y10218D01*
X-120244Y10316D01*
X-120227Y10414D01*
X-120214Y10512D01*
X-120205Y10611D01*
X-120199Y10711D01*
X-120197Y10810D01*
X-120197Y17302D01*
X-120199Y17401D01*
X-120205Y17501D01*
X-120214Y17600D01*
X-120227Y17698D01*
X-120244Y17796D01*
X-120265Y17894D01*
X-120290Y17990D01*
X-120318Y18085D01*
X-120350Y18179D01*
X-120385Y18272D01*
X-120424Y18364D01*
X-120467Y18454D01*
X-120512Y18542D01*
X-120562Y18629D01*
X-120614Y18713D01*
X-120670Y18796D01*
X-120728Y18876D01*
X-120790Y18954D01*
X-120855Y19029D01*
X-120923Y19102D01*
X-120993Y19172D01*
X-121066Y19240D01*
X-121141Y19305D01*
X-121219Y19367D01*
X-121299Y19425D01*
X-121382Y19481D01*
X-121466Y19533D01*
X-121553Y19583D01*
X-121641Y19628D01*
X-121731Y19671D01*
X-121823Y19710D01*
X-121915Y19745D01*
X-122010Y19777D01*
X-122105Y19805D01*
X-122201Y19830D01*
X-122299Y19851D01*
X-122397Y19868D01*
X-122495Y19881D01*
X-122594Y19890D01*
X-122694Y19896D01*
X-122793Y19898D01*
X-126688Y19898D01*
X-132388Y19898D02*
X-132388Y8214D01*
X-138880Y8214D02*
X-132388Y19898D01*
X-138880Y19898D02*
X-138880Y8214D01*
X-144580Y8214D02*
X-144580Y19898D01*
X-147826Y19898D01*
X-147939Y19896D01*
X-148052Y19890D01*
X-148165Y19880D01*
X-148278Y19866D01*
X-148390Y19849D01*
X-148501Y19827D01*
X-148611Y19802D01*
X-148721Y19772D01*
X-148829Y19739D01*
X-148936Y19702D01*
X-149042Y19662D01*
X-149146Y19617D01*
X-149249Y19569D01*
X-149350Y19518D01*
X-149449Y19463D01*
X-149546Y19405D01*
X-149641Y19343D01*
X-149734Y19278D01*
X-149824Y19210D01*
X-149912Y19139D01*
X-149998Y19064D01*
X-150081Y18987D01*
X-150161Y18907D01*
X-150238Y18824D01*
X-150313Y18738D01*
X-150384Y18650D01*
X-150452Y18560D01*
X-150517Y18467D01*
X-150579Y18372D01*
X-150637Y18275D01*
X-150692Y18176D01*
X-150743Y18075D01*
X-150791Y17972D01*
X-150836Y17868D01*
X-150876Y17762D01*
X-150913Y17655D01*
X-150946Y17547D01*
X-150976Y17437D01*
X-151001Y17327D01*
X-151023Y17216D01*
X-151040Y17104D01*
X-151054Y16991D01*
X-151064Y16878D01*
X-151070Y16765D01*
X-151072Y16652D01*
X-151072Y11460D01*
X-151070Y11347D01*
X-151064Y11234D01*
X-151054Y11121D01*
X-151040Y11008D01*
X-151023Y10896D01*
X-151001Y10785D01*
X-150976Y10675D01*
X-150946Y10565D01*
X-150913Y10457D01*
X-150876Y10350D01*
X-150836Y10244D01*
X-150791Y10140D01*
X-150743Y10037D01*
X-150692Y9936D01*
X-150637Y9837D01*
X-150579Y9740D01*
X-150517Y9645D01*
X-150452Y9552D01*
X-150384Y9462D01*
X-150313Y9374D01*
X-150238Y9288D01*
X-150161Y9205D01*
X-150081Y9125D01*
X-149998Y9048D01*
X-149912Y8973D01*
X-149824Y8902D01*
X-149734Y8834D01*
X-149641Y8769D01*
X-149546Y8707D01*
X-149449Y8649D01*
X-149350Y8594D01*
X-149249Y8543D01*
X-149146Y8495D01*
X-149042Y8450D01*
X-148936Y8410D01*
X-148829Y8373D01*
X-148721Y8340D01*
X-148611Y8310D01*
X-148501Y8285D01*
X-148390Y8263D01*
X-148278Y8246D01*
X-148165Y8232D01*
X-148052Y8222D01*
X-147939Y8216D01*
X-147826Y8214D01*
X-144580Y8214D01*
X-65646Y131869D02*
X-64051Y132986D01*
X-65646Y131869D02*
X-61923Y126552D01*
X-58733Y128786D01*
X-58653Y128845D01*
X-58575Y128907D01*
X-58499Y128971D01*
X-58426Y129039D01*
X-58355Y129109D01*
X-58288Y129182D01*
X-58223Y129257D01*
X-58161Y129335D01*
X-58102Y129415D01*
X-58046Y129497D01*
X-57993Y129582D01*
X-57944Y129668D01*
X-57898Y129756D01*
X-57855Y129846D01*
X-57816Y129937D01*
X-57781Y130030D01*
X-57749Y130124D01*
X-57720Y130220D01*
X-57696Y130316D01*
X-57675Y130413D01*
X-57657Y130511D01*
X-57644Y130610D01*
X-57634Y130709D01*
X-57628Y130808D01*
X-57626Y130907D01*
X-57628Y131007D01*
X-57633Y131106D01*
X-57643Y131205D01*
X-57656Y131304D01*
X-57672Y131402D01*
X-57693Y131499D01*
X-57717Y131596D01*
X-57745Y131691D01*
X-57777Y131785D01*
X-57812Y131878D01*
X-57851Y131970D01*
X-57893Y132060D01*
X-57939Y132148D01*
X-57988Y132235D01*
X-58040Y132319D01*
X-58095Y132402D01*
X-61818Y137719D01*
X-61877Y137799D01*
X-61939Y137877D01*
X-62003Y137953D01*
X-62071Y138026D01*
X-62141Y138097D01*
X-62214Y138164D01*
X-62289Y138229D01*
X-62367Y138291D01*
X-62447Y138350D01*
X-62529Y138406D01*
X-62614Y138459D01*
X-62700Y138508D01*
X-62788Y138554D01*
X-62878Y138597D01*
X-62969Y138636D01*
X-63062Y138671D01*
X-63156Y138703D01*
X-63252Y138732D01*
X-63348Y138756D01*
X-63445Y138777D01*
X-63543Y138795D01*
X-63642Y138808D01*
X-63741Y138818D01*
X-63840Y138824D01*
X-63939Y138826D01*
X-64039Y138824D01*
X-64138Y138819D01*
X-64237Y138809D01*
X-64336Y138796D01*
X-64434Y138780D01*
X-64531Y138759D01*
X-64628Y138735D01*
X-64723Y138707D01*
X-64817Y138675D01*
X-64910Y138640D01*
X-65002Y138601D01*
X-65092Y138559D01*
X-65180Y138513D01*
X-65267Y138464D01*
X-65351Y138412D01*
X-65434Y138357D01*
X-68624Y136123D01*
X-73294Y132853D02*
X-66593Y123282D01*
X-71910Y119559D02*
X-73294Y132853D01*
X-78612Y129130D02*
X-71910Y119559D01*
X-76580Y116289D02*
X-83282Y125860D01*
X-85940Y123998D01*
X-85941Y123999D02*
X-86032Y123932D01*
X-86122Y123863D01*
X-86209Y123790D01*
X-86293Y123714D01*
X-86374Y123635D01*
X-86453Y123554D01*
X-86529Y123470D01*
X-86602Y123383D01*
X-86671Y123293D01*
X-86738Y123202D01*
X-86801Y123108D01*
X-86861Y123012D01*
X-86918Y122914D01*
X-86971Y122814D01*
X-87021Y122712D01*
X-87067Y122608D01*
X-87109Y122503D01*
X-87148Y122397D01*
X-87183Y122289D01*
X-87214Y122180D01*
X-87242Y122070D01*
X-87265Y121959D01*
X-87285Y121848D01*
X-87301Y121736D01*
X-87313Y121623D01*
X-87321Y121510D01*
X-87325Y121397D01*
X-87325Y121283D01*
X-87321Y121170D01*
X-87313Y121057D01*
X-87301Y120944D01*
X-87285Y120832D01*
X-87265Y120721D01*
X-87242Y120610D01*
X-87214Y120500D01*
X-87183Y120391D01*
X-87148Y120283D01*
X-87109Y120177D01*
X-87067Y120072D01*
X-87021Y119968D01*
X-86971Y119866D01*
X-86918Y119766D01*
X-86861Y119668D01*
X-86801Y119572D01*
X-86738Y119478D01*
X-86737Y119478D02*
X-83759Y115224D01*
X-83692Y115133D01*
X-83623Y115043D01*
X-83550Y114956D01*
X-83474Y114872D01*
X-83395Y114791D01*
X-83314Y114712D01*
X-83230Y114636D01*
X-83143Y114563D01*
X-83053Y114494D01*
X-82962Y114427D01*
X-82868Y114364D01*
X-82772Y114304D01*
X-82674Y114247D01*
X-82574Y114194D01*
X-82472Y114144D01*
X-82368Y114098D01*
X-82263Y114056D01*
X-82157Y114017D01*
X-82049Y113982D01*
X-81940Y113951D01*
X-81830Y113923D01*
X-81719Y113900D01*
X-81608Y113880D01*
X-81496Y113864D01*
X-81383Y113852D01*
X-81270Y113844D01*
X-81157Y113840D01*
X-81043Y113840D01*
X-80930Y113844D01*
X-80817Y113852D01*
X-80704Y113864D01*
X-80592Y113880D01*
X-80481Y113900D01*
X-80370Y113923D01*
X-80260Y113951D01*
X-80151Y113982D01*
X-80043Y114017D01*
X-79937Y114056D01*
X-79832Y114098D01*
X-79728Y114144D01*
X-79626Y114194D01*
X-79526Y114247D01*
X-79428Y114304D01*
X-79332Y114364D01*
X-79238Y114427D01*
X-76580Y116289D01*
D11*
X11608Y64999D03*
D12*
X-5156Y64999D03*
D13*
X12217Y65202D03*
D14*
X-5563Y65202D03*
D15*
X12421Y65405D03*
D16*
X-5766Y65405D03*
D17*
X12522Y65608D03*
D18*
X-5867Y65608D03*
D19*
X12725Y65811D03*
D20*
X-6071Y65811D03*
D21*
X12827Y66015D03*
D22*
X-6172Y66015D03*
D23*
X12929Y66218D03*
D24*
X-6274Y66218D03*
D25*
X13030Y66421D03*
D26*
X-6375Y66421D03*
D27*
X13132Y66624D03*
D28*
X-6477Y66624D03*
D29*
X13233Y66827D03*
D30*
X-6579Y66827D03*
D29*
X13233Y67031D03*
D30*
X-6579Y67031D03*
D31*
X13335Y67234D03*
D32*
X-6680Y67234D03*
D31*
X13335Y67437D03*
D32*
X-6680Y67437D03*
D31*
X13335Y67640D03*
D33*
X-6782Y67640D03*
D34*
X13437Y67843D03*
D35*
X-6883Y67843D03*
D36*
X13538Y68047D03*
D35*
X-6883Y68047D03*
D37*
X13640Y68250D03*
D38*
X-6985Y68250D03*
D37*
X13640Y68453D03*
D38*
X-6985Y68453D03*
D39*
X13741Y68656D03*
D40*
X-7087Y68656D03*
D39*
X13741Y68859D03*
D40*
X-7087Y68859D03*
D41*
X13843Y69063D03*
D42*
X-7188Y69063D03*
D41*
X13843Y69266D03*
D43*
X-7290Y69266D03*
D44*
X13945Y69469D03*
D43*
X-7290Y69469D03*
D45*
X14046Y69672D03*
D46*
X-7391Y69672D03*
D45*
X14046Y69875D03*
D47*
X-7493Y69875D03*
D48*
X14148Y70079D03*
D47*
X-7493Y70079D03*
D48*
X14148Y70282D03*
D47*
X-7493Y70282D03*
D49*
X14148Y70485D03*
D50*
X-7595Y70485D03*
D49*
X14148Y70688D03*
D51*
X-7696Y70688D03*
D52*
X14249Y70891D03*
D51*
X-7696Y70891D03*
D53*
X14351Y71095D03*
D54*
X-7798Y71095D03*
D55*
X14453Y71298D03*
D54*
X-7798Y71298D03*
D55*
X14453Y71501D03*
D56*
X-7899Y71501D03*
D57*
X14554Y71704D03*
D56*
X-7899Y71704D03*
D57*
X14554Y71907D03*
D58*
X-8001Y71907D03*
D57*
X14554Y72111D03*
D59*
X-8103Y72111D03*
D60*
X14656Y72314D03*
D59*
X-8103Y72314D03*
D60*
X14656Y72517D03*
D61*
X-8204Y72517D03*
D62*
X14757Y72720D03*
D63*
X-8306Y72720D03*
D64*
X14859Y72923D03*
D63*
X-8306Y72923D03*
D64*
X14859Y73127D03*
D65*
X-8407Y73127D03*
D66*
X14961Y73330D03*
D65*
X-8407Y73330D03*
D66*
X14961Y73533D03*
D67*
X-8509Y73533D03*
D68*
X15062Y73736D03*
D67*
X-8509Y73736D03*
D69*
X15164Y73939D03*
D67*
X-8509Y73939D03*
D70*
X15265Y74143D03*
D71*
X-8611Y74143D03*
D70*
X15265Y74346D03*
D72*
X-8712Y74346D03*
D73*
X15367Y74549D03*
D72*
X-8712Y74549D03*
D73*
X15367Y74752D03*
D74*
X-8814Y74752D03*
D73*
X15570Y74955D03*
D74*
X-8814Y74955D03*
D73*
X15570Y75159D03*
D75*
X-8915Y75159D03*
D76*
X15672Y75362D03*
D77*
X-1600Y75362D03*
D78*
X-16129Y75362D03*
D79*
X15773Y75565D03*
D80*
X-1499Y75565D03*
D78*
X-16332Y75565D03*
D79*
X15773Y75768D03*
D81*
X-1295Y75768D03*
D82*
X-16535Y75768D03*
D79*
X15773Y75971D03*
X-1092Y75971D03*
D83*
X-16739Y75971D03*
D84*
X15875Y76175D03*
D76*
X-991Y76175D03*
D77*
X-16840Y76175D03*
D84*
X15875Y76378D03*
D73*
X-889Y76378D03*
D77*
X-17043Y76378D03*
D81*
X15977Y76581D03*
D73*
X-889Y76581D03*
D80*
X-17145Y76581D03*
D81*
X15977Y76784D03*
D70*
X-787Y76784D03*
D77*
X-17247Y76784D03*
D85*
X16078Y76987D03*
D70*
X-787Y76987D03*
D80*
X-17348Y76987D03*
X16180Y77191D03*
D70*
X-787Y77191D03*
D80*
X-17551Y77191D03*
D77*
X16281Y77394D03*
D69*
X-686Y77394D03*
D80*
X-17551Y77394D03*
D77*
X16281Y77597D03*
D86*
X-584Y77597D03*
D80*
X-17551Y77597D03*
D83*
X16383Y77800D03*
D86*
X-584Y77800D03*
D77*
X-17653Y77800D03*
D83*
X16383Y78003D03*
D86*
X-584Y78003D03*
D83*
X-17755Y78003D03*
D87*
X16485Y78207D03*
D86*
X-584Y78207D03*
D83*
X-17755Y78207D03*
D78*
X16586Y78410D03*
D86*
X-584Y78410D03*
D87*
X-17856Y78410D03*
D78*
X16586Y78613D03*
D86*
X-584Y78613D03*
D78*
X-17958Y78613D03*
D88*
X16688Y78816D03*
D86*
X-584Y78816D03*
D78*
X-17958Y78816D03*
D88*
X16688Y79019D03*
D86*
X-584Y79019D03*
D88*
X-18059Y79019D03*
D89*
X16789Y79223D03*
D86*
X-584Y79223D03*
D88*
X-18059Y79223D03*
D89*
X16789Y79426D03*
D86*
X-584Y79426D03*
D89*
X-18161Y79426D03*
X16789Y79629D03*
D86*
X-584Y79629D03*
D90*
X-18263Y79629D03*
X16891Y79832D03*
D86*
X-584Y79832D03*
D90*
X-18263Y79832D03*
D91*
X16993Y80035D03*
D86*
X-584Y80035D03*
D91*
X-18364Y80035D03*
D17*
X77673Y22885D03*
X62230Y22885D03*
D92*
X45466Y22885D03*
D17*
X31750Y22885D03*
D15*
X17628Y22885D03*
D93*
X10109Y22885D03*
X-9804Y22885D03*
D94*
X-22911Y22885D03*
D17*
X-42012Y22885D03*
X-57048Y22885D03*
D95*
X-80823Y22885D03*
D91*
X16993Y80239D03*
D86*
X-584Y80239D03*
D91*
X-18364Y80239D03*
D17*
X77673Y23089D03*
D93*
X62332Y23089D03*
D96*
X45669Y23089D03*
D17*
X31750Y23089D03*
X17729Y23089D03*
D19*
X10008Y23089D03*
D93*
X-9804Y23089D03*
D96*
X-23419Y23089D03*
D93*
X-42113Y23089D03*
D19*
X-57048Y23089D03*
D97*
X-80416Y23089D03*
D98*
X17094Y80442D03*
D86*
X-584Y80442D03*
D98*
X-18466Y80442D03*
D17*
X77673Y23292D03*
D93*
X62332Y23292D03*
D99*
X45872Y23292D03*
D93*
X31648Y23292D03*
X17831Y23292D03*
D19*
X9804Y23292D03*
D93*
X-9804Y23292D03*
D100*
X-23825Y23292D03*
D93*
X-42113Y23292D03*
D19*
X-57048Y23292D03*
D101*
X-80112Y23292D03*
D102*
X17196Y80645D03*
D86*
X-584Y80645D03*
D102*
X-18567Y80645D03*
D17*
X77673Y23495D03*
D93*
X62332Y23495D03*
D103*
X45974Y23495D03*
D17*
X31547Y23495D03*
D93*
X18034Y23495D03*
X9906Y23495D03*
D104*
X-9703Y23495D03*
D97*
X-23927Y23495D03*
D93*
X-42113Y23495D03*
D19*
X-57048Y23495D03*
D105*
X-80010Y23495D03*
D102*
X17196Y80848D03*
D86*
X-584Y80848D03*
D102*
X-18567Y80848D03*
D17*
X77673Y23698D03*
D93*
X62332Y23698D03*
D100*
X46076Y23698D03*
D93*
X31445Y23698D03*
X18034Y23698D03*
D19*
X9804Y23698D03*
D104*
X-9703Y23698D03*
D106*
X-24130Y23698D03*
D93*
X-42113Y23698D03*
D19*
X-57048Y23698D03*
D107*
X-79908Y23698D03*
D108*
X17297Y81051D03*
D86*
X-584Y81051D03*
D108*
X-18669Y81051D03*
D17*
X77673Y23901D03*
D93*
X62332Y23901D03*
D97*
X46177Y23901D03*
D19*
X31344Y23901D03*
D93*
X18237Y23901D03*
D109*
X9703Y23901D03*
D93*
X-9601Y23901D03*
D105*
X-24333Y23901D03*
D93*
X-42113Y23901D03*
D19*
X-57048Y23901D03*
D110*
X-79705Y23901D03*
D108*
X17297Y81255D03*
D86*
X-584Y81255D03*
D108*
X-18669Y81255D03*
D17*
X77673Y24105D03*
D93*
X62332Y24105D03*
D111*
X46279Y24105D03*
D19*
X31140Y24105D03*
D17*
X18339Y24105D03*
D104*
X9601Y24105D03*
D93*
X-9601Y24105D03*
D107*
X-24435Y24105D03*
D93*
X-42113Y24105D03*
D19*
X-57048Y24105D03*
D112*
X-79604Y24105D03*
D113*
X17399Y81458D03*
D86*
X-584Y81458D03*
D113*
X-18771Y81458D03*
D17*
X77673Y24308D03*
D93*
X62332Y24308D03*
D106*
X46380Y24308D03*
D19*
X31140Y24308D03*
D93*
X18440Y24308D03*
D104*
X9601Y24308D03*
D19*
X-9500Y24308D03*
D110*
X-24638Y24308D03*
D93*
X-42113Y24308D03*
D19*
X-57048Y24308D03*
D114*
X-79502Y24308D03*
D113*
X17399Y81661D03*
D86*
X-584Y81661D03*
D115*
X-18872Y81661D03*
D17*
X77673Y24511D03*
D93*
X62332Y24511D03*
D101*
X46482Y24511D03*
D104*
X30937Y24511D03*
D93*
X18644Y24511D03*
D109*
X9500Y24511D03*
D93*
X-9398Y24511D03*
D112*
X-24740Y24511D03*
D93*
X-42113Y24511D03*
D19*
X-57048Y24511D03*
D12*
X-79400Y24511D03*
D115*
X17501Y81864D03*
D86*
X-584Y81864D03*
D115*
X-18872Y81864D03*
D17*
X77673Y24714D03*
D93*
X62332Y24714D03*
D105*
X46584Y24714D03*
D93*
X30836Y24714D03*
X18644Y24714D03*
D19*
X9398Y24714D03*
D93*
X-9398Y24714D03*
D114*
X-24841Y24714D03*
D93*
X-42113Y24714D03*
D19*
X-57048Y24714D03*
D12*
X-79400Y24714D03*
D94*
X17602Y82067D03*
D86*
X-584Y82067D03*
D115*
X-18872Y82067D03*
D17*
X77673Y24917D03*
D93*
X62332Y24917D03*
D107*
X46685Y24917D03*
D19*
X30734Y24917D03*
D104*
X18745Y24917D03*
D19*
X9398Y24917D03*
X-9296Y24917D03*
D12*
X-24943Y24917D03*
D93*
X-42113Y24917D03*
D19*
X-57048Y24917D03*
D116*
X-79299Y24917D03*
D94*
X17602Y82271D03*
D86*
X-584Y82271D03*
D94*
X-18974Y82271D03*
D17*
X77673Y25121D03*
D93*
X62332Y25121D03*
D107*
X46685Y25121D03*
D93*
X30632Y25121D03*
X18847Y25121D03*
D19*
X9398Y25121D03*
X-9093Y25121D03*
D116*
X-25044Y25121D03*
D93*
X-42113Y25121D03*
D19*
X-57048Y25121D03*
D117*
X-79197Y25121D03*
D92*
X17704Y82474D03*
D86*
X-584Y82474D03*
D92*
X-19075Y82474D03*
D17*
X77673Y25324D03*
D93*
X62332Y25324D03*
D118*
X46787Y25324D03*
D93*
X30632Y25324D03*
D19*
X18948Y25324D03*
X9195Y25324D03*
D93*
X-9195Y25324D03*
D116*
X-25044Y25324D03*
D93*
X-42113Y25324D03*
D19*
X-57048Y25324D03*
D117*
X-79197Y25324D03*
D92*
X17704Y82677D03*
D86*
X-584Y82677D03*
D92*
X-19075Y82677D03*
D17*
X77673Y25527D03*
D93*
X62332Y25527D03*
D118*
X46787Y25527D03*
D93*
X30429Y25527D03*
X19050Y25527D03*
X9093Y25527D03*
D19*
X-9093Y25527D03*
D117*
X-25146Y25527D03*
D93*
X-42113Y25527D03*
D19*
X-57048Y25527D03*
D117*
X-79197Y25527D03*
D119*
X17805Y82880D03*
D86*
X-584Y82880D03*
D119*
X-19177Y82880D03*
D17*
X77673Y25730D03*
D93*
X62332Y25730D03*
D118*
X46787Y25730D03*
D17*
X30328Y25730D03*
D93*
X19050Y25730D03*
X9093Y25730D03*
D21*
X-8992Y25730D03*
D120*
X-25248Y25730D03*
D93*
X-42113Y25730D03*
D19*
X-57048Y25730D03*
D120*
X-79096Y25730D03*
D121*
X17907Y83083D03*
D86*
X-584Y83083D03*
D119*
X-19177Y83083D03*
D17*
X77673Y25933D03*
D93*
X62332Y25933D03*
D110*
X46888Y25933D03*
D93*
X30226Y25933D03*
X19253Y25933D03*
D19*
X8992Y25933D03*
X-8890Y25933D03*
D120*
X-25248Y25933D03*
D93*
X-42113Y25933D03*
D19*
X-57048Y25933D03*
D120*
X-79096Y25933D03*
D121*
X17907Y83287D03*
D86*
X-584Y83287D03*
D121*
X-19279Y83287D03*
D17*
X77673Y26137D03*
D93*
X62332Y26137D03*
D110*
X46888Y26137D03*
D93*
X30023Y26137D03*
X19456Y26137D03*
X8890Y26137D03*
D19*
X-8890Y26137D03*
D122*
X-25349Y26137D03*
D93*
X-42113Y26137D03*
D19*
X-57048Y26137D03*
D120*
X-79096Y26137D03*
D123*
X18009Y83490D03*
D86*
X-584Y83490D03*
D121*
X-19279Y83490D03*
D17*
X77673Y26340D03*
D93*
X62332Y26340D03*
D110*
X46888Y26340D03*
D93*
X30023Y26340D03*
X19456Y26340D03*
X8890Y26340D03*
D109*
X-8788Y26340D03*
D122*
X-25349Y26340D03*
D93*
X-42113Y26340D03*
D19*
X-57048Y26340D03*
D120*
X-79096Y26340D03*
D96*
X18110Y83693D03*
D86*
X-584Y83693D03*
D123*
X-19380Y83693D03*
D17*
X77673Y26543D03*
D93*
X62332Y26543D03*
D110*
X46888Y26543D03*
D93*
X29820Y26543D03*
X19660Y26543D03*
D19*
X8788Y26543D03*
D104*
X-8687Y26543D03*
D124*
X-25451Y26543D03*
D93*
X-42113Y26543D03*
D19*
X-57048Y26543D03*
D120*
X-79096Y26543D03*
D96*
X18110Y83896D03*
D86*
X-584Y83896D03*
D96*
X-19482Y83896D03*
D17*
X77673Y26746D03*
D93*
X62332Y26746D03*
D110*
X46888Y26746D03*
D19*
X29718Y26746D03*
D104*
X19761Y26746D03*
D19*
X8788Y26746D03*
D104*
X-8687Y26746D03*
D124*
X-25451Y26746D03*
D93*
X-42113Y26746D03*
D19*
X-57048Y26746D03*
D120*
X-79096Y26746D03*
D96*
X18110Y84099D03*
D86*
X-584Y84099D03*
D96*
X-19482Y84099D03*
D17*
X77673Y26949D03*
D93*
X62332Y26949D03*
D110*
X46888Y26949D03*
D93*
X29616Y26949D03*
X19863Y26949D03*
X8687Y26949D03*
D104*
X-8687Y26949D03*
D14*
X-25552Y26949D03*
D93*
X-42113Y26949D03*
D19*
X-57048Y26949D03*
D120*
X-79096Y26949D03*
D95*
X18212Y84303D03*
D86*
X-584Y84303D03*
D95*
X-19583Y84303D03*
D17*
X77673Y27153D03*
D93*
X62332Y27153D03*
D110*
X46888Y27153D03*
D19*
X29515Y27153D03*
D93*
X20066Y27153D03*
X8687Y27153D03*
D19*
X-8484Y27153D03*
D14*
X-25552Y27153D03*
D93*
X-42113Y27153D03*
D19*
X-57048Y27153D03*
D120*
X-79096Y27153D03*
D95*
X18212Y84506D03*
D86*
X-584Y84506D03*
D99*
X-19685Y84506D03*
D17*
X77673Y27356D03*
D93*
X62332Y27356D03*
D118*
X46990Y27356D03*
D93*
X29413Y27356D03*
X20066Y27356D03*
D104*
X8585Y27356D03*
D93*
X-8382Y27356D03*
D14*
X-25552Y27356D03*
D93*
X-42113Y27356D03*
D19*
X-57048Y27356D03*
D120*
X-79096Y27356D03*
D99*
X18313Y84709D03*
D86*
X-584Y84709D03*
D99*
X-19685Y84709D03*
D17*
X77673Y27559D03*
D93*
X62332Y27559D03*
X53594Y27559D03*
X29210Y27559D03*
X20269Y27559D03*
X8484Y27559D03*
X-8382Y27559D03*
X-17932Y27559D03*
D23*
X-32868Y27559D03*
D93*
X-42113Y27559D03*
D19*
X-57048Y27559D03*
D120*
X-79096Y27559D03*
D103*
X18415Y84912D03*
D86*
X-584Y84912D03*
D103*
X-19787Y84912D03*
D17*
X77673Y27762D03*
D93*
X62332Y27762D03*
X53594Y27762D03*
X29210Y27762D03*
X20269Y27762D03*
X8484Y27762D03*
D19*
X-8280Y27762D03*
D93*
X-17932Y27762D03*
D104*
X-33071Y27762D03*
D93*
X-42113Y27762D03*
D19*
X-57048Y27762D03*
D23*
X-72085Y27762D03*
D103*
X18415Y85115D03*
D86*
X-584Y85115D03*
D103*
X-19787Y85115D03*
D17*
X77673Y27965D03*
D93*
X62332Y27965D03*
D17*
X53696Y27965D03*
D93*
X29007Y27965D03*
X20472Y27965D03*
D19*
X8382Y27965D03*
D93*
X-8179Y27965D03*
X-17932Y27965D03*
D19*
X-33274Y27965D03*
D93*
X-42113Y27965D03*
D19*
X-57048Y27965D03*
D21*
X-71984Y27965D03*
D100*
X18517Y85319D03*
D86*
X-584Y85319D03*
D100*
X-19888Y85319D03*
D17*
X77673Y28169D03*
D93*
X62332Y28169D03*
D17*
X53696Y28169D03*
D93*
X29007Y28169D03*
X20472Y28169D03*
D19*
X8179Y28169D03*
D93*
X-8179Y28169D03*
X-17932Y28169D03*
X-33376Y28169D03*
X-42113Y28169D03*
D19*
X-57048Y28169D03*
X-71882Y28169D03*
D100*
X18517Y85522D03*
D86*
X-584Y85522D03*
D97*
X-19990Y85522D03*
D17*
X77673Y28372D03*
D93*
X62332Y28372D03*
D17*
X53696Y28372D03*
D104*
X28905Y28372D03*
D19*
X20574Y28372D03*
D93*
X8280Y28372D03*
D19*
X-8077Y28372D03*
D93*
X-17932Y28372D03*
D17*
X-33477Y28372D03*
D93*
X-42113Y28372D03*
D19*
X-57048Y28372D03*
D21*
X-71984Y28372D03*
D97*
X18618Y85725D03*
D86*
X-584Y85725D03*
D97*
X-19990Y85725D03*
D17*
X77673Y28575D03*
D93*
X62332Y28575D03*
D17*
X53696Y28575D03*
D19*
X28702Y28575D03*
D93*
X20676Y28575D03*
D19*
X8179Y28575D03*
X-8077Y28575D03*
D93*
X-17932Y28575D03*
D17*
X-33477Y28575D03*
D93*
X-42113Y28575D03*
D19*
X-57048Y28575D03*
D23*
X-72085Y28575D03*
D111*
X18720Y85928D03*
D66*
X-686Y85928D03*
D97*
X-19990Y85928D03*
D17*
X77673Y28778D03*
D93*
X62332Y28778D03*
D17*
X53696Y28778D03*
D93*
X28600Y28778D03*
D104*
X20777Y28778D03*
D109*
X8077Y28778D03*
D93*
X-7976Y28778D03*
X-17932Y28778D03*
D17*
X-33477Y28778D03*
D93*
X-42113Y28778D03*
D19*
X-57048Y28778D03*
D25*
X-72187Y28778D03*
D111*
X18720Y86131D03*
D66*
X-686Y86131D03*
D111*
X-20091Y86131D03*
D17*
X77673Y28981D03*
D93*
X62332Y28981D03*
D17*
X53696Y28981D03*
D93*
X28600Y28981D03*
D19*
X20980Y28981D03*
X7976Y28981D03*
D93*
X-7976Y28981D03*
X-17932Y28981D03*
D15*
X-33579Y28981D03*
D93*
X-42113Y28981D03*
D19*
X-57048Y28981D03*
D27*
X-72288Y28981D03*
D106*
X18821Y86335D03*
D66*
X-686Y86335D03*
D111*
X-20091Y86335D03*
D17*
X77673Y29185D03*
D93*
X62332Y29185D03*
D17*
X53696Y29185D03*
D93*
X28397Y29185D03*
D19*
X21184Y29185D03*
X7976Y29185D03*
X-7874Y29185D03*
D93*
X-17932Y29185D03*
D15*
X-33579Y29185D03*
D93*
X-42113Y29185D03*
D19*
X-57048Y29185D03*
D29*
X-72390Y29185D03*
D101*
X18923Y86538D03*
D66*
X-686Y86538D03*
D106*
X-20193Y86538D03*
D17*
X77673Y29388D03*
D93*
X62332Y29388D03*
D17*
X53696Y29388D03*
D93*
X28397Y29388D03*
D19*
X21184Y29388D03*
D21*
X7874Y29388D03*
D93*
X-7772Y29388D03*
X-17932Y29388D03*
D15*
X-33782Y29388D03*
D93*
X-42113Y29388D03*
D19*
X-57048Y29388D03*
D29*
X-72593Y29388D03*
D101*
X18923Y86741D03*
D66*
X-686Y86741D03*
D101*
X-20295Y86741D03*
D17*
X77673Y29591D03*
D93*
X62332Y29591D03*
D17*
X53696Y29591D03*
D93*
X28194Y29591D03*
D19*
X21387Y29591D03*
X7772Y29591D03*
D93*
X-7772Y29591D03*
X-17932Y29591D03*
D15*
X-33985Y29591D03*
D93*
X-42113Y29591D03*
D19*
X-57048Y29591D03*
D125*
X-72695Y29591D03*
D105*
X19025Y86944D03*
D66*
X-686Y86944D03*
D101*
X-20295Y86944D03*
D17*
X77673Y29794D03*
D93*
X62332Y29794D03*
D17*
X53696Y29794D03*
D19*
X28092Y29794D03*
X21387Y29794D03*
D16*
X51Y29794D03*
D93*
X-17932Y29794D03*
D17*
X-33884Y29794D03*
D93*
X-42113Y29794D03*
D19*
X-57048Y29794D03*
D34*
X-72796Y29794D03*
D105*
X19025Y87147D03*
D66*
X-686Y87147D03*
D105*
X-20396Y87147D03*
D17*
X77673Y29997D03*
D93*
X62332Y29997D03*
D17*
X53696Y29997D03*
D93*
X27991Y29997D03*
X21488Y29997D03*
D126*
X152Y29997D03*
D93*
X-17932Y29997D03*
D17*
X-33884Y29997D03*
D93*
X-42113Y29997D03*
D19*
X-57048Y29997D03*
D34*
X-73000Y29997D03*
D107*
X19126Y87351D03*
D66*
X-686Y87351D03*
D107*
X-20498Y87351D03*
D17*
X77673Y30201D03*
D93*
X62332Y30201D03*
D17*
X53696Y30201D03*
D104*
X27889Y30201D03*
D93*
X21692Y30201D03*
D14*
X51Y30201D03*
D93*
X-17932Y30201D03*
D17*
X-33884Y30201D03*
D93*
X-42113Y30201D03*
D19*
X-57048Y30201D03*
D36*
X-73101Y30201D03*
D107*
X19126Y87554D03*
D66*
X-686Y87554D03*
D107*
X-20498Y87554D03*
D17*
X77673Y30404D03*
D93*
X62332Y30404D03*
D17*
X53696Y30404D03*
D93*
X27788Y30404D03*
X21692Y30404D03*
D124*
X-51Y30404D03*
D93*
X-17932Y30404D03*
D17*
X-33884Y30404D03*
D93*
X-42113Y30404D03*
D19*
X-57048Y30404D03*
D37*
X-73406Y30404D03*
D107*
X19126Y87757D03*
D66*
X-686Y87757D03*
D118*
X-20599Y87757D03*
D17*
X77673Y30607D03*
D93*
X62332Y30607D03*
D17*
X53696Y30607D03*
D93*
X27584Y30607D03*
X21895Y30607D03*
D124*
X-51Y30607D03*
D93*
X-17932Y30607D03*
D17*
X-33884Y30607D03*
D93*
X-42113Y30607D03*
D19*
X-57048Y30607D03*
D39*
X-73508Y30607D03*
D118*
X19228Y87960D03*
D66*
X-686Y87960D03*
D118*
X-20599Y87960D03*
D17*
X77673Y30810D03*
D93*
X62332Y30810D03*
D17*
X53696Y30810D03*
D70*
X24740Y30810D03*
D124*
X-51Y30810D03*
D93*
X-17932Y30810D03*
D17*
X-33884Y30810D03*
D93*
X-42113Y30810D03*
D19*
X-57048Y30810D03*
D127*
X-73711Y30810D03*
D110*
X19329Y88163D03*
D66*
X-686Y88163D03*
D110*
X-20701Y88163D03*
D17*
X77673Y31013D03*
D93*
X62332Y31013D03*
D17*
X53696Y31013D03*
D86*
X24740Y31013D03*
D128*
X-51Y31013D03*
D93*
X-17932Y31013D03*
D17*
X-33884Y31013D03*
D93*
X-42113Y31013D03*
D19*
X-57048Y31013D03*
D39*
X-73914Y31013D03*
D110*
X19329Y88367D03*
D66*
X-686Y88367D03*
D112*
X-20803Y88367D03*
D17*
X77673Y31217D03*
D93*
X62332Y31217D03*
D17*
X53696Y31217D03*
D86*
X24740Y31217D03*
D128*
X-51Y31217D03*
D93*
X-17932Y31217D03*
D17*
X-33884Y31217D03*
D93*
X-42113Y31217D03*
D19*
X-57048Y31217D03*
D39*
X-74117Y31217D03*
D112*
X19431Y88570D03*
D66*
X-686Y88570D03*
D112*
X-20803Y88570D03*
D17*
X77673Y31420D03*
D93*
X62332Y31420D03*
D17*
X53696Y31420D03*
D64*
X24740Y31420D03*
D128*
X-51Y31420D03*
D93*
X-17932Y31420D03*
D17*
X-33884Y31420D03*
D93*
X-42113Y31420D03*
D19*
X-57048Y31420D03*
D39*
X-74320Y31420D03*
D114*
X19533Y88773D03*
D66*
X-686Y88773D03*
D114*
X-20904Y88773D03*
D17*
X77673Y31623D03*
D93*
X62332Y31623D03*
D17*
X53696Y31623D03*
D62*
X24638Y31623D03*
D117*
X51Y31623D03*
D93*
X-17932Y31623D03*
D17*
X-33884Y31623D03*
D93*
X-42113Y31623D03*
D19*
X-57048Y31623D03*
D39*
X-74524Y31623D03*
D114*
X19533Y88976D03*
D66*
X-686Y88976D03*
D114*
X-20904Y88976D03*
D17*
X77673Y31826D03*
D93*
X62332Y31826D03*
D17*
X53696Y31826D03*
D60*
X24740Y31826D03*
D116*
X-51Y31826D03*
D93*
X-17932Y31826D03*
D15*
X-33985Y31826D03*
D93*
X-42113Y31826D03*
D19*
X-57048Y31826D03*
D127*
X-74727Y31826D03*
D12*
X19634Y89179D03*
D66*
X-686Y89179D03*
D114*
X-20904Y89179D03*
D17*
X77673Y32029D03*
D93*
X62332Y32029D03*
D17*
X53696Y32029D03*
D60*
X24740Y32029D03*
D116*
X-51Y32029D03*
D93*
X-17932Y32029D03*
D17*
X-33884Y32029D03*
D93*
X-42113Y32029D03*
D19*
X-57048Y32029D03*
D39*
X-74930Y32029D03*
D116*
X19736Y89383D03*
D66*
X-686Y89383D03*
D12*
X-21006Y89383D03*
D17*
X77673Y32233D03*
D93*
X62332Y32233D03*
D17*
X53696Y32233D03*
D55*
X24740Y32233D03*
D12*
X51Y32233D03*
D93*
X-17932Y32233D03*
D17*
X-33680Y32233D03*
D93*
X-42113Y32233D03*
D19*
X-57048Y32233D03*
D39*
X-75133Y32233D03*
D116*
X19736Y89586D03*
D66*
X-686Y89586D03*
D12*
X-21006Y89586D03*
D17*
X77673Y32436D03*
D93*
X62332Y32436D03*
D17*
X53696Y32436D03*
D55*
X24740Y32436D03*
D129*
X51Y32436D03*
D93*
X-17932Y32436D03*
D15*
X-33579Y32436D03*
D93*
X-42113Y32436D03*
D19*
X-57048Y32436D03*
D39*
X-75336Y32436D03*
D117*
X19837Y89789D03*
D66*
X-686Y89789D03*
D116*
X-21107Y89789D03*
D17*
X77673Y32639D03*
D93*
X62332Y32639D03*
D17*
X53696Y32639D03*
D52*
X24740Y32639D03*
D129*
X51Y32639D03*
D93*
X-17932Y32639D03*
D17*
X-33477Y32639D03*
D93*
X-42113Y32639D03*
D19*
X-57048Y32639D03*
D39*
X-75540Y32639D03*
D117*
X19837Y89992D03*
D66*
X-686Y89992D03*
D117*
X-21209Y89992D03*
D17*
X77673Y32842D03*
D93*
X62332Y32842D03*
D17*
X53696Y32842D03*
D52*
X24740Y32842D03*
D129*
X51Y32842D03*
D93*
X-17932Y32842D03*
X-33376Y32842D03*
X-42113Y32842D03*
D19*
X-57048Y32842D03*
D127*
X-75743Y32842D03*
D120*
X19939Y90195D03*
D66*
X-686Y90195D03*
D120*
X-21311Y90195D03*
D17*
X77673Y33045D03*
D93*
X62332Y33045D03*
D17*
X53696Y33045D03*
D130*
X24740Y33045D03*
D131*
X-51Y33045D03*
D93*
X-17932Y33045D03*
X-33172Y33045D03*
X-42113Y33045D03*
D19*
X-57048Y33045D03*
D39*
X-75946Y33045D03*
D120*
X19939Y90399D03*
X-21311Y90399D03*
D93*
X77572Y33249D03*
X62332Y33249D03*
X53594Y33249D03*
D48*
X24841Y33249D03*
D118*
X51Y33249D03*
D93*
X-17932Y33249D03*
D104*
X-33071Y33249D03*
D93*
X-42113Y33249D03*
D19*
X-57048Y33249D03*
D39*
X-76149Y33249D03*
D122*
X20041Y90602D03*
X-21412Y90602D03*
D19*
X77470Y33452D03*
D104*
X62433Y33452D03*
D19*
X53492Y33452D03*
D45*
X24740Y33452D03*
D118*
X51Y33452D03*
D21*
X-18136Y33452D03*
D27*
X-32664Y33452D03*
D93*
X-42113Y33452D03*
D19*
X-57048Y33452D03*
D39*
X-76352Y33452D03*
D124*
X20142Y90805D03*
D122*
X-21412Y90805D03*
D21*
X77368Y33655D03*
D109*
X62535Y33655D03*
X53391Y33655D03*
D44*
X24841Y33655D03*
D107*
X-51Y33655D03*
D23*
X-18237Y33655D03*
D132*
X-32563Y33655D03*
D93*
X-42113Y33655D03*
D19*
X-57048Y33655D03*
D39*
X-76556Y33655D03*
D124*
X20142Y91008D03*
X-21514Y91008D03*
D14*
X69952Y33858D03*
D133*
X47295Y33858D03*
D134*
X24740Y33858D03*
D105*
X51Y33858D03*
D124*
X-25451Y33858D03*
D93*
X-42113Y33858D03*
D19*
X-57048Y33858D03*
D127*
X-76759Y33858D03*
D14*
X20244Y91211D03*
D124*
X-21514Y91211D03*
D14*
X69952Y34061D03*
D133*
X47295Y34061D03*
D37*
X24740Y34061D03*
D105*
X51Y34061D03*
D124*
X-25451Y34061D03*
D93*
X-42113Y34061D03*
D19*
X-57048Y34061D03*
D39*
X-76962Y34061D03*
D126*
X20345Y91415D03*
D14*
X-21615Y91415D03*
X69952Y34265D03*
D133*
X47295Y34265D03*
D37*
X24740Y34265D03*
D105*
X51Y34265D03*
D122*
X-25349Y34265D03*
D93*
X-42113Y34265D03*
D19*
X-57048Y34265D03*
D134*
X-77267Y34265D03*
D126*
X20345Y91618D03*
D14*
X-21615Y91618D03*
X69952Y34468D03*
D133*
X47295Y34468D03*
D34*
X24740Y34468D03*
D106*
X51Y34468D03*
D120*
X-25248Y34468D03*
D93*
X-42113Y34468D03*
D19*
X-57048Y34468D03*
D41*
X-77470Y34468D03*
D126*
X20345Y91821D03*
X-21717Y91821D03*
D14*
X69952Y34671D03*
D133*
X47295Y34671D03*
D31*
X24638Y34671D03*
D109*
X6045Y34671D03*
D23*
X-5842Y34671D03*
D117*
X-25146Y34671D03*
D93*
X-42113Y34671D03*
D19*
X-57048Y34671D03*
D127*
X-77775Y34671D03*
D126*
X20345Y92024D03*
X-21717Y92024D03*
D14*
X69952Y34874D03*
D133*
X47295Y34874D03*
D29*
X24740Y34874D03*
D109*
X6045Y34874D03*
D21*
X-5944Y34874D03*
D116*
X-25044Y34874D03*
D93*
X-42113Y34874D03*
D19*
X-57048Y34874D03*
D39*
X-77978Y34874D03*
D135*
X20447Y92227D03*
D126*
X-21717Y92227D03*
D14*
X69952Y35077D03*
D133*
X47295Y35077D03*
D25*
X24740Y35077D03*
D109*
X6045Y35077D03*
D93*
X-5944Y35077D03*
D12*
X-24943Y35077D03*
D93*
X-42113Y35077D03*
D19*
X-57048Y35077D03*
D39*
X-78181Y35077D03*
D135*
X20447Y92431D03*
D126*
X-21717Y92431D03*
D14*
X69952Y35281D03*
D133*
X47295Y35281D03*
D25*
X24740Y35281D03*
D19*
X5944Y35281D03*
D93*
X-5944Y35281D03*
D114*
X-24841Y35281D03*
D93*
X-42113Y35281D03*
D19*
X-57048Y35281D03*
D39*
X-78384Y35281D03*
D135*
X20447Y92634D03*
D126*
X-21717Y92634D03*
D14*
X69952Y35484D03*
D133*
X47295Y35484D03*
D25*
X24740Y35484D03*
D93*
X5842Y35484D03*
D19*
X-5842Y35484D03*
D112*
X-24740Y35484D03*
D93*
X-42113Y35484D03*
D19*
X-57048Y35484D03*
D39*
X-78588Y35484D03*
D135*
X20447Y92837D03*
D126*
X-21717Y92837D03*
D14*
X69952Y35687D03*
D133*
X47295Y35687D03*
D109*
X24740Y35687D03*
D93*
X5842Y35687D03*
D109*
X-5740Y35687D03*
D110*
X-24638Y35687D03*
D93*
X-42113Y35687D03*
D19*
X-57048Y35687D03*
D127*
X-78791Y35687D03*
D135*
X20447Y93040D03*
D126*
X-21717Y93040D03*
D14*
X69952Y35890D03*
D133*
X47295Y35890D03*
D109*
X24740Y35890D03*
D19*
X5740Y35890D03*
D104*
X-5639Y35890D03*
D118*
X-24536Y35890D03*
D93*
X-42113Y35890D03*
D19*
X-57048Y35890D03*
D39*
X-78994Y35890D03*
D135*
X20447Y93243D03*
D126*
X-21717Y93243D03*
D14*
X69952Y36093D03*
D133*
X47295Y36093D03*
D23*
X24638Y36093D03*
D93*
X5639Y36093D03*
D104*
X-5639Y36093D03*
D107*
X-24435Y36093D03*
D93*
X-42113Y36093D03*
D19*
X-57048Y36093D03*
D39*
X-79197Y36093D03*
D135*
X20447Y93447D03*
D126*
X-21717Y93447D03*
D14*
X69952Y36297D03*
D133*
X47295Y36297D03*
D25*
X24740Y36297D03*
D93*
X5639Y36297D03*
D109*
X-5537Y36297D03*
D107*
X-24435Y36297D03*
D93*
X-42113Y36297D03*
D19*
X-57048Y36297D03*
D39*
X-79400Y36297D03*
D135*
X20447Y93650D03*
D126*
X-21717Y93650D03*
D14*
X69952Y36500D03*
D133*
X47295Y36500D03*
D29*
X24740Y36500D03*
D104*
X5537Y36500D03*
D19*
X-5436Y36500D03*
D105*
X-24333Y36500D03*
D93*
X-42113Y36500D03*
D19*
X-57048Y36500D03*
D39*
X-79604Y36500D03*
D126*
X20345Y93853D03*
X-21717Y93853D03*
D14*
X69952Y36703D03*
D133*
X47295Y36703D03*
D29*
X24740Y36703D03*
D104*
X5537Y36703D03*
D19*
X-5436Y36703D03*
D105*
X-24333Y36703D03*
D93*
X-42113Y36703D03*
D19*
X-57048Y36703D03*
D127*
X-79807Y36703D03*
D14*
X20244Y94056D03*
D126*
X-21717Y94056D03*
D14*
X69952Y36906D03*
D133*
X47295Y36906D03*
D125*
X24841Y36906D03*
D93*
X5436Y36906D03*
D19*
X-5436Y36906D03*
D107*
X-24435Y36906D03*
D93*
X-42113Y36906D03*
D19*
X-57048Y36906D03*
D39*
X-80010Y36906D03*
D126*
X20345Y94259D03*
X-21717Y94259D03*
D14*
X69952Y37109D03*
D133*
X47295Y37109D03*
D34*
X24740Y37109D03*
D93*
X5436Y37109D03*
D19*
X-5232Y37109D03*
D118*
X-24536Y37109D03*
D93*
X-42113Y37109D03*
D19*
X-57048Y37109D03*
D39*
X-80213Y37109D03*
D14*
X20244Y94463D03*
X-21615Y94463D03*
X69952Y37313D03*
D133*
X47295Y37313D03*
D34*
X24740Y37313D03*
D19*
X5334Y37313D03*
D93*
X-5131Y37313D03*
D110*
X-24638Y37313D03*
D93*
X-42113Y37313D03*
D19*
X-57048Y37313D03*
D39*
X-80416Y37313D03*
D124*
X20142Y94666D03*
D14*
X-21615Y94666D03*
X69952Y37516D03*
D133*
X47295Y37516D03*
D37*
X24740Y37516D03*
D93*
X5232Y37516D03*
D19*
X-5232Y37516D03*
D112*
X-24740Y37516D03*
D93*
X-42113Y37516D03*
D19*
X-57048Y37516D03*
D39*
X-80620Y37516D03*
D124*
X20142Y94869D03*
X-21514Y94869D03*
D14*
X69952Y37719D03*
D133*
X47295Y37719D03*
D37*
X24740Y37719D03*
D93*
X5232Y37719D03*
X-5131Y37719D03*
D114*
X-24841Y37719D03*
D93*
X-42113Y37719D03*
D19*
X-57048Y37719D03*
D127*
X-80823Y37719D03*
D122*
X20041Y95072D03*
D124*
X-21514Y95072D03*
D14*
X69952Y37922D03*
D133*
X47295Y37922D03*
D134*
X24740Y37922D03*
D93*
X5232Y37922D03*
X-4928Y37922D03*
D114*
X-24841Y37922D03*
D93*
X-42113Y37922D03*
D19*
X-57048Y37922D03*
D39*
X-81026Y37922D03*
D122*
X20041Y95275D03*
X-21412Y95275D03*
D14*
X69952Y38125D03*
D106*
X47396Y38125D03*
D44*
X24841Y38125D03*
D93*
X5029Y38125D03*
X-4928Y38125D03*
D12*
X-24943Y38125D03*
D93*
X-42113Y38125D03*
D19*
X-57048Y38125D03*
D41*
X-81534Y38125D03*
D122*
X20041Y95479D03*
X-21412Y95479D03*
D93*
X77572Y38329D03*
D104*
X62433Y38329D03*
D109*
X53391Y38329D03*
D45*
X24740Y38329D03*
D93*
X5029Y38329D03*
X-4928Y38329D03*
D21*
X-18136Y38329D03*
D132*
X-31547Y38329D03*
D93*
X-42113Y38329D03*
D19*
X-57048Y38329D03*
D134*
X-81737Y38329D03*
D120*
X19939Y95682D03*
X-21311Y95682D03*
D17*
X77673Y38532D03*
D93*
X62332Y38532D03*
D19*
X53492Y38532D03*
D130*
X24740Y38532D03*
D93*
X5029Y38532D03*
X-4928Y38532D03*
D19*
X-18034Y38532D03*
D29*
X-31750Y38532D03*
D93*
X-42113Y38532D03*
D19*
X-57048Y38532D03*
D134*
X-81940Y38532D03*
D120*
X19939Y95885D03*
D86*
X-787Y95885D03*
D117*
X-21209Y95885D03*
D17*
X77673Y38735D03*
D93*
X62332Y38735D03*
X53594Y38735D03*
D136*
X24638Y38735D03*
D19*
X4928Y38735D03*
X-4826Y38735D03*
D93*
X-17932Y38735D03*
D19*
X-32258Y38735D03*
D93*
X-42113Y38735D03*
D19*
X-57048Y38735D03*
D41*
X-82144Y38735D03*
D117*
X19837Y96088D03*
D66*
X-686Y96088D03*
D116*
X-21107Y96088D03*
D17*
X77673Y38938D03*
D93*
X62332Y38938D03*
D17*
X53696Y38938D03*
D52*
X24740Y38938D03*
D19*
X4724Y38938D03*
D93*
X-4724Y38938D03*
X-17932Y38938D03*
D17*
X-32461Y38938D03*
D93*
X-42113Y38938D03*
D19*
X-57048Y38938D03*
D134*
X-82347Y38938D03*
D116*
X19736Y96291D03*
D66*
X-686Y96291D03*
D116*
X-21107Y96291D03*
D17*
X77673Y39141D03*
D93*
X62332Y39141D03*
D17*
X53696Y39141D03*
D55*
X24740Y39141D03*
D19*
X4724Y39141D03*
D93*
X-4724Y39141D03*
X-17932Y39141D03*
D17*
X-32664Y39141D03*
D93*
X-42113Y39141D03*
D19*
X-57048Y39141D03*
D41*
X-82550Y39141D03*
D116*
X19736Y96495D03*
D66*
X-686Y96495D03*
D12*
X-21006Y96495D03*
D17*
X77673Y39345D03*
D93*
X62332Y39345D03*
D17*
X53696Y39345D03*
D55*
X24740Y39345D03*
D19*
X4724Y39345D03*
D104*
X-4623Y39345D03*
D93*
X-17932Y39345D03*
D15*
X-32766Y39345D03*
D93*
X-42113Y39345D03*
D19*
X-57048Y39345D03*
D134*
X-82753Y39345D03*
D12*
X19634Y96698D03*
D66*
X-686Y96698D03*
D12*
X-21006Y96698D03*
D17*
X77673Y39548D03*
D93*
X62332Y39548D03*
D17*
X53696Y39548D03*
D60*
X24740Y39548D03*
D104*
X4521Y39548D03*
D93*
X-4521Y39548D03*
X-17932Y39548D03*
D15*
X-32766Y39548D03*
D93*
X-42113Y39548D03*
D19*
X-57048Y39548D03*
D134*
X-82956Y39548D03*
D12*
X19634Y96901D03*
D66*
X-686Y96901D03*
D114*
X-20904Y96901D03*
D17*
X77673Y39751D03*
D93*
X62332Y39751D03*
D17*
X53696Y39751D03*
D60*
X24740Y39751D03*
D104*
X4521Y39751D03*
D93*
X-4521Y39751D03*
X-17932Y39751D03*
D15*
X-32969Y39751D03*
D93*
X-42113Y39751D03*
D19*
X-57048Y39751D03*
D41*
X-83160Y39751D03*
D114*
X19533Y97104D03*
D66*
X-686Y97104D03*
D112*
X-20803Y97104D03*
D17*
X77673Y39954D03*
D93*
X62332Y39954D03*
D17*
X53696Y39954D03*
D64*
X24740Y39954D03*
D104*
X4521Y39954D03*
D19*
X-4420Y39954D03*
D93*
X-17932Y39954D03*
D15*
X-32969Y39954D03*
D93*
X-42113Y39954D03*
D19*
X-57048Y39954D03*
D134*
X-83363Y39954D03*
D114*
X19533Y97307D03*
D66*
X-686Y97307D03*
D112*
X-20803Y97307D03*
D17*
X77673Y40157D03*
D93*
X62332Y40157D03*
D17*
X53696Y40157D03*
D64*
X24740Y40157D03*
D93*
X4420Y40157D03*
X-4318Y40157D03*
X-17932Y40157D03*
D15*
X-32969Y40157D03*
D93*
X-42113Y40157D03*
D19*
X-57048Y40157D03*
D41*
X-83566Y40157D03*
D112*
X19431Y97511D03*
D66*
X-686Y97511D03*
D112*
X-20803Y97511D03*
D17*
X77673Y40361D03*
D93*
X62332Y40361D03*
D17*
X53696Y40361D03*
D66*
X24841Y40361D03*
D93*
X4216Y40361D03*
X-4318Y40361D03*
X-17932Y40361D03*
D15*
X-32969Y40361D03*
D93*
X-42113Y40361D03*
D19*
X-57048Y40361D03*
D134*
X-83769Y40361D03*
D110*
X19329Y97714D03*
D66*
X-686Y97714D03*
D110*
X-20701Y97714D03*
D17*
X77673Y40564D03*
D93*
X62332Y40564D03*
D17*
X53696Y40564D03*
D86*
X24740Y40564D03*
D19*
X4318Y40564D03*
X-4216Y40564D03*
D93*
X-17932Y40564D03*
D15*
X-32969Y40564D03*
D93*
X-42113Y40564D03*
D19*
X-57048Y40564D03*
D134*
X-83972Y40564D03*
D118*
X19228Y97917D03*
D66*
X-686Y97917D03*
D110*
X-20701Y97917D03*
D17*
X77673Y40767D03*
D93*
X62332Y40767D03*
D17*
X53696Y40767D03*
D86*
X24740Y40767D03*
D93*
X4216Y40767D03*
D109*
X-4115Y40767D03*
D93*
X-17932Y40767D03*
D137*
X-33071Y40767D03*
D93*
X-42113Y40767D03*
D19*
X-57048Y40767D03*
D41*
X-84176Y40767D03*
D118*
X19228Y98120D03*
D66*
X-686Y98120D03*
D118*
X-20599Y98120D03*
D17*
X77673Y40970D03*
D93*
X62332Y40970D03*
D17*
X53696Y40970D03*
D70*
X24740Y40970D03*
D93*
X4013Y40970D03*
D19*
X-4013Y40970D03*
D93*
X-17932Y40970D03*
D137*
X-33071Y40970D03*
D93*
X-42113Y40970D03*
D19*
X-57048Y40970D03*
D39*
X-84277Y40970D03*
D107*
X19126Y98323D03*
D66*
X-686Y98323D03*
D118*
X-20599Y98323D03*
D17*
X77673Y41173D03*
D93*
X62332Y41173D03*
D17*
X53696Y41173D03*
D19*
X27686Y41173D03*
D93*
X21895Y41173D03*
X4013Y41173D03*
D19*
X-4013Y41173D03*
D93*
X-17932Y41173D03*
D137*
X-33071Y41173D03*
D93*
X-42113Y41173D03*
D19*
X-57048Y41173D03*
D39*
X-84480Y41173D03*
D107*
X19126Y98527D03*
D66*
X-686Y98527D03*
D107*
X-20498Y98527D03*
D17*
X77673Y41377D03*
D93*
X62332Y41377D03*
D17*
X53696Y41377D03*
D93*
X27788Y41377D03*
X21692Y41377D03*
X4013Y41377D03*
D19*
X-4013Y41377D03*
D93*
X-17932Y41377D03*
D15*
X-33172Y41377D03*
D93*
X-42113Y41377D03*
D19*
X-57048Y41377D03*
D39*
X-84684Y41377D03*
D105*
X19025Y98730D03*
D66*
X-686Y98730D03*
D105*
X-20396Y98730D03*
D17*
X77673Y41580D03*
D93*
X62332Y41580D03*
D17*
X53696Y41580D03*
D104*
X27889Y41580D03*
D93*
X21488Y41580D03*
D19*
X3912Y41580D03*
X-3810Y41580D03*
D93*
X-17932Y41580D03*
D15*
X-33172Y41580D03*
D93*
X-42113Y41580D03*
D19*
X-57048Y41580D03*
D37*
X-84785Y41580D03*
D101*
X18923Y98933D03*
D66*
X-686Y98933D03*
D101*
X-20295Y98933D03*
D17*
X77673Y41783D03*
D93*
X62332Y41783D03*
D17*
X53696Y41783D03*
D93*
X27991Y41783D03*
D19*
X21387Y41783D03*
D93*
X3810Y41783D03*
D19*
X-3810Y41783D03*
D93*
X-17932Y41783D03*
D15*
X-33172Y41783D03*
D93*
X-42113Y41783D03*
D19*
X-57048Y41783D03*
D34*
X-84988Y41783D03*
D101*
X18923Y99136D03*
D66*
X-686Y99136D03*
D101*
X-20295Y99136D03*
D17*
X77673Y41986D03*
D93*
X62332Y41986D03*
D17*
X53696Y41986D03*
D93*
X28194Y41986D03*
X21285Y41986D03*
X3810Y41986D03*
D19*
X-3810Y41986D03*
D93*
X-17932Y41986D03*
D15*
X-33172Y41986D03*
D93*
X-42113Y41986D03*
D19*
X-57048Y41986D03*
D34*
X-85192Y41986D03*
D101*
X18923Y99339D03*
D66*
X-686Y99339D03*
D106*
X-20193Y99339D03*
D17*
X77673Y42189D03*
D93*
X62332Y42189D03*
D17*
X53696Y42189D03*
D93*
X28397Y42189D03*
D19*
X21184Y42189D03*
D93*
X3810Y42189D03*
D104*
X-3607Y42189D03*
D93*
X-17932Y42189D03*
D17*
X-33071Y42189D03*
D93*
X-42113Y42189D03*
D19*
X-57048Y42189D03*
D125*
X-85293Y42189D03*
D106*
X18821Y99543D03*
D66*
X-686Y99543D03*
D106*
X-20193Y99543D03*
D17*
X77673Y42393D03*
D93*
X62332Y42393D03*
D17*
X53696Y42393D03*
D93*
X28397Y42393D03*
X21082Y42393D03*
X3607Y42393D03*
D104*
X-3607Y42393D03*
D93*
X-17932Y42393D03*
D17*
X-33071Y42393D03*
D93*
X-42113Y42393D03*
D19*
X-57048Y42393D03*
D132*
X-85395Y42393D03*
D106*
X18821Y99746D03*
D66*
X-686Y99746D03*
D111*
X-20091Y99746D03*
D17*
X77673Y42596D03*
D93*
X62332Y42596D03*
D17*
X53696Y42596D03*
D93*
X28600Y42596D03*
D19*
X20980Y42596D03*
D93*
X3607Y42596D03*
D104*
X-3607Y42596D03*
D93*
X-17932Y42596D03*
D17*
X-33071Y42596D03*
D93*
X-42113Y42596D03*
D19*
X-57048Y42596D03*
D29*
X-85598Y42596D03*
D111*
X18720Y99949D03*
D66*
X-686Y99949D03*
D111*
X-20091Y99949D03*
D17*
X77673Y42799D03*
D93*
X62332Y42799D03*
D17*
X53696Y42799D03*
D93*
X28600Y42799D03*
X20879Y42799D03*
X3607Y42799D03*
D109*
X-3505Y42799D03*
D93*
X-17932Y42799D03*
D17*
X-33071Y42799D03*
D93*
X-42113Y42799D03*
D19*
X-57048Y42799D03*
D27*
X-85700Y42799D03*
D111*
X18720Y100152D03*
D66*
X-686Y100152D03*
D97*
X-19990Y100152D03*
D17*
X77673Y43002D03*
D93*
X62332Y43002D03*
D17*
X53696Y43002D03*
D93*
X28804Y43002D03*
X20676Y43002D03*
X3404Y43002D03*
D19*
X-3404Y43002D03*
D93*
X-17932Y43002D03*
X-32969Y43002D03*
X-42113Y43002D03*
D19*
X-57048Y43002D03*
D25*
X-85801Y43002D03*
D97*
X18618Y100355D03*
D66*
X-686Y100355D03*
D100*
X-19888Y100355D03*
D17*
X77673Y43205D03*
D93*
X62332Y43205D03*
D17*
X53696Y43205D03*
D93*
X28804Y43205D03*
X20676Y43205D03*
X3404Y43205D03*
X-3302Y43205D03*
X-17932Y43205D03*
D19*
X-32868Y43205D03*
D93*
X-42113Y43205D03*
D19*
X-57048Y43205D03*
D25*
X-85801Y43205D03*
D100*
X18517Y100559D03*
D66*
X-686Y100559D03*
D100*
X-19888Y100559D03*
D17*
X77673Y43409D03*
D93*
X62332Y43409D03*
D17*
X53696Y43409D03*
D93*
X29007Y43409D03*
D19*
X20574Y43409D03*
D93*
X3404Y43409D03*
D19*
X-3200Y43409D03*
D93*
X-17932Y43409D03*
D19*
X-32664Y43409D03*
D93*
X-42113Y43409D03*
D19*
X-57048Y43409D03*
D25*
X-85801Y43409D03*
D103*
X18415Y100762D03*
D66*
X-686Y100762D03*
D103*
X-19787Y100762D03*
D17*
X77673Y43612D03*
D93*
X62332Y43612D03*
D17*
X53696Y43612D03*
D93*
X29007Y43612D03*
X20472Y43612D03*
X3200Y43612D03*
D19*
X-3200Y43612D03*
D93*
X-17932Y43612D03*
D109*
X-32563Y43612D03*
D93*
X-42113Y43612D03*
D19*
X-57048Y43612D03*
D25*
X-85801Y43612D03*
D103*
X18415Y100965D03*
D66*
X-686Y100965D03*
D103*
X-19787Y100965D03*
D17*
X77673Y43815D03*
D93*
X62332Y43815D03*
X53594Y43815D03*
D19*
X29108Y43815D03*
D93*
X20472Y43815D03*
D19*
X3099Y43815D03*
D93*
X-3099Y43815D03*
X-17932Y43815D03*
D23*
X-32461Y43815D03*
D93*
X-42113Y43815D03*
X-56947Y43815D03*
D25*
X-85801Y43815D03*
D99*
X18313Y101168D03*
D66*
X-686Y101168D03*
D103*
X-19787Y101168D03*
D17*
X77673Y44018D03*
D93*
X62332Y44018D03*
D19*
X53492Y44018D03*
D93*
X29210Y44018D03*
X20269Y44018D03*
D19*
X3099Y44018D03*
D93*
X-3099Y44018D03*
X-17932Y44018D03*
D27*
X-32258Y44018D03*
D93*
X-42113Y44018D03*
D19*
X-57048Y44018D03*
D118*
X-79807Y44018D03*
D99*
X18313Y101371D03*
D66*
X-686Y101371D03*
D99*
X-19685Y101371D03*
D17*
X77673Y44221D03*
D93*
X62332Y44221D03*
D109*
X53391Y44221D03*
D19*
X29312Y44221D03*
D17*
X20168Y44221D03*
D79*
X51Y44221D03*
D19*
X-18034Y44221D03*
D39*
X-31648Y44221D03*
D93*
X-42113Y44221D03*
D25*
X-57150Y44221D03*
D110*
X-79705Y44221D03*
D95*
X18212Y101575D03*
D66*
X-686Y101575D03*
D99*
X-19685Y101575D03*
D17*
X77673Y44425D03*
D93*
X62332Y44425D03*
D118*
X46990Y44425D03*
D19*
X29515Y44425D03*
D93*
X20066Y44425D03*
D73*
X51Y44425D03*
D122*
X-25349Y44425D03*
D93*
X-42113Y44425D03*
D12*
X-57048Y44425D03*
D110*
X-79705Y44425D03*
D95*
X18212Y101778D03*
D66*
X-686Y101778D03*
D95*
X-19583Y101778D03*
D17*
X77673Y44628D03*
D93*
X62332Y44628D03*
D118*
X46787Y44628D03*
D93*
X29616Y44628D03*
X19863Y44628D03*
D73*
X51Y44628D03*
D120*
X-25248Y44628D03*
D93*
X-42113Y44628D03*
D12*
X-57048Y44628D03*
D110*
X-79705Y44628D03*
D96*
X18110Y101981D03*
D66*
X-686Y101981D03*
D96*
X-19482Y101981D03*
D17*
X77673Y44831D03*
D93*
X62332Y44831D03*
D118*
X46787Y44831D03*
D93*
X29616Y44831D03*
D104*
X19761Y44831D03*
D73*
X51Y44831D03*
D120*
X-25248Y44831D03*
D93*
X-42113Y44831D03*
D12*
X-57048Y44831D03*
D110*
X-79705Y44831D03*
D123*
X18009Y102184D03*
D66*
X-686Y102184D03*
D123*
X-19380Y102184D03*
D17*
X77673Y45034D03*
D93*
X62332Y45034D03*
D118*
X46787Y45034D03*
D93*
X29820Y45034D03*
X19660Y45034D03*
D69*
X51Y45034D03*
D120*
X-25248Y45034D03*
D93*
X-42113Y45034D03*
D12*
X-57048Y45034D03*
D110*
X-79705Y45034D03*
D123*
X18009Y102387D03*
D66*
X-686Y102387D03*
D123*
X-19380Y102387D03*
D17*
X77673Y45237D03*
D93*
X62332Y45237D03*
D118*
X46787Y45237D03*
D93*
X30023Y45237D03*
D19*
X19558Y45237D03*
D68*
X-51Y45237D03*
D117*
X-25146Y45237D03*
D93*
X-42113Y45237D03*
D12*
X-57048Y45237D03*
D110*
X-79705Y45237D03*
D121*
X17907Y102591D03*
D66*
X-686Y102591D03*
D121*
X-19279Y102591D03*
D17*
X77673Y45441D03*
D93*
X62332Y45441D03*
D107*
X46685Y45441D03*
D93*
X30023Y45441D03*
X19456Y45441D03*
D69*
X51Y45441D03*
D117*
X-25146Y45441D03*
D93*
X-42113Y45441D03*
D12*
X-57048Y45441D03*
D118*
X-79604Y45441D03*
D119*
X17805Y102794D03*
D66*
X-686Y102794D03*
D121*
X-19279Y102794D03*
D17*
X77673Y45644D03*
D93*
X62332Y45644D03*
D107*
X46685Y45644D03*
D93*
X30226Y45644D03*
D19*
X19355Y45644D03*
D68*
X-51Y45644D03*
D116*
X-25044Y45644D03*
D93*
X-42113Y45644D03*
D12*
X-57048Y45644D03*
D118*
X-79604Y45644D03*
D119*
X17805Y102997D03*
D66*
X-686Y102997D03*
D119*
X-19177Y102997D03*
D17*
X77673Y45847D03*
D93*
X62332Y45847D03*
D107*
X46685Y45847D03*
D93*
X30226Y45847D03*
X19253Y45847D03*
D64*
X-51Y45847D03*
D116*
X-25044Y45847D03*
D93*
X-42113Y45847D03*
D12*
X-57048Y45847D03*
D118*
X-79604Y45847D03*
D92*
X17704Y103200D03*
D66*
X-686Y103200D03*
D92*
X-19075Y103200D03*
D17*
X77673Y46050D03*
D93*
X62332Y46050D03*
D107*
X46685Y46050D03*
D93*
X30429Y46050D03*
X19050Y46050D03*
D64*
X-51Y46050D03*
D116*
X-25044Y46050D03*
D93*
X-42113Y46050D03*
D12*
X-57048Y46050D03*
D118*
X-79604Y46050D03*
D94*
X17602Y103403D03*
D66*
X-686Y103403D03*
D92*
X-19075Y103403D03*
D17*
X77673Y46253D03*
D93*
X62332Y46253D03*
D105*
X46584Y46253D03*
D93*
X30429Y46253D03*
X19050Y46253D03*
D64*
X-51Y46253D03*
D12*
X-24943Y46253D03*
D93*
X-42113Y46253D03*
D12*
X-57048Y46253D03*
D118*
X-79604Y46253D03*
D94*
X17602Y103607D03*
D66*
X-686Y103607D03*
D94*
X-18974Y103607D03*
D17*
X77673Y46457D03*
D93*
X62332Y46457D03*
D105*
X46584Y46457D03*
D93*
X30632Y46457D03*
X18847Y46457D03*
D64*
X-51Y46457D03*
D114*
X-24841Y46457D03*
D93*
X-42113Y46457D03*
D12*
X-57048Y46457D03*
D107*
X-79502Y46457D03*
D94*
X17602Y103810D03*
D66*
X-686Y103810D03*
D94*
X-18974Y103810D03*
D17*
X77673Y46660D03*
D93*
X62332Y46660D03*
D101*
X46482Y46660D03*
D93*
X30632Y46660D03*
D17*
X18745Y46660D03*
D62*
X51Y46660D03*
D112*
X-24740Y46660D03*
D93*
X-42113Y46660D03*
D12*
X-57048Y46660D03*
D107*
X-79502Y46660D03*
D115*
X17501Y104013D03*
D66*
X-686Y104013D03*
D115*
X-18872Y104013D03*
D17*
X77673Y46863D03*
D93*
X62332Y46863D03*
D106*
X46380Y46863D03*
D93*
X30836Y46863D03*
X18644Y46863D03*
D60*
X-51Y46863D03*
D110*
X-24638Y46863D03*
D93*
X-42113Y46863D03*
D12*
X-57048Y46863D03*
D105*
X-79400Y46863D03*
D115*
X17501Y104216D03*
D66*
X-686Y104216D03*
D115*
X-18872Y104216D03*
D17*
X77673Y47066D03*
D93*
X62332Y47066D03*
D111*
X46279Y47066D03*
D17*
X30937Y47066D03*
D93*
X18644Y47066D03*
D138*
X51Y47066D03*
D110*
X-24638Y47066D03*
D93*
X-42113Y47066D03*
D12*
X-57048Y47066D03*
D105*
X-79400Y47066D03*
D113*
X17399Y104419D03*
D66*
X-686Y104419D03*
D113*
X-18771Y104419D03*
D17*
X77673Y47269D03*
D93*
X62332Y47269D03*
D97*
X46177Y47269D03*
D93*
X31039Y47269D03*
D17*
X18542Y47269D03*
D55*
X-51Y47269D03*
D118*
X-24536Y47269D03*
D93*
X-42113Y47269D03*
D12*
X-57048Y47269D03*
D133*
X-79299Y47269D03*
D108*
X17297Y104623D03*
D66*
X-686Y104623D03*
D108*
X-18669Y104623D03*
D17*
X77673Y47473D03*
D93*
X62332Y47473D03*
D100*
X46076Y47473D03*
D19*
X31140Y47473D03*
X18339Y47473D03*
D53*
X51Y47473D03*
D105*
X-24333Y47473D03*
D93*
X-42113Y47473D03*
D12*
X-57048Y47473D03*
D106*
X-79197Y47473D03*
D108*
X17297Y104826D03*
D66*
X-686Y104826D03*
D102*
X-18567Y104826D03*
D17*
X77673Y47676D03*
D93*
X62332Y47676D03*
D103*
X45974Y47676D03*
D93*
X31242Y47676D03*
X18237Y47676D03*
D49*
X51Y47676D03*
D101*
X-24232Y47676D03*
D93*
X-42113Y47676D03*
D12*
X-57048Y47676D03*
D111*
X-79096Y47676D03*
D102*
X17196Y105029D03*
D66*
X-686Y105029D03*
D102*
X-18567Y105029D03*
D17*
X77673Y47879D03*
D93*
X62332Y47879D03*
D99*
X45872Y47879D03*
D19*
X31344Y47879D03*
X18136Y47879D03*
D48*
X51Y47879D03*
D106*
X-24130Y47879D03*
D93*
X-42113Y47879D03*
D12*
X-57048Y47879D03*
D97*
X-78994Y47879D03*
D102*
X17196Y105232D03*
D66*
X-686Y105232D03*
D98*
X-18466Y105232D03*
D17*
X77673Y48082D03*
D93*
X62332Y48082D03*
D95*
X45771Y48082D03*
D19*
X31547Y48082D03*
D93*
X18034Y48082D03*
D44*
X51Y48082D03*
D100*
X-23825Y48082D03*
D93*
X-42113Y48082D03*
D12*
X-57048Y48082D03*
D139*
X-78791Y48082D03*
D98*
X17094Y105435D03*
D66*
X-686Y105435D03*
D98*
X-18466Y105435D03*
D17*
X77673Y48285D03*
D93*
X62332Y48285D03*
D123*
X45568Y48285D03*
D93*
X31648Y48285D03*
D19*
X17932Y48285D03*
D36*
X51Y48285D03*
D99*
X-23622Y48285D03*
D93*
X-42113Y48285D03*
D12*
X-57048Y48285D03*
D99*
X-78689Y48285D03*
D91*
X16993Y105639D03*
D66*
X-686Y105639D03*
D98*
X-18466Y105639D03*
D17*
X77673Y48489D03*
D93*
X62332Y48489D03*
D94*
X45161Y48489D03*
D93*
X31648Y48489D03*
X17831Y48489D03*
D23*
X51Y48489D03*
D121*
X-23216Y48489D03*
D93*
X-42113Y48489D03*
D12*
X-57048Y48489D03*
D123*
X-78384Y48489D03*
D91*
X16993Y105842D03*
D66*
X-686Y105842D03*
D91*
X-18364Y105842D03*
D15*
X77775Y48692D03*
D93*
X62332Y48692D03*
D140*
X45161Y48692D03*
D15*
X31648Y48692D03*
X17831Y48692D03*
D93*
X-51Y48692D03*
D119*
X-23114Y48692D03*
D15*
X-42113Y48692D03*
D114*
X-56947Y48692D03*
D141*
X-78283Y48692D03*
D90*
X16891Y106045D03*
D66*
X-686Y106045D03*
D91*
X-18364Y106045D03*
D13*
X77775Y48895D03*
D142*
X62230Y48895D03*
D78*
X44552Y48895D03*
D143*
X31750Y48895D03*
X17729Y48895D03*
D144*
X-51Y48895D03*
D145*
X-22403Y48895D03*
D13*
X-42113Y48895D03*
D131*
X-56947Y48895D03*
D98*
X-77673Y48895D03*
D89*
X16789Y106248D03*
D66*
X-686Y106248D03*
D90*
X-18263Y106248D03*
D89*
X16789Y106451D03*
D66*
X-686Y106451D03*
D89*
X-18161Y106451D03*
D88*
X16688Y106655D03*
D66*
X-686Y106655D03*
D89*
X-18161Y106655D03*
D88*
X16688Y106858D03*
D66*
X-686Y106858D03*
D88*
X-18059Y106858D03*
D78*
X16586Y107061D03*
D66*
X-686Y107061D03*
D88*
X-18059Y107061D03*
D87*
X16485Y107264D03*
D66*
X-686Y107264D03*
D78*
X-17958Y107264D03*
D87*
X16485Y107467D03*
D66*
X-686Y107467D03*
D78*
X-17958Y107467D03*
D87*
X16485Y107671D03*
D66*
X-686Y107671D03*
D87*
X-17856Y107671D03*
D83*
X16383Y107874D03*
D66*
X-686Y107874D03*
D83*
X-17755Y107874D03*
X16383Y108077D03*
D66*
X-686Y108077D03*
D77*
X-17653Y108077D03*
X16281Y108280D03*
D66*
X-686Y108280D03*
D77*
X-17653Y108280D03*
X16281Y108483D03*
D86*
X-584Y108483D03*
D80*
X-17551Y108483D03*
D146*
X16078Y108687D03*
D86*
X-584Y108687D03*
D80*
X-17551Y108687D03*
X15977Y108890D03*
D86*
X-584Y108890D03*
D85*
X-17450Y108890D03*
X15875Y109093D03*
D147*
X-483Y109093D03*
D81*
X-17348Y109093D03*
D85*
X15875Y109296D03*
D147*
X-483Y109296D03*
D81*
X-17348Y109296D03*
D85*
X15672Y109499D03*
D147*
X-483Y109499D03*
D81*
X-17348Y109499D03*
D80*
X15570Y109703D03*
D70*
X-381Y109703D03*
D84*
X-17247Y109703D03*
D85*
X15469Y109906D03*
D73*
X-279Y109906D03*
D84*
X-17247Y109906D03*
D82*
X15164Y110109D03*
D76*
X-178Y110109D03*
D79*
X-17145Y110109D03*
D82*
X14961Y110312D03*
D84*
X25Y110312D03*
D79*
X-17145Y110312D03*
D78*
X14554Y110515D03*
D80*
X330Y110515D03*
D76*
X-17043Y110515D03*
D148*
X7645Y110719D03*
D73*
X-16942Y110719D03*
D72*
X7544Y110922D03*
D70*
X-16840Y110922D03*
D72*
X7544Y111125D03*
D70*
X-16840Y111125D03*
D72*
X7544Y111328D03*
D147*
X-16739Y111328D03*
D71*
X7442Y111531D03*
D147*
X-16739Y111531D03*
D67*
X7341Y111735D03*
D86*
X-16637Y111735D03*
D65*
X7239Y111938D03*
D86*
X-16637Y111938D03*
D65*
X7239Y112141D03*
D66*
X-16535Y112141D03*
D149*
X7137Y112344D03*
D64*
X-16434Y112344D03*
D149*
X7137Y112547D03*
D64*
X-16434Y112547D03*
D61*
X7036Y112751D03*
D62*
X-16332Y112751D03*
D61*
X7036Y112954D03*
D62*
X-16332Y112954D03*
D59*
X6934Y113157D03*
D62*
X-16332Y113157D03*
D58*
X6833Y113360D03*
D150*
X-16231Y113360D03*
D58*
X6833Y113563D03*
D138*
X-16129Y113563D03*
D56*
X6731Y113767D03*
D138*
X-16129Y113767D03*
D56*
X6731Y113970D03*
D55*
X-16027Y113970D03*
D151*
X6629Y114173D03*
D53*
X-15926Y114173D03*
D151*
X6629Y114376D03*
D53*
X-15926Y114376D03*
D51*
X6528Y114579D03*
D52*
X-15824Y114579D03*
D50*
X6426Y114783D03*
D52*
X-15824Y114783D03*
D47*
X6325Y114986D03*
D136*
X-15723Y114986D03*
D47*
X6325Y115189D03*
D130*
X-15621Y115189D03*
D46*
X6223Y115392D03*
D130*
X-15621Y115392D03*
D46*
X6223Y115595D03*
D48*
X-15519Y115595D03*
D46*
X6223Y115799D03*
D48*
X-15519Y115799D03*
D152*
X6121Y116002D03*
D45*
X-15418Y116002D03*
D152*
X6121Y116205D03*
D44*
X-15316Y116205D03*
D42*
X6020Y116408D03*
D44*
X-15316Y116408D03*
D40*
X5918Y116611D03*
D41*
X-15215Y116611D03*
D40*
X5918Y116815D03*
D39*
X-15113Y116815D03*
D38*
X5817Y117018D03*
D39*
X-15113Y117018D03*
D38*
X5817Y117221D03*
D37*
X-15011Y117221D03*
D35*
X5715Y117424D03*
D37*
X-15011Y117424D03*
D153*
X5613Y117627D03*
D37*
X-15011Y117627D03*
D32*
X5512Y117831D03*
D36*
X-14910Y117831D03*
D32*
X5512Y118034D03*
D36*
X-14910Y118034D03*
D30*
X5410Y118237D03*
D34*
X-14808Y118237D03*
D30*
X5410Y118440D03*
D31*
X-14707Y118440D03*
D28*
X5309Y118643D03*
D31*
X-14707Y118643D03*
D28*
X5309Y118847D03*
D29*
X-14605Y118847D03*
D26*
X5207Y119050D03*
D29*
X-14605Y119050D03*
D154*
X5105Y119253D03*
D27*
X-14503Y119253D03*
D154*
X5105Y119456D03*
D25*
X-14402Y119456D03*
D22*
X5004Y119659D03*
D23*
X-14300Y119659D03*
D155*
X4801Y119863D03*
D21*
X-14199Y119863D03*
D18*
X4699Y120066D03*
D19*
X-14097Y120066D03*
D135*
X4597Y120269D03*
D17*
X-13894Y120269D03*
D14*
X4394Y120472D03*
D142*
X-13691Y120472D03*
D128*
X3886Y120675D03*
D156*
X-13183Y120675D03*
D116*
X3886Y120879D03*
D157*
X-13183Y120879D03*
M02*
