G04 EAGLE Gerber RS-274X export*
G75*
%MOMM*%
%FSLAX34Y34*%
%LPD*%
%INBottom Copper*%
%IPPOS*%
%AMOC8*
5,1,8,0,0,1.08239X$1,22.5*%
G01*
%ADD10C,1.000000*%

G36*
X278630Y195708D02*
X278630Y195708D01*
X278658Y195706D01*
X278726Y195728D01*
X278797Y195742D01*
X278820Y195758D01*
X278847Y195767D01*
X278902Y195814D01*
X278961Y195855D01*
X278976Y195879D01*
X278998Y195897D01*
X279029Y195962D01*
X279068Y196022D01*
X279073Y196050D01*
X279085Y196076D01*
X279094Y196177D01*
X279101Y196219D01*
X279099Y196229D01*
X279100Y196242D01*
X279043Y196957D01*
X310561Y196957D01*
X310573Y196967D01*
X310572Y196968D01*
X310573Y196969D01*
X310573Y197918D01*
X310700Y198224D01*
X310699Y198227D01*
X310701Y198228D01*
X310820Y199818D01*
X310819Y199820D01*
X310820Y199820D01*
X310819Y199821D01*
X310820Y199821D01*
X310709Y200473D01*
X310947Y201515D01*
X310947Y201516D01*
X310947Y201517D01*
X311027Y202583D01*
X311325Y203173D01*
X311325Y203174D01*
X311325Y203175D01*
X311326Y203175D01*
X311754Y205051D01*
X311753Y205053D01*
X311755Y205054D01*
X311742Y205715D01*
X312133Y206710D01*
X312132Y206711D01*
X312133Y206712D01*
X312371Y207754D01*
X312754Y208293D01*
X312753Y208295D01*
X312755Y208295D01*
X313458Y210087D01*
X313457Y210089D01*
X313459Y210090D01*
X313460Y210098D01*
X313466Y210146D01*
X313471Y210182D01*
X313477Y210230D01*
X313482Y210265D01*
X313482Y210266D01*
X313488Y210313D01*
X313494Y210361D01*
X313499Y210397D01*
X313505Y210445D01*
X313516Y210528D01*
X313523Y210576D01*
X313527Y210612D01*
X313534Y210659D01*
X313545Y210743D01*
X313545Y210745D01*
X314079Y211671D01*
X314079Y211672D01*
X314080Y211672D01*
X314471Y212667D01*
X314929Y213143D01*
X314929Y213145D01*
X314931Y213145D01*
X315893Y214812D01*
X315893Y214813D01*
X315893Y214814D01*
X315894Y214815D01*
X316077Y215450D01*
X316744Y216285D01*
X316744Y216287D01*
X316745Y216287D01*
X317279Y217212D01*
X317803Y217615D01*
X317804Y217617D01*
X317805Y217617D01*
X319005Y219121D01*
X319005Y219123D01*
X319007Y219124D01*
X319282Y219725D01*
X320066Y220452D01*
X320066Y220453D01*
X320067Y220453D01*
X320734Y221288D01*
X321312Y221608D01*
X321313Y221610D01*
X321314Y221610D01*
X322725Y222919D01*
X322725Y222921D01*
X322727Y222921D01*
X323089Y223474D01*
X323972Y224076D01*
X323972Y224077D01*
X323974Y224077D01*
X324757Y224804D01*
X325376Y225034D01*
X325377Y225036D01*
X325379Y225035D01*
X326969Y226120D01*
X326970Y226121D01*
X326971Y226121D01*
X327412Y226614D01*
X328375Y227078D01*
X328375Y227079D01*
X328376Y227079D01*
X329259Y227681D01*
X329906Y227816D01*
X329908Y227817D01*
X329909Y227817D01*
X331643Y228652D01*
X331644Y228654D01*
X331645Y228653D01*
X332154Y229075D01*
X333176Y229390D01*
X333176Y229391D01*
X333177Y229391D01*
X334140Y229854D01*
X334800Y229892D01*
X334801Y229892D01*
X334802Y229892D01*
X334802Y229893D01*
X334803Y229892D01*
X336642Y230459D01*
X336643Y230461D01*
X336645Y230460D01*
X337211Y230802D01*
X338268Y230961D01*
X338269Y230962D01*
X338269Y230961D01*
X339291Y231276D01*
X339949Y231215D01*
X339950Y231216D01*
X339952Y231215D01*
X341855Y231502D01*
X341856Y231503D01*
X341857Y231502D01*
X342468Y231755D01*
X343537Y231755D01*
X343538Y231756D01*
X343539Y231755D01*
X344595Y231915D01*
X345237Y231756D01*
X345239Y231756D01*
X345240Y231755D01*
X347164Y231755D01*
X347166Y231757D01*
X347167Y231756D01*
X347809Y231915D01*
X348865Y231755D01*
X348867Y231756D01*
X348867Y231755D01*
X349936Y231755D01*
X350547Y231502D01*
X350548Y231503D01*
X350549Y231502D01*
X352452Y231215D01*
X352454Y231216D01*
X352455Y231215D01*
X353113Y231276D01*
X354135Y230961D01*
X354136Y230962D01*
X354136Y230961D01*
X355193Y230802D01*
X355759Y230460D01*
X355761Y230461D01*
X355762Y230459D01*
X357601Y229892D01*
X357602Y229893D01*
X357602Y229892D01*
X357603Y229892D01*
X357604Y229892D01*
X358264Y229854D01*
X359227Y229391D01*
X359228Y229391D01*
X359228Y229390D01*
X360250Y229075D01*
X360759Y228653D01*
X360761Y228653D01*
X360761Y228652D01*
X362495Y227817D01*
X362497Y227817D01*
X362498Y227816D01*
X363145Y227681D01*
X364028Y227079D01*
X364029Y227079D01*
X364029Y227078D01*
X364992Y226614D01*
X365433Y226121D01*
X365435Y226121D01*
X365435Y226120D01*
X367025Y225035D01*
X367027Y225036D01*
X367028Y225034D01*
X367647Y224804D01*
X368430Y224077D01*
X368432Y224077D01*
X368432Y224076D01*
X369315Y223474D01*
X369677Y222921D01*
X369679Y222920D01*
X369679Y222919D01*
X371090Y221610D01*
X371092Y221610D01*
X371092Y221608D01*
X371670Y221288D01*
X372337Y220453D01*
X372338Y220453D01*
X372338Y220452D01*
X373122Y219725D01*
X373397Y219124D01*
X373399Y219123D01*
X373399Y219121D01*
X374599Y217617D01*
X374600Y217616D01*
X374601Y217615D01*
X375125Y217212D01*
X375659Y216287D01*
X375661Y216286D01*
X375660Y216285D01*
X376327Y215450D01*
X376510Y214815D01*
X376511Y214814D01*
X376511Y214812D01*
X377473Y213145D01*
X377475Y213145D01*
X377475Y213143D01*
X377933Y212667D01*
X378324Y211672D01*
X378325Y211672D01*
X378325Y211671D01*
X378859Y210745D01*
X378945Y210090D01*
X378947Y210088D01*
X378946Y210087D01*
X379649Y208295D01*
X379651Y208294D01*
X379650Y208293D01*
X380033Y207754D01*
X380271Y206712D01*
X380272Y206711D01*
X380271Y206710D01*
X380662Y205715D01*
X380649Y205054D01*
X380651Y205053D01*
X380650Y205051D01*
X381078Y203175D01*
X381080Y203174D01*
X381079Y203173D01*
X381377Y202583D01*
X381457Y201517D01*
X381458Y201516D01*
X381457Y201515D01*
X381695Y200473D01*
X381584Y199821D01*
X381585Y199820D01*
X381584Y199818D01*
X381703Y198228D01*
X381705Y198226D01*
X381704Y198224D01*
X381831Y197918D01*
X381831Y196969D01*
X381841Y196957D01*
X381842Y196958D01*
X381843Y196957D01*
X413361Y196957D01*
X413304Y196242D01*
X413308Y196213D01*
X413303Y196185D01*
X413320Y196116D01*
X413328Y196044D01*
X413343Y196020D01*
X413349Y195992D01*
X413392Y195934D01*
X413428Y195872D01*
X413450Y195855D01*
X413467Y195832D01*
X413529Y195795D01*
X413586Y195752D01*
X413614Y195745D01*
X413638Y195730D01*
X413738Y195714D01*
X413779Y195703D01*
X413789Y195705D01*
X413802Y195703D01*
X432802Y195703D01*
X432878Y195718D01*
X432956Y195727D01*
X432975Y195738D01*
X432997Y195742D01*
X433061Y195786D01*
X433129Y195825D01*
X433145Y195844D01*
X433161Y195855D01*
X433185Y195893D01*
X433235Y195953D01*
X442735Y212453D01*
X442744Y212480D01*
X442760Y212504D01*
X442775Y212574D01*
X442798Y212642D01*
X442795Y212670D01*
X442801Y212698D01*
X442788Y212769D01*
X442782Y212840D01*
X442769Y212865D01*
X442763Y212893D01*
X442723Y212953D01*
X442690Y213016D01*
X442668Y213034D01*
X442652Y213058D01*
X442569Y213116D01*
X442537Y213143D01*
X442526Y213146D01*
X442516Y213153D01*
X441888Y213450D01*
X457621Y240700D01*
X457620Y240706D01*
X457618Y240716D01*
X457617Y240715D01*
X457616Y240717D01*
X456803Y241186D01*
X456602Y241448D01*
X456599Y241449D01*
X456599Y241451D01*
X455279Y242350D01*
X455277Y242350D01*
X455276Y242352D01*
X454657Y242581D01*
X453873Y243308D01*
X453872Y243308D01*
X453872Y243309D01*
X452988Y243911D01*
X452626Y244464D01*
X452624Y244464D01*
X452624Y244466D01*
X451211Y245776D01*
X451210Y245776D01*
X451209Y245778D01*
X450631Y246097D01*
X449964Y246933D01*
X449963Y246933D01*
X449963Y246934D01*
X449179Y247661D01*
X448903Y248261D01*
X448901Y248262D01*
X448902Y248264D01*
X447700Y249770D01*
X447698Y249770D01*
X447698Y249772D01*
X447173Y250174D01*
X446639Y251099D01*
X446637Y251100D01*
X446638Y251101D01*
X445971Y251936D01*
X445788Y252571D01*
X445786Y252572D01*
X445787Y252574D01*
X444823Y254242D01*
X444821Y254243D01*
X444821Y254245D01*
X444362Y254720D01*
X443972Y255715D01*
X443971Y255716D01*
X443971Y255717D01*
X443436Y256642D01*
X443350Y257297D01*
X443348Y257299D01*
X443349Y257300D01*
X442644Y259094D01*
X442643Y259094D01*
X442643Y259096D01*
X442260Y259635D01*
X442022Y260677D01*
X442021Y260678D01*
X442022Y260679D01*
X441631Y261673D01*
X441643Y262334D01*
X441642Y262336D01*
X441643Y262337D01*
X441213Y264215D01*
X441212Y264217D01*
X441212Y264218D01*
X440914Y264808D01*
X440834Y265874D01*
X440833Y265875D01*
X440834Y265875D01*
X440596Y266918D01*
X440706Y267569D01*
X440705Y267571D01*
X440706Y267572D01*
X440562Y269493D01*
X440560Y269495D01*
X440561Y269496D01*
X440354Y270124D01*
X440434Y271190D01*
X440433Y271191D01*
X440434Y271191D01*
X440354Y272257D01*
X440560Y272885D01*
X440559Y272887D01*
X440561Y272888D01*
X440704Y274809D01*
X440703Y274811D01*
X440704Y274812D01*
X440703Y274812D01*
X440704Y274812D01*
X440593Y275464D01*
X440831Y276506D01*
X440830Y276506D01*
X440831Y276507D01*
X440830Y276507D01*
X440831Y276508D01*
X440910Y277573D01*
X441208Y278164D01*
X441208Y278165D01*
X441208Y278166D01*
X441209Y278166D01*
X441637Y280045D01*
X441636Y280047D01*
X441637Y280048D01*
X441625Y280708D01*
X442015Y281704D01*
X442015Y281705D01*
X442016Y281705D01*
X442253Y282747D01*
X442635Y283286D01*
X442635Y283288D01*
X442637Y283289D01*
X443340Y285083D01*
X443339Y285085D01*
X443341Y285086D01*
X443346Y285126D01*
X443355Y285197D01*
X443365Y285269D01*
X443374Y285340D01*
X443384Y285412D01*
X443393Y285484D01*
X443401Y285543D01*
X443402Y285555D01*
X443410Y285615D01*
X443412Y285627D01*
X443420Y285687D01*
X443421Y285699D01*
X443427Y285741D01*
X443961Y286667D01*
X443961Y286668D01*
X443962Y286668D01*
X444352Y287663D01*
X444810Y288139D01*
X444810Y288141D01*
X444812Y288142D01*
X445775Y289811D01*
X445774Y289813D01*
X445776Y289813D01*
X445959Y290449D01*
X446625Y291284D01*
X446625Y291285D01*
X446626Y291286D01*
X447160Y292212D01*
X447684Y292614D01*
X447685Y292616D01*
X447686Y292616D01*
X448887Y294123D01*
X448887Y294125D01*
X448888Y294125D01*
X449164Y294726D01*
X449947Y295453D01*
X449947Y295455D01*
X449948Y295455D01*
X450614Y296290D01*
X451193Y296610D01*
X451193Y296612D01*
X451195Y296612D01*
X452607Y297923D01*
X452607Y297925D01*
X452609Y297925D01*
X452971Y298478D01*
X453854Y299081D01*
X453854Y299082D01*
X453855Y299082D01*
X454638Y299809D01*
X455258Y300039D01*
X455259Y300041D01*
X455261Y300040D01*
X456852Y301126D01*
X456853Y301128D01*
X456854Y301128D01*
X457294Y301621D01*
X458257Y302085D01*
X458258Y302086D01*
X458259Y302086D01*
X459142Y302689D01*
X459789Y302824D01*
X459790Y302825D01*
X459791Y302825D01*
X461527Y303661D01*
X461528Y303663D01*
X461530Y303663D01*
X462038Y304084D01*
X463059Y304400D01*
X463060Y304401D01*
X463061Y304400D01*
X464024Y304865D01*
X464684Y304902D01*
X464685Y304903D01*
X464687Y304902D01*
X466528Y305471D01*
X466529Y305473D01*
X466530Y305472D01*
X467096Y305813D01*
X468153Y305973D01*
X468154Y305974D01*
X468155Y305973D01*
X469176Y306289D01*
X469834Y306227D01*
X469836Y306228D01*
X469837Y306227D01*
X471742Y306515D01*
X471743Y306517D01*
X471745Y306516D01*
X472355Y306769D01*
X473424Y306769D01*
X473425Y306770D01*
X473426Y306770D01*
X473426Y306769D01*
X474483Y306929D01*
X475124Y306770D01*
X475126Y306771D01*
X475127Y306770D01*
X477054Y306770D01*
X477055Y306772D01*
X477057Y306771D01*
X477698Y306930D01*
X478755Y306771D01*
X478756Y306772D01*
X478757Y306771D01*
X479826Y306771D01*
X480436Y306519D01*
X480438Y306519D01*
X480439Y306518D01*
X482344Y306231D01*
X482346Y306232D01*
X482347Y306231D01*
X483005Y306293D01*
X484027Y305978D01*
X484028Y305979D01*
X484029Y305978D01*
X485086Y305819D01*
X485652Y305478D01*
X485654Y305479D01*
X485654Y305477D01*
X487496Y304910D01*
X487498Y304910D01*
X487499Y304909D01*
X488158Y304872D01*
X489121Y304409D01*
X489123Y304409D01*
X489123Y304408D01*
X490145Y304094D01*
X490654Y303672D01*
X490656Y303672D01*
X490656Y303670D01*
X492095Y302978D01*
X492098Y302979D01*
X492099Y302977D01*
X492427Y302934D01*
X493259Y302454D01*
X493275Y302457D01*
X493275Y302458D01*
X493276Y302458D01*
X509010Y329711D01*
X509618Y329291D01*
X509645Y329280D01*
X509667Y329261D01*
X509736Y329241D01*
X509801Y329213D01*
X509830Y329213D01*
X509858Y329205D01*
X509929Y329213D01*
X510000Y329213D01*
X510027Y329224D01*
X510056Y329227D01*
X510118Y329262D01*
X510183Y329290D01*
X510204Y329310D01*
X510229Y329325D01*
X510292Y329402D01*
X510322Y329432D01*
X510326Y329442D01*
X510335Y329453D01*
X519835Y345953D01*
X519845Y345985D01*
X519854Y345998D01*
X519858Y346022D01*
X519859Y346026D01*
X519890Y346096D01*
X519890Y346120D01*
X519898Y346142D01*
X519892Y346218D01*
X519893Y346295D01*
X519883Y346319D01*
X519882Y346340D01*
X519861Y346379D01*
X519835Y346451D01*
X510335Y362951D01*
X510316Y362973D01*
X510303Y362999D01*
X510250Y363047D01*
X510203Y363100D01*
X510177Y363113D01*
X510156Y363132D01*
X510088Y363155D01*
X510024Y363186D01*
X509995Y363188D01*
X509968Y363197D01*
X509896Y363192D01*
X509825Y363195D01*
X509798Y363185D01*
X509769Y363183D01*
X509679Y363141D01*
X509639Y363126D01*
X509631Y363119D01*
X509618Y363113D01*
X509010Y362693D01*
X493276Y389946D01*
X493268Y389949D01*
X493266Y389950D01*
X493263Y389950D01*
X493261Y389951D01*
X493260Y389950D01*
X493259Y389950D01*
X492427Y389470D01*
X492099Y389427D01*
X492097Y389425D01*
X492095Y389426D01*
X490656Y388734D01*
X490655Y388732D01*
X490654Y388732D01*
X490145Y388310D01*
X489123Y387996D01*
X489122Y387995D01*
X489121Y387995D01*
X488158Y387532D01*
X487499Y387495D01*
X487497Y387493D01*
X487496Y387494D01*
X485654Y386927D01*
X485653Y386925D01*
X485652Y386926D01*
X485086Y386585D01*
X484029Y386426D01*
X484028Y386425D01*
X484027Y386426D01*
X483005Y386111D01*
X482347Y386173D01*
X482346Y386172D01*
X482344Y386173D01*
X480439Y385886D01*
X480438Y385885D01*
X480436Y385885D01*
X479826Y385633D01*
X478757Y385633D01*
X478756Y385632D01*
X478755Y385633D01*
X477698Y385474D01*
X477057Y385633D01*
X477055Y385632D01*
X477054Y385634D01*
X475127Y385634D01*
X475126Y385633D01*
X475124Y385634D01*
X474483Y385475D01*
X473426Y385635D01*
X473425Y385634D01*
X473424Y385635D01*
X472355Y385635D01*
X471745Y385888D01*
X471743Y385887D01*
X471742Y385889D01*
X469837Y386177D01*
X469835Y386176D01*
X469834Y386177D01*
X469176Y386115D01*
X468155Y386431D01*
X468154Y386430D01*
X468153Y386431D01*
X467096Y386591D01*
X466530Y386932D01*
X466528Y386932D01*
X466528Y386933D01*
X464687Y387502D01*
X464685Y387501D01*
X464684Y387502D01*
X464024Y387539D01*
X463061Y388004D01*
X463060Y388003D01*
X463060Y388004D01*
X462038Y388320D01*
X461530Y388741D01*
X461528Y388741D01*
X461527Y388743D01*
X459791Y389579D01*
X459790Y389579D01*
X459789Y389580D01*
X459142Y389715D01*
X458259Y390318D01*
X458258Y390318D01*
X458257Y390319D01*
X457294Y390783D01*
X456854Y391276D01*
X456852Y391276D01*
X456852Y391278D01*
X455261Y392364D01*
X455259Y392363D01*
X455258Y392365D01*
X454638Y392595D01*
X453855Y393322D01*
X453854Y393322D01*
X453854Y393323D01*
X452971Y393926D01*
X452609Y394479D01*
X452607Y394479D01*
X452607Y394481D01*
X451195Y395792D01*
X451193Y395792D01*
X451193Y395794D01*
X450614Y396114D01*
X449948Y396949D01*
X449947Y396949D01*
X449947Y396951D01*
X449164Y397678D01*
X448888Y398279D01*
X448887Y398280D01*
X448887Y398281D01*
X447686Y399788D01*
X447684Y399788D01*
X447684Y399790D01*
X447160Y400192D01*
X446626Y401118D01*
X446625Y401119D01*
X446625Y401120D01*
X445959Y401955D01*
X445776Y402591D01*
X445774Y402592D01*
X445775Y402593D01*
X444812Y404262D01*
X444810Y404263D01*
X444810Y404265D01*
X444352Y404741D01*
X443962Y405736D01*
X443961Y405736D01*
X443961Y405737D01*
X443427Y406663D01*
X443341Y407318D01*
X443339Y407320D01*
X443340Y407321D01*
X442637Y409115D01*
X442635Y409116D01*
X442635Y409118D01*
X442253Y409657D01*
X442016Y410699D01*
X442015Y410699D01*
X442015Y410700D01*
X441625Y411696D01*
X441637Y412356D01*
X441636Y412358D01*
X441637Y412359D01*
X441209Y414238D01*
X441207Y414239D01*
X441208Y414240D01*
X440910Y414831D01*
X440831Y415896D01*
X440830Y415897D01*
X440831Y415898D01*
X440593Y416940D01*
X440704Y417592D01*
X440703Y417594D01*
X440704Y417595D01*
X440561Y419516D01*
X440559Y419517D01*
X440560Y419519D01*
X440354Y420147D01*
X440434Y421213D01*
X440433Y421214D01*
X440434Y421214D01*
X440354Y422280D01*
X440561Y422908D01*
X440560Y422910D01*
X440562Y422911D01*
X440706Y424832D01*
X440705Y424834D01*
X440706Y424835D01*
X440596Y425486D01*
X440834Y426529D01*
X440833Y426530D01*
X440834Y426530D01*
X440914Y427596D01*
X441212Y428186D01*
X441212Y428188D01*
X441213Y428189D01*
X441643Y430067D01*
X441642Y430069D01*
X441643Y430070D01*
X441631Y430731D01*
X442022Y431725D01*
X442021Y431727D01*
X442022Y431727D01*
X442260Y432769D01*
X442643Y433308D01*
X442643Y433310D01*
X442644Y433310D01*
X443349Y435104D01*
X443348Y435106D01*
X443350Y435107D01*
X443353Y435132D01*
X443361Y435192D01*
X443369Y435252D01*
X443372Y435275D01*
X443380Y435335D01*
X443388Y435395D01*
X443391Y435419D01*
X443399Y435478D01*
X443407Y435538D01*
X443418Y435622D01*
X443425Y435681D01*
X443426Y435681D01*
X443425Y435681D01*
X443433Y435741D01*
X443436Y435762D01*
X443971Y436687D01*
X443971Y436689D01*
X443972Y436689D01*
X444362Y437684D01*
X444821Y438159D01*
X444821Y438161D01*
X444823Y438162D01*
X445787Y439830D01*
X445786Y439832D01*
X445788Y439833D01*
X445971Y440468D01*
X446638Y441303D01*
X446638Y441304D01*
X446639Y441305D01*
X447173Y442230D01*
X447698Y442632D01*
X447698Y442634D01*
X447700Y442634D01*
X448902Y444140D01*
X448902Y444142D01*
X448903Y444143D01*
X449179Y444743D01*
X449963Y445470D01*
X449963Y445471D01*
X449964Y445471D01*
X450631Y446307D01*
X451209Y446626D01*
X451210Y446628D01*
X451211Y446628D01*
X452624Y447938D01*
X452624Y447940D01*
X452626Y447940D01*
X452988Y448493D01*
X453872Y449095D01*
X453872Y449096D01*
X453873Y449096D01*
X454657Y449823D01*
X455276Y450052D01*
X455277Y450054D01*
X455279Y450054D01*
X456599Y450953D01*
X456599Y450955D01*
X456602Y450956D01*
X456803Y451218D01*
X457616Y451687D01*
X457622Y451702D01*
X457620Y451703D01*
X457621Y451704D01*
X441888Y478954D01*
X442516Y479251D01*
X442538Y479268D01*
X442565Y479278D01*
X442617Y479327D01*
X442675Y479370D01*
X442689Y479395D01*
X442710Y479414D01*
X442739Y479480D01*
X442775Y479542D01*
X442778Y479570D01*
X442790Y479596D01*
X442791Y479668D01*
X442800Y479739D01*
X442792Y479766D01*
X442793Y479795D01*
X442757Y479890D01*
X442746Y479930D01*
X442739Y479939D01*
X442735Y479951D01*
X433235Y496451D01*
X433183Y496510D01*
X433137Y496572D01*
X433118Y496583D01*
X433103Y496600D01*
X433033Y496634D01*
X432966Y496674D01*
X432942Y496678D01*
X432924Y496686D01*
X432879Y496688D01*
X432802Y496701D01*
X413802Y496701D01*
X413774Y496696D01*
X413746Y496698D01*
X413678Y496676D01*
X413607Y496662D01*
X413584Y496646D01*
X413557Y496637D01*
X413502Y496590D01*
X413443Y496549D01*
X413428Y496525D01*
X413407Y496507D01*
X413375Y496442D01*
X413336Y496382D01*
X413331Y496354D01*
X413319Y496328D01*
X413310Y496227D01*
X413303Y496185D01*
X413305Y496175D01*
X413304Y496162D01*
X413361Y495447D01*
X381843Y495447D01*
X381831Y495437D01*
X381832Y495436D01*
X381831Y495435D01*
X381831Y494486D01*
X381704Y494180D01*
X381704Y494179D01*
X381704Y494178D01*
X381705Y494177D01*
X381703Y494176D01*
X381584Y492586D01*
X381585Y492584D01*
X381584Y492583D01*
X381695Y491931D01*
X381457Y490889D01*
X381457Y490888D01*
X381457Y490887D01*
X381377Y489821D01*
X381079Y489231D01*
X381079Y489230D01*
X381078Y489229D01*
X380650Y487353D01*
X380651Y487351D01*
X380650Y487350D01*
X380649Y487350D01*
X380662Y486689D01*
X380271Y485694D01*
X380272Y485693D01*
X380271Y485692D01*
X380033Y484650D01*
X379650Y484111D01*
X379651Y484109D01*
X379649Y484109D01*
X378946Y482317D01*
X378947Y482315D01*
X378945Y482314D01*
X378940Y482276D01*
X378936Y482241D01*
X378929Y482193D01*
X378923Y482145D01*
X378918Y482109D01*
X378912Y482062D01*
X378912Y482061D01*
X378907Y482026D01*
X378901Y481978D01*
X378895Y481930D01*
X378890Y481894D01*
X378884Y481847D01*
X378873Y481763D01*
X378866Y481715D01*
X378862Y481680D01*
X378862Y481679D01*
X378859Y481659D01*
X378325Y480733D01*
X378325Y480732D01*
X378324Y480732D01*
X377933Y479737D01*
X377475Y479261D01*
X377475Y479259D01*
X377473Y479259D01*
X376511Y477592D01*
X376511Y477590D01*
X376510Y477589D01*
X376327Y476954D01*
X375660Y476119D01*
X375660Y476117D01*
X375659Y476117D01*
X375125Y475192D01*
X374601Y474789D01*
X374600Y474787D01*
X374599Y474787D01*
X373399Y473283D01*
X373399Y473281D01*
X373397Y473280D01*
X373122Y472679D01*
X372338Y471952D01*
X372338Y471951D01*
X372337Y471951D01*
X371670Y471116D01*
X371092Y470796D01*
X371091Y470794D01*
X371090Y470794D01*
X369679Y469485D01*
X369679Y469483D01*
X369677Y469483D01*
X369315Y468930D01*
X368432Y468328D01*
X368432Y468327D01*
X368430Y468327D01*
X367647Y467600D01*
X367028Y467370D01*
X367027Y467368D01*
X367025Y467369D01*
X365435Y466284D01*
X365434Y466283D01*
X365433Y466283D01*
X364992Y465790D01*
X364029Y465326D01*
X364029Y465325D01*
X364028Y465325D01*
X363145Y464723D01*
X362498Y464588D01*
X362496Y464587D01*
X362495Y464587D01*
X360761Y463752D01*
X360760Y463750D01*
X360759Y463751D01*
X360250Y463329D01*
X359228Y463014D01*
X359228Y463013D01*
X359227Y463013D01*
X358264Y462550D01*
X357604Y462512D01*
X357602Y462511D01*
X357601Y462512D01*
X355762Y461945D01*
X355761Y461943D01*
X355759Y461944D01*
X355193Y461602D01*
X354136Y461443D01*
X354135Y461442D01*
X354135Y461443D01*
X353113Y461128D01*
X352455Y461189D01*
X352454Y461188D01*
X352452Y461189D01*
X350549Y460902D01*
X350548Y460901D01*
X350547Y460902D01*
X349936Y460649D01*
X348867Y460649D01*
X348866Y460648D01*
X348865Y460649D01*
X347809Y460489D01*
X347167Y460648D01*
X347165Y460648D01*
X347164Y460649D01*
X345240Y460649D01*
X345238Y460647D01*
X345237Y460648D01*
X344595Y460489D01*
X343539Y460649D01*
X343537Y460648D01*
X343537Y460649D01*
X342468Y460649D01*
X341857Y460902D01*
X341856Y460901D01*
X341855Y460902D01*
X339952Y461189D01*
X339950Y461188D01*
X339949Y461189D01*
X339291Y461128D01*
X338269Y461443D01*
X338268Y461442D01*
X338268Y461443D01*
X337211Y461602D01*
X336645Y461944D01*
X336643Y461943D01*
X336642Y461945D01*
X334803Y462512D01*
X334801Y462511D01*
X334800Y462512D01*
X334140Y462550D01*
X333177Y463013D01*
X333176Y463013D01*
X333176Y463014D01*
X332154Y463329D01*
X331645Y463751D01*
X331643Y463751D01*
X331643Y463752D01*
X329909Y464587D01*
X329907Y464587D01*
X329906Y464588D01*
X329259Y464723D01*
X328376Y465325D01*
X328375Y465325D01*
X328375Y465326D01*
X327412Y465790D01*
X326971Y466283D01*
X326969Y466283D01*
X326969Y466284D01*
X325379Y467369D01*
X325377Y467368D01*
X325376Y467370D01*
X324757Y467600D01*
X323974Y468327D01*
X323972Y468327D01*
X323972Y468328D01*
X323089Y468930D01*
X322727Y469483D01*
X322725Y469484D01*
X322725Y469485D01*
X321314Y470794D01*
X321312Y470794D01*
X321312Y470796D01*
X320734Y471116D01*
X320067Y471951D01*
X320066Y471951D01*
X320066Y471952D01*
X319282Y472679D01*
X319007Y473280D01*
X319005Y473281D01*
X319005Y473283D01*
X317805Y474787D01*
X317804Y474788D01*
X317803Y474789D01*
X317279Y475192D01*
X316745Y476117D01*
X316743Y476118D01*
X316744Y476119D01*
X316077Y476954D01*
X315894Y477589D01*
X315893Y477590D01*
X315893Y477592D01*
X314931Y479259D01*
X314929Y479259D01*
X314929Y479261D01*
X314471Y479737D01*
X314080Y480732D01*
X314079Y480732D01*
X314079Y480733D01*
X313545Y481659D01*
X313459Y482314D01*
X313457Y482316D01*
X313458Y482317D01*
X312755Y484109D01*
X312753Y484110D01*
X312754Y484111D01*
X312371Y484650D01*
X312133Y485692D01*
X312132Y485693D01*
X312133Y485694D01*
X311742Y486689D01*
X311755Y487350D01*
X311753Y487351D01*
X311754Y487353D01*
X311326Y489229D01*
X311324Y489230D01*
X311325Y489231D01*
X311027Y489821D01*
X310947Y490887D01*
X310946Y490888D01*
X310947Y490889D01*
X310709Y491931D01*
X310820Y492583D01*
X310819Y492584D01*
X310820Y492586D01*
X310701Y494176D01*
X310699Y494178D01*
X310700Y494180D01*
X310573Y494486D01*
X310573Y495435D01*
X310563Y495447D01*
X310562Y495446D01*
X310561Y495447D01*
X279043Y495447D01*
X279100Y496162D01*
X279096Y496191D01*
X279101Y496219D01*
X279084Y496288D01*
X279076Y496360D01*
X279062Y496384D01*
X279055Y496412D01*
X279012Y496470D01*
X278977Y496532D01*
X278954Y496549D01*
X278937Y496572D01*
X278875Y496609D01*
X278818Y496652D01*
X278790Y496659D01*
X278766Y496674D01*
X278666Y496690D01*
X278625Y496701D01*
X278615Y496699D01*
X278602Y496701D01*
X259602Y496701D01*
X259526Y496686D01*
X259448Y496677D01*
X259429Y496666D01*
X259407Y496662D01*
X259343Y496618D01*
X259275Y496579D01*
X259259Y496560D01*
X259243Y496549D01*
X259219Y496511D01*
X259169Y496451D01*
X249669Y479951D01*
X249660Y479924D01*
X249644Y479900D01*
X249629Y479830D01*
X249606Y479762D01*
X249609Y479734D01*
X249603Y479706D01*
X249617Y479636D01*
X249622Y479564D01*
X249635Y479539D01*
X249641Y479511D01*
X249681Y479451D01*
X249714Y479388D01*
X249736Y479370D01*
X249752Y479346D01*
X249835Y479288D01*
X249867Y479261D01*
X249878Y479258D01*
X249889Y479251D01*
X250516Y478954D01*
X234783Y451704D01*
X234786Y451688D01*
X234787Y451689D01*
X234788Y451687D01*
X235601Y451218D01*
X235802Y450956D01*
X235805Y450955D01*
X235805Y450953D01*
X237125Y450054D01*
X237127Y450054D01*
X237128Y450052D01*
X237747Y449823D01*
X238531Y449096D01*
X238532Y449096D01*
X238532Y449095D01*
X239416Y448493D01*
X239778Y447940D01*
X239780Y447940D01*
X239780Y447938D01*
X241193Y446628D01*
X241194Y446628D01*
X241195Y446626D01*
X241773Y446307D01*
X242440Y445471D01*
X242441Y445471D01*
X242441Y445470D01*
X243225Y444743D01*
X243501Y444143D01*
X243503Y444142D01*
X243502Y444140D01*
X244704Y442634D01*
X244706Y442634D01*
X244706Y442632D01*
X245231Y442230D01*
X245765Y441305D01*
X245767Y441304D01*
X245766Y441303D01*
X246433Y440468D01*
X246616Y439833D01*
X246618Y439832D01*
X246617Y439830D01*
X247581Y438162D01*
X247583Y438161D01*
X247583Y438159D01*
X248042Y437684D01*
X248432Y436689D01*
X248433Y436688D01*
X248433Y436687D01*
X248968Y435762D01*
X249054Y435107D01*
X249056Y435105D01*
X249055Y435104D01*
X249760Y433310D01*
X249761Y433310D01*
X249761Y433308D01*
X250144Y432769D01*
X250382Y431727D01*
X250383Y431726D01*
X250382Y431725D01*
X250773Y430731D01*
X250761Y430070D01*
X250762Y430068D01*
X250761Y430067D01*
X251191Y428189D01*
X251192Y428187D01*
X251192Y428186D01*
X251490Y427596D01*
X251570Y426530D01*
X251571Y426529D01*
X251570Y426529D01*
X251808Y425486D01*
X251698Y424835D01*
X251698Y424834D01*
X251698Y424833D01*
X251698Y424832D01*
X251842Y422911D01*
X251844Y422909D01*
X251843Y422908D01*
X252050Y422280D01*
X251970Y421214D01*
X251971Y421213D01*
X251970Y421213D01*
X252050Y420147D01*
X251844Y419519D01*
X251845Y419517D01*
X251843Y419516D01*
X251700Y417595D01*
X251701Y417593D01*
X251700Y417592D01*
X251811Y416940D01*
X251573Y415898D01*
X251574Y415897D01*
X251573Y415896D01*
X251494Y414831D01*
X251196Y414240D01*
X251196Y414239D01*
X251195Y414238D01*
X250767Y412359D01*
X250767Y412358D01*
X250768Y412357D01*
X250767Y412356D01*
X250779Y411696D01*
X250389Y410700D01*
X250389Y410699D01*
X250388Y410699D01*
X250151Y409657D01*
X249769Y409118D01*
X249769Y409116D01*
X249767Y409115D01*
X249064Y407321D01*
X249065Y407319D01*
X249063Y407318D01*
X249062Y407309D01*
X249060Y407297D01*
X249053Y407237D01*
X249051Y407225D01*
X249043Y407166D01*
X249034Y407094D01*
X249024Y407022D01*
X249015Y406951D01*
X249006Y406879D01*
X248996Y406808D01*
X248996Y406807D01*
X248987Y406736D01*
X248977Y406664D01*
X248977Y406663D01*
X248443Y405737D01*
X248443Y405736D01*
X248442Y405736D01*
X248052Y404741D01*
X247594Y404265D01*
X247594Y404263D01*
X247592Y404262D01*
X246629Y402593D01*
X246630Y402591D01*
X246628Y402591D01*
X246445Y401955D01*
X245779Y401120D01*
X245779Y401119D01*
X245778Y401118D01*
X245244Y400192D01*
X244720Y399790D01*
X244719Y399788D01*
X244718Y399788D01*
X243517Y398281D01*
X243517Y398279D01*
X243516Y398279D01*
X243240Y397678D01*
X242457Y396951D01*
X242457Y396949D01*
X242456Y396949D01*
X241790Y396114D01*
X241211Y395794D01*
X241211Y395792D01*
X241209Y395792D01*
X239797Y394481D01*
X239797Y394479D01*
X239795Y394479D01*
X239433Y393926D01*
X238550Y393323D01*
X238550Y393322D01*
X238549Y393322D01*
X237766Y392595D01*
X237146Y392365D01*
X237145Y392363D01*
X237143Y392364D01*
X235552Y391278D01*
X235551Y391276D01*
X235550Y391276D01*
X235110Y390783D01*
X234147Y390319D01*
X234146Y390318D01*
X234145Y390318D01*
X233262Y389715D01*
X232615Y389580D01*
X232614Y389579D01*
X232613Y389579D01*
X230877Y388743D01*
X230876Y388741D01*
X230874Y388741D01*
X230366Y388320D01*
X229344Y388004D01*
X229344Y388003D01*
X229343Y388004D01*
X228380Y387539D01*
X227720Y387502D01*
X227719Y387501D01*
X227717Y387502D01*
X225876Y386933D01*
X225875Y386931D01*
X225874Y386932D01*
X225308Y386591D01*
X224251Y386431D01*
X224250Y386430D01*
X224249Y386431D01*
X223228Y386115D01*
X222570Y386177D01*
X222568Y386176D01*
X222567Y386177D01*
X220662Y385889D01*
X220661Y385887D01*
X220659Y385888D01*
X220049Y385635D01*
X218980Y385635D01*
X218979Y385634D01*
X218978Y385635D01*
X217921Y385475D01*
X217280Y385634D01*
X217278Y385633D01*
X217277Y385634D01*
X215350Y385634D01*
X215349Y385632D01*
X215347Y385633D01*
X214706Y385474D01*
X213649Y385633D01*
X213648Y385632D01*
X213647Y385633D01*
X212578Y385633D01*
X211968Y385885D01*
X211966Y385885D01*
X211965Y385886D01*
X210060Y386173D01*
X210058Y386172D01*
X210057Y386173D01*
X209399Y386111D01*
X208377Y386426D01*
X208376Y386425D01*
X208375Y386426D01*
X207318Y386585D01*
X206752Y386926D01*
X206750Y386925D01*
X206750Y386927D01*
X204908Y387494D01*
X204906Y387494D01*
X204905Y387495D01*
X204246Y387532D01*
X203283Y387995D01*
X203281Y387995D01*
X203281Y387996D01*
X202259Y388310D01*
X201750Y388732D01*
X201748Y388732D01*
X201748Y388734D01*
X200309Y389426D01*
X200306Y389425D01*
X200305Y389427D01*
X199977Y389470D01*
X199145Y389950D01*
X199142Y389950D01*
X199141Y389950D01*
X199138Y389950D01*
X199136Y389948D01*
X199129Y389947D01*
X199129Y389946D01*
X199128Y389946D01*
X183394Y362693D01*
X182786Y363113D01*
X182759Y363124D01*
X182737Y363143D01*
X182668Y363163D01*
X182603Y363191D01*
X182574Y363191D01*
X182546Y363199D01*
X182475Y363191D01*
X182404Y363192D01*
X182377Y363180D01*
X182348Y363177D01*
X182286Y363142D01*
X182221Y363114D01*
X182200Y363094D01*
X182175Y363079D01*
X182112Y363002D01*
X182082Y362972D01*
X182078Y362962D01*
X182069Y362951D01*
X172569Y346451D01*
X172545Y346378D01*
X172514Y346308D01*
X172514Y346284D01*
X172506Y346262D01*
X172513Y346186D01*
X172512Y346109D01*
X172521Y346085D01*
X172522Y346064D01*
X172543Y346025D01*
X172562Y345973D01*
X172563Y345967D01*
X172565Y345965D01*
X172569Y345953D01*
X182069Y329453D01*
X182088Y329431D01*
X182101Y329405D01*
X182154Y329357D01*
X182201Y329304D01*
X182227Y329291D01*
X182249Y329272D01*
X182316Y329249D01*
X182380Y329218D01*
X182409Y329217D01*
X182436Y329207D01*
X182508Y329212D01*
X182579Y329209D01*
X182606Y329219D01*
X182635Y329221D01*
X182725Y329263D01*
X182765Y329278D01*
X182773Y329285D01*
X182786Y329291D01*
X183394Y329711D01*
X199128Y302458D01*
X199143Y302453D01*
X199144Y302454D01*
X199145Y302454D01*
X199977Y302934D01*
X200305Y302977D01*
X200307Y302979D01*
X200309Y302978D01*
X201748Y303670D01*
X201749Y303672D01*
X201750Y303672D01*
X202259Y304094D01*
X203281Y304408D01*
X203282Y304409D01*
X203283Y304409D01*
X204246Y304872D01*
X204905Y304909D01*
X204907Y304911D01*
X204908Y304910D01*
X206750Y305477D01*
X206751Y305479D01*
X206752Y305478D01*
X207318Y305819D01*
X208375Y305978D01*
X208376Y305979D01*
X208377Y305978D01*
X209399Y306293D01*
X210057Y306231D01*
X210058Y306232D01*
X210060Y306231D01*
X211965Y306518D01*
X211966Y306519D01*
X211968Y306519D01*
X212578Y306771D01*
X213647Y306771D01*
X213648Y306772D01*
X213649Y306771D01*
X214706Y306930D01*
X215347Y306771D01*
X215349Y306772D01*
X215350Y306770D01*
X217277Y306770D01*
X217278Y306771D01*
X217280Y306770D01*
X217921Y306929D01*
X218978Y306769D01*
X218978Y306770D01*
X218979Y306770D01*
X218980Y306769D01*
X220049Y306769D01*
X220659Y306516D01*
X220661Y306517D01*
X220662Y306515D01*
X222567Y306227D01*
X222569Y306228D01*
X222570Y306227D01*
X223228Y306289D01*
X224249Y305973D01*
X224250Y305974D01*
X224251Y305973D01*
X225308Y305813D01*
X225874Y305472D01*
X225876Y305472D01*
X225876Y305471D01*
X227717Y304902D01*
X227719Y304903D01*
X227720Y304902D01*
X228380Y304865D01*
X229343Y304400D01*
X229344Y304401D01*
X229344Y304400D01*
X230366Y304084D01*
X230874Y303663D01*
X230876Y303663D01*
X230877Y303661D01*
X232613Y302825D01*
X232615Y302825D01*
X232615Y302824D01*
X233262Y302689D01*
X234145Y302086D01*
X234146Y302086D01*
X234147Y302085D01*
X235110Y301621D01*
X235550Y301128D01*
X235552Y301128D01*
X235552Y301126D01*
X237143Y300040D01*
X237145Y300041D01*
X237146Y300039D01*
X237766Y299809D01*
X238549Y299082D01*
X238550Y299082D01*
X238550Y299081D01*
X239433Y298478D01*
X239795Y297925D01*
X239797Y297925D01*
X239797Y297923D01*
X241209Y296612D01*
X241211Y296612D01*
X241211Y296610D01*
X241790Y296290D01*
X242456Y295455D01*
X242457Y295455D01*
X242457Y295453D01*
X243240Y294726D01*
X243516Y294125D01*
X243517Y294124D01*
X243517Y294123D01*
X244718Y292616D01*
X244720Y292616D01*
X244720Y292614D01*
X245244Y292212D01*
X245778Y291286D01*
X245779Y291285D01*
X245779Y291284D01*
X246445Y290449D01*
X246628Y289813D01*
X246630Y289812D01*
X246629Y289811D01*
X247592Y288142D01*
X247594Y288141D01*
X247594Y288139D01*
X248052Y287663D01*
X248442Y286668D01*
X248443Y286668D01*
X248443Y286667D01*
X248977Y285741D01*
X249063Y285086D01*
X249065Y285084D01*
X249064Y285083D01*
X249767Y283289D01*
X249769Y283288D01*
X249769Y283286D01*
X250151Y282747D01*
X250388Y281705D01*
X250389Y281705D01*
X250389Y281704D01*
X250779Y280708D01*
X250767Y280048D01*
X250768Y280046D01*
X250767Y280045D01*
X251195Y278166D01*
X251197Y278165D01*
X251196Y278164D01*
X251494Y277573D01*
X251573Y276508D01*
X251574Y276507D01*
X251573Y276506D01*
X251811Y275464D01*
X251700Y274812D01*
X251701Y274810D01*
X251700Y274809D01*
X251843Y272888D01*
X251845Y272887D01*
X251844Y272885D01*
X252050Y272257D01*
X251970Y271191D01*
X251971Y271190D01*
X251970Y271190D01*
X252050Y270124D01*
X251843Y269496D01*
X251844Y269494D01*
X251842Y269493D01*
X251698Y267572D01*
X251699Y267570D01*
X251698Y267569D01*
X251808Y266918D01*
X251570Y265875D01*
X251571Y265874D01*
X251570Y265874D01*
X251490Y264808D01*
X251192Y264218D01*
X251192Y264216D01*
X251191Y264215D01*
X250761Y262337D01*
X250762Y262335D01*
X250761Y262334D01*
X250773Y261673D01*
X250382Y260678D01*
X250383Y260677D01*
X250382Y260677D01*
X250144Y259635D01*
X249761Y259096D01*
X249761Y259094D01*
X249760Y259094D01*
X249055Y257300D01*
X249056Y257298D01*
X249054Y257297D01*
X249049Y257255D01*
X249049Y257254D01*
X249041Y257195D01*
X249033Y257135D01*
X249030Y257111D01*
X249022Y257052D01*
X249014Y256992D01*
X249011Y256968D01*
X249003Y256908D01*
X248995Y256849D01*
X248987Y256789D01*
X248984Y256765D01*
X248976Y256705D01*
X248968Y256646D01*
X248968Y256642D01*
X248433Y255717D01*
X248433Y255715D01*
X248432Y255715D01*
X248042Y254720D01*
X247583Y254245D01*
X247583Y254243D01*
X247581Y254242D01*
X246617Y252574D01*
X246618Y252572D01*
X246616Y252571D01*
X246433Y251936D01*
X245766Y251101D01*
X245766Y251100D01*
X245765Y251099D01*
X245231Y250174D01*
X244706Y249772D01*
X244706Y249770D01*
X244704Y249770D01*
X243502Y248264D01*
X243502Y248262D01*
X243501Y248261D01*
X243225Y247661D01*
X242441Y246934D01*
X242441Y246933D01*
X242440Y246933D01*
X241773Y246097D01*
X241195Y245778D01*
X241194Y245776D01*
X241193Y245776D01*
X239780Y244466D01*
X239780Y244464D01*
X239778Y244464D01*
X239416Y243911D01*
X238532Y243309D01*
X238532Y243308D01*
X238531Y243308D01*
X237747Y242581D01*
X237128Y242352D01*
X237127Y242350D01*
X237125Y242350D01*
X235805Y241451D01*
X235805Y241449D01*
X235802Y241448D01*
X235601Y241186D01*
X234788Y240717D01*
X234785Y240710D01*
X234784Y240709D01*
X234785Y240708D01*
X234782Y240702D01*
X234784Y240701D01*
X234783Y240700D01*
X250516Y213450D01*
X249889Y213153D01*
X249866Y213136D01*
X249839Y213126D01*
X249787Y213077D01*
X249729Y213034D01*
X249715Y213009D01*
X249694Y212990D01*
X249665Y212924D01*
X249629Y212862D01*
X249626Y212834D01*
X249614Y212808D01*
X249613Y212736D01*
X249604Y212665D01*
X249612Y212638D01*
X249612Y212609D01*
X249647Y212514D01*
X249658Y212474D01*
X249665Y212465D01*
X249669Y212453D01*
X259169Y195953D01*
X259221Y195895D01*
X259267Y195832D01*
X259286Y195821D01*
X259301Y195804D01*
X259371Y195770D01*
X259438Y195730D01*
X259463Y195726D01*
X259480Y195718D01*
X259525Y195716D01*
X259602Y195703D01*
X278602Y195703D01*
X278630Y195708D01*
G37*
%LPC*%
G36*
X333050Y265980D02*
X333050Y265980D01*
X316112Y270682D01*
X300581Y278916D01*
X287183Y290297D01*
X276545Y304291D01*
X269164Y320245D01*
X265385Y337413D01*
X265385Y354991D01*
X269164Y372159D01*
X276545Y388113D01*
X287183Y402107D01*
X300581Y413488D01*
X316112Y421722D01*
X333050Y426424D01*
X350603Y427376D01*
X367950Y424532D01*
X384280Y418026D01*
X398830Y408161D01*
X410919Y395399D01*
X419982Y380336D01*
X425595Y363678D01*
X427495Y346202D01*
X427495Y346201D01*
X427486Y346117D01*
X427484Y346093D01*
X427483Y346093D01*
X427484Y346093D01*
X427481Y346070D01*
X427481Y346069D01*
X427472Y345986D01*
X427469Y345962D01*
X427467Y345938D01*
X427458Y345855D01*
X427455Y345831D01*
X427452Y345807D01*
X427443Y345723D01*
X427441Y345699D01*
X427438Y345676D01*
X427429Y345592D01*
X427426Y345568D01*
X427424Y345544D01*
X427412Y345437D01*
X427410Y345413D01*
X427409Y345413D01*
X427410Y345413D01*
X427398Y345306D01*
X427398Y345305D01*
X427395Y345282D01*
X427393Y345258D01*
X427384Y345174D01*
X427381Y345150D01*
X427378Y345126D01*
X427369Y345043D01*
X427367Y345019D01*
X427364Y344995D01*
X427355Y344912D01*
X427352Y344888D01*
X427350Y344864D01*
X427341Y344780D01*
X427338Y344756D01*
X427336Y344733D01*
X427335Y344733D01*
X427335Y344732D01*
X427326Y344649D01*
X427324Y344625D01*
X427321Y344601D01*
X427312Y344518D01*
X427310Y344494D01*
X427307Y344470D01*
X427295Y344362D01*
X427293Y344339D01*
X427290Y344315D01*
X427281Y344231D01*
X427278Y344207D01*
X427276Y344183D01*
X427267Y344100D01*
X427264Y344076D01*
X427262Y344052D01*
X427261Y344052D01*
X427252Y343969D01*
X427252Y343968D01*
X427250Y343945D01*
X427247Y343921D01*
X427238Y343837D01*
X427236Y343813D01*
X427233Y343789D01*
X427224Y343706D01*
X427221Y343682D01*
X427219Y343658D01*
X427210Y343575D01*
X427207Y343551D01*
X427204Y343527D01*
X427195Y343443D01*
X427193Y343419D01*
X427190Y343396D01*
X427190Y343395D01*
X427178Y343288D01*
X427176Y343264D01*
X427173Y343240D01*
X427164Y343157D01*
X427162Y343133D01*
X427159Y343109D01*
X427150Y343025D01*
X427147Y343002D01*
X427145Y342978D01*
X427136Y342894D01*
X427133Y342870D01*
X427130Y342846D01*
X427121Y342763D01*
X427119Y342739D01*
X427116Y342715D01*
X427107Y342632D01*
X427107Y342631D01*
X427104Y342608D01*
X427102Y342584D01*
X427093Y342500D01*
X427090Y342476D01*
X427088Y342452D01*
X427078Y342369D01*
X427076Y342345D01*
X427073Y342321D01*
X427062Y342214D01*
X427059Y342190D01*
X427056Y342166D01*
X427047Y342082D01*
X427045Y342059D01*
X427045Y342058D01*
X427042Y342035D01*
X427033Y341951D01*
X427030Y341927D01*
X427028Y341903D01*
X427019Y341820D01*
X427016Y341796D01*
X427014Y341772D01*
X427004Y341688D01*
X427002Y341665D01*
X426999Y341641D01*
X426990Y341557D01*
X426988Y341533D01*
X426985Y341509D01*
X426976Y341426D01*
X426973Y341402D01*
X426971Y341378D01*
X426959Y341271D01*
X426956Y341247D01*
X426945Y341139D01*
X426942Y341115D01*
X426940Y341092D01*
X426930Y341008D01*
X426928Y340984D01*
X426925Y340960D01*
X426916Y340877D01*
X426914Y340853D01*
X426911Y340829D01*
X426902Y340745D01*
X426899Y340722D01*
X426899Y340721D01*
X426897Y340698D01*
X426888Y340614D01*
X426885Y340590D01*
X426882Y340566D01*
X426873Y340483D01*
X426871Y340459D01*
X426868Y340435D01*
X426859Y340351D01*
X426856Y340328D01*
X426854Y340304D01*
X426842Y340196D01*
X426840Y340172D01*
X426837Y340149D01*
X426837Y340148D01*
X426828Y340065D01*
X426825Y340041D01*
X426823Y340017D01*
X426814Y339934D01*
X426811Y339910D01*
X426808Y339886D01*
X426799Y339802D01*
X426797Y339778D01*
X426794Y339755D01*
X426785Y339671D01*
X426782Y339647D01*
X426780Y339623D01*
X426771Y339540D01*
X426768Y339516D01*
X426766Y339492D01*
X426756Y339408D01*
X426754Y339385D01*
X426754Y339384D01*
X426751Y339361D01*
X426742Y339277D01*
X426740Y339253D01*
X426737Y339229D01*
X426725Y339122D01*
X426723Y339098D01*
X426720Y339074D01*
X426711Y338991D01*
X426708Y338967D01*
X426706Y338943D01*
X426697Y338859D01*
X426694Y338835D01*
X426692Y338812D01*
X426692Y338811D01*
X426682Y338728D01*
X426680Y338704D01*
X426677Y338680D01*
X426668Y338597D01*
X426666Y338573D01*
X426663Y338549D01*
X426654Y338465D01*
X426651Y338441D01*
X426649Y338418D01*
X426640Y338334D01*
X426637Y338310D01*
X426634Y338286D01*
X426623Y338179D01*
X426620Y338155D01*
X426608Y338048D01*
X426608Y338047D01*
X426606Y338024D01*
X426603Y338000D01*
X426594Y337916D01*
X426592Y337892D01*
X426589Y337868D01*
X426580Y337785D01*
X426577Y337761D01*
X426575Y337737D01*
X426566Y337654D01*
X426563Y337630D01*
X426560Y337606D01*
X426551Y337522D01*
X426549Y337498D01*
X426546Y337475D01*
X426546Y337474D01*
X426537Y337391D01*
X426534Y337367D01*
X426532Y337343D01*
X426523Y337260D01*
X426520Y337236D01*
X426518Y337212D01*
X426506Y337104D01*
X426503Y337081D01*
X426492Y336973D01*
X426489Y336949D01*
X426486Y336925D01*
X426477Y336842D01*
X426475Y336818D01*
X426472Y336794D01*
X426463Y336711D01*
X426463Y336710D01*
X426460Y336687D01*
X426458Y336663D01*
X426449Y336579D01*
X426446Y336555D01*
X426444Y336531D01*
X426435Y336448D01*
X426434Y336448D01*
X426435Y336448D01*
X426432Y336424D01*
X426429Y336400D01*
X426420Y336317D01*
X426418Y336293D01*
X426415Y336269D01*
X426406Y336185D01*
X426403Y336161D01*
X426401Y336138D01*
X426401Y336137D01*
X426389Y336030D01*
X426386Y336006D01*
X426384Y335982D01*
X426375Y335899D01*
X426372Y335875D01*
X426370Y335851D01*
X426361Y335767D01*
X426360Y335767D01*
X426361Y335767D01*
X426358Y335744D01*
X426355Y335720D01*
X426346Y335636D01*
X426344Y335612D01*
X426341Y335588D01*
X426332Y335505D01*
X426329Y335481D01*
X426327Y335457D01*
X426318Y335374D01*
X426318Y335373D01*
X426315Y335350D01*
X426312Y335326D01*
X426303Y335242D01*
X426301Y335218D01*
X426298Y335194D01*
X426289Y335111D01*
X426287Y335087D01*
X426286Y335087D01*
X426287Y335087D01*
X426284Y335063D01*
X426272Y334956D01*
X426270Y334932D01*
X426267Y334908D01*
X426258Y334824D01*
X426255Y334801D01*
X426255Y334800D01*
X426253Y334777D01*
X426244Y334693D01*
X426241Y334669D01*
X426238Y334645D01*
X426229Y334562D01*
X426227Y334538D01*
X426224Y334514D01*
X426215Y334430D01*
X426213Y334407D01*
X426212Y334407D01*
X426213Y334407D01*
X426210Y334383D01*
X426201Y334299D01*
X426198Y334275D01*
X426196Y334251D01*
X426187Y334168D01*
X426184Y334144D01*
X426181Y334120D01*
X426170Y334013D01*
X426167Y333989D01*
X426155Y333881D01*
X426153Y333857D01*
X426150Y333834D01*
X426141Y333750D01*
X426139Y333726D01*
X426138Y333726D01*
X426139Y333726D01*
X426136Y333702D01*
X426127Y333619D01*
X426124Y333595D01*
X426122Y333571D01*
X426113Y333487D01*
X426110Y333464D01*
X426110Y333463D01*
X426107Y333440D01*
X426098Y333356D01*
X426096Y333332D01*
X426093Y333308D01*
X426084Y333225D01*
X426081Y333201D01*
X426079Y333177D01*
X426070Y333093D01*
X426067Y333070D01*
X426065Y333046D01*
X426064Y333046D01*
X426065Y333046D01*
X426053Y332938D01*
X426050Y332914D01*
X426039Y332807D01*
X426036Y332783D01*
X426033Y332759D01*
X426024Y332676D01*
X426022Y332652D01*
X426019Y332628D01*
X426010Y332544D01*
X426007Y332520D01*
X426005Y332497D01*
X425996Y332413D01*
X425993Y332389D01*
X425991Y332365D01*
X425990Y332365D01*
X425981Y332282D01*
X425979Y332258D01*
X425976Y332234D01*
X425967Y332150D01*
X425965Y332127D01*
X425965Y332126D01*
X425962Y332103D01*
X425953Y332019D01*
X425950Y331995D01*
X425948Y331971D01*
X425936Y331864D01*
X425933Y331840D01*
X425931Y331816D01*
X425922Y331733D01*
X425919Y331709D01*
X425917Y331685D01*
X425916Y331685D01*
X425907Y331601D01*
X425905Y331577D01*
X425902Y331554D01*
X425902Y331553D01*
X425893Y331470D01*
X425891Y331446D01*
X425888Y331422D01*
X425879Y331339D01*
X425876Y331315D01*
X425874Y331291D01*
X425865Y331207D01*
X425862Y331183D01*
X425859Y331160D01*
X425850Y331076D01*
X425848Y331052D01*
X425845Y331028D01*
X425836Y330945D01*
X425833Y330921D01*
X425831Y330897D01*
X425819Y330790D01*
X425819Y330789D01*
X425817Y330766D01*
X425814Y330742D01*
X425805Y330658D01*
X425802Y330634D01*
X425800Y330610D01*
X425791Y330527D01*
X425788Y330503D01*
X425785Y330479D01*
X425776Y330396D01*
X425774Y330372D01*
X425771Y330348D01*
X425762Y330264D01*
X425759Y330240D01*
X425757Y330217D01*
X425757Y330216D01*
X425748Y330133D01*
X425745Y330109D01*
X425743Y330085D01*
X425733Y330002D01*
X425731Y329978D01*
X425728Y329954D01*
X425717Y329846D01*
X425714Y329823D01*
X425702Y329715D01*
X425700Y329691D01*
X425697Y329667D01*
X425688Y329584D01*
X425685Y329560D01*
X425683Y329536D01*
X425674Y329453D01*
X425674Y329452D01*
X425671Y329429D01*
X425669Y329405D01*
X425659Y329321D01*
X425657Y329297D01*
X425654Y329273D01*
X425645Y329190D01*
X425643Y329166D01*
X425640Y329142D01*
X425631Y329059D01*
X425628Y329035D01*
X425626Y329011D01*
X425617Y328927D01*
X425614Y328903D01*
X425611Y328880D01*
X425611Y328879D01*
X425600Y328772D01*
X425597Y328748D01*
X425595Y328726D01*
X419982Y312068D01*
X410919Y297005D01*
X398830Y284243D01*
X384280Y274378D01*
X367950Y267872D01*
X350603Y265028D01*
X333050Y265980D01*
G37*
%LPD*%
G36*
X478143Y393769D02*
X478143Y393769D01*
X478186Y393768D01*
X482179Y394369D01*
X482209Y394380D01*
X482252Y394385D01*
X486111Y395574D01*
X486139Y395589D01*
X486180Y395601D01*
X489818Y397352D01*
X489840Y397369D01*
X489866Y397378D01*
X489919Y397428D01*
X489977Y397472D01*
X489990Y397496D01*
X490010Y397515D01*
X490040Y397581D01*
X490076Y397645D01*
X490079Y397672D01*
X490090Y397697D01*
X490091Y397770D01*
X490100Y397842D01*
X490092Y397868D01*
X490092Y397896D01*
X490056Y397994D01*
X490044Y398033D01*
X490038Y398041D01*
X490034Y398052D01*
X463034Y444852D01*
X463016Y444872D01*
X463005Y444897D01*
X462951Y444946D01*
X462903Y445001D01*
X462878Y445012D01*
X462858Y445031D01*
X462789Y445055D01*
X462723Y445086D01*
X462696Y445088D01*
X462671Y445097D01*
X462598Y445092D01*
X462525Y445095D01*
X462499Y445086D01*
X462472Y445084D01*
X462376Y445040D01*
X462338Y445026D01*
X462331Y445019D01*
X462321Y445015D01*
X458984Y442741D01*
X458962Y442718D01*
X458926Y442695D01*
X455965Y439949D01*
X455946Y439923D01*
X455914Y439895D01*
X453396Y436739D01*
X453381Y436710D01*
X453354Y436677D01*
X451334Y433181D01*
X451324Y433151D01*
X451301Y433114D01*
X449825Y429356D01*
X449820Y429324D01*
X449803Y429284D01*
X448903Y425348D01*
X448903Y425316D01*
X448892Y425274D01*
X448589Y421248D01*
X448592Y421225D01*
X448589Y421205D01*
X448591Y421195D01*
X448589Y421174D01*
X448890Y417147D01*
X448898Y417116D01*
X448901Y417073D01*
X449798Y413137D01*
X449811Y413108D01*
X449820Y413065D01*
X451294Y409306D01*
X451311Y409279D01*
X451326Y409239D01*
X453344Y405742D01*
X453365Y405718D01*
X453386Y405680D01*
X455902Y402522D01*
X455927Y402502D01*
X455953Y402468D01*
X458912Y399720D01*
X458939Y399704D01*
X458970Y399674D01*
X462306Y397398D01*
X462335Y397386D01*
X462370Y397361D01*
X466008Y395608D01*
X466038Y395600D01*
X466077Y395581D01*
X469935Y394389D01*
X469967Y394386D01*
X470008Y394373D01*
X474000Y393770D01*
X474032Y393771D01*
X474074Y393764D01*
X478112Y393763D01*
X478143Y393769D01*
G37*
G36*
X218330Y393764D02*
X218330Y393764D01*
X218361Y393770D01*
X218404Y393770D01*
X222396Y394373D01*
X222426Y394384D01*
X222469Y394389D01*
X226327Y395581D01*
X226355Y395596D01*
X226397Y395608D01*
X230034Y397361D01*
X230059Y397380D01*
X230098Y397398D01*
X233434Y399674D01*
X233456Y399697D01*
X233492Y399720D01*
X236451Y402468D01*
X236470Y402493D01*
X236502Y402522D01*
X239018Y405680D01*
X239033Y405708D01*
X239060Y405742D01*
X241078Y409239D01*
X241088Y409269D01*
X241110Y409306D01*
X242584Y413065D01*
X242590Y413097D01*
X242606Y413137D01*
X243503Y417073D01*
X243504Y417105D01*
X243514Y417147D01*
X243815Y421174D01*
X243811Y421205D01*
X243812Y421221D01*
X243815Y421238D01*
X243814Y421242D01*
X243815Y421248D01*
X243512Y425274D01*
X243503Y425305D01*
X243501Y425348D01*
X242601Y429284D01*
X242588Y429313D01*
X242579Y429356D01*
X241103Y433114D01*
X241085Y433141D01*
X241070Y433181D01*
X239050Y436677D01*
X239029Y436701D01*
X239008Y436739D01*
X236490Y439895D01*
X236465Y439915D01*
X236439Y439949D01*
X233478Y442695D01*
X233451Y442711D01*
X233420Y442741D01*
X230083Y445015D01*
X230058Y445025D01*
X230037Y445042D01*
X229967Y445063D01*
X229900Y445092D01*
X229872Y445092D01*
X229846Y445099D01*
X229774Y445091D01*
X229701Y445091D01*
X229676Y445080D01*
X229649Y445077D01*
X229585Y445041D01*
X229518Y445013D01*
X229499Y444993D01*
X229476Y444980D01*
X229409Y444899D01*
X229380Y444869D01*
X229377Y444860D01*
X229370Y444852D01*
X202370Y398052D01*
X202361Y398026D01*
X202345Y398003D01*
X202330Y397932D01*
X202306Y397863D01*
X202309Y397836D01*
X202303Y397809D01*
X202316Y397738D01*
X202322Y397665D01*
X202335Y397640D01*
X202340Y397614D01*
X202380Y397553D01*
X202414Y397488D01*
X202435Y397471D01*
X202450Y397448D01*
X202536Y397387D01*
X202567Y397362D01*
X202576Y397359D01*
X202586Y397352D01*
X206224Y395601D01*
X206255Y395594D01*
X206293Y395574D01*
X210152Y394385D01*
X210184Y394382D01*
X210225Y394369D01*
X214218Y393768D01*
X214249Y393770D01*
X214292Y393763D01*
X218330Y393764D01*
G37*
G36*
X462630Y247313D02*
X462630Y247313D01*
X462703Y247313D01*
X462728Y247324D01*
X462755Y247327D01*
X462819Y247363D01*
X462886Y247391D01*
X462905Y247411D01*
X462928Y247424D01*
X462996Y247505D01*
X463024Y247535D01*
X463027Y247544D01*
X463034Y247553D01*
X490034Y294353D01*
X490043Y294378D01*
X490059Y294401D01*
X490074Y294472D01*
X490098Y294541D01*
X490095Y294568D01*
X490101Y294595D01*
X490088Y294666D01*
X490082Y294739D01*
X490069Y294764D01*
X490064Y294790D01*
X490024Y294851D01*
X489990Y294916D01*
X489969Y294933D01*
X489954Y294956D01*
X489868Y295017D01*
X489837Y295042D01*
X489828Y295045D01*
X489818Y295052D01*
X486180Y296803D01*
X486149Y296810D01*
X486111Y296830D01*
X482252Y298019D01*
X482220Y298022D01*
X482179Y298035D01*
X478186Y298636D01*
X478155Y298634D01*
X478112Y298641D01*
X474074Y298640D01*
X474043Y298634D01*
X474000Y298634D01*
X470008Y298031D01*
X469978Y298020D01*
X469935Y298015D01*
X466077Y296823D01*
X466049Y296808D01*
X466008Y296796D01*
X462370Y295043D01*
X462345Y295024D01*
X462306Y295006D01*
X458970Y292730D01*
X458948Y292707D01*
X458912Y292684D01*
X455953Y289936D01*
X455934Y289911D01*
X455902Y289882D01*
X453386Y286724D01*
X453371Y286696D01*
X453344Y286662D01*
X451326Y283165D01*
X451316Y283135D01*
X451294Y283098D01*
X449820Y279339D01*
X449814Y279307D01*
X449798Y279267D01*
X448901Y275331D01*
X448900Y275299D01*
X448890Y275257D01*
X448589Y271231D01*
X448593Y271199D01*
X448589Y271156D01*
X448892Y267130D01*
X448901Y267099D01*
X448903Y267056D01*
X449803Y263120D01*
X449816Y263091D01*
X449825Y263048D01*
X451301Y259290D01*
X451319Y259263D01*
X451334Y259223D01*
X453354Y255727D01*
X453375Y255703D01*
X453396Y255665D01*
X455914Y252509D01*
X455939Y252489D01*
X455965Y252455D01*
X458926Y249709D01*
X458953Y249693D01*
X458984Y249663D01*
X462321Y247389D01*
X462346Y247379D01*
X462367Y247362D01*
X462437Y247341D01*
X462504Y247312D01*
X462532Y247313D01*
X462558Y247305D01*
X462630Y247313D01*
G37*
G36*
X229806Y247312D02*
X229806Y247312D01*
X229879Y247309D01*
X229905Y247318D01*
X229932Y247320D01*
X230028Y247364D01*
X230066Y247378D01*
X230073Y247385D01*
X230083Y247389D01*
X233420Y249663D01*
X233442Y249686D01*
X233478Y249709D01*
X236439Y252455D01*
X236458Y252481D01*
X236490Y252509D01*
X239008Y255665D01*
X239023Y255694D01*
X239050Y255727D01*
X241070Y259223D01*
X241080Y259253D01*
X241103Y259290D01*
X242579Y263048D01*
X242584Y263080D01*
X242601Y263120D01*
X243501Y267056D01*
X243501Y267088D01*
X243512Y267130D01*
X243815Y271156D01*
X243811Y271187D01*
X243815Y271231D01*
X243514Y275257D01*
X243506Y275288D01*
X243503Y275331D01*
X242606Y279267D01*
X242593Y279296D01*
X242584Y279339D01*
X241110Y283098D01*
X241093Y283125D01*
X241078Y283165D01*
X239060Y286662D01*
X239039Y286686D01*
X239018Y286724D01*
X236502Y289882D01*
X236477Y289902D01*
X236451Y289936D01*
X233492Y292684D01*
X233465Y292700D01*
X233434Y292730D01*
X230098Y295006D01*
X230069Y295018D01*
X230034Y295043D01*
X226397Y296796D01*
X226366Y296804D01*
X226327Y296823D01*
X222469Y298015D01*
X222437Y298018D01*
X222396Y298031D01*
X218404Y298634D01*
X218372Y298633D01*
X218330Y298640D01*
X214292Y298641D01*
X214261Y298635D01*
X214218Y298636D01*
X210225Y298035D01*
X210195Y298024D01*
X210152Y298019D01*
X206293Y296830D01*
X206265Y296815D01*
X206224Y296803D01*
X202586Y295052D01*
X202564Y295035D01*
X202538Y295026D01*
X202485Y294976D01*
X202427Y294932D01*
X202414Y294908D01*
X202394Y294889D01*
X202364Y294823D01*
X202328Y294759D01*
X202325Y294732D01*
X202314Y294707D01*
X202313Y294634D01*
X202304Y294562D01*
X202312Y294536D01*
X202312Y294508D01*
X202348Y294410D01*
X202360Y294371D01*
X202366Y294363D01*
X202370Y294353D01*
X229370Y247553D01*
X229388Y247532D01*
X229399Y247507D01*
X229453Y247458D01*
X229501Y247404D01*
X229526Y247392D01*
X229546Y247373D01*
X229615Y247349D01*
X229681Y247318D01*
X229708Y247317D01*
X229733Y247307D01*
X229806Y247312D01*
G37*
G36*
X348251Y468785D02*
X348251Y468785D01*
X348294Y468784D01*
X352284Y469385D01*
X352314Y469396D01*
X352357Y469402D01*
X356213Y470591D01*
X356241Y470607D01*
X356283Y470619D01*
X359919Y472370D01*
X359944Y472389D01*
X359983Y472407D01*
X363317Y474680D01*
X363340Y474703D01*
X363376Y474727D01*
X366334Y477471D01*
X366353Y477497D01*
X366385Y477526D01*
X368901Y480681D01*
X368915Y480709D01*
X368943Y480743D01*
X370961Y484238D01*
X370971Y484268D01*
X370993Y484305D01*
X372467Y488061D01*
X372468Y488068D01*
X372470Y488069D01*
X372474Y488096D01*
X372489Y488133D01*
X373387Y492067D01*
X373388Y492099D01*
X373398Y492141D01*
X373700Y496165D01*
X373696Y496192D01*
X373701Y496219D01*
X373684Y496289D01*
X373675Y496362D01*
X373661Y496386D01*
X373655Y496412D01*
X373612Y496471D01*
X373575Y496534D01*
X373553Y496550D01*
X373537Y496572D01*
X373474Y496609D01*
X373416Y496653D01*
X373389Y496660D01*
X373366Y496674D01*
X373262Y496691D01*
X373223Y496701D01*
X373213Y496699D01*
X373202Y496701D01*
X319202Y496701D01*
X319175Y496696D01*
X319148Y496698D01*
X319079Y496676D01*
X319007Y496662D01*
X318985Y496646D01*
X318959Y496638D01*
X318903Y496590D01*
X318843Y496549D01*
X318829Y496526D01*
X318808Y496508D01*
X318776Y496443D01*
X318736Y496382D01*
X318732Y496355D01*
X318720Y496330D01*
X318710Y496226D01*
X318703Y496185D01*
X318705Y496176D01*
X318704Y496165D01*
X319006Y492141D01*
X319014Y492110D01*
X319017Y492067D01*
X319915Y488133D01*
X319928Y488104D01*
X319937Y488061D01*
X321411Y484305D01*
X321428Y484278D01*
X321443Y484238D01*
X323461Y480743D01*
X323482Y480719D01*
X323503Y480681D01*
X326019Y477526D01*
X326044Y477506D01*
X326070Y477471D01*
X329028Y474727D01*
X329055Y474710D01*
X329087Y474680D01*
X332421Y472407D01*
X332450Y472394D01*
X332485Y472370D01*
X336121Y470619D01*
X336152Y470611D01*
X336191Y470591D01*
X340047Y469402D01*
X340078Y469399D01*
X340120Y469385D01*
X344110Y468784D01*
X344142Y468785D01*
X344184Y468778D01*
X348220Y468778D01*
X348251Y468785D01*
G37*
G36*
X373229Y195708D02*
X373229Y195708D01*
X373256Y195706D01*
X373325Y195728D01*
X373397Y195742D01*
X373419Y195758D01*
X373445Y195766D01*
X373501Y195814D01*
X373561Y195855D01*
X373575Y195878D01*
X373596Y195896D01*
X373629Y195961D01*
X373668Y196022D01*
X373672Y196049D01*
X373684Y196074D01*
X373694Y196178D01*
X373701Y196219D01*
X373699Y196228D01*
X373700Y196239D01*
X373398Y200263D01*
X373390Y200294D01*
X373387Y200337D01*
X372489Y204271D01*
X372476Y204300D01*
X372467Y204343D01*
X370993Y208099D01*
X370976Y208126D01*
X370961Y208167D01*
X368943Y211661D01*
X368922Y211685D01*
X368901Y211723D01*
X366385Y214878D01*
X366360Y214898D01*
X366334Y214933D01*
X363376Y217677D01*
X363349Y217694D01*
X363317Y217724D01*
X359983Y219997D01*
X359954Y220010D01*
X359919Y220035D01*
X356283Y221785D01*
X356252Y221793D01*
X356213Y221813D01*
X352357Y223002D01*
X352326Y223005D01*
X352284Y223019D01*
X348294Y223620D01*
X348262Y223619D01*
X348220Y223626D01*
X344184Y223626D01*
X344153Y223619D01*
X344110Y223620D01*
X340120Y223019D01*
X340090Y223008D01*
X340047Y223002D01*
X336191Y221813D01*
X336163Y221797D01*
X336121Y221785D01*
X332485Y220035D01*
X332460Y220015D01*
X332421Y219997D01*
X329087Y217724D01*
X329064Y217701D01*
X329028Y217677D01*
X326070Y214933D01*
X326052Y214907D01*
X326019Y214878D01*
X323503Y211723D01*
X323489Y211695D01*
X323461Y211661D01*
X321443Y208167D01*
X321433Y208136D01*
X321411Y208099D01*
X319937Y204343D01*
X319931Y204311D01*
X319915Y204271D01*
X319017Y200337D01*
X319016Y200305D01*
X319006Y200263D01*
X318704Y196239D01*
X318708Y196212D01*
X318703Y196185D01*
X318720Y196115D01*
X318729Y196042D01*
X318743Y196018D01*
X318749Y195992D01*
X318792Y195933D01*
X318829Y195870D01*
X318851Y195854D01*
X318867Y195832D01*
X318930Y195795D01*
X318988Y195751D01*
X319015Y195744D01*
X319038Y195730D01*
X319142Y195713D01*
X319181Y195703D01*
X319191Y195705D01*
X319202Y195703D01*
X373202Y195703D01*
X373229Y195708D01*
G37*
D10*
X428802Y489302D03*
X511402Y346202D03*
X428802Y203102D03*
X263602Y203102D03*
X181002Y346202D03*
X263602Y489302D03*
X470102Y417702D03*
X470102Y274702D03*
X346202Y203102D03*
X222302Y274702D03*
X222302Y417702D03*
X346202Y489302D03*
M02*
