G04 EAGLE Gerber RS-274X export*
G75*
%MOMM*%
%FSLAX34Y34*%
%LPD*%
%INSilkscreen Top*%
%IPPOS*%
%AMOC8*
5,1,8,0,0,1.08239X$1,22.5*%
G01*
%ADD10C,0.101600*%
%ADD11R,0.345438X0.020319*%
%ADD12R,1.950719X0.020319*%
%ADD13R,0.467356X0.020319*%
%ADD14R,2.072637X0.020319*%
%ADD15R,0.508000X0.020319*%
%ADD16R,2.113281X0.020319*%
%ADD17R,0.528319X0.020319*%
%ADD18R,2.133600X0.020319*%
%ADD19R,0.568956X0.020319*%
%ADD20R,2.174238X0.020319*%
%ADD21R,0.589275X0.020319*%
%ADD22R,2.194556X0.020319*%
%ADD23R,0.609600X0.020319*%
%ADD24R,2.214881X0.020319*%
%ADD25R,0.629919X0.020319*%
%ADD26R,2.235200X0.020319*%
%ADD27R,0.650238X0.020319*%
%ADD28R,2.255519X0.020319*%
%ADD29R,0.670556X0.020319*%
%ADD30R,2.275838X0.020319*%
%ADD31R,0.690875X0.020319*%
%ADD32R,2.296156X0.020319*%
%ADD33R,2.316481X0.020319*%
%ADD34R,0.711200X0.020319*%
%ADD35R,2.336800X0.020319*%
%ADD36R,0.731519X0.020319*%
%ADD37R,0.751838X0.020319*%
%ADD38R,2.357119X0.020319*%
%ADD39R,0.772156X0.020319*%
%ADD40R,2.377438X0.020319*%
%ADD41R,0.792475X0.020319*%
%ADD42R,2.397756X0.020319*%
%ADD43R,2.418081X0.020319*%
%ADD44R,0.812800X0.020319*%
%ADD45R,0.833119X0.020319*%
%ADD46R,2.438400X0.020319*%
%ADD47R,2.458719X0.020319*%
%ADD48R,0.853438X0.020319*%
%ADD49R,0.894081X0.020319*%
%ADD50R,2.479038X0.020319*%
%ADD51R,2.499356X0.020319*%
%ADD52R,0.914400X0.020319*%
%ADD53R,0.934719X0.020319*%
%ADD54R,2.519681X0.020319*%
%ADD55R,0.955038X0.020319*%
%ADD56R,2.540000X0.020319*%
%ADD57R,0.975363X0.020319*%
%ADD58R,2.560319X0.020319*%
%ADD59R,2.580637X0.020319*%
%ADD60R,0.995681X0.020319*%
%ADD61R,2.600956X0.020319*%
%ADD62R,1.016000X0.020319*%
%ADD63R,2.621281X0.020319*%
%ADD64R,1.036319X0.020319*%
%ADD65R,2.641600X0.020319*%
%ADD66R,1.056638X0.020319*%
%ADD67R,2.661919X0.020319*%
%ADD68R,1.076963X0.020319*%
%ADD69R,1.097281X0.020319*%
%ADD70R,1.117600X0.020319*%
%ADD71R,2.682238X0.020319*%
%ADD72R,2.702556X0.020319*%
%ADD73R,1.137919X0.020319*%
%ADD74R,2.722881X0.020319*%
%ADD75R,2.743200X0.020319*%
%ADD76R,1.158238X0.020319*%
%ADD77R,1.280156X0.020319*%
%ADD78R,1.341119X0.020319*%
%ADD79R,1.178556X0.020319*%
%ADD80R,1.259838X0.020319*%
%ADD81R,1.219200X0.020319*%
%ADD82R,1.300481X0.020319*%
%ADD83R,1.300475X0.020319*%
%ADD84R,1.198875X0.020319*%
%ADD85R,1.239519X0.020319*%
%ADD86R,1.076956X0.020319*%
%ADD87R,1.320800X0.020319*%
%ADD88R,1.361438X0.020319*%
%ADD89R,1.381756X0.020319*%
%ADD90R,1.402075X0.020319*%
%ADD91R,1.422400X0.020319*%
%ADD92R,1.564638X0.020319*%
%ADD93R,0.548638X0.020319*%
%ADD94R,1.544319X0.020319*%
%ADD95R,1.666238X0.020319*%
%ADD96R,1.645919X0.020319*%
%ADD97R,1.747519X0.020319*%
%ADD98R,1.442719X0.020319*%
%ADD99R,1.686556X0.020319*%
%ADD100R,1.727200X0.020319*%
%ADD101R,1.808475X0.020319*%
%ADD102R,1.463037X0.020319*%
%ADD103R,1.706875X0.020319*%
%ADD104R,0.568963X0.020319*%
%ADD105R,1.828800X0.020319*%
%ADD106R,1.788156X0.020319*%
%ADD107R,1.849119X0.020319*%
%ADD108R,1.483356X0.020319*%
%ADD109R,0.589281X0.020319*%
%ADD110R,1.889756X0.020319*%
%ADD111R,1.767838X0.020319*%
%ADD112R,1.910075X0.020319*%
%ADD113R,1.503675X0.020319*%
%ADD114R,1.930400X0.020319*%
%ADD115R,1.524000X0.020319*%
%ADD116R,1.971037X0.020319*%
%ADD117R,1.991356X0.020319*%
%ADD118R,1.869438X0.020319*%
%ADD119R,1.584956X0.020319*%
%ADD120R,2.011675X0.020319*%
%ADD121R,1.605275X0.020319*%
%ADD122R,2.032000X0.020319*%
%ADD123R,1.625600X0.020319*%
%ADD124R,2.052319X0.020319*%
%ADD125R,0.690881X0.020319*%
%ADD126R,2.092956X0.020319*%
%ADD127R,0.772163X0.020319*%
%ADD128R,2.011681X0.020319*%
%ADD129R,1.910081X0.020319*%
%ADD130R,0.873756X0.020319*%
%ADD131R,1.889763X0.020319*%
%ADD132R,0.670563X0.020319*%
%ADD133R,1.808481X0.020319*%
%ADD134R,0.792481X0.020319*%
%ADD135R,2.113275X0.020319*%
%ADD136R,0.894075X0.020319*%
%ADD137R,0.487681X0.020319*%
%ADD138R,0.975356X0.020319*%
%ADD139R,1.706881X0.020319*%
%ADD140R,1.503681X0.020319*%
%ADD141R,1.605281X0.020319*%
%ADD142R,0.487675X0.020319*%
%ADD143R,0.447038X0.020319*%
%ADD144R,0.060963X0.020319*%
%ADD145R,1.402081X0.020319*%
%ADD146R,1.280163X0.020319*%
%ADD147R,1.097275X0.020319*%
%ADD148R,2.722875X0.020319*%
%ADD149R,2.621275X0.020319*%
%ADD150R,0.995675X0.020319*%
%ADD151R,2.519675X0.020319*%
%ADD152R,2.418075X0.020319*%
%ADD153R,2.316475X0.020319*%
%ADD154R,2.214875X0.020319*%
%ADD155R,2.153919X0.020319*%
%ADD156R,0.426719X0.020319*%
%ADD157R,0.386075X0.020319*%
%ADD158R,0.132075X0.033019*%
%ADD159R,0.429256X0.033019*%
%ADD160R,0.594356X0.033019*%
%ADD161R,0.693419X0.033019*%
%ADD162R,0.792475X0.033019*%
%ADD163R,0.858519X0.033019*%
%ADD164R,0.363219X0.033019*%
%ADD165R,0.264156X0.033019*%
%ADD166R,0.297175X0.033019*%
%ADD167R,0.264163X0.033019*%
%ADD168R,0.033019X0.033019*%
%ADD169R,0.231138X0.033019*%
%ADD170R,0.198119X0.033019*%
%ADD171R,0.132081X0.033019*%
%ADD172R,0.165100X0.033019*%
%ADD173R,0.396238X0.033019*%
%ADD174R,0.330200X0.033019*%
%ADD175R,0.528319X0.033019*%
%ADD176R,0.561338X0.033019*%
%ADD177R,0.759456X0.033019*%
%ADD178R,0.462275X0.033019*%
%ADD179R,0.924556X0.033019*%
%ADD180R,0.660400X0.033019*%
%ADD181R,0.627381X0.033019*%
%ADD182R,0.495300X0.033019*%
%ADD183R,0.627375X0.033019*%
%ADD184R,0.957581X0.033019*%
%ADD185R,0.726438X0.033019*%
%ADD186R,0.957575X0.033019*%
%ADD187R,0.462281X0.033019*%
%ADD188R,0.990600X0.033019*%
%ADD189R,0.792481X0.033019*%
%ADD190R,0.891538X0.033019*%
%ADD191R,1.023619X0.033019*%
%ADD192R,0.825500X0.033019*%
%ADD193R,0.066037X0.033019*%
%ADD194R,1.056638X0.033019*%
%ADD195R,0.297181X0.033019*%
%ADD196R,0.099056X0.033019*%
%ADD197R,0.099063X0.033019*%
%ADD198R,1.089662X0.033019*%
%ADD199R,0.594363X0.033019*%
%ADD200R,0.429263X0.033019*%


D10*
X403428Y475532D02*
X406086Y473670D01*
X406180Y473607D01*
X406276Y473547D01*
X406374Y473490D01*
X406474Y473437D01*
X406576Y473387D01*
X406680Y473341D01*
X406785Y473299D01*
X406891Y473260D01*
X406999Y473225D01*
X407108Y473194D01*
X407218Y473166D01*
X407329Y473143D01*
X407440Y473123D01*
X407552Y473107D01*
X407665Y473095D01*
X407778Y473087D01*
X407891Y473083D01*
X408005Y473083D01*
X408118Y473087D01*
X408231Y473095D01*
X408344Y473107D01*
X408456Y473123D01*
X408567Y473143D01*
X408678Y473166D01*
X408788Y473194D01*
X408897Y473225D01*
X409005Y473260D01*
X409111Y473299D01*
X409216Y473341D01*
X409320Y473387D01*
X409422Y473437D01*
X409522Y473490D01*
X409620Y473547D01*
X409716Y473607D01*
X409810Y473670D01*
X409901Y473737D01*
X409991Y473806D01*
X410078Y473879D01*
X410162Y473955D01*
X410243Y474034D01*
X410322Y474115D01*
X410398Y474199D01*
X410471Y474286D01*
X410540Y474376D01*
X410607Y474467D01*
X410670Y474561D01*
X410730Y474657D01*
X410787Y474755D01*
X410840Y474855D01*
X410890Y474957D01*
X410936Y475061D01*
X410978Y475166D01*
X411017Y475272D01*
X411052Y475380D01*
X411083Y475489D01*
X411111Y475599D01*
X411134Y475710D01*
X411154Y475821D01*
X411170Y475933D01*
X411182Y476046D01*
X411190Y476159D01*
X411194Y476272D01*
X411194Y476386D01*
X411190Y476499D01*
X411182Y476612D01*
X411170Y476725D01*
X411154Y476837D01*
X411134Y476948D01*
X411111Y477059D01*
X411083Y477169D01*
X411052Y477278D01*
X411017Y477386D01*
X410978Y477492D01*
X410936Y477597D01*
X410890Y477701D01*
X410840Y477803D01*
X410787Y477903D01*
X410730Y478001D01*
X410670Y478097D01*
X410607Y478191D01*
X410540Y478282D01*
X410471Y478372D01*
X410398Y478459D01*
X410322Y478543D01*
X410243Y478624D01*
X410162Y478703D01*
X410078Y478779D01*
X409991Y478852D01*
X409902Y478921D01*
X409810Y478988D01*
X413320Y482869D02*
X410129Y485103D01*
X413319Y482869D02*
X413400Y482809D01*
X413479Y482747D01*
X413556Y482681D01*
X413630Y482613D01*
X413701Y482542D01*
X413769Y482468D01*
X413835Y482391D01*
X413897Y482312D01*
X413957Y482231D01*
X414013Y482147D01*
X414066Y482062D01*
X414115Y481974D01*
X414161Y481885D01*
X414204Y481793D01*
X414243Y481700D01*
X414278Y481606D01*
X414310Y481511D01*
X414338Y481414D01*
X414362Y481316D01*
X414382Y481218D01*
X414399Y481118D01*
X414411Y481018D01*
X414420Y480918D01*
X414425Y480818D01*
X414426Y480717D01*
X414423Y480616D01*
X414416Y480516D01*
X414405Y480416D01*
X414391Y480316D01*
X414372Y480217D01*
X414350Y480119D01*
X414324Y480022D01*
X414294Y479925D01*
X414261Y479831D01*
X414224Y479737D01*
X414183Y479645D01*
X414138Y479554D01*
X414091Y479466D01*
X414039Y479379D01*
X413985Y479295D01*
X413927Y479212D01*
X413866Y479132D01*
X413802Y479054D01*
X413735Y478979D01*
X413666Y478906D01*
X413593Y478837D01*
X413518Y478770D01*
X413440Y478706D01*
X413360Y478645D01*
X413277Y478587D01*
X413193Y478533D01*
X413106Y478481D01*
X413018Y478434D01*
X412927Y478389D01*
X412835Y478348D01*
X412741Y478311D01*
X412647Y478278D01*
X412550Y478248D01*
X412453Y478222D01*
X412355Y478200D01*
X412256Y478181D01*
X412156Y478167D01*
X412056Y478156D01*
X411956Y478149D01*
X411855Y478146D01*
X411754Y478147D01*
X411654Y478152D01*
X411554Y478161D01*
X411454Y478173D01*
X411354Y478190D01*
X411256Y478210D01*
X411158Y478234D01*
X411061Y478262D01*
X410966Y478294D01*
X410872Y478329D01*
X410779Y478368D01*
X410687Y478411D01*
X410598Y478457D01*
X410510Y478506D01*
X410425Y478559D01*
X410341Y478615D01*
X408214Y480105D01*
X418960Y478919D02*
X415449Y467114D01*
X425341Y474452D01*
X422153Y462420D02*
X424812Y460558D01*
X424906Y460495D01*
X425002Y460435D01*
X425100Y460378D01*
X425200Y460325D01*
X425302Y460275D01*
X425406Y460229D01*
X425511Y460187D01*
X425617Y460148D01*
X425725Y460113D01*
X425834Y460082D01*
X425944Y460054D01*
X426055Y460031D01*
X426166Y460011D01*
X426278Y459995D01*
X426391Y459983D01*
X426504Y459975D01*
X426617Y459971D01*
X426731Y459971D01*
X426844Y459975D01*
X426957Y459983D01*
X427070Y459995D01*
X427182Y460011D01*
X427293Y460031D01*
X427404Y460054D01*
X427514Y460082D01*
X427623Y460113D01*
X427731Y460148D01*
X427837Y460187D01*
X427942Y460229D01*
X428046Y460275D01*
X428148Y460325D01*
X428248Y460378D01*
X428346Y460435D01*
X428442Y460495D01*
X428536Y460558D01*
X428627Y460625D01*
X428717Y460694D01*
X428804Y460767D01*
X428888Y460843D01*
X428969Y460922D01*
X429048Y461003D01*
X429124Y461087D01*
X429197Y461174D01*
X429266Y461264D01*
X429333Y461355D01*
X429396Y461449D01*
X429456Y461545D01*
X429513Y461643D01*
X429566Y461743D01*
X429616Y461845D01*
X429662Y461949D01*
X429704Y462054D01*
X429743Y462160D01*
X429778Y462268D01*
X429809Y462377D01*
X429837Y462487D01*
X429860Y462598D01*
X429880Y462709D01*
X429896Y462821D01*
X429908Y462934D01*
X429916Y463047D01*
X429920Y463160D01*
X429920Y463274D01*
X429916Y463387D01*
X429908Y463500D01*
X429896Y463613D01*
X429880Y463725D01*
X429860Y463836D01*
X429837Y463947D01*
X429809Y464057D01*
X429778Y464166D01*
X429743Y464274D01*
X429704Y464380D01*
X429662Y464485D01*
X429616Y464589D01*
X429566Y464691D01*
X429513Y464791D01*
X429456Y464889D01*
X429396Y464985D01*
X429333Y465079D01*
X429266Y465170D01*
X429197Y465260D01*
X429124Y465347D01*
X429048Y465431D01*
X428969Y465512D01*
X428888Y465591D01*
X428804Y465667D01*
X428717Y465740D01*
X428628Y465809D01*
X428536Y465876D01*
X432045Y469757D02*
X428855Y471991D01*
X432045Y469757D02*
X432126Y469697D01*
X432205Y469635D01*
X432282Y469569D01*
X432356Y469501D01*
X432427Y469430D01*
X432495Y469356D01*
X432561Y469279D01*
X432623Y469200D01*
X432683Y469119D01*
X432739Y469035D01*
X432792Y468950D01*
X432841Y468862D01*
X432887Y468773D01*
X432930Y468681D01*
X432969Y468588D01*
X433004Y468494D01*
X433036Y468399D01*
X433064Y468302D01*
X433088Y468204D01*
X433108Y468106D01*
X433125Y468006D01*
X433137Y467906D01*
X433146Y467806D01*
X433151Y467706D01*
X433152Y467605D01*
X433149Y467504D01*
X433142Y467404D01*
X433131Y467304D01*
X433117Y467204D01*
X433098Y467105D01*
X433076Y467007D01*
X433050Y466910D01*
X433020Y466813D01*
X432987Y466719D01*
X432950Y466625D01*
X432909Y466533D01*
X432864Y466442D01*
X432817Y466354D01*
X432765Y466267D01*
X432711Y466183D01*
X432653Y466100D01*
X432592Y466020D01*
X432528Y465942D01*
X432461Y465867D01*
X432392Y465794D01*
X432319Y465725D01*
X432244Y465658D01*
X432166Y465594D01*
X432086Y465533D01*
X432003Y465475D01*
X431919Y465421D01*
X431832Y465369D01*
X431744Y465322D01*
X431653Y465277D01*
X431561Y465236D01*
X431467Y465199D01*
X431373Y465166D01*
X431276Y465136D01*
X431179Y465110D01*
X431081Y465088D01*
X430982Y465069D01*
X430882Y465055D01*
X430782Y465044D01*
X430682Y465037D01*
X430581Y465034D01*
X430480Y465035D01*
X430380Y465040D01*
X430280Y465049D01*
X430180Y465061D01*
X430080Y465078D01*
X429982Y465098D01*
X429884Y465122D01*
X429787Y465150D01*
X429692Y465182D01*
X429598Y465217D01*
X429505Y465256D01*
X429413Y465299D01*
X429324Y465345D01*
X429236Y465394D01*
X429151Y465447D01*
X429067Y465503D01*
X426940Y466993D01*
X497242Y334770D02*
X497242Y331524D01*
X497242Y334770D02*
X497240Y334883D01*
X497234Y334996D01*
X497224Y335109D01*
X497210Y335222D01*
X497193Y335334D01*
X497171Y335445D01*
X497146Y335555D01*
X497116Y335665D01*
X497083Y335773D01*
X497046Y335880D01*
X497006Y335986D01*
X496961Y336090D01*
X496913Y336193D01*
X496862Y336294D01*
X496807Y336393D01*
X496749Y336490D01*
X496687Y336585D01*
X496622Y336678D01*
X496554Y336768D01*
X496483Y336856D01*
X496408Y336942D01*
X496331Y337025D01*
X496251Y337105D01*
X496168Y337182D01*
X496082Y337257D01*
X495994Y337328D01*
X495904Y337396D01*
X495811Y337461D01*
X495716Y337523D01*
X495619Y337581D01*
X495520Y337636D01*
X495419Y337687D01*
X495316Y337735D01*
X495212Y337780D01*
X495106Y337820D01*
X494999Y337857D01*
X494891Y337890D01*
X494781Y337920D01*
X494671Y337945D01*
X494560Y337967D01*
X494448Y337984D01*
X494335Y337998D01*
X494222Y338008D01*
X494109Y338014D01*
X493996Y338016D01*
X493883Y338014D01*
X493770Y338008D01*
X493657Y337998D01*
X493544Y337984D01*
X493432Y337967D01*
X493321Y337945D01*
X493211Y337920D01*
X493101Y337890D01*
X492993Y337857D01*
X492886Y337820D01*
X492780Y337780D01*
X492676Y337735D01*
X492573Y337687D01*
X492472Y337636D01*
X492373Y337581D01*
X492276Y337523D01*
X492181Y337461D01*
X492088Y337396D01*
X491998Y337328D01*
X491910Y337257D01*
X491824Y337182D01*
X491741Y337105D01*
X491661Y337025D01*
X491584Y336942D01*
X491509Y336856D01*
X491438Y336768D01*
X491370Y336678D01*
X491305Y336585D01*
X491243Y336490D01*
X491185Y336393D01*
X491130Y336294D01*
X491079Y336193D01*
X491031Y336090D01*
X490986Y335986D01*
X490946Y335880D01*
X490909Y335773D01*
X490876Y335665D01*
X490846Y335555D01*
X490821Y335445D01*
X490799Y335334D01*
X490782Y335222D01*
X490768Y335109D01*
X490758Y334996D01*
X490752Y334883D01*
X490750Y334770D01*
X485558Y335419D02*
X485558Y331524D01*
X485558Y335419D02*
X485560Y335520D01*
X485566Y335620D01*
X485576Y335720D01*
X485589Y335820D01*
X485607Y335919D01*
X485628Y336018D01*
X485653Y336115D01*
X485682Y336212D01*
X485715Y336307D01*
X485751Y336401D01*
X485791Y336493D01*
X485834Y336584D01*
X485881Y336673D01*
X485931Y336760D01*
X485985Y336846D01*
X486042Y336929D01*
X486102Y337009D01*
X486165Y337088D01*
X486232Y337164D01*
X486301Y337237D01*
X486373Y337307D01*
X486447Y337375D01*
X486524Y337440D01*
X486604Y337501D01*
X486686Y337560D01*
X486770Y337615D01*
X486856Y337667D01*
X486944Y337716D01*
X487034Y337761D01*
X487126Y337803D01*
X487219Y337841D01*
X487314Y337875D01*
X487409Y337906D01*
X487506Y337933D01*
X487604Y337956D01*
X487703Y337976D01*
X487803Y337991D01*
X487903Y338003D01*
X488003Y338011D01*
X488104Y338015D01*
X488204Y338015D01*
X488305Y338011D01*
X488405Y338003D01*
X488505Y337991D01*
X488605Y337976D01*
X488704Y337956D01*
X488802Y337933D01*
X488899Y337906D01*
X488994Y337875D01*
X489089Y337841D01*
X489182Y337803D01*
X489274Y337761D01*
X489364Y337716D01*
X489452Y337667D01*
X489538Y337615D01*
X489622Y337560D01*
X489704Y337501D01*
X489784Y337440D01*
X489861Y337375D01*
X489935Y337307D01*
X490007Y337237D01*
X490076Y337164D01*
X490143Y337088D01*
X490206Y337009D01*
X490266Y336929D01*
X490323Y336846D01*
X490377Y336760D01*
X490427Y336673D01*
X490474Y336584D01*
X490517Y336493D01*
X490557Y336401D01*
X490593Y336307D01*
X490626Y336212D01*
X490655Y336115D01*
X490680Y336018D01*
X490701Y335919D01*
X490719Y335820D01*
X490732Y335720D01*
X490742Y335620D01*
X490748Y335520D01*
X490750Y335419D01*
X490751Y335419D02*
X490751Y332823D01*
X485558Y342305D02*
X497242Y346200D01*
X485558Y350095D01*
X497242Y354384D02*
X497242Y357630D01*
X497240Y357743D01*
X497234Y357856D01*
X497224Y357969D01*
X497210Y358082D01*
X497193Y358194D01*
X497171Y358305D01*
X497146Y358415D01*
X497116Y358525D01*
X497083Y358633D01*
X497046Y358740D01*
X497006Y358846D01*
X496961Y358950D01*
X496913Y359053D01*
X496862Y359154D01*
X496807Y359253D01*
X496749Y359350D01*
X496687Y359445D01*
X496622Y359538D01*
X496554Y359628D01*
X496483Y359716D01*
X496408Y359802D01*
X496331Y359885D01*
X496251Y359965D01*
X496168Y360042D01*
X496082Y360117D01*
X495994Y360188D01*
X495904Y360256D01*
X495811Y360321D01*
X495716Y360383D01*
X495619Y360441D01*
X495520Y360496D01*
X495419Y360547D01*
X495316Y360595D01*
X495212Y360640D01*
X495106Y360680D01*
X494999Y360717D01*
X494891Y360750D01*
X494781Y360780D01*
X494671Y360805D01*
X494560Y360827D01*
X494448Y360844D01*
X494335Y360858D01*
X494222Y360868D01*
X494109Y360874D01*
X493996Y360876D01*
X493883Y360874D01*
X493770Y360868D01*
X493657Y360858D01*
X493544Y360844D01*
X493432Y360827D01*
X493321Y360805D01*
X493211Y360780D01*
X493101Y360750D01*
X492993Y360717D01*
X492886Y360680D01*
X492780Y360640D01*
X492676Y360595D01*
X492573Y360547D01*
X492472Y360496D01*
X492373Y360441D01*
X492276Y360383D01*
X492181Y360321D01*
X492088Y360256D01*
X491998Y360188D01*
X491910Y360117D01*
X491824Y360042D01*
X491741Y359965D01*
X491661Y359885D01*
X491584Y359802D01*
X491509Y359716D01*
X491438Y359628D01*
X491370Y359538D01*
X491305Y359445D01*
X491243Y359350D01*
X491185Y359253D01*
X491130Y359154D01*
X491079Y359053D01*
X491031Y358950D01*
X490986Y358846D01*
X490946Y358740D01*
X490909Y358633D01*
X490876Y358525D01*
X490846Y358415D01*
X490821Y358305D01*
X490799Y358194D01*
X490782Y358082D01*
X490768Y357969D01*
X490758Y357856D01*
X490752Y357743D01*
X490750Y357630D01*
X485558Y358279D02*
X485558Y354384D01*
X485558Y358279D02*
X485560Y358380D01*
X485566Y358480D01*
X485576Y358580D01*
X485589Y358680D01*
X485607Y358779D01*
X485628Y358878D01*
X485653Y358975D01*
X485682Y359072D01*
X485715Y359167D01*
X485751Y359261D01*
X485791Y359353D01*
X485834Y359444D01*
X485881Y359533D01*
X485931Y359620D01*
X485985Y359706D01*
X486042Y359789D01*
X486102Y359869D01*
X486165Y359948D01*
X486232Y360024D01*
X486301Y360097D01*
X486373Y360167D01*
X486447Y360235D01*
X486524Y360300D01*
X486604Y360361D01*
X486686Y360420D01*
X486770Y360475D01*
X486856Y360527D01*
X486944Y360576D01*
X487034Y360621D01*
X487126Y360663D01*
X487219Y360701D01*
X487314Y360735D01*
X487409Y360766D01*
X487506Y360793D01*
X487604Y360816D01*
X487703Y360836D01*
X487803Y360851D01*
X487903Y360863D01*
X488003Y360871D01*
X488104Y360875D01*
X488204Y360875D01*
X488305Y360871D01*
X488405Y360863D01*
X488505Y360851D01*
X488605Y360836D01*
X488704Y360816D01*
X488802Y360793D01*
X488899Y360766D01*
X488994Y360735D01*
X489089Y360701D01*
X489182Y360663D01*
X489274Y360621D01*
X489364Y360576D01*
X489452Y360527D01*
X489538Y360475D01*
X489622Y360420D01*
X489704Y360361D01*
X489784Y360300D01*
X489861Y360235D01*
X489935Y360167D01*
X490007Y360097D01*
X490076Y360024D01*
X490143Y359948D01*
X490206Y359869D01*
X490266Y359789D01*
X490323Y359706D01*
X490377Y359620D01*
X490427Y359533D01*
X490474Y359444D01*
X490517Y359353D01*
X490557Y359261D01*
X490593Y359167D01*
X490626Y359072D01*
X490655Y358975D01*
X490680Y358878D01*
X490701Y358779D01*
X490719Y358680D01*
X490732Y358580D01*
X490742Y358480D01*
X490748Y358380D01*
X490750Y358279D01*
X490751Y358279D02*
X490751Y355683D01*
X412788Y209159D02*
X410129Y207297D01*
X412788Y209158D02*
X412879Y209225D01*
X412969Y209294D01*
X413056Y209367D01*
X413140Y209443D01*
X413221Y209522D01*
X413300Y209603D01*
X413376Y209687D01*
X413449Y209774D01*
X413518Y209864D01*
X413585Y209955D01*
X413648Y210049D01*
X413708Y210145D01*
X413765Y210243D01*
X413818Y210343D01*
X413868Y210445D01*
X413914Y210549D01*
X413956Y210654D01*
X413995Y210760D01*
X414030Y210868D01*
X414061Y210977D01*
X414089Y211087D01*
X414112Y211198D01*
X414132Y211309D01*
X414148Y211421D01*
X414160Y211534D01*
X414168Y211647D01*
X414172Y211760D01*
X414172Y211874D01*
X414168Y211987D01*
X414160Y212100D01*
X414148Y212213D01*
X414132Y212325D01*
X414112Y212436D01*
X414089Y212547D01*
X414061Y212657D01*
X414030Y212766D01*
X413995Y212874D01*
X413956Y212980D01*
X413914Y213085D01*
X413868Y213189D01*
X413818Y213291D01*
X413765Y213391D01*
X413708Y213489D01*
X413648Y213585D01*
X413585Y213679D01*
X413518Y213770D01*
X413449Y213860D01*
X413376Y213947D01*
X413300Y214031D01*
X413221Y214112D01*
X413140Y214191D01*
X413056Y214267D01*
X412969Y214340D01*
X412880Y214409D01*
X412788Y214476D01*
X412694Y214539D01*
X412598Y214599D01*
X412500Y214656D01*
X412400Y214709D01*
X412298Y214759D01*
X412194Y214805D01*
X412089Y214847D01*
X411983Y214886D01*
X411875Y214921D01*
X411766Y214952D01*
X411656Y214980D01*
X411545Y215003D01*
X411434Y215023D01*
X411322Y215039D01*
X411209Y215051D01*
X411096Y215059D01*
X410983Y215063D01*
X410869Y215063D01*
X410756Y215059D01*
X410643Y215051D01*
X410530Y215039D01*
X410418Y215023D01*
X410307Y215003D01*
X410196Y214980D01*
X410086Y214952D01*
X409977Y214921D01*
X409869Y214886D01*
X409763Y214847D01*
X409658Y214805D01*
X409554Y214759D01*
X409452Y214709D01*
X409352Y214656D01*
X409254Y214599D01*
X409158Y214539D01*
X409064Y214476D01*
X406618Y219102D02*
X403428Y216868D01*
X406618Y219102D02*
X406702Y219158D01*
X406787Y219211D01*
X406875Y219260D01*
X406964Y219306D01*
X407056Y219349D01*
X407149Y219388D01*
X407243Y219423D01*
X407338Y219455D01*
X407435Y219483D01*
X407533Y219507D01*
X407631Y219527D01*
X407731Y219544D01*
X407831Y219556D01*
X407931Y219565D01*
X408032Y219570D01*
X408132Y219571D01*
X408233Y219568D01*
X408333Y219561D01*
X408433Y219550D01*
X408533Y219536D01*
X408632Y219517D01*
X408730Y219495D01*
X408827Y219469D01*
X408924Y219439D01*
X409019Y219406D01*
X409112Y219369D01*
X409204Y219328D01*
X409295Y219283D01*
X409383Y219236D01*
X409470Y219184D01*
X409554Y219130D01*
X409637Y219072D01*
X409717Y219011D01*
X409795Y218947D01*
X409870Y218880D01*
X409943Y218811D01*
X410012Y218738D01*
X410079Y218663D01*
X410143Y218585D01*
X410204Y218505D01*
X410262Y218422D01*
X410316Y218338D01*
X410368Y218251D01*
X410415Y218163D01*
X410460Y218072D01*
X410501Y217980D01*
X410538Y217886D01*
X410571Y217792D01*
X410601Y217695D01*
X410627Y217598D01*
X410649Y217500D01*
X410668Y217401D01*
X410682Y217301D01*
X410693Y217201D01*
X410700Y217101D01*
X410703Y217000D01*
X410702Y216900D01*
X410697Y216799D01*
X410688Y216699D01*
X410676Y216599D01*
X410659Y216499D01*
X410639Y216401D01*
X410615Y216303D01*
X410587Y216206D01*
X410555Y216111D01*
X410520Y216017D01*
X410481Y215924D01*
X410438Y215832D01*
X410392Y215743D01*
X410343Y215655D01*
X410290Y215570D01*
X410234Y215486D01*
X410174Y215405D01*
X410112Y215326D01*
X410046Y215249D01*
X409978Y215175D01*
X409907Y215104D01*
X409833Y215036D01*
X409756Y214970D01*
X409677Y214908D01*
X409596Y214848D01*
X407470Y213359D01*
X412259Y223052D02*
X422151Y215714D01*
X418639Y227519D01*
X428855Y220409D02*
X431514Y222270D01*
X431605Y222337D01*
X431695Y222406D01*
X431782Y222479D01*
X431866Y222555D01*
X431947Y222634D01*
X432026Y222715D01*
X432102Y222799D01*
X432175Y222886D01*
X432244Y222976D01*
X432311Y223067D01*
X432374Y223161D01*
X432434Y223257D01*
X432491Y223355D01*
X432544Y223455D01*
X432594Y223557D01*
X432640Y223661D01*
X432682Y223766D01*
X432721Y223872D01*
X432756Y223980D01*
X432787Y224089D01*
X432815Y224199D01*
X432838Y224310D01*
X432858Y224421D01*
X432874Y224533D01*
X432886Y224646D01*
X432894Y224759D01*
X432898Y224872D01*
X432898Y224986D01*
X432894Y225099D01*
X432886Y225212D01*
X432874Y225325D01*
X432858Y225437D01*
X432838Y225548D01*
X432815Y225659D01*
X432787Y225769D01*
X432756Y225878D01*
X432721Y225986D01*
X432682Y226092D01*
X432640Y226197D01*
X432594Y226301D01*
X432544Y226403D01*
X432491Y226503D01*
X432434Y226601D01*
X432374Y226697D01*
X432311Y226791D01*
X432244Y226882D01*
X432175Y226972D01*
X432102Y227059D01*
X432026Y227143D01*
X431947Y227224D01*
X431866Y227303D01*
X431782Y227379D01*
X431695Y227452D01*
X431606Y227521D01*
X431514Y227588D01*
X431420Y227651D01*
X431324Y227711D01*
X431226Y227768D01*
X431126Y227821D01*
X431024Y227871D01*
X430920Y227917D01*
X430815Y227959D01*
X430709Y227998D01*
X430601Y228033D01*
X430492Y228064D01*
X430382Y228092D01*
X430271Y228115D01*
X430160Y228135D01*
X430048Y228151D01*
X429935Y228163D01*
X429822Y228171D01*
X429709Y228175D01*
X429595Y228175D01*
X429482Y228171D01*
X429369Y228163D01*
X429256Y228151D01*
X429144Y228135D01*
X429033Y228115D01*
X428922Y228092D01*
X428812Y228064D01*
X428703Y228033D01*
X428595Y227998D01*
X428489Y227959D01*
X428384Y227917D01*
X428280Y227871D01*
X428178Y227821D01*
X428078Y227768D01*
X427980Y227711D01*
X427884Y227651D01*
X427790Y227588D01*
X425344Y232214D02*
X422153Y229980D01*
X425344Y232214D02*
X425428Y232270D01*
X425513Y232323D01*
X425601Y232372D01*
X425690Y232418D01*
X425782Y232461D01*
X425875Y232500D01*
X425969Y232535D01*
X426064Y232567D01*
X426161Y232595D01*
X426259Y232619D01*
X426357Y232639D01*
X426457Y232656D01*
X426557Y232668D01*
X426657Y232677D01*
X426758Y232682D01*
X426858Y232683D01*
X426959Y232680D01*
X427059Y232673D01*
X427159Y232662D01*
X427259Y232648D01*
X427358Y232629D01*
X427456Y232607D01*
X427553Y232581D01*
X427650Y232551D01*
X427745Y232518D01*
X427838Y232481D01*
X427930Y232440D01*
X428021Y232395D01*
X428109Y232348D01*
X428196Y232296D01*
X428280Y232242D01*
X428363Y232184D01*
X428443Y232123D01*
X428521Y232059D01*
X428596Y231992D01*
X428669Y231923D01*
X428738Y231850D01*
X428805Y231775D01*
X428869Y231697D01*
X428930Y231617D01*
X428988Y231534D01*
X429042Y231450D01*
X429094Y231363D01*
X429141Y231275D01*
X429186Y231184D01*
X429227Y231092D01*
X429264Y230998D01*
X429297Y230904D01*
X429327Y230807D01*
X429353Y230710D01*
X429375Y230612D01*
X429394Y230513D01*
X429408Y230413D01*
X429419Y230313D01*
X429426Y230213D01*
X429429Y230112D01*
X429428Y230012D01*
X429423Y229911D01*
X429414Y229811D01*
X429402Y229711D01*
X429385Y229611D01*
X429365Y229513D01*
X429341Y229415D01*
X429313Y229318D01*
X429281Y229223D01*
X429246Y229129D01*
X429207Y229036D01*
X429164Y228944D01*
X429118Y228855D01*
X429069Y228767D01*
X429016Y228682D01*
X428960Y228598D01*
X428900Y228517D01*
X428838Y228438D01*
X428772Y228361D01*
X428704Y228287D01*
X428633Y228216D01*
X428559Y228148D01*
X428482Y228082D01*
X428403Y228020D01*
X428322Y227960D01*
X426195Y226471D01*
X206842Y331524D02*
X206842Y334770D01*
X206840Y334883D01*
X206834Y334996D01*
X206824Y335109D01*
X206810Y335222D01*
X206793Y335334D01*
X206771Y335445D01*
X206746Y335555D01*
X206716Y335665D01*
X206683Y335773D01*
X206646Y335880D01*
X206606Y335986D01*
X206561Y336090D01*
X206513Y336193D01*
X206462Y336294D01*
X206407Y336393D01*
X206349Y336490D01*
X206287Y336585D01*
X206222Y336678D01*
X206154Y336768D01*
X206083Y336856D01*
X206008Y336942D01*
X205931Y337025D01*
X205851Y337105D01*
X205768Y337182D01*
X205682Y337257D01*
X205594Y337328D01*
X205504Y337396D01*
X205411Y337461D01*
X205316Y337523D01*
X205219Y337581D01*
X205120Y337636D01*
X205019Y337687D01*
X204916Y337735D01*
X204812Y337780D01*
X204706Y337820D01*
X204599Y337857D01*
X204491Y337890D01*
X204381Y337920D01*
X204271Y337945D01*
X204160Y337967D01*
X204048Y337984D01*
X203935Y337998D01*
X203822Y338008D01*
X203709Y338014D01*
X203596Y338016D01*
X203483Y338014D01*
X203370Y338008D01*
X203257Y337998D01*
X203144Y337984D01*
X203032Y337967D01*
X202921Y337945D01*
X202811Y337920D01*
X202701Y337890D01*
X202593Y337857D01*
X202486Y337820D01*
X202380Y337780D01*
X202276Y337735D01*
X202173Y337687D01*
X202072Y337636D01*
X201973Y337581D01*
X201876Y337523D01*
X201781Y337461D01*
X201688Y337396D01*
X201598Y337328D01*
X201510Y337257D01*
X201424Y337182D01*
X201341Y337105D01*
X201261Y337025D01*
X201184Y336942D01*
X201109Y336856D01*
X201038Y336768D01*
X200970Y336678D01*
X200905Y336585D01*
X200843Y336490D01*
X200785Y336393D01*
X200730Y336294D01*
X200679Y336193D01*
X200631Y336090D01*
X200586Y335986D01*
X200546Y335880D01*
X200509Y335773D01*
X200476Y335665D01*
X200446Y335555D01*
X200421Y335445D01*
X200399Y335334D01*
X200382Y335222D01*
X200368Y335109D01*
X200358Y334996D01*
X200352Y334883D01*
X200350Y334770D01*
X195158Y335419D02*
X195158Y331524D01*
X195158Y335419D02*
X195160Y335520D01*
X195166Y335620D01*
X195176Y335720D01*
X195189Y335820D01*
X195207Y335919D01*
X195228Y336018D01*
X195253Y336115D01*
X195282Y336212D01*
X195315Y336307D01*
X195351Y336401D01*
X195391Y336493D01*
X195434Y336584D01*
X195481Y336673D01*
X195531Y336760D01*
X195585Y336846D01*
X195642Y336929D01*
X195702Y337009D01*
X195765Y337088D01*
X195832Y337164D01*
X195901Y337237D01*
X195973Y337307D01*
X196047Y337375D01*
X196124Y337440D01*
X196204Y337501D01*
X196286Y337560D01*
X196370Y337615D01*
X196456Y337667D01*
X196544Y337716D01*
X196634Y337761D01*
X196726Y337803D01*
X196819Y337841D01*
X196914Y337875D01*
X197009Y337906D01*
X197106Y337933D01*
X197204Y337956D01*
X197303Y337976D01*
X197403Y337991D01*
X197503Y338003D01*
X197603Y338011D01*
X197704Y338015D01*
X197804Y338015D01*
X197905Y338011D01*
X198005Y338003D01*
X198105Y337991D01*
X198205Y337976D01*
X198304Y337956D01*
X198402Y337933D01*
X198499Y337906D01*
X198594Y337875D01*
X198689Y337841D01*
X198782Y337803D01*
X198874Y337761D01*
X198964Y337716D01*
X199052Y337667D01*
X199138Y337615D01*
X199222Y337560D01*
X199304Y337501D01*
X199384Y337440D01*
X199461Y337375D01*
X199535Y337307D01*
X199607Y337237D01*
X199676Y337164D01*
X199743Y337088D01*
X199806Y337009D01*
X199866Y336929D01*
X199923Y336846D01*
X199977Y336760D01*
X200027Y336673D01*
X200074Y336584D01*
X200117Y336493D01*
X200157Y336401D01*
X200193Y336307D01*
X200226Y336212D01*
X200255Y336115D01*
X200280Y336018D01*
X200301Y335919D01*
X200319Y335820D01*
X200332Y335720D01*
X200342Y335620D01*
X200348Y335520D01*
X200350Y335419D01*
X200351Y335419D02*
X200351Y332823D01*
X195158Y342305D02*
X206842Y346200D01*
X195158Y350095D01*
X206842Y354384D02*
X206842Y357630D01*
X206840Y357743D01*
X206834Y357856D01*
X206824Y357969D01*
X206810Y358082D01*
X206793Y358194D01*
X206771Y358305D01*
X206746Y358415D01*
X206716Y358525D01*
X206683Y358633D01*
X206646Y358740D01*
X206606Y358846D01*
X206561Y358950D01*
X206513Y359053D01*
X206462Y359154D01*
X206407Y359253D01*
X206349Y359350D01*
X206287Y359445D01*
X206222Y359538D01*
X206154Y359628D01*
X206083Y359716D01*
X206008Y359802D01*
X205931Y359885D01*
X205851Y359965D01*
X205768Y360042D01*
X205682Y360117D01*
X205594Y360188D01*
X205504Y360256D01*
X205411Y360321D01*
X205316Y360383D01*
X205219Y360441D01*
X205120Y360496D01*
X205019Y360547D01*
X204916Y360595D01*
X204812Y360640D01*
X204706Y360680D01*
X204599Y360717D01*
X204491Y360750D01*
X204381Y360780D01*
X204271Y360805D01*
X204160Y360827D01*
X204048Y360844D01*
X203935Y360858D01*
X203822Y360868D01*
X203709Y360874D01*
X203596Y360876D01*
X203483Y360874D01*
X203370Y360868D01*
X203257Y360858D01*
X203144Y360844D01*
X203032Y360827D01*
X202921Y360805D01*
X202811Y360780D01*
X202701Y360750D01*
X202593Y360717D01*
X202486Y360680D01*
X202380Y360640D01*
X202276Y360595D01*
X202173Y360547D01*
X202072Y360496D01*
X201973Y360441D01*
X201876Y360383D01*
X201781Y360321D01*
X201688Y360256D01*
X201598Y360188D01*
X201510Y360117D01*
X201424Y360042D01*
X201341Y359965D01*
X201261Y359885D01*
X201184Y359802D01*
X201109Y359716D01*
X201038Y359628D01*
X200970Y359538D01*
X200905Y359445D01*
X200843Y359350D01*
X200785Y359253D01*
X200730Y359154D01*
X200679Y359053D01*
X200631Y358950D01*
X200586Y358846D01*
X200546Y358740D01*
X200509Y358633D01*
X200476Y358525D01*
X200446Y358415D01*
X200421Y358305D01*
X200399Y358194D01*
X200382Y358082D01*
X200368Y357969D01*
X200358Y357856D01*
X200352Y357743D01*
X200350Y357630D01*
X195158Y358279D02*
X195158Y354384D01*
X195158Y358279D02*
X195160Y358380D01*
X195166Y358480D01*
X195176Y358580D01*
X195189Y358680D01*
X195207Y358779D01*
X195228Y358878D01*
X195253Y358975D01*
X195282Y359072D01*
X195315Y359167D01*
X195351Y359261D01*
X195391Y359353D01*
X195434Y359444D01*
X195481Y359533D01*
X195531Y359620D01*
X195585Y359706D01*
X195642Y359789D01*
X195702Y359869D01*
X195765Y359948D01*
X195832Y360024D01*
X195901Y360097D01*
X195973Y360167D01*
X196047Y360235D01*
X196124Y360300D01*
X196204Y360361D01*
X196286Y360420D01*
X196370Y360475D01*
X196456Y360527D01*
X196544Y360576D01*
X196634Y360621D01*
X196726Y360663D01*
X196819Y360701D01*
X196914Y360735D01*
X197009Y360766D01*
X197106Y360793D01*
X197204Y360816D01*
X197303Y360836D01*
X197403Y360851D01*
X197503Y360863D01*
X197603Y360871D01*
X197704Y360875D01*
X197804Y360875D01*
X197905Y360871D01*
X198005Y360863D01*
X198105Y360851D01*
X198205Y360836D01*
X198304Y360816D01*
X198402Y360793D01*
X198499Y360766D01*
X198594Y360735D01*
X198689Y360701D01*
X198782Y360663D01*
X198874Y360621D01*
X198964Y360576D01*
X199052Y360527D01*
X199138Y360475D01*
X199222Y360420D01*
X199304Y360361D01*
X199384Y360300D01*
X199461Y360235D01*
X199535Y360167D01*
X199607Y360097D01*
X199676Y360024D01*
X199743Y359948D01*
X199806Y359869D01*
X199866Y359789D01*
X199923Y359706D01*
X199977Y359620D01*
X200027Y359533D01*
X200074Y359444D01*
X200117Y359353D01*
X200157Y359261D01*
X200193Y359167D01*
X200226Y359072D01*
X200255Y358975D01*
X200280Y358878D01*
X200301Y358779D01*
X200319Y358680D01*
X200332Y358580D01*
X200342Y358480D01*
X200348Y358380D01*
X200350Y358279D01*
X200351Y358279D02*
X200351Y355683D01*
X264929Y458697D02*
X267588Y460559D01*
X267588Y460558D02*
X267679Y460625D01*
X267769Y460694D01*
X267856Y460767D01*
X267940Y460843D01*
X268021Y460922D01*
X268100Y461003D01*
X268176Y461087D01*
X268249Y461174D01*
X268318Y461264D01*
X268385Y461355D01*
X268448Y461449D01*
X268508Y461545D01*
X268565Y461643D01*
X268618Y461743D01*
X268668Y461845D01*
X268714Y461949D01*
X268756Y462054D01*
X268795Y462160D01*
X268830Y462268D01*
X268861Y462377D01*
X268889Y462487D01*
X268912Y462598D01*
X268932Y462709D01*
X268948Y462821D01*
X268960Y462934D01*
X268968Y463047D01*
X268972Y463160D01*
X268972Y463274D01*
X268968Y463387D01*
X268960Y463500D01*
X268948Y463613D01*
X268932Y463725D01*
X268912Y463836D01*
X268889Y463947D01*
X268861Y464057D01*
X268830Y464166D01*
X268795Y464274D01*
X268756Y464380D01*
X268714Y464485D01*
X268668Y464589D01*
X268618Y464691D01*
X268565Y464791D01*
X268508Y464889D01*
X268448Y464985D01*
X268385Y465079D01*
X268318Y465170D01*
X268249Y465260D01*
X268176Y465347D01*
X268100Y465431D01*
X268021Y465512D01*
X267940Y465591D01*
X267856Y465667D01*
X267769Y465740D01*
X267680Y465809D01*
X267588Y465876D01*
X267494Y465939D01*
X267398Y465999D01*
X267300Y466056D01*
X267200Y466109D01*
X267098Y466159D01*
X266994Y466205D01*
X266889Y466247D01*
X266783Y466286D01*
X266675Y466321D01*
X266566Y466352D01*
X266456Y466380D01*
X266345Y466403D01*
X266234Y466423D01*
X266122Y466439D01*
X266009Y466451D01*
X265896Y466459D01*
X265783Y466463D01*
X265669Y466463D01*
X265556Y466459D01*
X265443Y466451D01*
X265330Y466439D01*
X265218Y466423D01*
X265107Y466403D01*
X264996Y466380D01*
X264886Y466352D01*
X264777Y466321D01*
X264669Y466286D01*
X264563Y466247D01*
X264458Y466205D01*
X264354Y466159D01*
X264252Y466109D01*
X264152Y466056D01*
X264054Y465999D01*
X263958Y465939D01*
X263864Y465876D01*
X261418Y470502D02*
X258228Y468268D01*
X261418Y470502D02*
X261502Y470558D01*
X261587Y470611D01*
X261675Y470660D01*
X261764Y470706D01*
X261856Y470749D01*
X261949Y470788D01*
X262043Y470823D01*
X262138Y470855D01*
X262235Y470883D01*
X262333Y470907D01*
X262431Y470927D01*
X262531Y470944D01*
X262631Y470956D01*
X262731Y470965D01*
X262832Y470970D01*
X262932Y470971D01*
X263033Y470968D01*
X263133Y470961D01*
X263233Y470950D01*
X263333Y470936D01*
X263432Y470917D01*
X263530Y470895D01*
X263627Y470869D01*
X263724Y470839D01*
X263819Y470806D01*
X263912Y470769D01*
X264004Y470728D01*
X264095Y470683D01*
X264183Y470636D01*
X264270Y470584D01*
X264354Y470530D01*
X264437Y470472D01*
X264517Y470411D01*
X264595Y470347D01*
X264670Y470280D01*
X264743Y470211D01*
X264812Y470138D01*
X264879Y470063D01*
X264943Y469985D01*
X265004Y469905D01*
X265062Y469822D01*
X265116Y469738D01*
X265168Y469651D01*
X265215Y469563D01*
X265260Y469472D01*
X265301Y469380D01*
X265338Y469286D01*
X265371Y469192D01*
X265401Y469095D01*
X265427Y468998D01*
X265449Y468900D01*
X265468Y468801D01*
X265482Y468701D01*
X265493Y468601D01*
X265500Y468501D01*
X265503Y468400D01*
X265502Y468300D01*
X265497Y468199D01*
X265488Y468099D01*
X265476Y467999D01*
X265459Y467899D01*
X265439Y467801D01*
X265415Y467703D01*
X265387Y467606D01*
X265355Y467511D01*
X265320Y467417D01*
X265281Y467324D01*
X265238Y467232D01*
X265192Y467143D01*
X265143Y467055D01*
X265090Y466970D01*
X265034Y466886D01*
X264974Y466805D01*
X264912Y466726D01*
X264846Y466649D01*
X264778Y466575D01*
X264707Y466504D01*
X264633Y466436D01*
X264556Y466370D01*
X264477Y466308D01*
X264396Y466248D01*
X262270Y464759D01*
X267059Y474452D02*
X276951Y467114D01*
X273439Y478919D01*
X283655Y471809D02*
X286314Y473670D01*
X286405Y473737D01*
X286495Y473806D01*
X286582Y473879D01*
X286666Y473955D01*
X286747Y474034D01*
X286826Y474115D01*
X286902Y474199D01*
X286975Y474286D01*
X287044Y474376D01*
X287111Y474467D01*
X287174Y474561D01*
X287234Y474657D01*
X287291Y474755D01*
X287344Y474855D01*
X287394Y474957D01*
X287440Y475061D01*
X287482Y475166D01*
X287521Y475272D01*
X287556Y475380D01*
X287587Y475489D01*
X287615Y475599D01*
X287638Y475710D01*
X287658Y475821D01*
X287674Y475933D01*
X287686Y476046D01*
X287694Y476159D01*
X287698Y476272D01*
X287698Y476386D01*
X287694Y476499D01*
X287686Y476612D01*
X287674Y476725D01*
X287658Y476837D01*
X287638Y476948D01*
X287615Y477059D01*
X287587Y477169D01*
X287556Y477278D01*
X287521Y477386D01*
X287482Y477492D01*
X287440Y477597D01*
X287394Y477701D01*
X287344Y477803D01*
X287291Y477903D01*
X287234Y478001D01*
X287174Y478097D01*
X287111Y478191D01*
X287044Y478282D01*
X286975Y478372D01*
X286902Y478459D01*
X286826Y478543D01*
X286747Y478624D01*
X286666Y478703D01*
X286582Y478779D01*
X286495Y478852D01*
X286406Y478921D01*
X286314Y478988D01*
X286220Y479051D01*
X286124Y479111D01*
X286026Y479168D01*
X285926Y479221D01*
X285824Y479271D01*
X285720Y479317D01*
X285615Y479359D01*
X285509Y479398D01*
X285401Y479433D01*
X285292Y479464D01*
X285182Y479492D01*
X285071Y479515D01*
X284960Y479535D01*
X284848Y479551D01*
X284735Y479563D01*
X284622Y479571D01*
X284509Y479575D01*
X284395Y479575D01*
X284282Y479571D01*
X284169Y479563D01*
X284056Y479551D01*
X283944Y479535D01*
X283833Y479515D01*
X283722Y479492D01*
X283612Y479464D01*
X283503Y479433D01*
X283395Y479398D01*
X283289Y479359D01*
X283184Y479317D01*
X283080Y479271D01*
X282978Y479221D01*
X282878Y479168D01*
X282780Y479111D01*
X282684Y479051D01*
X282590Y478988D01*
X280144Y483614D02*
X276953Y481380D01*
X280144Y483614D02*
X280228Y483670D01*
X280313Y483723D01*
X280401Y483772D01*
X280490Y483818D01*
X280582Y483861D01*
X280675Y483900D01*
X280769Y483935D01*
X280864Y483967D01*
X280961Y483995D01*
X281059Y484019D01*
X281157Y484039D01*
X281257Y484056D01*
X281357Y484068D01*
X281457Y484077D01*
X281558Y484082D01*
X281658Y484083D01*
X281759Y484080D01*
X281859Y484073D01*
X281959Y484062D01*
X282059Y484048D01*
X282158Y484029D01*
X282256Y484007D01*
X282353Y483981D01*
X282450Y483951D01*
X282545Y483918D01*
X282638Y483881D01*
X282730Y483840D01*
X282821Y483795D01*
X282909Y483748D01*
X282996Y483696D01*
X283080Y483642D01*
X283163Y483584D01*
X283243Y483523D01*
X283321Y483459D01*
X283396Y483392D01*
X283469Y483323D01*
X283538Y483250D01*
X283605Y483175D01*
X283669Y483097D01*
X283730Y483017D01*
X283788Y482934D01*
X283842Y482850D01*
X283894Y482763D01*
X283941Y482675D01*
X283986Y482584D01*
X284027Y482492D01*
X284064Y482398D01*
X284097Y482304D01*
X284127Y482207D01*
X284153Y482110D01*
X284175Y482012D01*
X284194Y481913D01*
X284208Y481813D01*
X284219Y481713D01*
X284226Y481613D01*
X284229Y481512D01*
X284228Y481412D01*
X284223Y481311D01*
X284214Y481211D01*
X284202Y481111D01*
X284185Y481011D01*
X284165Y480913D01*
X284141Y480815D01*
X284113Y480718D01*
X284081Y480623D01*
X284046Y480529D01*
X284007Y480436D01*
X283964Y480344D01*
X283918Y480255D01*
X283869Y480167D01*
X283816Y480082D01*
X283760Y479998D01*
X283700Y479917D01*
X283638Y479838D01*
X283572Y479761D01*
X283504Y479687D01*
X283433Y479616D01*
X283359Y479548D01*
X283282Y479482D01*
X283203Y479420D01*
X283122Y479360D01*
X280995Y477871D01*
X259918Y224072D02*
X262576Y222210D01*
X262670Y222147D01*
X262766Y222087D01*
X262864Y222030D01*
X262964Y221977D01*
X263066Y221927D01*
X263170Y221881D01*
X263275Y221839D01*
X263381Y221800D01*
X263489Y221765D01*
X263598Y221734D01*
X263708Y221706D01*
X263819Y221683D01*
X263930Y221663D01*
X264042Y221647D01*
X264155Y221635D01*
X264268Y221627D01*
X264381Y221623D01*
X264495Y221623D01*
X264608Y221627D01*
X264721Y221635D01*
X264834Y221647D01*
X264946Y221663D01*
X265057Y221683D01*
X265168Y221706D01*
X265278Y221734D01*
X265387Y221765D01*
X265495Y221800D01*
X265601Y221839D01*
X265706Y221881D01*
X265810Y221927D01*
X265912Y221977D01*
X266012Y222030D01*
X266110Y222087D01*
X266206Y222147D01*
X266300Y222210D01*
X266391Y222277D01*
X266481Y222346D01*
X266568Y222419D01*
X266652Y222495D01*
X266733Y222574D01*
X266812Y222655D01*
X266888Y222739D01*
X266961Y222826D01*
X267030Y222916D01*
X267097Y223007D01*
X267160Y223101D01*
X267220Y223197D01*
X267277Y223295D01*
X267330Y223395D01*
X267380Y223497D01*
X267426Y223601D01*
X267468Y223706D01*
X267507Y223812D01*
X267542Y223920D01*
X267573Y224029D01*
X267601Y224139D01*
X267624Y224250D01*
X267644Y224361D01*
X267660Y224473D01*
X267672Y224586D01*
X267680Y224699D01*
X267684Y224812D01*
X267684Y224926D01*
X267680Y225039D01*
X267672Y225152D01*
X267660Y225265D01*
X267644Y225377D01*
X267624Y225488D01*
X267601Y225599D01*
X267573Y225709D01*
X267542Y225818D01*
X267507Y225926D01*
X267468Y226032D01*
X267426Y226137D01*
X267380Y226241D01*
X267330Y226343D01*
X267277Y226443D01*
X267220Y226541D01*
X267160Y226637D01*
X267097Y226731D01*
X267030Y226822D01*
X266961Y226912D01*
X266888Y226999D01*
X266812Y227083D01*
X266733Y227164D01*
X266652Y227243D01*
X266568Y227319D01*
X266481Y227392D01*
X266392Y227461D01*
X266300Y227528D01*
X269810Y231409D02*
X266619Y233643D01*
X269809Y231409D02*
X269890Y231349D01*
X269969Y231287D01*
X270046Y231221D01*
X270120Y231153D01*
X270191Y231082D01*
X270259Y231008D01*
X270325Y230931D01*
X270387Y230852D01*
X270447Y230771D01*
X270503Y230687D01*
X270556Y230602D01*
X270605Y230514D01*
X270651Y230425D01*
X270694Y230333D01*
X270733Y230240D01*
X270768Y230146D01*
X270800Y230051D01*
X270828Y229954D01*
X270852Y229856D01*
X270872Y229758D01*
X270889Y229658D01*
X270901Y229558D01*
X270910Y229458D01*
X270915Y229358D01*
X270916Y229257D01*
X270913Y229156D01*
X270906Y229056D01*
X270895Y228956D01*
X270881Y228856D01*
X270862Y228757D01*
X270840Y228659D01*
X270814Y228562D01*
X270784Y228465D01*
X270751Y228371D01*
X270714Y228277D01*
X270673Y228185D01*
X270628Y228094D01*
X270581Y228006D01*
X270529Y227919D01*
X270475Y227835D01*
X270417Y227752D01*
X270356Y227672D01*
X270292Y227594D01*
X270225Y227519D01*
X270156Y227446D01*
X270083Y227377D01*
X270008Y227310D01*
X269930Y227246D01*
X269850Y227185D01*
X269767Y227127D01*
X269683Y227073D01*
X269596Y227021D01*
X269508Y226974D01*
X269417Y226929D01*
X269325Y226888D01*
X269231Y226851D01*
X269137Y226818D01*
X269040Y226788D01*
X268943Y226762D01*
X268845Y226740D01*
X268746Y226721D01*
X268646Y226707D01*
X268546Y226696D01*
X268446Y226689D01*
X268345Y226686D01*
X268244Y226687D01*
X268144Y226692D01*
X268044Y226701D01*
X267944Y226713D01*
X267844Y226730D01*
X267746Y226750D01*
X267648Y226774D01*
X267551Y226802D01*
X267456Y226834D01*
X267362Y226869D01*
X267269Y226908D01*
X267177Y226951D01*
X267088Y226997D01*
X267000Y227046D01*
X266915Y227099D01*
X266831Y227155D01*
X264704Y228645D01*
X275450Y227459D02*
X271939Y215654D01*
X281831Y222992D01*
X278643Y210960D02*
X281302Y209098D01*
X281396Y209035D01*
X281492Y208975D01*
X281590Y208918D01*
X281690Y208865D01*
X281792Y208815D01*
X281896Y208769D01*
X282001Y208727D01*
X282107Y208688D01*
X282215Y208653D01*
X282324Y208622D01*
X282434Y208594D01*
X282545Y208571D01*
X282656Y208551D01*
X282768Y208535D01*
X282881Y208523D01*
X282994Y208515D01*
X283107Y208511D01*
X283221Y208511D01*
X283334Y208515D01*
X283447Y208523D01*
X283560Y208535D01*
X283672Y208551D01*
X283783Y208571D01*
X283894Y208594D01*
X284004Y208622D01*
X284113Y208653D01*
X284221Y208688D01*
X284327Y208727D01*
X284432Y208769D01*
X284536Y208815D01*
X284638Y208865D01*
X284738Y208918D01*
X284836Y208975D01*
X284932Y209035D01*
X285026Y209098D01*
X285117Y209165D01*
X285207Y209234D01*
X285294Y209307D01*
X285378Y209383D01*
X285459Y209462D01*
X285538Y209543D01*
X285614Y209627D01*
X285687Y209714D01*
X285756Y209804D01*
X285823Y209895D01*
X285886Y209989D01*
X285946Y210085D01*
X286003Y210183D01*
X286056Y210283D01*
X286106Y210385D01*
X286152Y210489D01*
X286194Y210594D01*
X286233Y210700D01*
X286268Y210808D01*
X286299Y210917D01*
X286327Y211027D01*
X286350Y211138D01*
X286370Y211249D01*
X286386Y211361D01*
X286398Y211474D01*
X286406Y211587D01*
X286410Y211700D01*
X286410Y211814D01*
X286406Y211927D01*
X286398Y212040D01*
X286386Y212153D01*
X286370Y212265D01*
X286350Y212376D01*
X286327Y212487D01*
X286299Y212597D01*
X286268Y212706D01*
X286233Y212814D01*
X286194Y212920D01*
X286152Y213025D01*
X286106Y213129D01*
X286056Y213231D01*
X286003Y213331D01*
X285946Y213429D01*
X285886Y213525D01*
X285823Y213619D01*
X285756Y213710D01*
X285687Y213800D01*
X285614Y213887D01*
X285538Y213971D01*
X285459Y214052D01*
X285378Y214131D01*
X285294Y214207D01*
X285207Y214280D01*
X285118Y214349D01*
X285026Y214416D01*
X288535Y218297D02*
X285345Y220531D01*
X288535Y218297D02*
X288616Y218237D01*
X288695Y218175D01*
X288772Y218109D01*
X288846Y218041D01*
X288917Y217970D01*
X288985Y217896D01*
X289051Y217819D01*
X289113Y217740D01*
X289173Y217659D01*
X289229Y217575D01*
X289282Y217490D01*
X289331Y217402D01*
X289377Y217313D01*
X289420Y217221D01*
X289459Y217128D01*
X289494Y217034D01*
X289526Y216939D01*
X289554Y216842D01*
X289578Y216744D01*
X289598Y216646D01*
X289615Y216546D01*
X289627Y216446D01*
X289636Y216346D01*
X289641Y216246D01*
X289642Y216145D01*
X289639Y216044D01*
X289632Y215944D01*
X289621Y215844D01*
X289607Y215744D01*
X289588Y215645D01*
X289566Y215547D01*
X289540Y215450D01*
X289510Y215353D01*
X289477Y215259D01*
X289440Y215165D01*
X289399Y215073D01*
X289354Y214982D01*
X289307Y214894D01*
X289255Y214807D01*
X289201Y214723D01*
X289143Y214640D01*
X289082Y214560D01*
X289018Y214482D01*
X288951Y214407D01*
X288882Y214334D01*
X288809Y214265D01*
X288734Y214198D01*
X288656Y214134D01*
X288576Y214073D01*
X288493Y214015D01*
X288409Y213961D01*
X288322Y213909D01*
X288234Y213862D01*
X288143Y213817D01*
X288051Y213776D01*
X287957Y213739D01*
X287863Y213706D01*
X287766Y213676D01*
X287669Y213650D01*
X287571Y213628D01*
X287472Y213609D01*
X287372Y213595D01*
X287272Y213584D01*
X287172Y213577D01*
X287071Y213574D01*
X286970Y213575D01*
X286870Y213580D01*
X286770Y213589D01*
X286670Y213601D01*
X286570Y213618D01*
X286472Y213638D01*
X286374Y213662D01*
X286277Y213690D01*
X286182Y213722D01*
X286088Y213757D01*
X285995Y213796D01*
X285903Y213839D01*
X285814Y213885D01*
X285726Y213934D01*
X285641Y213987D01*
X285557Y214043D01*
X283430Y215533D01*
D11*
X237185Y332397D03*
D12*
X253949Y332397D03*
D13*
X236576Y332600D03*
D14*
X254356Y332600D03*
D15*
X236372Y332803D03*
D16*
X254559Y332803D03*
D17*
X236271Y333007D03*
D18*
X254660Y333007D03*
D19*
X236068Y333210D03*
D20*
X254864Y333210D03*
D21*
X235966Y333413D03*
D22*
X254965Y333413D03*
D23*
X235864Y333616D03*
D24*
X255067Y333616D03*
D25*
X235763Y333819D03*
D26*
X255168Y333819D03*
D27*
X235661Y334023D03*
D28*
X255270Y334023D03*
D29*
X235560Y334226D03*
D30*
X255372Y334226D03*
D29*
X235560Y334429D03*
D30*
X255372Y334429D03*
D31*
X235458Y334632D03*
D32*
X255473Y334632D03*
D31*
X235458Y334835D03*
D32*
X255473Y334835D03*
D31*
X235458Y335039D03*
D33*
X255575Y335039D03*
D34*
X235356Y335242D03*
D35*
X255676Y335242D03*
D36*
X235255Y335445D03*
D35*
X255676Y335445D03*
D37*
X235153Y335648D03*
D38*
X255778Y335648D03*
D37*
X235153Y335851D03*
D38*
X255778Y335851D03*
D39*
X235052Y336055D03*
D40*
X255880Y336055D03*
D39*
X235052Y336258D03*
D40*
X255880Y336258D03*
D41*
X234950Y336461D03*
D42*
X255981Y336461D03*
D41*
X234950Y336664D03*
D43*
X256083Y336664D03*
D44*
X234848Y336867D03*
D43*
X256083Y336867D03*
D45*
X234747Y337071D03*
D46*
X256184Y337071D03*
D45*
X234747Y337274D03*
D47*
X256286Y337274D03*
D48*
X234645Y337477D03*
D47*
X256286Y337477D03*
D48*
X234645Y337680D03*
D47*
X256286Y337680D03*
D49*
X234645Y337883D03*
D50*
X256388Y337883D03*
D49*
X234645Y338087D03*
D51*
X256489Y338087D03*
D52*
X234544Y338290D03*
D51*
X256489Y338290D03*
D53*
X234442Y338493D03*
D54*
X256591Y338493D03*
D55*
X234340Y338696D03*
D54*
X256591Y338696D03*
D55*
X234340Y338899D03*
D56*
X256692Y338899D03*
D57*
X234239Y339103D03*
D56*
X256692Y339103D03*
D57*
X234239Y339306D03*
D58*
X256794Y339306D03*
D57*
X234239Y339509D03*
D59*
X256896Y339509D03*
D60*
X234137Y339712D03*
D59*
X256896Y339712D03*
D60*
X234137Y339915D03*
D61*
X256997Y339915D03*
D62*
X234036Y340119D03*
D63*
X257099Y340119D03*
D64*
X233934Y340322D03*
D63*
X257099Y340322D03*
D64*
X233934Y340525D03*
D65*
X257200Y340525D03*
D66*
X233832Y340728D03*
D65*
X257200Y340728D03*
D66*
X233832Y340931D03*
D67*
X257302Y340931D03*
D68*
X233731Y341135D03*
D67*
X257302Y341135D03*
D69*
X233629Y341338D03*
D67*
X257302Y341338D03*
D70*
X233528Y341541D03*
D71*
X257404Y341541D03*
D70*
X233528Y341744D03*
D72*
X257505Y341744D03*
D73*
X233426Y341947D03*
D72*
X257505Y341947D03*
D73*
X233426Y342151D03*
D74*
X257607Y342151D03*
D73*
X233223Y342354D03*
D74*
X257607Y342354D03*
D73*
X233223Y342557D03*
D75*
X257708Y342557D03*
D76*
X233121Y342760D03*
D77*
X250393Y342760D03*
D78*
X264922Y342760D03*
D79*
X233020Y342963D03*
D80*
X250292Y342963D03*
D78*
X265125Y342963D03*
D79*
X233020Y343167D03*
D81*
X250088Y343167D03*
D82*
X265328Y343167D03*
D79*
X233020Y343370D03*
X249885Y343370D03*
D83*
X265532Y343370D03*
D84*
X232918Y343573D03*
D76*
X249784Y343573D03*
D77*
X265633Y343573D03*
D84*
X232918Y343776D03*
D73*
X249682Y343776D03*
D77*
X265836Y343776D03*
D81*
X232816Y343979D03*
D73*
X249682Y343979D03*
D80*
X265938Y343979D03*
D81*
X232816Y344183D03*
D70*
X249580Y344183D03*
D77*
X266040Y344183D03*
D85*
X232715Y344386D03*
D70*
X249580Y344386D03*
D80*
X266141Y344386D03*
X232613Y344589D03*
D70*
X249580Y344589D03*
D80*
X266344Y344589D03*
D77*
X232512Y344792D03*
D69*
X249479Y344792D03*
D80*
X266344Y344792D03*
D77*
X232512Y344995D03*
D86*
X249377Y344995D03*
D80*
X266344Y344995D03*
D83*
X232410Y345199D03*
D86*
X249377Y345199D03*
D77*
X266446Y345199D03*
D83*
X232410Y345402D03*
D86*
X249377Y345402D03*
D83*
X266548Y345402D03*
D87*
X232308Y345605D03*
D86*
X249377Y345605D03*
D83*
X266548Y345605D03*
D78*
X232207Y345808D03*
D86*
X249377Y345808D03*
D87*
X266649Y345808D03*
D78*
X232207Y346011D03*
D86*
X249377Y346011D03*
D78*
X266751Y346011D03*
D88*
X232105Y346215D03*
D86*
X249377Y346215D03*
D78*
X266751Y346215D03*
D88*
X232105Y346418D03*
D86*
X249377Y346418D03*
D88*
X266852Y346418D03*
D89*
X232004Y346621D03*
D86*
X249377Y346621D03*
D88*
X266852Y346621D03*
D89*
X232004Y346824D03*
D86*
X249377Y346824D03*
D89*
X266954Y346824D03*
X232004Y347027D03*
D86*
X249377Y347027D03*
D90*
X267056Y347027D03*
X231902Y347231D03*
D86*
X249377Y347231D03*
D90*
X267056Y347231D03*
D91*
X231800Y347434D03*
D86*
X249377Y347434D03*
D91*
X267157Y347434D03*
D17*
X301295Y347434D03*
X316738Y347434D03*
D92*
X333502Y347434D03*
D17*
X347218Y347434D03*
D15*
X361340Y347434D03*
D93*
X368859Y347434D03*
X388772Y347434D03*
D94*
X401879Y347434D03*
D17*
X420980Y347434D03*
X436016Y347434D03*
D95*
X459791Y347434D03*
D91*
X231800Y347637D03*
D86*
X249377Y347637D03*
D91*
X267157Y347637D03*
D17*
X301295Y347637D03*
D93*
X316636Y347637D03*
D96*
X333299Y347637D03*
D17*
X347218Y347637D03*
X361239Y347637D03*
D19*
X368960Y347637D03*
D93*
X388772Y347637D03*
D96*
X402387Y347637D03*
D93*
X421081Y347637D03*
D19*
X436016Y347637D03*
D97*
X459384Y347637D03*
D98*
X231699Y347840D03*
D86*
X249377Y347840D03*
D98*
X267259Y347840D03*
D17*
X301295Y347840D03*
D93*
X316636Y347840D03*
D99*
X333096Y347840D03*
D93*
X347320Y347840D03*
X361137Y347840D03*
D19*
X369164Y347840D03*
D93*
X388772Y347840D03*
D100*
X402793Y347840D03*
D93*
X421081Y347840D03*
D19*
X436016Y347840D03*
D101*
X459080Y347840D03*
D102*
X231597Y348043D03*
D86*
X249377Y348043D03*
D102*
X267360Y348043D03*
D17*
X301295Y348043D03*
D93*
X316636Y348043D03*
D103*
X332994Y348043D03*
D17*
X347421Y348043D03*
D93*
X360934Y348043D03*
X369062Y348043D03*
D104*
X388671Y348043D03*
D97*
X402895Y348043D03*
D93*
X421081Y348043D03*
D19*
X436016Y348043D03*
D105*
X458978Y348043D03*
D102*
X231597Y348247D03*
D86*
X249377Y348247D03*
D102*
X267360Y348247D03*
D17*
X301295Y348247D03*
D93*
X316636Y348247D03*
D100*
X332892Y348247D03*
D93*
X347523Y348247D03*
X360934Y348247D03*
D19*
X369164Y348247D03*
D104*
X388671Y348247D03*
D106*
X403098Y348247D03*
D93*
X421081Y348247D03*
D19*
X436016Y348247D03*
D107*
X458876Y348247D03*
D108*
X231496Y348450D03*
D86*
X249377Y348450D03*
D108*
X267462Y348450D03*
D17*
X301295Y348450D03*
D93*
X316636Y348450D03*
D97*
X332791Y348450D03*
D19*
X347624Y348450D03*
D93*
X360731Y348450D03*
D109*
X369265Y348450D03*
D93*
X388569Y348450D03*
D105*
X403301Y348450D03*
D93*
X421081Y348450D03*
D19*
X436016Y348450D03*
D110*
X458673Y348450D03*
D108*
X231496Y348653D03*
D86*
X249377Y348653D03*
D108*
X267462Y348653D03*
D17*
X301295Y348653D03*
D93*
X316636Y348653D03*
D111*
X332689Y348653D03*
D19*
X347828Y348653D03*
D17*
X360629Y348653D03*
D104*
X369367Y348653D03*
D93*
X388569Y348653D03*
D107*
X403403Y348653D03*
D93*
X421081Y348653D03*
D19*
X436016Y348653D03*
D112*
X458572Y348653D03*
D113*
X231394Y348856D03*
D86*
X249377Y348856D03*
D113*
X267564Y348856D03*
D17*
X301295Y348856D03*
D93*
X316636Y348856D03*
D106*
X332588Y348856D03*
D19*
X347828Y348856D03*
D93*
X360528Y348856D03*
D104*
X369367Y348856D03*
D19*
X388468Y348856D03*
D110*
X403606Y348856D03*
D93*
X421081Y348856D03*
D19*
X436016Y348856D03*
D114*
X458470Y348856D03*
D113*
X231394Y349059D03*
D86*
X249377Y349059D03*
D115*
X267665Y349059D03*
D17*
X301295Y349059D03*
D93*
X316636Y349059D03*
D101*
X332486Y349059D03*
D104*
X348031Y349059D03*
D93*
X360324Y349059D03*
D109*
X369468Y349059D03*
D93*
X388366Y349059D03*
D112*
X403708Y349059D03*
D93*
X421081Y349059D03*
D19*
X436016Y349059D03*
D12*
X458368Y349059D03*
D115*
X231292Y349263D03*
D86*
X249377Y349263D03*
D115*
X267665Y349263D03*
D17*
X301295Y349263D03*
D93*
X316636Y349263D03*
D105*
X332384Y349263D03*
D93*
X348132Y349263D03*
X360324Y349263D03*
D19*
X369570Y349263D03*
D93*
X388366Y349263D03*
D114*
X403809Y349263D03*
D93*
X421081Y349263D03*
D19*
X436016Y349263D03*
D12*
X458368Y349263D03*
D94*
X231191Y349466D03*
D86*
X249377Y349466D03*
D115*
X267665Y349466D03*
D17*
X301295Y349466D03*
D93*
X316636Y349466D03*
D107*
X332283Y349466D03*
D19*
X348234Y349466D03*
D104*
X360223Y349466D03*
D19*
X369570Y349466D03*
X388264Y349466D03*
D12*
X403911Y349466D03*
D93*
X421081Y349466D03*
D19*
X436016Y349466D03*
D116*
X458267Y349466D03*
D94*
X231191Y349669D03*
D86*
X249377Y349669D03*
D94*
X267767Y349669D03*
D17*
X301295Y349669D03*
D93*
X316636Y349669D03*
D107*
X332283Y349669D03*
D93*
X348336Y349669D03*
X360121Y349669D03*
D19*
X369570Y349669D03*
X388061Y349669D03*
D116*
X404012Y349669D03*
D93*
X421081Y349669D03*
D19*
X436016Y349669D03*
D117*
X458165Y349669D03*
D92*
X231089Y349872D03*
D86*
X249377Y349872D03*
D92*
X267868Y349872D03*
D17*
X301295Y349872D03*
D93*
X316636Y349872D03*
D118*
X332181Y349872D03*
D93*
X348336Y349872D03*
D19*
X360020Y349872D03*
X369773Y349872D03*
D93*
X388163Y349872D03*
D116*
X404012Y349872D03*
D93*
X421081Y349872D03*
D19*
X436016Y349872D03*
D117*
X458165Y349872D03*
D92*
X231089Y350075D03*
D86*
X249377Y350075D03*
D92*
X267868Y350075D03*
D17*
X301295Y350075D03*
D93*
X316636Y350075D03*
D118*
X332181Y350075D03*
D93*
X348539Y350075D03*
X359918Y350075D03*
X369875Y350075D03*
D19*
X388061Y350075D03*
D117*
X404114Y350075D03*
D93*
X421081Y350075D03*
D19*
X436016Y350075D03*
D117*
X458165Y350075D03*
D119*
X230988Y350279D03*
D86*
X249377Y350279D03*
D119*
X267970Y350279D03*
D17*
X301295Y350279D03*
D93*
X316636Y350279D03*
D118*
X332181Y350279D03*
D17*
X348640Y350279D03*
D93*
X359918Y350279D03*
X369875Y350279D03*
D21*
X387960Y350279D03*
D120*
X404216Y350279D03*
D93*
X421081Y350279D03*
D19*
X436016Y350279D03*
D120*
X458064Y350279D03*
D121*
X230886Y350482D03*
D86*
X249377Y350482D03*
D119*
X267970Y350482D03*
D17*
X301295Y350482D03*
D93*
X316636Y350482D03*
D110*
X332080Y350482D03*
D93*
X348742Y350482D03*
X359715Y350482D03*
D19*
X369976Y350482D03*
X387858Y350482D03*
D120*
X404216Y350482D03*
D93*
X421081Y350482D03*
D19*
X436016Y350482D03*
D120*
X458064Y350482D03*
D121*
X230886Y350685D03*
D86*
X249377Y350685D03*
D121*
X268072Y350685D03*
D17*
X301295Y350685D03*
D93*
X316636Y350685D03*
D110*
X332080Y350685D03*
D93*
X348945Y350685D03*
X359512Y350685D03*
X370078Y350685D03*
D19*
X387858Y350685D03*
D122*
X404317Y350685D03*
D93*
X421081Y350685D03*
D19*
X436016Y350685D03*
D120*
X458064Y350685D03*
D123*
X230784Y350888D03*
D86*
X249377Y350888D03*
D121*
X268072Y350888D03*
D17*
X301295Y350888D03*
D93*
X316636Y350888D03*
D110*
X332080Y350888D03*
D93*
X348945Y350888D03*
X359512Y350888D03*
X370078Y350888D03*
D109*
X387756Y350888D03*
D122*
X404317Y350888D03*
D93*
X421081Y350888D03*
D19*
X436016Y350888D03*
D120*
X458064Y350888D03*
D96*
X230683Y351091D03*
D86*
X249377Y351091D03*
D123*
X268173Y351091D03*
D17*
X301295Y351091D03*
D93*
X316636Y351091D03*
D110*
X332080Y351091D03*
D93*
X349148Y351091D03*
X359308Y351091D03*
D19*
X370180Y351091D03*
D104*
X387655Y351091D03*
D124*
X404419Y351091D03*
D93*
X421081Y351091D03*
D19*
X436016Y351091D03*
D120*
X458064Y351091D03*
D96*
X230683Y351295D03*
D86*
X249377Y351295D03*
D96*
X268275Y351295D03*
D17*
X301295Y351295D03*
D93*
X316636Y351295D03*
D110*
X332080Y351295D03*
D19*
X349250Y351295D03*
D104*
X359207Y351295D03*
D19*
X370180Y351295D03*
D104*
X387655Y351295D03*
D124*
X404419Y351295D03*
D93*
X421081Y351295D03*
D19*
X436016Y351295D03*
D120*
X458064Y351295D03*
D96*
X230683Y351498D03*
D86*
X249377Y351498D03*
D96*
X268275Y351498D03*
D17*
X301295Y351498D03*
D93*
X316636Y351498D03*
D110*
X332080Y351498D03*
D93*
X349352Y351498D03*
X359105Y351498D03*
X370281Y351498D03*
D104*
X387655Y351498D03*
D14*
X404520Y351498D03*
D93*
X421081Y351498D03*
D19*
X436016Y351498D03*
D120*
X458064Y351498D03*
D95*
X230581Y351701D03*
D86*
X249377Y351701D03*
D95*
X268376Y351701D03*
D17*
X301295Y351701D03*
D93*
X316636Y351701D03*
D110*
X332080Y351701D03*
D19*
X349453Y351701D03*
D93*
X358902Y351701D03*
X370281Y351701D03*
D19*
X387452Y351701D03*
D14*
X404520Y351701D03*
D93*
X421081Y351701D03*
D19*
X436016Y351701D03*
D120*
X458064Y351701D03*
D95*
X230581Y351904D03*
D86*
X249377Y351904D03*
D99*
X268478Y351904D03*
D17*
X301295Y351904D03*
D93*
X316636Y351904D03*
D118*
X331978Y351904D03*
D93*
X349555Y351904D03*
X358902Y351904D03*
D104*
X370383Y351904D03*
D93*
X387350Y351904D03*
D14*
X404520Y351904D03*
D93*
X421081Y351904D03*
D19*
X436016Y351904D03*
D120*
X458064Y351904D03*
D99*
X230480Y352107D03*
D86*
X249377Y352107D03*
D99*
X268478Y352107D03*
D17*
X301295Y352107D03*
D93*
X316636Y352107D03*
X325374Y352107D03*
X349758Y352107D03*
X358699Y352107D03*
X370484Y352107D03*
X387350Y352107D03*
X396900Y352107D03*
D23*
X411836Y352107D03*
D93*
X421081Y352107D03*
D19*
X436016Y352107D03*
D120*
X458064Y352107D03*
D103*
X230378Y352311D03*
D86*
X249377Y352311D03*
D103*
X268580Y352311D03*
D17*
X301295Y352311D03*
D93*
X316636Y352311D03*
X325374Y352311D03*
X349758Y352311D03*
X358699Y352311D03*
X370484Y352311D03*
D19*
X387248Y352311D03*
D93*
X396900Y352311D03*
D104*
X412039Y352311D03*
D93*
X421081Y352311D03*
D19*
X436016Y352311D03*
D23*
X451053Y352311D03*
D103*
X230378Y352514D03*
D86*
X249377Y352514D03*
D103*
X268580Y352514D03*
D17*
X301295Y352514D03*
D93*
X316636Y352514D03*
D17*
X325272Y352514D03*
D93*
X349961Y352514D03*
X358496Y352514D03*
D19*
X370586Y352514D03*
D93*
X387147Y352514D03*
X396900Y352514D03*
D19*
X412242Y352514D03*
D93*
X421081Y352514D03*
D19*
X436016Y352514D03*
D21*
X450952Y352514D03*
D100*
X230276Y352717D03*
D86*
X249377Y352717D03*
D100*
X268681Y352717D03*
D17*
X301295Y352717D03*
D93*
X316636Y352717D03*
D17*
X325272Y352717D03*
D93*
X349961Y352717D03*
X358496Y352717D03*
D19*
X370789Y352717D03*
D93*
X387147Y352717D03*
X396900Y352717D03*
X412344Y352717D03*
X421081Y352717D03*
D19*
X436016Y352717D03*
X450850Y352717D03*
D100*
X230276Y352920D03*
D86*
X249377Y352920D03*
D97*
X268783Y352920D03*
D17*
X301295Y352920D03*
D93*
X316636Y352920D03*
D17*
X325272Y352920D03*
D104*
X350063Y352920D03*
D19*
X358394Y352920D03*
D93*
X370688Y352920D03*
D19*
X387045Y352920D03*
D93*
X396900Y352920D03*
D17*
X412445Y352920D03*
D93*
X421081Y352920D03*
D19*
X436016Y352920D03*
D21*
X450952Y352920D03*
D97*
X230175Y353123D03*
D86*
X249377Y353123D03*
D97*
X268783Y353123D03*
D17*
X301295Y353123D03*
D93*
X316636Y353123D03*
D17*
X325272Y353123D03*
D19*
X350266Y353123D03*
D93*
X358292Y353123D03*
D19*
X370789Y353123D03*
X387045Y353123D03*
D93*
X396900Y353123D03*
D17*
X412445Y353123D03*
D93*
X421081Y353123D03*
D19*
X436016Y353123D03*
D23*
X451053Y353123D03*
D111*
X230073Y353327D03*
D66*
X249479Y353327D03*
D97*
X268783Y353327D03*
D17*
X301295Y353327D03*
D93*
X316636Y353327D03*
D17*
X325272Y353327D03*
D93*
X350368Y353327D03*
D104*
X358191Y353327D03*
D109*
X370891Y353327D03*
D93*
X386944Y353327D03*
X396900Y353327D03*
D17*
X412445Y353327D03*
D93*
X421081Y353327D03*
D19*
X436016Y353327D03*
D25*
X451155Y353327D03*
D111*
X230073Y353530D03*
D66*
X249479Y353530D03*
D111*
X268884Y353530D03*
D17*
X301295Y353530D03*
D93*
X316636Y353530D03*
D17*
X325272Y353530D03*
D93*
X350368Y353530D03*
D19*
X357988Y353530D03*
X370992Y353530D03*
D93*
X386944Y353530D03*
X396900Y353530D03*
D15*
X412547Y353530D03*
D93*
X421081Y353530D03*
D19*
X436016Y353530D03*
D27*
X451256Y353530D03*
D106*
X229972Y353733D03*
D66*
X249479Y353733D03*
D111*
X268884Y353733D03*
D17*
X301295Y353733D03*
D93*
X316636Y353733D03*
D17*
X325272Y353733D03*
D93*
X350571Y353733D03*
D19*
X357784Y353733D03*
X370992Y353733D03*
X386842Y353733D03*
D93*
X396900Y353733D03*
D15*
X412547Y353733D03*
D93*
X421081Y353733D03*
D19*
X436016Y353733D03*
D29*
X451358Y353733D03*
D101*
X229870Y353936D03*
D66*
X249479Y353936D03*
D106*
X268986Y353936D03*
D17*
X301295Y353936D03*
D93*
X316636Y353936D03*
D17*
X325272Y353936D03*
D93*
X350571Y353936D03*
D19*
X357784Y353936D03*
D21*
X371094Y353936D03*
D93*
X386740Y353936D03*
X396900Y353936D03*
D15*
X412750Y353936D03*
D93*
X421081Y353936D03*
D19*
X436016Y353936D03*
D29*
X451561Y353936D03*
D101*
X229870Y354139D03*
D66*
X249479Y354139D03*
D101*
X269088Y354139D03*
D17*
X301295Y354139D03*
D93*
X316636Y354139D03*
D17*
X325272Y354139D03*
D93*
X350774Y354139D03*
D19*
X357581Y354139D03*
X371196Y354139D03*
D93*
X386740Y354139D03*
X396900Y354139D03*
D15*
X412953Y354139D03*
D93*
X421081Y354139D03*
D19*
X436016Y354139D03*
D125*
X451663Y354139D03*
D105*
X229768Y354343D03*
D66*
X249479Y354343D03*
D101*
X269088Y354343D03*
D17*
X301295Y354343D03*
D93*
X316636Y354343D03*
D17*
X325272Y354343D03*
D19*
X350876Y354343D03*
X357581Y354343D03*
D16*
X378917Y354343D03*
D93*
X396900Y354343D03*
D17*
X412852Y354343D03*
D93*
X421081Y354343D03*
D19*
X436016Y354343D03*
D34*
X451764Y354343D03*
D105*
X229768Y354546D03*
D66*
X249479Y354546D03*
D105*
X269189Y354546D03*
D17*
X301295Y354546D03*
D93*
X316636Y354546D03*
D17*
X325272Y354546D03*
D93*
X350977Y354546D03*
X357480Y354546D03*
D126*
X378816Y354546D03*
D93*
X396900Y354546D03*
D17*
X412852Y354546D03*
D93*
X421081Y354546D03*
D19*
X436016Y354546D03*
D34*
X451968Y354546D03*
D107*
X229667Y354749D03*
D66*
X249479Y354749D03*
D107*
X269291Y354749D03*
D17*
X301295Y354749D03*
D93*
X316636Y354749D03*
D17*
X325272Y354749D03*
D104*
X351079Y354749D03*
D93*
X357276Y354749D03*
D14*
X378917Y354749D03*
D93*
X396900Y354749D03*
D17*
X412852Y354749D03*
D93*
X421081Y354749D03*
D19*
X436016Y354749D03*
D36*
X452069Y354749D03*
D107*
X229667Y354952D03*
D66*
X249479Y354952D03*
D107*
X269291Y354952D03*
D17*
X301295Y354952D03*
D93*
X316636Y354952D03*
D17*
X325272Y354952D03*
D93*
X351180Y354952D03*
X357276Y354952D03*
D124*
X379019Y354952D03*
D93*
X396900Y354952D03*
D17*
X412852Y354952D03*
D93*
X421081Y354952D03*
D19*
X436016Y354952D03*
D37*
X452374Y354952D03*
D107*
X229667Y355155D03*
D66*
X249479Y355155D03*
D118*
X269392Y355155D03*
D17*
X301295Y355155D03*
D93*
X316636Y355155D03*
D17*
X325272Y355155D03*
D93*
X351384Y355155D03*
X357073Y355155D03*
D124*
X379019Y355155D03*
D93*
X396900Y355155D03*
D17*
X412852Y355155D03*
D93*
X421081Y355155D03*
D19*
X436016Y355155D03*
D39*
X452476Y355155D03*
D118*
X229565Y355359D03*
D66*
X249479Y355359D03*
D118*
X269392Y355359D03*
D17*
X301295Y355359D03*
D93*
X316636Y355359D03*
D17*
X325272Y355359D03*
D70*
X354228Y355359D03*
D124*
X379019Y355359D03*
D93*
X396900Y355359D03*
D17*
X412852Y355359D03*
D93*
X421081Y355359D03*
D19*
X436016Y355359D03*
D127*
X452679Y355359D03*
D110*
X229464Y355562D03*
D66*
X249479Y355562D03*
D110*
X269494Y355562D03*
D17*
X301295Y355562D03*
D93*
X316636Y355562D03*
D17*
X325272Y355562D03*
D86*
X354228Y355562D03*
D128*
X379019Y355562D03*
D93*
X396900Y355562D03*
D17*
X412852Y355562D03*
D93*
X421081Y355562D03*
D19*
X436016Y355562D03*
D39*
X452882Y355562D03*
D110*
X229464Y355765D03*
D66*
X249479Y355765D03*
D112*
X269596Y355765D03*
D17*
X301295Y355765D03*
D93*
X316636Y355765D03*
D17*
X325272Y355765D03*
D86*
X354228Y355765D03*
D128*
X379019Y355765D03*
D93*
X396900Y355765D03*
D17*
X412852Y355765D03*
D93*
X421081Y355765D03*
D19*
X436016Y355765D03*
D39*
X453085Y355765D03*
D112*
X229362Y355968D03*
D66*
X249479Y355968D03*
D112*
X269596Y355968D03*
D17*
X301295Y355968D03*
D93*
X316636Y355968D03*
D17*
X325272Y355968D03*
D64*
X354228Y355968D03*
D128*
X379019Y355968D03*
D93*
X396900Y355968D03*
D17*
X412852Y355968D03*
D93*
X421081Y355968D03*
D19*
X436016Y355968D03*
D39*
X453288Y355968D03*
D114*
X229260Y356171D03*
D66*
X249479Y356171D03*
D114*
X269697Y356171D03*
D17*
X301295Y356171D03*
D93*
X316636Y356171D03*
D17*
X325272Y356171D03*
D62*
X354330Y356171D03*
D117*
X378917Y356171D03*
D93*
X396900Y356171D03*
D17*
X412852Y356171D03*
D93*
X421081Y356171D03*
D19*
X436016Y356171D03*
D39*
X453492Y356171D03*
D114*
X229260Y356375D03*
D66*
X249479Y356375D03*
D114*
X269697Y356375D03*
D17*
X301295Y356375D03*
D93*
X316636Y356375D03*
D17*
X325272Y356375D03*
D60*
X354228Y356375D03*
D116*
X379019Y356375D03*
D93*
X396900Y356375D03*
D15*
X412953Y356375D03*
D93*
X421081Y356375D03*
D19*
X436016Y356375D03*
D127*
X453695Y356375D03*
D12*
X229159Y356578D03*
D66*
X249479Y356578D03*
D114*
X269697Y356578D03*
D17*
X301295Y356578D03*
D93*
X316636Y356578D03*
D17*
X325272Y356578D03*
D60*
X354228Y356578D03*
D116*
X379019Y356578D03*
D93*
X396900Y356578D03*
D17*
X412852Y356578D03*
D93*
X421081Y356578D03*
D19*
X436016Y356578D03*
D39*
X453898Y356578D03*
D116*
X229057Y356781D03*
D66*
X249479Y356781D03*
D12*
X269799Y356781D03*
D17*
X301295Y356781D03*
D93*
X316636Y356781D03*
D17*
X325272Y356781D03*
D55*
X354228Y356781D03*
D12*
X378917Y356781D03*
D93*
X396900Y356781D03*
D17*
X412648Y356781D03*
D93*
X421081Y356781D03*
D19*
X436016Y356781D03*
D39*
X454101Y356781D03*
D116*
X229057Y356984D03*
D66*
X249479Y356984D03*
D12*
X269799Y356984D03*
D17*
X301295Y356984D03*
D93*
X316636Y356984D03*
D17*
X325272Y356984D03*
D55*
X354228Y356984D03*
D129*
X378917Y356984D03*
D93*
X396900Y356984D03*
D15*
X412547Y356984D03*
D93*
X421081Y356984D03*
D19*
X436016Y356984D03*
D39*
X454304Y356984D03*
D117*
X228956Y357187D03*
D66*
X249479Y357187D03*
D116*
X269900Y357187D03*
D17*
X301295Y357187D03*
D93*
X316636Y357187D03*
D17*
X325272Y357187D03*
D52*
X354228Y357187D03*
D129*
X378917Y357187D03*
D93*
X396900Y357187D03*
D17*
X412445Y357187D03*
D93*
X421081Y357187D03*
D19*
X436016Y357187D03*
D39*
X454508Y357187D03*
D117*
X228956Y357391D03*
D66*
X249479Y357391D03*
D117*
X270002Y357391D03*
D17*
X301295Y357391D03*
D93*
X316636Y357391D03*
D17*
X325272Y357391D03*
D52*
X354228Y357391D03*
D129*
X378917Y357391D03*
D93*
X396900Y357391D03*
X412344Y357391D03*
X421081Y357391D03*
D19*
X436016Y357391D03*
D127*
X454711Y357391D03*
D120*
X228854Y357594D03*
D66*
X249479Y357594D03*
D120*
X270104Y357594D03*
D17*
X301295Y357594D03*
D93*
X316636Y357594D03*
D17*
X325272Y357594D03*
D130*
X354228Y357594D03*
D131*
X379019Y357594D03*
D93*
X396900Y357594D03*
X412140Y357594D03*
X421081Y357594D03*
D19*
X436016Y357594D03*
D39*
X454914Y357594D03*
D120*
X228854Y357797D03*
X270104Y357797D03*
D93*
X301396Y357797D03*
X316636Y357797D03*
X325374Y357797D03*
D48*
X354127Y357797D03*
D118*
X378917Y357797D03*
D93*
X396900Y357797D03*
D104*
X412039Y357797D03*
D93*
X421081Y357797D03*
D19*
X436016Y357797D03*
D39*
X455117Y357797D03*
D122*
X228752Y358000D03*
X270205Y358000D03*
D19*
X301498Y358000D03*
D104*
X316535Y358000D03*
D19*
X325476Y358000D03*
D45*
X354228Y358000D03*
D118*
X378917Y358000D03*
D21*
X397104Y358000D03*
D27*
X411632Y358000D03*
D93*
X421081Y358000D03*
D19*
X436016Y358000D03*
D39*
X455320Y358000D03*
D124*
X228651Y358203D03*
D122*
X270205Y358203D03*
D21*
X301600Y358203D03*
D109*
X316433Y358203D03*
X325577Y358203D03*
D44*
X354127Y358203D03*
D107*
X379019Y358203D03*
D23*
X397205Y358203D03*
D132*
X411531Y358203D03*
D93*
X421081Y358203D03*
D19*
X436016Y358203D03*
D39*
X455524Y358203D03*
D124*
X228651Y358407D03*
X270307Y358407D03*
D14*
X309016Y358407D03*
D133*
X331673Y358407D03*
D134*
X354228Y358407D03*
D105*
X378917Y358407D03*
D124*
X404419Y358407D03*
D93*
X421081Y358407D03*
D19*
X436016Y358407D03*
D127*
X455727Y358407D03*
D14*
X228549Y358610D03*
D124*
X270307Y358610D03*
D14*
X309016Y358610D03*
D133*
X331673Y358610D03*
D37*
X354228Y358610D03*
D105*
X378917Y358610D03*
D124*
X404419Y358610D03*
D93*
X421081Y358610D03*
D19*
X436016Y358610D03*
D39*
X455930Y358610D03*
D126*
X228448Y358813D03*
D14*
X270408Y358813D03*
X309016Y358813D03*
D133*
X331673Y358813D03*
D37*
X354228Y358813D03*
D105*
X378917Y358813D03*
D122*
X404317Y358813D03*
D93*
X421081Y358813D03*
D19*
X436016Y358813D03*
D134*
X456235Y358813D03*
D126*
X228448Y359016D03*
D14*
X270408Y359016D03*
X309016Y359016D03*
D133*
X331673Y359016D03*
D34*
X354228Y359016D03*
D106*
X378917Y359016D03*
D120*
X404216Y359016D03*
D93*
X421081Y359016D03*
D19*
X436016Y359016D03*
D41*
X456438Y359016D03*
D126*
X228448Y359219D03*
X270510Y359219D03*
D14*
X309016Y359219D03*
D133*
X331673Y359219D03*
D31*
X354330Y359219D03*
D109*
X372923Y359219D03*
D23*
X384810Y359219D03*
D117*
X404114Y359219D03*
D93*
X421081Y359219D03*
D19*
X436016Y359219D03*
D127*
X456743Y359219D03*
D126*
X228448Y359423D03*
X270510Y359423D03*
D14*
X309016Y359423D03*
D133*
X331673Y359423D03*
D29*
X354228Y359423D03*
D109*
X372923Y359423D03*
D21*
X384912Y359423D03*
D116*
X404012Y359423D03*
D93*
X421081Y359423D03*
D19*
X436016Y359423D03*
D39*
X456946Y359423D03*
D135*
X228346Y359626D03*
D126*
X270510Y359626D03*
D14*
X309016Y359626D03*
D133*
X331673Y359626D03*
D25*
X354228Y359626D03*
D109*
X372923Y359626D03*
D93*
X384912Y359626D03*
D12*
X403911Y359626D03*
D93*
X421081Y359626D03*
D19*
X436016Y359626D03*
D39*
X457149Y359626D03*
D135*
X228346Y359829D03*
D126*
X270510Y359829D03*
D14*
X309016Y359829D03*
D133*
X331673Y359829D03*
D25*
X354228Y359829D03*
D19*
X373024Y359829D03*
D93*
X384912Y359829D03*
D114*
X403809Y359829D03*
D93*
X421081Y359829D03*
D19*
X436016Y359829D03*
D39*
X457352Y359829D03*
D135*
X228346Y360032D03*
D126*
X270510Y360032D03*
D14*
X309016Y360032D03*
D133*
X331673Y360032D03*
D25*
X354228Y360032D03*
D93*
X373126Y360032D03*
D19*
X384810Y360032D03*
D112*
X403708Y360032D03*
D93*
X421081Y360032D03*
D19*
X436016Y360032D03*
D39*
X457556Y360032D03*
D135*
X228346Y360235D03*
D126*
X270510Y360235D03*
D14*
X309016Y360235D03*
D133*
X331673Y360235D03*
D109*
X354228Y360235D03*
D93*
X373126Y360235D03*
D109*
X384708Y360235D03*
D110*
X403606Y360235D03*
D93*
X421081Y360235D03*
D19*
X436016Y360235D03*
D127*
X457759Y360235D03*
D135*
X228346Y360439D03*
D126*
X270510Y360439D03*
D14*
X309016Y360439D03*
D133*
X331673Y360439D03*
D109*
X354228Y360439D03*
D19*
X373228Y360439D03*
D104*
X384607Y360439D03*
D118*
X403504Y360439D03*
D93*
X421081Y360439D03*
D19*
X436016Y360439D03*
D39*
X457962Y360439D03*
D135*
X228346Y360642D03*
D126*
X270510Y360642D03*
D14*
X309016Y360642D03*
D133*
X331673Y360642D03*
D23*
X354330Y360642D03*
D93*
X373329Y360642D03*
D104*
X384607Y360642D03*
D107*
X403403Y360642D03*
D93*
X421081Y360642D03*
D19*
X436016Y360642D03*
D39*
X458165Y360642D03*
D135*
X228346Y360845D03*
D126*
X270510Y360845D03*
D14*
X309016Y360845D03*
D133*
X331673Y360845D03*
D25*
X354228Y360845D03*
D93*
X373329Y360845D03*
D109*
X384505Y360845D03*
D107*
X403403Y360845D03*
D93*
X421081Y360845D03*
D19*
X436016Y360845D03*
D39*
X458368Y360845D03*
D135*
X228346Y361048D03*
D126*
X270510Y361048D03*
D14*
X309016Y361048D03*
D133*
X331673Y361048D03*
D29*
X354228Y361048D03*
D104*
X373431Y361048D03*
D19*
X384404Y361048D03*
D105*
X403301Y361048D03*
D93*
X421081Y361048D03*
D19*
X436016Y361048D03*
D39*
X458572Y361048D03*
D126*
X228448Y361251D03*
X270510Y361251D03*
D14*
X309016Y361251D03*
D133*
X331673Y361251D03*
D29*
X354228Y361251D03*
D104*
X373431Y361251D03*
D19*
X384404Y361251D03*
D105*
X403301Y361251D03*
D93*
X421081Y361251D03*
D19*
X436016Y361251D03*
D127*
X458775Y361251D03*
D14*
X228549Y361455D03*
D126*
X270510Y361455D03*
D14*
X309016Y361455D03*
D133*
X331673Y361455D03*
D125*
X354127Y361455D03*
D93*
X373532Y361455D03*
D19*
X384404Y361455D03*
D107*
X403403Y361455D03*
D93*
X421081Y361455D03*
D19*
X436016Y361455D03*
D39*
X458978Y361455D03*
D126*
X228448Y361658D03*
X270510Y361658D03*
D14*
X309016Y361658D03*
D133*
X331673Y361658D03*
D34*
X354228Y361658D03*
D93*
X373532Y361658D03*
D19*
X384200Y361658D03*
D118*
X403504Y361658D03*
D93*
X421081Y361658D03*
D19*
X436016Y361658D03*
D39*
X459181Y361658D03*
D14*
X228549Y361861D03*
X270408Y361861D03*
X309016Y361861D03*
D133*
X331673Y361861D03*
D34*
X354228Y361861D03*
D19*
X373634Y361861D03*
D93*
X384099Y361861D03*
D110*
X403606Y361861D03*
D93*
X421081Y361861D03*
D19*
X436016Y361861D03*
D39*
X459384Y361861D03*
D124*
X228651Y362064D03*
D14*
X270408Y362064D03*
X309016Y362064D03*
D133*
X331673Y362064D03*
D37*
X354228Y362064D03*
D93*
X373736Y362064D03*
D19*
X384200Y362064D03*
D112*
X403708Y362064D03*
D93*
X421081Y362064D03*
D19*
X436016Y362064D03*
D39*
X459588Y362064D03*
D124*
X228651Y362267D03*
X270307Y362267D03*
D14*
X309016Y362267D03*
D133*
X331673Y362267D03*
D37*
X354228Y362267D03*
D93*
X373736Y362267D03*
X384099Y362267D03*
D114*
X403809Y362267D03*
D93*
X421081Y362267D03*
D19*
X436016Y362267D03*
D127*
X459791Y362267D03*
D122*
X228752Y362471D03*
D124*
X270307Y362471D03*
D14*
X309016Y362471D03*
D133*
X331673Y362471D03*
D134*
X354228Y362471D03*
D93*
X373736Y362471D03*
X383896Y362471D03*
D114*
X403809Y362471D03*
D93*
X421081Y362471D03*
D19*
X436016Y362471D03*
D39*
X459994Y362471D03*
D122*
X228752Y362674D03*
X270205Y362674D03*
D14*
X309016Y362674D03*
D106*
X331572Y362674D03*
D44*
X354127Y362674D03*
D93*
X373939Y362674D03*
X383896Y362674D03*
D12*
X403911Y362674D03*
D93*
X421081Y362674D03*
D19*
X436016Y362674D03*
D41*
X460502Y362674D03*
D122*
X228752Y362877D03*
X270205Y362877D03*
D93*
X301396Y362877D03*
D104*
X316535Y362877D03*
D109*
X325577Y362877D03*
D45*
X354228Y362877D03*
D93*
X373939Y362877D03*
X383896Y362877D03*
D21*
X397104Y362877D03*
D132*
X410515Y362877D03*
D93*
X421081Y362877D03*
D19*
X436016Y362877D03*
D134*
X460705Y362877D03*
D120*
X228854Y363080D03*
X270104Y363080D03*
D17*
X301295Y363080D03*
D93*
X316636Y363080D03*
D19*
X325476Y363080D03*
D130*
X354228Y363080D03*
D93*
X373939Y363080D03*
X383896Y363080D03*
D19*
X397002Y363080D03*
D29*
X410718Y363080D03*
D93*
X421081Y363080D03*
D19*
X436016Y363080D03*
D134*
X460908Y363080D03*
D120*
X228854Y363283D03*
D86*
X249580Y363283D03*
D117*
X270002Y363283D03*
D17*
X301295Y363283D03*
D93*
X316636Y363283D03*
X325374Y363283D03*
D136*
X354330Y363283D03*
D19*
X374040Y363283D03*
X383794Y363283D03*
D93*
X396900Y363283D03*
D19*
X411226Y363283D03*
D93*
X421081Y363283D03*
D19*
X436016Y363283D03*
D41*
X461112Y363283D03*
D117*
X228956Y363487D03*
D66*
X249479Y363487D03*
D116*
X269900Y363487D03*
D17*
X301295Y363487D03*
D93*
X316636Y363487D03*
D17*
X325272Y363487D03*
D52*
X354228Y363487D03*
D19*
X374244Y363487D03*
D93*
X383692Y363487D03*
X396900Y363487D03*
D17*
X411429Y363487D03*
D93*
X421081Y363487D03*
D19*
X436016Y363487D03*
D134*
X461315Y363487D03*
D116*
X229057Y363690D03*
D66*
X249479Y363690D03*
D116*
X269900Y363690D03*
D17*
X301295Y363690D03*
D93*
X316636Y363690D03*
D17*
X325272Y363690D03*
D55*
X354228Y363690D03*
D19*
X374244Y363690D03*
D93*
X383692Y363690D03*
X396900Y363690D03*
D17*
X411632Y363690D03*
D93*
X421081Y363690D03*
D19*
X436016Y363690D03*
D41*
X461518Y363690D03*
D116*
X229057Y363893D03*
D66*
X249479Y363893D03*
D12*
X269799Y363893D03*
D17*
X301295Y363893D03*
D93*
X316636Y363893D03*
D17*
X325272Y363893D03*
D55*
X354228Y363893D03*
D19*
X374244Y363893D03*
D104*
X383591Y363893D03*
D93*
X396900Y363893D03*
D15*
X411734Y363893D03*
D93*
X421081Y363893D03*
D19*
X436016Y363893D03*
D134*
X461721Y363893D03*
D12*
X229159Y364096D03*
D66*
X249479Y364096D03*
D12*
X269799Y364096D03*
D17*
X301295Y364096D03*
D93*
X316636Y364096D03*
D17*
X325272Y364096D03*
D60*
X354228Y364096D03*
D104*
X374447Y364096D03*
D93*
X383489Y364096D03*
X396900Y364096D03*
D15*
X411734Y364096D03*
D93*
X421081Y364096D03*
D19*
X436016Y364096D03*
D134*
X461924Y364096D03*
D12*
X229159Y364299D03*
D66*
X249479Y364299D03*
D114*
X269697Y364299D03*
D17*
X301295Y364299D03*
D93*
X316636Y364299D03*
D17*
X325272Y364299D03*
D60*
X354228Y364299D03*
D104*
X374447Y364299D03*
D93*
X383489Y364299D03*
X396900Y364299D03*
D15*
X411937Y364299D03*
D93*
X421081Y364299D03*
D19*
X436016Y364299D03*
D41*
X462128Y364299D03*
D114*
X229260Y364503D03*
D66*
X249479Y364503D03*
D112*
X269596Y364503D03*
D17*
X301295Y364503D03*
D93*
X316636Y364503D03*
D17*
X325272Y364503D03*
D64*
X354228Y364503D03*
D104*
X374447Y364503D03*
D19*
X383388Y364503D03*
D93*
X396900Y364503D03*
D15*
X411937Y364503D03*
D93*
X421081Y364503D03*
D19*
X436016Y364503D03*
D134*
X462331Y364503D03*
D114*
X229260Y364706D03*
D66*
X249479Y364706D03*
D112*
X269596Y364706D03*
D17*
X301295Y364706D03*
D93*
X316636Y364706D03*
D17*
X325272Y364706D03*
D64*
X354228Y364706D03*
D93*
X374548Y364706D03*
X383286Y364706D03*
X396900Y364706D03*
D15*
X411937Y364706D03*
D93*
X421081Y364706D03*
D19*
X436016Y364706D03*
D41*
X462534Y364706D03*
D112*
X229362Y364909D03*
D66*
X249479Y364909D03*
D112*
X269596Y364909D03*
D17*
X301295Y364909D03*
D93*
X316636Y364909D03*
D17*
X325272Y364909D03*
D66*
X354127Y364909D03*
D93*
X374752Y364909D03*
X383286Y364909D03*
X396900Y364909D03*
D15*
X411937Y364909D03*
D93*
X421081Y364909D03*
D19*
X436016Y364909D03*
D134*
X462737Y364909D03*
D110*
X229464Y365112D03*
D66*
X249479Y365112D03*
D110*
X269494Y365112D03*
D17*
X301295Y365112D03*
D93*
X316636Y365112D03*
D17*
X325272Y365112D03*
D86*
X354228Y365112D03*
D19*
X374650Y365112D03*
X383184Y365112D03*
D93*
X396900Y365112D03*
D15*
X411937Y365112D03*
D93*
X421081Y365112D03*
D19*
X436016Y365112D03*
D134*
X462940Y365112D03*
D118*
X229565Y365315D03*
D66*
X249479Y365315D03*
D110*
X269494Y365315D03*
D17*
X301295Y365315D03*
D93*
X316636Y365315D03*
D17*
X325272Y365315D03*
D86*
X354228Y365315D03*
D93*
X374752Y365315D03*
D109*
X383083Y365315D03*
D93*
X396900Y365315D03*
D137*
X412039Y365315D03*
D93*
X421081Y365315D03*
D19*
X436016Y365315D03*
D41*
X463144Y365315D03*
D118*
X229565Y365519D03*
D66*
X249479Y365519D03*
D118*
X269392Y365519D03*
D17*
X301295Y365519D03*
D93*
X316636Y365519D03*
D17*
X325272Y365519D03*
D70*
X354228Y365519D03*
D93*
X374955Y365519D03*
D19*
X382981Y365519D03*
D93*
X396900Y365519D03*
D137*
X412039Y365519D03*
D93*
X421081Y365519D03*
D19*
X436016Y365519D03*
D39*
X463245Y365519D03*
D107*
X229667Y365722D03*
D66*
X249479Y365722D03*
D118*
X269392Y365722D03*
D17*
X301295Y365722D03*
D93*
X316636Y365722D03*
D17*
X325272Y365722D03*
D19*
X351282Y365722D03*
D93*
X357073Y365722D03*
X374955Y365722D03*
D19*
X382981Y365722D03*
D93*
X396900Y365722D03*
D137*
X412039Y365722D03*
D93*
X421081Y365722D03*
D19*
X436016Y365722D03*
D39*
X463448Y365722D03*
D107*
X229667Y365925D03*
D66*
X249479Y365925D03*
D107*
X269291Y365925D03*
D17*
X301295Y365925D03*
D93*
X316636Y365925D03*
D17*
X325272Y365925D03*
D93*
X351180Y365925D03*
X357276Y365925D03*
X374955Y365925D03*
D19*
X382981Y365925D03*
D93*
X396900Y365925D03*
D15*
X412140Y365925D03*
D93*
X421081Y365925D03*
D19*
X436016Y365925D03*
D39*
X463652Y365925D03*
D105*
X229768Y366128D03*
D66*
X249479Y366128D03*
D105*
X269189Y366128D03*
D17*
X301295Y366128D03*
D93*
X316636Y366128D03*
D17*
X325272Y366128D03*
D104*
X351079Y366128D03*
D93*
X357480Y366128D03*
D19*
X375056Y366128D03*
X382778Y366128D03*
D93*
X396900Y366128D03*
D15*
X412140Y366128D03*
D93*
X421081Y366128D03*
D19*
X436016Y366128D03*
D37*
X463753Y366128D03*
D101*
X229870Y366331D03*
D66*
X249479Y366331D03*
D101*
X269088Y366331D03*
D17*
X301295Y366331D03*
D93*
X316636Y366331D03*
D17*
X325272Y366331D03*
D93*
X350977Y366331D03*
D19*
X357581Y366331D03*
D93*
X375158Y366331D03*
D19*
X382778Y366331D03*
D93*
X396900Y366331D03*
D15*
X412140Y366331D03*
D93*
X421081Y366331D03*
D19*
X436016Y366331D03*
D34*
X463956Y366331D03*
D101*
X229870Y366535D03*
D66*
X249479Y366535D03*
D101*
X269088Y366535D03*
D17*
X301295Y366535D03*
D93*
X316636Y366535D03*
D17*
X325272Y366535D03*
D93*
X350774Y366535D03*
X357683Y366535D03*
X375158Y366535D03*
D19*
X382778Y366535D03*
D93*
X396900Y366535D03*
D15*
X412140Y366535D03*
D93*
X421081Y366535D03*
D19*
X436016Y366535D03*
D34*
X464160Y366535D03*
D101*
X229870Y366738D03*
D66*
X249479Y366738D03*
D106*
X268986Y366738D03*
D17*
X301295Y366738D03*
D93*
X316636Y366738D03*
D17*
X325272Y366738D03*
D93*
X350571Y366738D03*
D19*
X357784Y366738D03*
D93*
X375158Y366738D03*
D104*
X382575Y366738D03*
D93*
X396900Y366738D03*
D17*
X412039Y366738D03*
D93*
X421081Y366738D03*
D19*
X436016Y366738D03*
D125*
X464261Y366738D03*
D106*
X229972Y366941D03*
D66*
X249479Y366941D03*
D106*
X268986Y366941D03*
D17*
X301295Y366941D03*
D93*
X316636Y366941D03*
D17*
X325272Y366941D03*
D93*
X350571Y366941D03*
X357886Y366941D03*
X375361Y366941D03*
D104*
X382575Y366941D03*
D93*
X396900Y366941D03*
D17*
X412039Y366941D03*
D93*
X421081Y366941D03*
D19*
X436016Y366941D03*
D132*
X464363Y366941D03*
D106*
X229972Y367144D03*
D66*
X249479Y367144D03*
D111*
X268884Y367144D03*
D17*
X301295Y367144D03*
D93*
X316636Y367144D03*
D17*
X325272Y367144D03*
D93*
X350368Y367144D03*
D19*
X357988Y367144D03*
D93*
X375361Y367144D03*
D104*
X382575Y367144D03*
D93*
X396900Y367144D03*
D17*
X412039Y367144D03*
D93*
X421081Y367144D03*
D19*
X436016Y367144D03*
D29*
X464566Y367144D03*
D111*
X230073Y367347D03*
D66*
X249479Y367347D03*
D111*
X268884Y367347D03*
D17*
X301295Y367347D03*
D93*
X316636Y367347D03*
D17*
X325272Y367347D03*
D93*
X350368Y367347D03*
X358089Y367347D03*
X375361Y367347D03*
D109*
X382473Y367347D03*
D93*
X396900Y367347D03*
D17*
X412039Y367347D03*
D93*
X421081Y367347D03*
D19*
X436016Y367347D03*
D27*
X464668Y367347D03*
D111*
X230073Y367551D03*
D66*
X249479Y367551D03*
D97*
X268783Y367551D03*
D17*
X301295Y367551D03*
D93*
X316636Y367551D03*
D17*
X325272Y367551D03*
D93*
X350164Y367551D03*
X358292Y367551D03*
X375564Y367551D03*
D19*
X382372Y367551D03*
D93*
X396900Y367551D03*
X411937Y367551D03*
X421081Y367551D03*
D19*
X436016Y367551D03*
D25*
X464769Y367551D03*
D97*
X230175Y367754D03*
D66*
X249479Y367754D03*
D100*
X268681Y367754D03*
D17*
X301295Y367754D03*
D93*
X316636Y367754D03*
D17*
X325272Y367754D03*
D93*
X350164Y367754D03*
X358292Y367754D03*
X375564Y367754D03*
X382270Y367754D03*
X396900Y367754D03*
D19*
X411836Y367754D03*
D93*
X421081Y367754D03*
D19*
X436016Y367754D03*
D25*
X464769Y367754D03*
D100*
X230276Y367957D03*
D66*
X249479Y367957D03*
D100*
X268681Y367957D03*
D17*
X301295Y367957D03*
D93*
X316636Y367957D03*
D17*
X325272Y367957D03*
D93*
X349961Y367957D03*
D19*
X358394Y367957D03*
D93*
X375564Y367957D03*
D19*
X382168Y367957D03*
D93*
X396900Y367957D03*
D19*
X411632Y367957D03*
D93*
X421081Y367957D03*
D19*
X436016Y367957D03*
D25*
X464769Y367957D03*
D103*
X230378Y368160D03*
D66*
X249479Y368160D03*
D103*
X268580Y368160D03*
D17*
X301295Y368160D03*
D93*
X316636Y368160D03*
D17*
X325272Y368160D03*
D93*
X349961Y368160D03*
X358496Y368160D03*
X375768Y368160D03*
D19*
X382168Y368160D03*
D93*
X396900Y368160D03*
D109*
X411531Y368160D03*
D93*
X421081Y368160D03*
D19*
X436016Y368160D03*
D25*
X464769Y368160D03*
D103*
X230378Y368363D03*
D66*
X249479Y368363D03*
D103*
X268580Y368363D03*
D17*
X301295Y368363D03*
D93*
X316636Y368363D03*
X325374Y368363D03*
D19*
X349860Y368363D03*
D93*
X358496Y368363D03*
D19*
X375869Y368363D03*
D93*
X382067Y368363D03*
X396900Y368363D03*
D23*
X411429Y368363D03*
D93*
X421081Y368363D03*
X435915Y368363D03*
D25*
X464769Y368363D03*
D99*
X230480Y368567D03*
D66*
X249479Y368567D03*
D103*
X268580Y368567D03*
D17*
X301295Y368567D03*
D93*
X316636Y368567D03*
D19*
X325476Y368567D03*
D93*
X349758Y368567D03*
X358699Y368567D03*
D19*
X375869Y368567D03*
D93*
X382067Y368567D03*
X396900Y368567D03*
D27*
X411226Y368567D03*
D93*
X421081Y368567D03*
D19*
X436016Y368567D03*
D118*
X458775Y368567D03*
D99*
X230480Y368770D03*
D66*
X249479Y368770D03*
D99*
X268478Y368770D03*
D17*
X301295Y368770D03*
D93*
X316636Y368770D03*
D109*
X325577Y368770D03*
D19*
X349656Y368770D03*
D17*
X358800Y368770D03*
D79*
X378917Y368770D03*
D19*
X397002Y368770D03*
D39*
X410616Y368770D03*
D93*
X421081Y368770D03*
D25*
X436118Y368770D03*
D110*
X458673Y368770D03*
D95*
X230581Y368973D03*
D66*
X249479Y368973D03*
D99*
X268478Y368973D03*
D17*
X301295Y368973D03*
D93*
X316636Y368973D03*
D118*
X331978Y368973D03*
D19*
X349453Y368973D03*
D93*
X358902Y368973D03*
D73*
X378917Y368973D03*
D122*
X404317Y368973D03*
D93*
X421081Y368973D03*
D12*
X436016Y368973D03*
D110*
X458673Y368973D03*
D95*
X230581Y369176D03*
D66*
X249479Y369176D03*
D95*
X268376Y369176D03*
D17*
X301295Y369176D03*
D93*
X316636Y369176D03*
D118*
X332181Y369176D03*
D93*
X349352Y369176D03*
X359105Y369176D03*
D73*
X378917Y369176D03*
D120*
X404216Y369176D03*
D93*
X421081Y369176D03*
D12*
X436016Y369176D03*
D110*
X458673Y369176D03*
D96*
X230683Y369379D03*
D66*
X249479Y369379D03*
D96*
X268275Y369379D03*
D17*
X301295Y369379D03*
D93*
X316636Y369379D03*
D118*
X332181Y369379D03*
D93*
X349352Y369379D03*
D104*
X359207Y369379D03*
D73*
X378917Y369379D03*
D120*
X404216Y369379D03*
D93*
X421081Y369379D03*
D12*
X436016Y369379D03*
D110*
X458673Y369379D03*
D123*
X230784Y369583D03*
D66*
X249479Y369583D03*
D123*
X268173Y369583D03*
D17*
X301295Y369583D03*
D93*
X316636Y369583D03*
D118*
X332181Y369583D03*
D93*
X349148Y369583D03*
X359308Y369583D03*
D69*
X378917Y369583D03*
D120*
X404216Y369583D03*
D93*
X421081Y369583D03*
D12*
X436016Y369583D03*
D110*
X458673Y369583D03*
D123*
X230784Y369786D03*
D66*
X249479Y369786D03*
D123*
X268173Y369786D03*
D17*
X301295Y369786D03*
D93*
X316636Y369786D03*
D118*
X332181Y369786D03*
D93*
X348945Y369786D03*
D19*
X359410Y369786D03*
D68*
X379019Y369786D03*
D117*
X404114Y369786D03*
D93*
X421081Y369786D03*
D12*
X436016Y369786D03*
D110*
X458673Y369786D03*
D121*
X230886Y369989D03*
D66*
X249479Y369989D03*
D121*
X268072Y369989D03*
D17*
X301295Y369989D03*
D93*
X316636Y369989D03*
D107*
X332283Y369989D03*
D93*
X348945Y369989D03*
X359512Y369989D03*
D69*
X378917Y369989D03*
D117*
X404114Y369989D03*
D93*
X421081Y369989D03*
D12*
X436016Y369989D03*
D118*
X458572Y369989D03*
D119*
X230988Y370192D03*
D66*
X249479Y370192D03*
D121*
X268072Y370192D03*
D17*
X301295Y370192D03*
D93*
X316636Y370192D03*
D107*
X332283Y370192D03*
D93*
X348742Y370192D03*
D19*
X359613Y370192D03*
D68*
X379019Y370192D03*
D116*
X404012Y370192D03*
D93*
X421081Y370192D03*
D12*
X436016Y370192D03*
D118*
X458572Y370192D03*
D119*
X230988Y370395D03*
D66*
X249479Y370395D03*
D119*
X267970Y370395D03*
D17*
X301295Y370395D03*
D93*
X316636Y370395D03*
D107*
X332283Y370395D03*
D93*
X348742Y370395D03*
X359715Y370395D03*
D64*
X379019Y370395D03*
D116*
X404012Y370395D03*
D93*
X421081Y370395D03*
D12*
X436016Y370395D03*
D118*
X458572Y370395D03*
D92*
X231089Y370599D03*
D66*
X249479Y370599D03*
D92*
X267868Y370599D03*
D17*
X301295Y370599D03*
D93*
X316636Y370599D03*
D107*
X332283Y370599D03*
D93*
X348539Y370599D03*
X359918Y370599D03*
D64*
X379019Y370599D03*
D116*
X404012Y370599D03*
D93*
X421081Y370599D03*
D12*
X436016Y370599D03*
D118*
X458572Y370599D03*
D94*
X231191Y370802D03*
D66*
X249479Y370802D03*
D92*
X267868Y370802D03*
D17*
X301295Y370802D03*
D93*
X316636Y370802D03*
D105*
X332384Y370802D03*
D93*
X348539Y370802D03*
X359918Y370802D03*
D64*
X379019Y370802D03*
D12*
X403911Y370802D03*
D93*
X421081Y370802D03*
D12*
X436016Y370802D03*
D118*
X458572Y370802D03*
D94*
X231191Y371005D03*
D66*
X249479Y371005D03*
D94*
X267767Y371005D03*
D17*
X301295Y371005D03*
D93*
X316636Y371005D03*
D105*
X332384Y371005D03*
D93*
X348336Y371005D03*
X360121Y371005D03*
D64*
X379019Y371005D03*
D114*
X403809Y371005D03*
D93*
X421081Y371005D03*
D12*
X436016Y371005D03*
D107*
X458470Y371005D03*
D94*
X231191Y371208D03*
D66*
X249479Y371208D03*
D94*
X267767Y371208D03*
D17*
X301295Y371208D03*
D93*
X316636Y371208D03*
D101*
X332486Y371208D03*
D93*
X348336Y371208D03*
D17*
X360223Y371208D03*
D62*
X378917Y371208D03*
D112*
X403708Y371208D03*
D93*
X421081Y371208D03*
D12*
X436016Y371208D03*
D107*
X458470Y371208D03*
D115*
X231292Y371411D03*
D66*
X249479Y371411D03*
D115*
X267665Y371411D03*
D17*
X301295Y371411D03*
D93*
X316636Y371411D03*
D106*
X332588Y371411D03*
D93*
X348132Y371411D03*
X360324Y371411D03*
D60*
X379019Y371411D03*
D110*
X403606Y371411D03*
D93*
X421081Y371411D03*
D12*
X436016Y371411D03*
D105*
X458368Y371411D03*
D115*
X231292Y371615D03*
D66*
X249479Y371615D03*
D115*
X267665Y371615D03*
D17*
X301295Y371615D03*
D93*
X316636Y371615D03*
D111*
X332689Y371615D03*
D17*
X348031Y371615D03*
D93*
X360324Y371615D03*
D138*
X378917Y371615D03*
D110*
X403606Y371615D03*
D93*
X421081Y371615D03*
D12*
X436016Y371615D03*
D105*
X458368Y371615D03*
D113*
X231394Y371818D03*
D66*
X249479Y371818D03*
D113*
X267564Y371818D03*
D17*
X301295Y371818D03*
D93*
X316636Y371818D03*
D97*
X332791Y371818D03*
D93*
X347929Y371818D03*
D17*
X360426Y371818D03*
D55*
X379019Y371818D03*
D118*
X403504Y371818D03*
D93*
X421081Y371818D03*
D12*
X436016Y371818D03*
D133*
X458267Y371818D03*
D108*
X231496Y372021D03*
D66*
X249479Y372021D03*
D108*
X267462Y372021D03*
D17*
X301295Y372021D03*
D93*
X316636Y372021D03*
D100*
X332892Y372021D03*
D19*
X347828Y372021D03*
X360629Y372021D03*
D53*
X378917Y372021D03*
D105*
X403301Y372021D03*
D93*
X421081Y372021D03*
D12*
X436016Y372021D03*
D106*
X458165Y372021D03*
D108*
X231496Y372224D03*
D66*
X249479Y372224D03*
D102*
X267360Y372224D03*
D17*
X301295Y372224D03*
D93*
X316636Y372224D03*
D103*
X332994Y372224D03*
D93*
X347726Y372224D03*
X360731Y372224D03*
D49*
X378917Y372224D03*
D101*
X403200Y372224D03*
D93*
X421081Y372224D03*
D12*
X436016Y372224D03*
D111*
X458064Y372224D03*
D102*
X231597Y372427D03*
D66*
X249479Y372427D03*
D102*
X267360Y372427D03*
D17*
X301295Y372427D03*
D93*
X316636Y372427D03*
D99*
X333096Y372427D03*
D19*
X347624Y372427D03*
X360832Y372427D03*
D48*
X378917Y372427D03*
D106*
X403098Y372427D03*
D93*
X421081Y372427D03*
D12*
X436016Y372427D03*
D97*
X457962Y372427D03*
D102*
X231597Y372631D03*
D66*
X249479Y372631D03*
D98*
X267259Y372631D03*
D17*
X301295Y372631D03*
D93*
X316636Y372631D03*
D95*
X333197Y372631D03*
D19*
X347421Y372631D03*
D93*
X360934Y372631D03*
D44*
X378917Y372631D03*
D100*
X402793Y372631D03*
D93*
X421081Y372631D03*
D12*
X436016Y372631D03*
D139*
X457759Y372631D03*
D98*
X231699Y372834D03*
D66*
X249479Y372834D03*
D98*
X267259Y372834D03*
D17*
X301295Y372834D03*
D93*
X316636Y372834D03*
D123*
X333400Y372834D03*
D93*
X347320Y372834D03*
D19*
X361036Y372834D03*
D36*
X378917Y372834D03*
D99*
X402590Y372834D03*
D93*
X421081Y372834D03*
D12*
X436016Y372834D03*
D99*
X457657Y372834D03*
D91*
X231800Y373037D03*
D66*
X249479Y373037D03*
D98*
X267259Y373037D03*
D17*
X301295Y373037D03*
D93*
X316636Y373037D03*
D94*
X333807Y373037D03*
D93*
X347320Y373037D03*
X361137Y373037D03*
D23*
X378917Y373037D03*
D121*
X402184Y373037D03*
D93*
X421081Y373037D03*
D12*
X436016Y373037D03*
D123*
X457352Y373037D03*
D91*
X231800Y373240D03*
D66*
X249479Y373240D03*
D91*
X267157Y373240D03*
D15*
X301193Y373240D03*
D93*
X316636Y373240D03*
D140*
X333807Y373240D03*
D15*
X347320Y373240D03*
X361137Y373240D03*
D93*
X379019Y373240D03*
D119*
X402082Y373240D03*
D15*
X421081Y373240D03*
D114*
X435915Y373240D03*
D141*
X457251Y373240D03*
D90*
X231902Y373443D03*
D66*
X249479Y373443D03*
D91*
X267157Y373443D03*
D13*
X301193Y373443D03*
D142*
X316738Y373443D03*
D78*
X334416Y373443D03*
D143*
X347218Y373443D03*
X361239Y373443D03*
D144*
X379019Y373443D03*
D145*
X401371Y373443D03*
D13*
X421081Y373443D03*
D131*
X435915Y373443D03*
D98*
X456641Y373443D03*
D89*
X232004Y373647D03*
D66*
X249479Y373647D03*
D90*
X267056Y373647D03*
D89*
X232004Y373850D03*
D66*
X249479Y373850D03*
D89*
X266954Y373850D03*
D88*
X232105Y374053D03*
D66*
X249479Y374053D03*
D89*
X266954Y374053D03*
D88*
X232105Y374256D03*
D66*
X249479Y374256D03*
D88*
X266852Y374256D03*
D78*
X232207Y374459D03*
D66*
X249479Y374459D03*
D88*
X266852Y374459D03*
D87*
X232308Y374663D03*
D66*
X249479Y374663D03*
D78*
X266751Y374663D03*
D87*
X232308Y374866D03*
D66*
X249479Y374866D03*
D78*
X266751Y374866D03*
D87*
X232308Y375069D03*
D66*
X249479Y375069D03*
D87*
X266649Y375069D03*
D83*
X232410Y375272D03*
D66*
X249479Y375272D03*
D83*
X266548Y375272D03*
X232410Y375475D03*
D66*
X249479Y375475D03*
D77*
X266446Y375475D03*
X232512Y375679D03*
D66*
X249479Y375679D03*
D77*
X266446Y375679D03*
X232512Y375882D03*
D86*
X249377Y375882D03*
D80*
X266344Y375882D03*
D146*
X232715Y376085D03*
D86*
X249377Y376085D03*
D80*
X266344Y376085D03*
X232816Y376288D03*
D86*
X249377Y376288D03*
D85*
X266243Y376288D03*
X232918Y376491D03*
D147*
X249276Y376491D03*
D81*
X266141Y376491D03*
D85*
X232918Y376695D03*
D147*
X249276Y376695D03*
D81*
X266141Y376695D03*
D85*
X233121Y376898D03*
D147*
X249276Y376898D03*
D81*
X266141Y376898D03*
D80*
X233223Y377101D03*
D70*
X249174Y377101D03*
D84*
X266040Y377101D03*
D85*
X233324Y377304D03*
D73*
X249072Y377304D03*
D84*
X266040Y377304D03*
D82*
X233629Y377507D03*
D76*
X248971Y377507D03*
D79*
X265938Y377507D03*
D82*
X233832Y377711D03*
D84*
X248768Y377711D03*
D79*
X265938Y377711D03*
D78*
X234239Y377914D03*
D80*
X248463Y377914D03*
D76*
X265836Y377914D03*
D148*
X241148Y378117D03*
D73*
X265735Y378117D03*
D72*
X241249Y378320D03*
D70*
X265633Y378320D03*
D72*
X241249Y378523D03*
D70*
X265633Y378523D03*
D72*
X241249Y378727D03*
D147*
X265532Y378727D03*
D71*
X241351Y378930D03*
D147*
X265532Y378930D03*
D67*
X241452Y379133D03*
D86*
X265430Y379133D03*
D65*
X241554Y379336D03*
D86*
X265430Y379336D03*
D65*
X241554Y379539D03*
D66*
X265328Y379539D03*
D149*
X241656Y379743D03*
D64*
X265227Y379743D03*
D149*
X241656Y379946D03*
D64*
X265227Y379946D03*
D61*
X241757Y380149D03*
D62*
X265125Y380149D03*
D61*
X241757Y380352D03*
D62*
X265125Y380352D03*
D59*
X241859Y380555D03*
D62*
X265125Y380555D03*
D58*
X241960Y380759D03*
D150*
X265024Y380759D03*
D58*
X241960Y380962D03*
D138*
X264922Y380962D03*
D56*
X242062Y381165D03*
D138*
X264922Y381165D03*
D56*
X242062Y381368D03*
D55*
X264820Y381368D03*
D151*
X242164Y381571D03*
D53*
X264719Y381571D03*
D151*
X242164Y381775D03*
D53*
X264719Y381775D03*
D51*
X242265Y381978D03*
D52*
X264617Y381978D03*
D50*
X242367Y382181D03*
D52*
X264617Y382181D03*
D47*
X242468Y382384D03*
D136*
X264516Y382384D03*
D47*
X242468Y382587D03*
D130*
X264414Y382587D03*
D46*
X242570Y382791D03*
D130*
X264414Y382791D03*
D46*
X242570Y382994D03*
D48*
X264312Y382994D03*
D46*
X242570Y383197D03*
D48*
X264312Y383197D03*
D152*
X242672Y383400D03*
D45*
X264211Y383400D03*
D152*
X242672Y383603D03*
D44*
X264109Y383603D03*
D42*
X242773Y383807D03*
D44*
X264109Y383807D03*
D40*
X242875Y384010D03*
D41*
X264008Y384010D03*
D40*
X242875Y384213D03*
D39*
X263906Y384213D03*
D38*
X242976Y384416D03*
D39*
X263906Y384416D03*
D38*
X242976Y384619D03*
D37*
X263804Y384619D03*
D35*
X243078Y384823D03*
D37*
X263804Y384823D03*
D153*
X243180Y385026D03*
D37*
X263804Y385026D03*
D32*
X243281Y385229D03*
D36*
X263703Y385229D03*
D32*
X243281Y385432D03*
D36*
X263703Y385432D03*
D30*
X243383Y385635D03*
D34*
X263601Y385635D03*
D30*
X243383Y385839D03*
D31*
X263500Y385839D03*
D28*
X243484Y386042D03*
D31*
X263500Y386042D03*
D28*
X243484Y386245D03*
D29*
X263398Y386245D03*
D26*
X243586Y386448D03*
D29*
X263398Y386448D03*
D154*
X243688Y386651D03*
D27*
X263296Y386651D03*
D154*
X243688Y386855D03*
D25*
X263195Y386855D03*
D22*
X243789Y387058D03*
D23*
X263093Y387058D03*
D155*
X243992Y387261D03*
D21*
X262992Y387261D03*
D18*
X244094Y387464D03*
D19*
X262890Y387464D03*
D135*
X244196Y387667D03*
D17*
X262687Y387667D03*
D14*
X244399Y387871D03*
D142*
X262484Y387871D03*
D128*
X244907Y388074D03*
D156*
X261976Y388074D03*
D116*
X244907Y388277D03*
D157*
X261976Y388277D03*
D158*
X387439Y294196D03*
X450177Y294196D03*
D159*
X387604Y294526D03*
X450342Y294526D03*
D160*
X387439Y294856D03*
X450177Y294856D03*
D161*
X387604Y295186D03*
X450342Y295186D03*
D162*
X387439Y295516D03*
X450177Y295516D03*
D163*
X387439Y295847D03*
X450177Y295847D03*
D164*
X384632Y296177D03*
X390246Y296177D03*
X447370Y296177D03*
X452984Y296177D03*
D165*
X384137Y296507D03*
D166*
X390576Y296507D03*
D165*
X446875Y296507D03*
D166*
X453314Y296507D03*
D158*
X384137Y296837D03*
D167*
X391071Y296837D03*
D158*
X446875Y296837D03*
D167*
X453809Y296837D03*
D168*
X384302Y297167D03*
D169*
X391236Y297167D03*
D168*
X447040Y297167D03*
D169*
X453974Y297167D03*
X391566Y297498D03*
X454304Y297498D03*
X391566Y297828D03*
X454304Y297828D03*
D170*
X391732Y298158D03*
X454470Y298158D03*
X391732Y298488D03*
X454470Y298488D03*
D158*
X256019Y298818D03*
D171*
X301917Y298818D03*
D158*
X327012Y298818D03*
X347815Y298818D03*
D171*
X387109Y298818D03*
D170*
X391732Y298818D03*
D171*
X403619Y298818D03*
D172*
X411048Y298818D03*
D171*
X449847Y298818D03*
D170*
X454470Y298818D03*
D171*
X462725Y298818D03*
D161*
X228778Y299149D03*
D170*
X240170Y299149D03*
X247434Y299149D03*
D173*
X256019Y299149D03*
D169*
X263449Y299149D03*
D167*
X270548Y299149D03*
D174*
X277152Y299149D03*
D169*
X291846Y299149D03*
D173*
X301917Y299149D03*
D170*
X310502Y299149D03*
D164*
X327177Y299149D03*
D169*
X332130Y299149D03*
D170*
X339560Y299149D03*
D173*
X347815Y299149D03*
D175*
X364655Y299149D03*
D170*
X378854Y299149D03*
D159*
X387274Y299149D03*
D169*
X391897Y299149D03*
D170*
X396354Y299149D03*
D164*
X403784Y299149D03*
D173*
X411213Y299149D03*
D170*
X415836Y299149D03*
D169*
X419964Y299149D03*
D170*
X430695Y299149D03*
X442252Y299149D03*
D159*
X450012Y299149D03*
D169*
X454635Y299149D03*
D173*
X462724Y299149D03*
D163*
X229603Y299479D03*
D170*
X240170Y299479D03*
X247434Y299479D03*
D176*
X255854Y299479D03*
D169*
X263449Y299479D03*
D165*
X270218Y299479D03*
D175*
X277152Y299479D03*
D169*
X291846Y299479D03*
D175*
X301917Y299479D03*
D170*
X310502Y299479D03*
D159*
X327177Y299479D03*
D169*
X332130Y299479D03*
D170*
X339560Y299479D03*
D176*
X347650Y299479D03*
D177*
X365811Y299479D03*
D170*
X378854Y299479D03*
D176*
X387274Y299479D03*
D169*
X391897Y299479D03*
D170*
X396354Y299479D03*
D159*
X403784Y299479D03*
D178*
X411213Y299479D03*
D170*
X415836Y299479D03*
D169*
X419964Y299479D03*
X430860Y299479D03*
X442087Y299479D03*
D176*
X450012Y299479D03*
D169*
X454635Y299479D03*
D176*
X462559Y299479D03*
D179*
X229933Y299809D03*
D170*
X240170Y299809D03*
X247434Y299809D03*
D180*
X256019Y299809D03*
D169*
X263449Y299809D03*
X270053Y299809D03*
D181*
X276987Y299809D03*
D169*
X291846Y299809D03*
D180*
X301917Y299809D03*
D170*
X310502Y299809D03*
D182*
X327177Y299809D03*
D169*
X332130Y299809D03*
D170*
X339560Y299809D03*
D180*
X347815Y299809D03*
D163*
X366306Y299809D03*
D170*
X378854Y299809D03*
D183*
X387274Y299809D03*
D169*
X391897Y299809D03*
D170*
X396354Y299809D03*
D182*
X403784Y299809D03*
D160*
X411213Y299809D03*
D170*
X415836Y299809D03*
D169*
X419964Y299809D03*
X430860Y299809D03*
X442087Y299809D03*
D183*
X450012Y299809D03*
D169*
X454635Y299809D03*
D180*
X462725Y299809D03*
D184*
X230099Y300139D03*
D170*
X240170Y300139D03*
X247434Y300139D03*
D185*
X256019Y300139D03*
D169*
X263449Y300139D03*
D165*
X269888Y300139D03*
D161*
X276987Y300139D03*
D169*
X291846Y300139D03*
D185*
X301917Y300139D03*
D170*
X310502Y300139D03*
D178*
X327012Y300139D03*
D169*
X332130Y300139D03*
D170*
X339560Y300139D03*
D185*
X347815Y300139D03*
D186*
X366801Y300139D03*
D170*
X378854Y300139D03*
D186*
X388264Y300139D03*
D170*
X396354Y300139D03*
D187*
X403619Y300139D03*
D163*
X412534Y300139D03*
D169*
X419964Y300139D03*
X431190Y300139D03*
X441757Y300139D03*
D186*
X451002Y300139D03*
D185*
X462724Y300139D03*
D188*
X230264Y300469D03*
D170*
X240170Y300469D03*
X247434Y300469D03*
D162*
X256019Y300469D03*
D169*
X263449Y300469D03*
D165*
X269557Y300469D03*
D177*
X276987Y300469D03*
D169*
X291846Y300469D03*
D189*
X301917Y300469D03*
D170*
X310502Y300469D03*
D187*
X326682Y300469D03*
D169*
X332130Y300469D03*
D170*
X339560Y300469D03*
D162*
X347815Y300469D03*
D188*
X366967Y300469D03*
D170*
X378854Y300469D03*
D188*
X388099Y300469D03*
D170*
X396354Y300469D03*
D187*
X403289Y300469D03*
D190*
X412369Y300469D03*
D169*
X419964Y300469D03*
X431190Y300469D03*
X441757Y300469D03*
D188*
X450837Y300469D03*
D189*
X462725Y300469D03*
D191*
X230429Y300800D03*
D170*
X240170Y300800D03*
X247434Y300800D03*
D174*
X253378Y300800D03*
X258661Y300800D03*
D169*
X263449Y300800D03*
D165*
X269227Y300800D03*
D192*
X276987Y300800D03*
D169*
X291846Y300800D03*
D174*
X299276Y300800D03*
X304559Y300800D03*
D170*
X310502Y300800D03*
D165*
X325691Y300800D03*
D193*
X328333Y300800D03*
D169*
X332130Y300800D03*
D170*
X339560Y300800D03*
D174*
X345173Y300800D03*
X350457Y300800D03*
D194*
X367297Y300800D03*
D170*
X378854Y300800D03*
D174*
X384797Y300800D03*
D178*
X390741Y300800D03*
D170*
X396354Y300800D03*
D165*
X402298Y300800D03*
D193*
X404939Y300800D03*
D169*
X409067Y300800D03*
D173*
X414845Y300800D03*
D169*
X419964Y300800D03*
X431190Y300800D03*
X441757Y300800D03*
D174*
X447535Y300800D03*
D178*
X453479Y300800D03*
D174*
X460083Y300800D03*
X465366Y300800D03*
D169*
X226466Y301130D03*
D174*
X234226Y301130D03*
D170*
X240170Y301130D03*
X247434Y301130D03*
D166*
X252882Y301130D03*
D195*
X259156Y301130D03*
D169*
X263449Y301130D03*
X269062Y301130D03*
D165*
X274180Y301130D03*
X279794Y301130D03*
D169*
X291846Y301130D03*
D195*
X298780Y301130D03*
X305054Y301130D03*
D170*
X310502Y301130D03*
X325361Y301130D03*
D169*
X332130Y301130D03*
D170*
X339560Y301130D03*
D195*
X344678Y301130D03*
D166*
X350952Y301130D03*
D169*
X363169Y301130D03*
D187*
X370599Y301130D03*
D170*
X378854Y301130D03*
D195*
X384302Y301130D03*
D173*
X391071Y301130D03*
D170*
X396354Y301130D03*
X401968Y301130D03*
D165*
X408902Y301130D03*
D164*
X415011Y301130D03*
D169*
X419964Y301130D03*
X431521Y301130D03*
X441427Y301130D03*
D195*
X447040Y301130D03*
D173*
X453809Y301130D03*
D195*
X459588Y301130D03*
D166*
X465861Y301130D03*
D170*
X226301Y301460D03*
D166*
X234721Y301460D03*
D170*
X240170Y301460D03*
X247434Y301460D03*
D169*
X252552Y301460D03*
D170*
X258991Y301460D03*
D169*
X263449Y301460D03*
X268732Y301460D03*
D167*
X273850Y301460D03*
D170*
X280124Y301460D03*
D169*
X291846Y301460D03*
X298450Y301460D03*
D167*
X305219Y301460D03*
D170*
X310502Y301460D03*
X325361Y301460D03*
D169*
X332130Y301460D03*
D170*
X339560Y301460D03*
D169*
X344348Y301460D03*
D170*
X350787Y301460D03*
X363004Y301460D03*
D164*
X371424Y301460D03*
D170*
X378854Y301460D03*
D166*
X383972Y301460D03*
D174*
X391401Y301460D03*
D170*
X396354Y301460D03*
X401968Y301460D03*
D169*
X408737Y301460D03*
D166*
X415341Y301460D03*
D169*
X419964Y301460D03*
X431521Y301460D03*
X441427Y301460D03*
D166*
X446710Y301460D03*
D174*
X454139Y301460D03*
D169*
X459257Y301460D03*
D170*
X465696Y301460D03*
X226301Y301790D03*
D169*
X235052Y301790D03*
D170*
X240170Y301790D03*
X247434Y301790D03*
D167*
X252387Y301790D03*
D196*
X258826Y301790D03*
D169*
X263449Y301790D03*
D165*
X268567Y301790D03*
D172*
X274015Y301790D03*
D169*
X280289Y301790D03*
X291846Y301790D03*
D165*
X298285Y301790D03*
X305549Y301790D03*
D170*
X310502Y301790D03*
D169*
X325196Y301790D03*
X332130Y301790D03*
D170*
X339560Y301790D03*
D165*
X344183Y301790D03*
D197*
X350622Y301790D03*
D170*
X363004Y301790D03*
D174*
X371920Y301790D03*
D170*
X378854Y301790D03*
D165*
X383807Y301790D03*
D166*
X391566Y301790D03*
D170*
X396354Y301790D03*
D169*
X401803Y301790D03*
X408737Y301790D03*
D165*
X415506Y301790D03*
D169*
X419964Y301790D03*
D170*
X431686Y301790D03*
X441262Y301790D03*
D165*
X446545Y301790D03*
D166*
X454304Y301790D03*
D165*
X459092Y301790D03*
D196*
X465531Y301790D03*
D170*
X226301Y302120D03*
D169*
X235382Y302120D03*
D170*
X240170Y302120D03*
X247434Y302120D03*
D169*
X252222Y302120D03*
X263449Y302120D03*
D165*
X268237Y302120D03*
D168*
X274345Y302120D03*
D169*
X280289Y302120D03*
X291846Y302120D03*
X298120Y302120D03*
X305714Y302120D03*
D170*
X310502Y302120D03*
X325031Y302120D03*
D169*
X332130Y302120D03*
D170*
X339560Y302120D03*
D169*
X344018Y302120D03*
D170*
X363004Y302120D03*
D166*
X372415Y302120D03*
D170*
X378854Y302120D03*
D169*
X383642Y302120D03*
D166*
X391566Y302120D03*
D170*
X396354Y302120D03*
X401638Y302120D03*
D169*
X408737Y302120D03*
D165*
X415506Y302120D03*
D169*
X419964Y302120D03*
X431851Y302120D03*
X441096Y302120D03*
X446380Y302120D03*
D166*
X454304Y302120D03*
D169*
X458927Y302120D03*
D170*
X226301Y302451D03*
D169*
X235382Y302451D03*
D170*
X240170Y302451D03*
X247434Y302451D03*
D169*
X251892Y302451D03*
X263449Y302451D03*
X268072Y302451D03*
X280289Y302451D03*
X291846Y302451D03*
X297790Y302451D03*
X306045Y302451D03*
D170*
X310502Y302451D03*
X325031Y302451D03*
D169*
X332130Y302451D03*
D170*
X339560Y302451D03*
D169*
X343687Y302451D03*
D170*
X363004Y302451D03*
D195*
X372745Y302451D03*
D170*
X378854Y302451D03*
D169*
X383311Y302451D03*
D165*
X391731Y302451D03*
D170*
X396354Y302451D03*
X401638Y302451D03*
D169*
X409067Y302451D03*
X415671Y302451D03*
X419964Y302451D03*
X431851Y302451D03*
X441096Y302451D03*
X446049Y302451D03*
D165*
X454469Y302451D03*
D169*
X458597Y302451D03*
D170*
X226301Y302781D03*
X235547Y302781D03*
X240170Y302781D03*
X247434Y302781D03*
D169*
X251892Y302781D03*
X263449Y302781D03*
X267741Y302781D03*
X280289Y302781D03*
X291846Y302781D03*
X297790Y302781D03*
X306045Y302781D03*
D170*
X310502Y302781D03*
X325031Y302781D03*
D169*
X332130Y302781D03*
D170*
X339560Y302781D03*
D169*
X343687Y302781D03*
D170*
X363004Y302781D03*
D169*
X373075Y302781D03*
D170*
X378854Y302781D03*
D169*
X383311Y302781D03*
D165*
X391731Y302781D03*
D170*
X396354Y302781D03*
X401638Y302781D03*
D167*
X409232Y302781D03*
D169*
X415671Y302781D03*
X419964Y302781D03*
X432181Y302781D03*
X440766Y302781D03*
X446049Y302781D03*
D165*
X454469Y302781D03*
D169*
X458597Y302781D03*
D170*
X226301Y303111D03*
D169*
X235712Y303111D03*
D170*
X240170Y303111D03*
X247434Y303111D03*
X251727Y303111D03*
D165*
X263614Y303111D03*
X267576Y303111D03*
X279794Y303111D03*
D169*
X291846Y303111D03*
D170*
X297625Y303111D03*
X306210Y303111D03*
X310502Y303111D03*
X325031Y303111D03*
D169*
X332130Y303111D03*
D170*
X339560Y303111D03*
D169*
X343687Y303111D03*
D170*
X363004Y303111D03*
D165*
X373240Y303111D03*
D170*
X378854Y303111D03*
D169*
X383311Y303111D03*
X391897Y303111D03*
D170*
X396354Y303111D03*
X401638Y303111D03*
D195*
X409397Y303111D03*
D169*
X415671Y303111D03*
X419964Y303111D03*
X432181Y303111D03*
X440766Y303111D03*
X446049Y303111D03*
X454635Y303111D03*
X458597Y303111D03*
D170*
X226301Y303441D03*
D169*
X235712Y303441D03*
D170*
X240170Y303441D03*
X247434Y303441D03*
X251727Y303441D03*
D195*
X263779Y303441D03*
D167*
X267246Y303441D03*
D164*
X279298Y303441D03*
D169*
X291846Y303441D03*
D170*
X297625Y303441D03*
X306210Y303441D03*
X310502Y303441D03*
X325031Y303441D03*
D169*
X332130Y303441D03*
D170*
X339560Y303441D03*
D191*
X347650Y303441D03*
D170*
X363004Y303441D03*
D169*
X373405Y303441D03*
D170*
X378854Y303441D03*
X383146Y303441D03*
D169*
X391897Y303441D03*
D170*
X396354Y303441D03*
X401638Y303441D03*
D164*
X410058Y303441D03*
D170*
X415836Y303441D03*
D169*
X419964Y303441D03*
D198*
X436474Y303441D03*
D170*
X445884Y303441D03*
D169*
X454635Y303441D03*
D191*
X462559Y303441D03*
D170*
X226301Y303771D03*
D169*
X235712Y303771D03*
D170*
X240170Y303771D03*
X247434Y303771D03*
D169*
X251562Y303771D03*
D160*
X265265Y303771D03*
D182*
X278308Y303771D03*
D169*
X291846Y303771D03*
X297459Y303771D03*
X306375Y303771D03*
D170*
X310502Y303771D03*
X325031Y303771D03*
D169*
X332130Y303771D03*
D170*
X339560Y303771D03*
D194*
X347485Y303771D03*
D170*
X363004Y303771D03*
D169*
X373736Y303771D03*
D170*
X378854Y303771D03*
D169*
X382981Y303771D03*
X391897Y303771D03*
D170*
X396354Y303771D03*
X401638Y303771D03*
D178*
X410553Y303771D03*
D170*
X415836Y303771D03*
D169*
X419964Y303771D03*
D191*
X436474Y303771D03*
D169*
X445719Y303771D03*
X454635Y303771D03*
D194*
X462394Y303771D03*
D170*
X226301Y304102D03*
D169*
X235712Y304102D03*
D170*
X240170Y304102D03*
X247434Y304102D03*
D169*
X251562Y304102D03*
D176*
X265100Y304102D03*
X277647Y304102D03*
D169*
X291846Y304102D03*
X297459Y304102D03*
X306375Y304102D03*
D170*
X310502Y304102D03*
X325031Y304102D03*
D169*
X332130Y304102D03*
D170*
X339560Y304102D03*
D194*
X347485Y304102D03*
D170*
X363004Y304102D03*
D169*
X373736Y304102D03*
D170*
X378854Y304102D03*
D169*
X382981Y304102D03*
X391897Y304102D03*
D170*
X396354Y304102D03*
X401638Y304102D03*
D176*
X411378Y304102D03*
D169*
X415671Y304102D03*
X419964Y304102D03*
D191*
X436474Y304102D03*
D169*
X445719Y304102D03*
X454635Y304102D03*
D194*
X462394Y304102D03*
D170*
X226301Y304432D03*
X235547Y304432D03*
X240170Y304432D03*
X247434Y304432D03*
D169*
X251562Y304432D03*
D176*
X265100Y304432D03*
D199*
X277152Y304432D03*
D169*
X291846Y304432D03*
X297459Y304432D03*
X306375Y304432D03*
D170*
X310502Y304432D03*
X325031Y304432D03*
D169*
X332130Y304432D03*
D170*
X339560Y304432D03*
D194*
X347485Y304432D03*
D170*
X363004Y304432D03*
D169*
X374066Y304432D03*
D170*
X378854Y304432D03*
D169*
X382981Y304432D03*
X391897Y304432D03*
D170*
X396354Y304432D03*
X401638Y304432D03*
D162*
X412864Y304432D03*
D169*
X419964Y304432D03*
D184*
X436474Y304432D03*
D169*
X445719Y304432D03*
X454635Y304432D03*
D194*
X462394Y304432D03*
D170*
X226301Y304762D03*
X235547Y304762D03*
X240170Y304762D03*
X247434Y304762D03*
D169*
X251562Y304762D03*
D175*
X264935Y304762D03*
D160*
X276492Y304762D03*
D169*
X291846Y304762D03*
X297459Y304762D03*
X306375Y304762D03*
D170*
X310502Y304762D03*
X325031Y304762D03*
D169*
X332130Y304762D03*
D170*
X339560Y304762D03*
D194*
X347485Y304762D03*
D170*
X363004Y304762D03*
D169*
X374066Y304762D03*
D170*
X378854Y304762D03*
D169*
X382981Y304762D03*
X391897Y304762D03*
D170*
X396354Y304762D03*
X401638Y304762D03*
D185*
X413194Y304762D03*
D169*
X419964Y304762D03*
D184*
X436474Y304762D03*
D169*
X445719Y304762D03*
X454635Y304762D03*
D194*
X462394Y304762D03*
D170*
X226301Y305092D03*
D169*
X235382Y305092D03*
D170*
X240170Y305092D03*
X247434Y305092D03*
D169*
X251562Y305092D03*
D182*
X264770Y305092D03*
D175*
X276162Y305092D03*
D169*
X291846Y305092D03*
X297459Y305092D03*
X306375Y305092D03*
D170*
X310502Y305092D03*
X325031Y305092D03*
D169*
X332130Y305092D03*
D170*
X339560Y305092D03*
D194*
X347485Y305092D03*
D170*
X363004Y305092D03*
X374231Y305092D03*
X378854Y305092D03*
D169*
X382981Y305092D03*
X391897Y305092D03*
D170*
X396354Y305092D03*
X401638Y305092D03*
D183*
X413690Y305092D03*
D169*
X419964Y305092D03*
D184*
X436474Y305092D03*
D169*
X445719Y305092D03*
X454635Y305092D03*
D194*
X462394Y305092D03*
D170*
X226301Y305422D03*
D169*
X235382Y305422D03*
D170*
X240170Y305422D03*
X247434Y305422D03*
X251727Y305422D03*
D182*
X264770Y305422D03*
D173*
X275171Y305422D03*
D169*
X291846Y305422D03*
D170*
X297625Y305422D03*
X306210Y305422D03*
X310502Y305422D03*
X325031Y305422D03*
D169*
X332130Y305422D03*
D170*
X339560Y305422D03*
X343522Y305422D03*
D169*
X351612Y305422D03*
D170*
X363004Y305422D03*
X374231Y305422D03*
X378854Y305422D03*
X383146Y305422D03*
D169*
X391897Y305422D03*
D170*
X396354Y305422D03*
X401638Y305422D03*
D175*
X414185Y305422D03*
D169*
X419964Y305422D03*
X433172Y305422D03*
X439776Y305422D03*
D170*
X445884Y305422D03*
D169*
X454635Y305422D03*
D170*
X458432Y305422D03*
D169*
X466522Y305422D03*
D170*
X226301Y305753D03*
D165*
X234886Y305753D03*
D170*
X240170Y305753D03*
X247434Y305753D03*
X251727Y305753D03*
D169*
X263449Y305753D03*
D165*
X266255Y305753D03*
D166*
X274345Y305753D03*
D169*
X291846Y305753D03*
D170*
X297625Y305753D03*
X306210Y305753D03*
X310502Y305753D03*
X325031Y305753D03*
D169*
X332130Y305753D03*
X339395Y305753D03*
X343687Y305753D03*
X351612Y305753D03*
D170*
X363004Y305753D03*
X374231Y305753D03*
X378854Y305753D03*
D169*
X383311Y305753D03*
X391897Y305753D03*
D170*
X396354Y305753D03*
X401638Y305753D03*
D164*
X415011Y305753D03*
D169*
X419964Y305753D03*
X433172Y305753D03*
X439776Y305753D03*
X446049Y305753D03*
X454635Y305753D03*
X458597Y305753D03*
X466522Y305753D03*
D170*
X226301Y306083D03*
D165*
X234556Y306083D03*
D170*
X240170Y306083D03*
X247434Y306083D03*
D169*
X251892Y306083D03*
X263449Y306083D03*
D165*
X266586Y306083D03*
D169*
X274015Y306083D03*
X291846Y306083D03*
X297790Y306083D03*
X306045Y306083D03*
D170*
X310502Y306083D03*
X325031Y306083D03*
D169*
X332130Y306083D03*
D170*
X339230Y306083D03*
D169*
X343687Y306083D03*
D170*
X351447Y306083D03*
X363004Y306083D03*
D169*
X374396Y306083D03*
D170*
X378854Y306083D03*
D169*
X383311Y306083D03*
D165*
X391731Y306083D03*
D170*
X396354Y306083D03*
X401638Y306083D03*
D166*
X415341Y306083D03*
D169*
X419964Y306083D03*
X433172Y306083D03*
X439776Y306083D03*
X446049Y306083D03*
D165*
X454469Y306083D03*
D169*
X458597Y306083D03*
D170*
X466357Y306083D03*
D194*
X230594Y306413D03*
D170*
X240170Y306413D03*
X247434Y306413D03*
D169*
X251892Y306413D03*
X263449Y306413D03*
D165*
X266916Y306413D03*
D169*
X274015Y306413D03*
X291846Y306413D03*
X297790Y306413D03*
X306045Y306413D03*
D170*
X310502Y306413D03*
X325031Y306413D03*
D169*
X332130Y306413D03*
D170*
X339230Y306413D03*
D169*
X343687Y306413D03*
D170*
X351447Y306413D03*
X363004Y306413D03*
D169*
X374396Y306413D03*
D170*
X378854Y306413D03*
D165*
X383476Y306413D03*
X391731Y306413D03*
D170*
X396354Y306413D03*
X401638Y306413D03*
D169*
X415671Y306413D03*
X419964Y306413D03*
X433502Y306413D03*
X439445Y306413D03*
D165*
X446214Y306413D03*
X454469Y306413D03*
D169*
X458597Y306413D03*
D170*
X466357Y306413D03*
D188*
X230264Y306743D03*
D169*
X240335Y306743D03*
D170*
X247434Y306743D03*
D169*
X252222Y306743D03*
X263449Y306743D03*
D167*
X267246Y306743D03*
D170*
X273850Y306743D03*
D169*
X291846Y306743D03*
X298120Y306743D03*
X305714Y306743D03*
X310667Y306743D03*
D170*
X325031Y306743D03*
D165*
X332295Y306743D03*
D170*
X339230Y306743D03*
D169*
X344018Y306743D03*
X351282Y306743D03*
D170*
X363004Y306743D03*
D169*
X374396Y306743D03*
D170*
X378854Y306743D03*
D169*
X383642Y306743D03*
D166*
X391566Y306743D03*
D170*
X396354Y306743D03*
X401638Y306743D03*
D168*
X410058Y306743D03*
D169*
X415671Y306743D03*
X419964Y306743D03*
X433502Y306743D03*
X439445Y306743D03*
X446380Y306743D03*
D166*
X454304Y306743D03*
D169*
X458927Y306743D03*
X466192Y306743D03*
D184*
X230099Y307073D03*
D169*
X240335Y307073D03*
D170*
X247434Y307073D03*
D167*
X252387Y307073D03*
D196*
X258826Y307073D03*
D169*
X263449Y307073D03*
D165*
X267576Y307073D03*
D170*
X273850Y307073D03*
D168*
X278968Y307073D03*
D169*
X291846Y307073D03*
D165*
X298285Y307073D03*
X305549Y307073D03*
D169*
X310667Y307073D03*
D170*
X325031Y307073D03*
D165*
X332295Y307073D03*
D169*
X339065Y307073D03*
D165*
X344183Y307073D03*
D170*
X351117Y307073D03*
X363004Y307073D03*
D169*
X374396Y307073D03*
D170*
X378854Y307073D03*
D165*
X383807Y307073D03*
D166*
X391566Y307073D03*
D170*
X396354Y307073D03*
X401638Y307073D03*
X409232Y307073D03*
X415506Y307073D03*
D169*
X419964Y307073D03*
D170*
X433667Y307073D03*
X439280Y307073D03*
D165*
X446545Y307073D03*
D166*
X454304Y307073D03*
D165*
X459092Y307073D03*
D170*
X466027Y307073D03*
D190*
X229768Y307404D03*
D165*
X240500Y307404D03*
D170*
X247434Y307404D03*
D169*
X252552Y307404D03*
D170*
X258991Y307404D03*
D169*
X263449Y307404D03*
D165*
X267906Y307404D03*
D169*
X274015Y307404D03*
D171*
X279464Y307404D03*
D169*
X291846Y307404D03*
D167*
X298615Y307404D03*
D169*
X305384Y307404D03*
D165*
X310832Y307404D03*
D170*
X325031Y307404D03*
D195*
X332461Y307404D03*
D165*
X338899Y307404D03*
X344513Y307404D03*
D169*
X350952Y307404D03*
D170*
X363004Y307404D03*
D169*
X374396Y307404D03*
D170*
X378854Y307404D03*
D166*
X383972Y307404D03*
D174*
X391401Y307404D03*
D170*
X396354Y307404D03*
X401638Y307404D03*
D169*
X409397Y307404D03*
D170*
X415506Y307404D03*
D169*
X419964Y307404D03*
X433832Y307404D03*
X439115Y307404D03*
D166*
X446710Y307404D03*
D174*
X454139Y307404D03*
D165*
X459422Y307404D03*
D169*
X465861Y307404D03*
D190*
X229768Y307734D03*
D195*
X240665Y307734D03*
D170*
X247434Y307734D03*
D166*
X252882Y307734D03*
D195*
X259156Y307734D03*
D169*
X263449Y307734D03*
D165*
X268237Y307734D03*
D169*
X274015Y307734D03*
X279629Y307734D03*
X291846Y307734D03*
D195*
X298780Y307734D03*
X305054Y307734D03*
X310998Y307734D03*
D170*
X325031Y307734D03*
D174*
X332626Y307734D03*
D165*
X338569Y307734D03*
D195*
X344678Y307734D03*
X350622Y307734D03*
D170*
X363004Y307734D03*
D169*
X374396Y307734D03*
D170*
X378854Y307734D03*
D195*
X384302Y307734D03*
D173*
X391071Y307734D03*
D170*
X396354Y307734D03*
X401638Y307734D03*
X409562Y307734D03*
X415506Y307734D03*
D169*
X419964Y307734D03*
X433832Y307734D03*
X439115Y307734D03*
D195*
X447040Y307734D03*
D173*
X453809Y307734D03*
D195*
X459588Y307734D03*
X465531Y307734D03*
D184*
X230099Y308064D03*
D164*
X240995Y308064D03*
D170*
X247434Y308064D03*
D174*
X253378Y308064D03*
X258661Y308064D03*
D169*
X263449Y308064D03*
D165*
X268567Y308064D03*
X274510Y308064D03*
D174*
X279133Y308064D03*
D176*
X292176Y308064D03*
D174*
X299276Y308064D03*
X304559Y308064D03*
D164*
X311328Y308064D03*
D160*
X325691Y308064D03*
D173*
X332956Y308064D03*
D174*
X338239Y308064D03*
X345173Y308064D03*
X350126Y308064D03*
D170*
X363004Y308064D03*
X374231Y308064D03*
X378854Y308064D03*
D174*
X384797Y308064D03*
D178*
X390741Y308064D03*
D170*
X396354Y308064D03*
D160*
X402298Y308064D03*
D165*
X409892Y308064D03*
X415176Y308064D03*
D169*
X419964Y308064D03*
D170*
X433997Y308064D03*
X438950Y308064D03*
D174*
X447535Y308064D03*
D178*
X453479Y308064D03*
D174*
X460083Y308064D03*
X465036Y308064D03*
D170*
X226301Y308394D03*
D165*
X233566Y308394D03*
D175*
X241821Y308394D03*
D170*
X247434Y308394D03*
D162*
X256019Y308394D03*
D169*
X263449Y308394D03*
D167*
X268897Y308394D03*
D185*
X276822Y308394D03*
D176*
X292176Y308394D03*
D189*
X301917Y308394D03*
D175*
X312153Y308394D03*
D160*
X325691Y308394D03*
D163*
X335267Y308394D03*
D177*
X347650Y308394D03*
D170*
X363004Y308394D03*
X374231Y308394D03*
X378854Y308394D03*
D188*
X388099Y308394D03*
D170*
X396354Y308394D03*
D160*
X402298Y308394D03*
D174*
X410553Y308394D03*
X414515Y308394D03*
D169*
X419964Y308394D03*
X434162Y308394D03*
X438785Y308394D03*
D188*
X450837Y308394D03*
D177*
X462559Y308394D03*
D170*
X226301Y308724D03*
D169*
X234061Y308724D03*
D176*
X241986Y308724D03*
D170*
X247434Y308724D03*
D185*
X256019Y308724D03*
D169*
X263449Y308724D03*
D165*
X269227Y308724D03*
D180*
X276822Y308724D03*
D176*
X292176Y308724D03*
D185*
X301917Y308724D03*
D176*
X312318Y308724D03*
D160*
X325691Y308724D03*
D163*
X335267Y308724D03*
D161*
X347650Y308724D03*
D170*
X363004Y308724D03*
X374231Y308724D03*
X378854Y308724D03*
D186*
X388264Y308724D03*
D170*
X396354Y308724D03*
D160*
X402298Y308724D03*
D180*
X412534Y308724D03*
D169*
X419964Y308724D03*
X434162Y308724D03*
D170*
X438620Y308724D03*
D186*
X451002Y308724D03*
D161*
X462559Y308724D03*
D170*
X226301Y309055D03*
D169*
X234391Y309055D03*
D170*
X240170Y309055D03*
D174*
X243142Y309055D03*
D170*
X247434Y309055D03*
D180*
X256019Y309055D03*
D169*
X263449Y309055D03*
D165*
X269557Y309055D03*
D160*
X276822Y309055D03*
D176*
X292176Y309055D03*
D180*
X301917Y309055D03*
D170*
X310502Y309055D03*
D174*
X313474Y309055D03*
D160*
X325691Y309055D03*
D169*
X332130Y309055D03*
D176*
X336423Y309055D03*
D183*
X347650Y309055D03*
D170*
X363004Y309055D03*
D169*
X374066Y309055D03*
D170*
X378854Y309055D03*
D183*
X387274Y309055D03*
D169*
X391897Y309055D03*
D170*
X396354Y309055D03*
D160*
X402298Y309055D03*
D181*
X412699Y309055D03*
D169*
X419964Y309055D03*
D170*
X434327Y309055D03*
X438620Y309055D03*
D183*
X450012Y309055D03*
D169*
X454635Y309055D03*
D183*
X462559Y309055D03*
D170*
X226301Y309385D03*
D169*
X234391Y309385D03*
D170*
X240170Y309385D03*
D195*
X243307Y309385D03*
D170*
X247434Y309385D03*
D176*
X255854Y309385D03*
D169*
X263449Y309385D03*
D165*
X269888Y309385D03*
D175*
X276822Y309385D03*
D176*
X292176Y309385D03*
D175*
X301917Y309385D03*
D170*
X310502Y309385D03*
D195*
X313639Y309385D03*
D160*
X325691Y309385D03*
D169*
X332130Y309385D03*
D182*
X336423Y309385D03*
D176*
X347650Y309385D03*
D170*
X363004Y309385D03*
D169*
X374066Y309385D03*
D170*
X378854Y309385D03*
D176*
X387274Y309385D03*
D169*
X391897Y309385D03*
D170*
X396354Y309385D03*
D160*
X402298Y309385D03*
D175*
X412534Y309385D03*
D169*
X419964Y309385D03*
X434492Y309385D03*
X438455Y309385D03*
D176*
X450012Y309385D03*
D169*
X454635Y309385D03*
D176*
X462559Y309385D03*
D170*
X226301Y309715D03*
D169*
X234721Y309715D03*
D170*
X240170Y309715D03*
D169*
X243637Y309715D03*
D170*
X247434Y309715D03*
D173*
X256019Y309715D03*
D169*
X263449Y309715D03*
D165*
X270218Y309715D03*
D173*
X276822Y309715D03*
D176*
X292176Y309715D03*
D173*
X301917Y309715D03*
D170*
X310502Y309715D03*
D169*
X313969Y309715D03*
D160*
X325691Y309715D03*
D169*
X332130Y309715D03*
D164*
X336423Y309715D03*
D159*
X347650Y309715D03*
D170*
X363004Y309715D03*
D169*
X373736Y309715D03*
D170*
X378854Y309715D03*
D159*
X387274Y309715D03*
D169*
X391897Y309715D03*
D170*
X396354Y309715D03*
D160*
X402298Y309715D03*
D159*
X412699Y309715D03*
D169*
X419964Y309715D03*
D170*
X434658Y309715D03*
X438290Y309715D03*
D159*
X450012Y309715D03*
D169*
X454635Y309715D03*
D159*
X462559Y309715D03*
D170*
X226301Y310045D03*
D169*
X234721Y310045D03*
D193*
X244132Y310045D03*
D158*
X256019Y310045D03*
D169*
X263449Y310045D03*
D158*
X276822Y310045D03*
D169*
X291846Y310045D03*
D171*
X301917Y310045D03*
D193*
X314465Y310045D03*
D170*
X325031Y310045D03*
D169*
X332130Y310045D03*
D158*
X336258Y310045D03*
X347815Y310045D03*
D170*
X363004Y310045D03*
D169*
X373736Y310045D03*
D171*
X387109Y310045D03*
D170*
X401638Y310045D03*
D196*
X412699Y310045D03*
D169*
X419964Y310045D03*
X434823Y310045D03*
X438125Y310045D03*
D171*
X449847Y310045D03*
X462725Y310045D03*
D170*
X226301Y310375D03*
D169*
X234721Y310375D03*
X263449Y310375D03*
X291846Y310375D03*
D170*
X325031Y310375D03*
D169*
X332130Y310375D03*
D170*
X363004Y310375D03*
D169*
X373405Y310375D03*
D170*
X401638Y310375D03*
D169*
X419964Y310375D03*
X434823Y310375D03*
X438125Y310375D03*
D170*
X226301Y310706D03*
D169*
X234721Y310706D03*
X263449Y310706D03*
X291846Y310706D03*
D170*
X325031Y310706D03*
D169*
X332130Y310706D03*
D170*
X363004Y310706D03*
D165*
X373240Y310706D03*
D170*
X401638Y310706D03*
D169*
X419964Y310706D03*
D170*
X434988Y310706D03*
X437960Y310706D03*
X226301Y311036D03*
D169*
X234721Y311036D03*
X263449Y311036D03*
X291846Y311036D03*
D170*
X325031Y311036D03*
D169*
X332130Y311036D03*
D170*
X363004Y311036D03*
D169*
X373075Y311036D03*
D170*
X401638Y311036D03*
D169*
X419964Y311036D03*
X435153Y311036D03*
X437794Y311036D03*
D170*
X226301Y311366D03*
D169*
X234721Y311366D03*
X263449Y311366D03*
X291846Y311366D03*
D170*
X325031Y311366D03*
D169*
X332130Y311366D03*
D170*
X363004Y311366D03*
D195*
X372745Y311366D03*
D170*
X401638Y311366D03*
D169*
X419964Y311366D03*
X435153Y311366D03*
D170*
X437629Y311366D03*
X226301Y311696D03*
X234556Y311696D03*
D169*
X263449Y311696D03*
X291846Y311696D03*
D170*
X325031Y311696D03*
D169*
X332130Y311696D03*
D170*
X363004Y311696D03*
D166*
X372415Y311696D03*
D170*
X401638Y311696D03*
D169*
X419964Y311696D03*
D200*
X436474Y311696D03*
D170*
X226301Y312026D03*
D169*
X234391Y312026D03*
D171*
X247434Y312026D03*
D169*
X263449Y312026D03*
D170*
X292011Y312026D03*
X325031Y312026D03*
D169*
X332130Y312026D03*
D170*
X363004Y312026D03*
D174*
X371920Y312026D03*
D171*
X378854Y312026D03*
D158*
X396354Y312026D03*
D170*
X401638Y312026D03*
D169*
X419964Y312026D03*
D200*
X436474Y312026D03*
D170*
X226301Y312357D03*
D167*
X234226Y312357D03*
D170*
X247434Y312357D03*
D169*
X263449Y312357D03*
D170*
X292011Y312357D03*
D196*
X325526Y312357D03*
D169*
X332130Y312357D03*
D170*
X363004Y312357D03*
D164*
X371424Y312357D03*
D170*
X378854Y312357D03*
X396354Y312357D03*
D196*
X402133Y312357D03*
D169*
X419964Y312357D03*
D164*
X436474Y312357D03*
D169*
X226466Y312687D03*
D166*
X233731Y312687D03*
D167*
X247434Y312687D03*
D169*
X263449Y312687D03*
D165*
X292341Y312687D03*
D196*
X295148Y312687D03*
D169*
X332130Y312687D03*
X363169Y312687D03*
D187*
X370599Y312687D03*
D165*
X378854Y312687D03*
X396354Y312687D03*
D169*
X419964Y312687D03*
D164*
X436474Y312687D03*
D188*
X230264Y313017D03*
D167*
X247434Y313017D03*
D169*
X263449Y313017D03*
D182*
X293497Y313017D03*
D169*
X332130Y313017D03*
D194*
X367297Y313017D03*
D165*
X378854Y313017D03*
X396354Y313017D03*
D169*
X419964Y313017D03*
D164*
X436474Y313017D03*
D184*
X230099Y313347D03*
D170*
X247434Y313347D03*
D169*
X263449Y313347D03*
D187*
X293662Y313347D03*
D169*
X332130Y313347D03*
D188*
X366967Y313347D03*
D170*
X378854Y313347D03*
X396354Y313347D03*
D169*
X419964Y313347D03*
D195*
X436474Y313347D03*
D179*
X229933Y313677D03*
D170*
X247434Y313677D03*
D169*
X263449Y313677D03*
D182*
X293827Y313677D03*
D169*
X332130Y313677D03*
D186*
X366801Y313677D03*
D170*
X378854Y313677D03*
X396354Y313677D03*
D169*
X419964Y313677D03*
D195*
X436474Y313677D03*
D190*
X229768Y314008D03*
D193*
X247434Y314008D03*
D169*
X263449Y314008D03*
D178*
X293992Y314008D03*
D169*
X332130Y314008D03*
D190*
X366471Y314008D03*
D193*
X378854Y314008D03*
X396354Y314008D03*
D169*
X419964Y314008D03*
X436474Y314008D03*
D192*
X229438Y314338D03*
D169*
X263449Y314338D03*
D174*
X293992Y314338D03*
D169*
X332130Y314338D03*
D162*
X365976Y314338D03*
D169*
X419964Y314338D03*
X436474Y314338D03*
D161*
X228778Y314668D03*
D169*
X263449Y314668D03*
D172*
X293827Y314668D03*
D169*
X332130Y314668D03*
D176*
X364820Y314668D03*
D169*
X419964Y314668D03*
X436474Y314668D03*
X419964Y314998D03*
X419964Y315328D03*
X419964Y315659D03*
M02*
